<svg width="420" height="324" viewBox="0 0 420 324" fill="none" xmlns="http://www.w3.org/2000/svg">
    <path d="M412.295 280.549C410.535 266.391 401.761 252.442 388.259 247.835C393.584 262.407 393.582 278.392 388.256 292.963C386.181 298.575 383.289 304.601 385.241 310.257C386.455 313.777 389.425 316.469 392.746 318.153C396.066 319.836 399.751 320.639 403.39 321.425L404.106 322.017C409.883 308.973 414.056 294.706 412.295 280.549Z" fill="#F0F0F0"/>
    <path d="M388.125 248.103C395.988 256.913 400.875 267.976 402.092 279.722C402.399 282.246 402.306 284.802 401.817 287.297C401.262 289.712 400.07 291.935 398.366 293.733C396.81 295.442 395.021 297.01 393.908 299.068C393.354 300.129 393.03 301.296 392.959 302.491C392.887 303.687 393.069 304.884 393.493 306.004C394.476 308.822 396.412 311.12 398.384 313.3C400.574 315.722 402.887 318.202 403.817 321.412C403.93 321.801 404.527 321.603 404.414 321.215C402.795 315.63 397.374 312.458 394.788 307.428C393.582 305.08 393.076 302.355 394.207 299.878C395.196 297.711 397.039 296.093 398.629 294.376C400.317 292.645 401.557 290.528 402.238 288.208C402.853 285.746 403.044 283.198 402.803 280.672C402.353 274.976 401.01 269.386 398.823 264.108C396.36 258.069 392.883 252.497 388.541 247.631C388.272 247.33 387.858 247.804 388.125 248.103Z" fill="white"/>
    <path d="M401.925 275.917C403.868 275.445 405.58 274.298 406.755 272.681C407.93 271.063 408.492 269.081 408.341 267.087C408.309 266.684 407.681 266.715 407.713 267.119C407.857 268.975 407.333 270.821 406.236 272.325C405.138 273.829 403.539 274.891 401.728 275.32C401.334 275.413 401.533 276.01 401.925 275.917Z" fill="white"/>
    <path d="M399.267 292.971C395.758 290.875 393.167 287.534 392.012 283.614C391.898 283.226 391.301 283.423 391.415 283.811C392.625 287.889 395.327 291.36 398.984 293.532C399.333 293.739 399.614 293.176 399.267 292.971Z" fill="white"/>
    <path d="M395.777 258.665C395.063 259.004 394.277 259.161 393.487 259.121C392.698 259.081 391.931 258.845 391.256 258.436C390.91 258.224 390.629 258.787 390.973 258.997C391.722 259.446 392.569 259.705 393.441 259.751C394.312 259.798 395.182 259.63 395.974 259.262C396.052 259.234 396.116 259.177 396.153 259.103C396.19 259.029 396.198 258.944 396.174 258.865C396.148 258.786 396.091 258.721 396.017 258.683C395.942 258.646 395.856 258.639 395.777 258.665Z" fill="white"/>
    <path d="M347.104 273.122C347.316 273.259 347.528 273.397 347.74 273.541C350.584 275.411 353.271 277.508 355.775 279.813C355.971 279.988 356.167 280.169 356.358 280.349C362.331 285.967 367.209 292.644 370.745 300.042C372.149 302.987 373.327 306.035 374.268 309.159C375.569 313.473 376.635 318.255 379.209 321.784C379.473 322.155 379.76 322.509 380.069 322.845H403.328C403.381 322.819 403.434 322.797 403.487 322.771L404.416 322.813C404.378 322.649 404.336 322.479 404.299 322.314C404.277 322.219 404.251 322.123 404.23 322.028C404.214 321.964 404.198 321.9 404.187 321.842C404.182 321.821 404.177 321.8 404.171 321.784C404.161 321.725 404.145 321.672 404.134 321.619C403.901 320.669 403.66 319.719 403.413 318.77C403.413 318.764 403.413 318.764 403.407 318.759C401.502 311.526 398.976 304.388 395.447 297.861C395.341 297.665 395.235 297.463 395.118 297.267C393.511 294.334 391.667 291.536 389.605 288.904C388.47 287.466 387.264 286.086 385.991 284.77C382.693 281.375 378.883 278.521 374.698 276.311C366.356 271.906 356.698 270.219 347.783 272.909C347.555 272.978 347.332 273.047 347.104 273.122Z" fill="#F0F0F0"/>
    <path d="M347.158 273.417C358.74 275.717 369.303 281.609 377.346 290.254C379.111 292.085 380.576 294.182 381.687 296.468C382.698 298.731 383.085 301.223 382.807 303.685C382.594 305.986 382.109 308.315 382.459 310.628C382.656 311.809 383.1 312.936 383.763 313.933C384.425 314.931 385.291 315.777 386.304 316.416C388.785 318.075 391.715 318.743 394.602 319.297C397.808 319.912 401.148 320.5 403.824 322.502C404.148 322.745 404.506 322.228 404.182 321.985C399.527 318.501 393.288 319.232 388.195 316.773C385.819 315.625 383.774 313.754 383.185 311.095C382.67 308.77 383.168 306.367 383.404 304.039C383.71 301.641 383.425 299.205 382.572 296.942C381.581 294.606 380.199 292.456 378.486 290.584C374.697 286.308 370.259 282.653 365.335 279.755C359.733 276.417 353.602 274.061 347.206 272.79C346.81 272.711 346.764 273.339 347.158 273.417Z" fill="white"/>
    <path d="M374.921 287.318C376.188 285.772 376.864 283.825 376.829 281.826C376.794 279.827 376.049 277.906 374.727 276.405C374.459 276.102 373.976 276.505 374.245 276.808C375.478 278.203 376.171 279.993 376.201 281.855C376.23 283.716 375.592 285.527 374.404 286.96C374.146 287.272 374.664 287.628 374.921 287.318Z" fill="white"/>
    <path d="M383.068 302.532C379.005 302.972 374.925 301.864 371.642 299.429C371.317 299.188 370.96 299.705 371.284 299.946C374.705 302.473 378.953 303.618 383.181 303.151C383.583 303.106 383.469 302.488 383.068 302.532Z" fill="white"/>
    <path d="M359.627 277.244C359.261 277.944 358.727 278.543 358.073 278.986C357.418 279.429 356.664 279.703 355.878 279.783C355.475 279.822 355.59 280.441 355.991 280.401C356.859 280.309 357.691 280.006 358.415 279.518C359.139 279.03 359.732 278.372 360.143 277.602C360.188 277.532 360.205 277.449 360.19 277.367C360.176 277.286 360.13 277.213 360.064 277.164C359.995 277.117 359.911 277.099 359.829 277.114C359.747 277.129 359.674 277.175 359.627 277.244Z" fill="white"/>
    <path d="M233.304 17.3004C232.743 17.9997 232.343 18.8135 232.131 19.6843C231.918 20.5552 231.9 21.462 232.076 22.3408C232.252 23.2197 232.619 24.0492 233.15 24.771C233.682 25.4928 234.365 26.0893 235.152 26.5185L231.566 48.0096L241.915 43.4168L243.733 23.7126C244.367 22.3429 244.476 20.7884 244.04 19.3437C243.603 17.899 242.652 16.6645 241.367 15.8741C240.081 15.0837 238.55 14.7923 237.064 15.0552C235.578 15.3181 234.24 16.117 233.304 17.3004Z" fill="#FFB8B8"/>
    <path d="M326.406 314.624L317.944 314.623L313.918 281.984L326.407 281.985L326.406 314.624Z" fill="#FFB8B8"/>
    <path d="M328.564 322.826L301.279 322.825V322.48C301.279 319.664 302.398 316.963 304.39 314.971C306.382 312.979 309.083 311.861 311.899 311.86H311.9L328.565 311.861L328.564 322.826Z" fill="#2F2E41"/>
    <path d="M269.624 314.624L261.162 314.623L257.137 281.984L269.626 281.985L269.624 314.624Z" fill="#FFB8B8"/>
    <path d="M271.781 322.826L244.496 322.825V322.48C244.496 319.664 245.615 316.963 247.607 314.971C249.598 312.979 252.3 311.861 255.116 311.86H255.117L271.782 311.861L271.781 322.826Z" fill="#2F2E41"/>
    <path d="M266.097 162.318L262.934 166.478C262.934 166.478 262.648 168.421 257.85 184.248L255.219 303.211H271.139L292.419 208.027L314.504 305.12L328.304 305.934L327.655 195.577C327.655 195.577 329.399 172.874 323.22 168.657C317.042 164.441 266.097 162.318 266.097 162.318Z" fill="#2F2E41"/>
    <path d="M287.446 62.3501C296.672 62.3501 304.152 54.8707 304.152 45.6444C304.152 36.4181 296.672 28.9387 287.446 28.9387C278.22 28.9387 270.74 36.4181 270.74 45.6444C270.74 54.8707 278.22 62.3501 287.446 62.3501Z" fill="#FFB8B8"/>
    <path d="M304.251 48.2595L303.975 47.7079C303.548 46.8546 300.016 39.7611 299.572 37.9372L295.127 38.4601L283.55 38.4619L285.158 36.049L280.906 36.6038C279.351 36.7927 277.864 37.3529 276.572 38.2372C275.779 38.7641 275.108 39.4553 274.606 40.264C273.087 42.8655 270.766 47.1207 270.743 47.1635L270.521 47.5706L268.592 44.3262C268.567 44.2002 266.176 31.7329 274.176 27.5047C274.588 26.6667 278.104 20.0754 286.413 20.5202C287.327 19.479 288.613 18.8394 289.995 18.7399C291.893 18.6409 293.862 19.6377 295.84 21.715C298.468 24.4741 302.067 28.2525 304.243 32.4478L304.844 33.3045C305.697 34.5304 306.12 36.0047 306.045 37.4964C306.508 39.8772 306.343 42.3372 305.568 44.6353L304.251 48.2595Z" fill="#2F2E41"/>
    <path d="M300.175 65.4932L309.419 70.6023L327.577 75.6866L322.157 123.206L323.143 170.013C323.143 170.013 292.407 191.069 262.934 166.478V107.561L264.677 75.6867C264.677 75.6867 271.73 73.6831 275.281 77.1393L282.017 68.3902L300.175 65.4932Z" fill="#E4E4E4"/>
    <path d="M268.751 80.0649L264.678 75.6869L242.234 73.1445L244.34 38.6728L232.103 29.9434L223.113 78.4729L264.642 107.561L268.751 80.0649Z" fill="#E4E4E4"/>
    <path d="M314.246 185.481C314.079 184.6 314.107 183.694 314.328 182.825C314.549 181.956 314.957 181.147 315.525 180.453C316.093 179.759 316.806 179.199 317.613 178.81C318.421 178.422 319.304 178.215 320.201 178.205L327.111 157.542L334.098 166.451L326.465 184.707C326.382 186.214 325.749 187.638 324.687 188.71C323.624 189.781 322.205 190.426 320.699 190.521C319.193 190.617 317.704 190.156 316.515 189.227C315.326 188.298 314.519 186.965 314.246 185.481Z" fill="#FFB8B8"/>
    <path d="M320.756 81.1263L327.578 75.6868C327.578 75.6868 334.553 79.5343 336.676 86.433C338.798 93.3317 342.513 132.601 342.513 132.601L332.43 183.014L321.155 175.194L326.593 135.254L317.041 106.068L320.756 81.1263Z" fill="#E4E4E4"/>
    <path d="M235.235 0H63.1914V41.8072H235.235V0Z" fill="#E6E6E6"/>
    <path d="M67.707 37.2928H230.722V4.51416H67.707V37.2928Z" fill="white"/>
    <path d="M98.7554 33.3912C105.652 33.3912 111.243 27.8002 111.243 20.9034C111.243 14.0065 105.652 8.41553 98.7554 8.41553C91.8586 8.41553 86.2676 14.0065 86.2676 20.9034C86.2676 27.8002 91.8586 33.3912 98.7554 33.3912Z" fill="black"/>
    <path d="M212.16 16.0171H128.617V18.7318H212.16V16.0171Z" fill="black"/>
    <path d="M212.16 23.0754H128.617V25.7902H212.16V23.0754Z" fill="black"/>
    <path d="M0.498047 63.543L146.068 74.161V112.382L0.498047 109.679V63.543Z" fill="#E6E6E6"/>
    <path d="M5.08203 104.81L142.888 108.18V78.0744L5.08203 68.832V104.81Z" fill="white"/>
    <path d="M35.3298 74.9895C36.9208 75.0922 38.4702 75.5408 39.8699 76.304C41.2737 77.0714 42.5191 78.0984 43.5399 79.3305C44.6006 80.6051 45.4315 82.0545 45.9953 83.614C46.5901 85.2548 46.8936 86.9868 46.8922 88.732C46.8984 90.4509 46.5946 92.1567 45.9953 93.7677C45.4394 95.2638 44.6064 96.6416 43.5399 97.829C42.5158 98.9701 41.2661 99.8863 39.8699 100.52C38.4443 101.16 36.8918 101.467 35.3298 101.418C33.7313 101.368 32.1636 100.965 30.7386 100.239C29.2951 99.5007 28.0087 98.4894 26.9506 97.261C25.8405 95.977 24.969 94.5047 24.3773 92.9138C23.7493 91.2336 23.4284 89.4541 23.4298 87.6604C23.4228 85.8933 23.7441 84.1403 24.3773 82.4906C24.9614 80.967 25.8356 79.5712 26.9513 78.3805C28.0139 77.2459 29.3049 76.3493 30.7392 75.7498C32.1913 75.1492 33.7616 74.8892 35.3298 74.9895Z" fill="#E6E6E6"/>
    <path d="M62.4414 84.4463L129.512 87.9415V90.4818L62.4414 87.2231V84.4463Z" fill="#E6E6E6"/>
    <path d="M62.4414 91.6672L129.512 94.5464V97.0867L62.4414 94.4441V91.6672Z" fill="#E6E6E6"/>
    <path d="M0.498047 141.187L146.068 138.484V176.705L0.498047 187.323V141.187Z" fill="#E6E6E6"/>
    <path d="M5.08203 182.033L142.888 172.791V142.688L5.08203 146.058V182.033Z" fill="white"/>
    <path d="M23.4398 162.597C23.5105 160.804 23.9031 159.039 24.5988 157.386C25.2522 155.828 26.181 154.4 27.3407 153.171C28.4445 151.998 29.768 151.052 31.236 150.388C32.688 149.734 34.2671 149.411 35.8591 149.443C37.4215 149.475 38.9562 149.861 40.3473 150.573C41.7153 151.279 42.9236 152.258 43.8975 153.45C44.9132 154.692 45.6886 156.112 46.1838 157.638C46.717 159.278 46.9523 161 46.8784 162.722C46.8115 164.466 46.4402 166.184 45.7812 167.8C45.1579 169.331 44.2707 170.742 43.1598 171.966C42.0928 173.148 40.8088 174.114 39.3774 174.811C37.948 175.504 36.3835 175.874 34.7949 175.895C33.2219 175.914 31.6654 175.572 30.2449 174.896C28.8372 174.221 27.5869 173.257 26.5749 172.068C25.5107 170.819 24.696 169.377 24.175 167.82C23.6109 166.139 23.3617 164.368 23.4398 162.597Z" fill="#E6E6E6"/>
    <path d="M62.4414 156.422L129.512 153.779V156.32L62.4414 159.199V156.422Z" fill="#E6E6E6"/>
    <path d="M62.4414 163.642L129.512 160.384V162.924L62.4414 166.42V163.642Z" fill="#E6E6E6"/>
    <path d="M418.865 323.376H216.681C216.54 323.376 216.405 323.32 216.306 323.221C216.206 323.121 216.15 322.986 216.15 322.845C216.15 322.705 216.206 322.57 216.306 322.47C216.405 322.371 216.54 322.315 216.681 322.315H418.865C419.006 322.315 419.141 322.371 419.241 322.47C419.34 322.57 419.396 322.705 419.396 322.845C419.396 322.986 419.34 323.121 419.241 323.221C419.141 323.32 419.006 323.376 418.865 323.376Z" fill="#CACACA"/>
    <g opacity="0.2">
        <path d="M110.07 314.564C114.693 314.564 118.442 310.815 118.442 306.191C118.442 301.567 114.693 297.819 110.07 297.819C105.446 297.819 101.697 301.567 101.697 306.191C101.697 310.815 105.446 314.564 110.07 314.564Z" fill="black"/>
        <path d="M109.174 218.829C96.0894 218.922 85.3758 229.555 85.1899 242.639C85.1882 242.76 85.1874 243.609 85.1875 244.72C85.1876 246.349 85.8347 247.911 86.9864 249.063C88.1381 250.215 89.7002 250.862 91.3291 250.862C92.1365 250.862 92.936 250.702 93.6819 250.393C94.4278 250.084 95.1054 249.631 95.676 249.059C96.2467 248.488 96.6992 247.81 97.0076 247.064C97.3161 246.318 97.4745 245.518 97.4738 244.71C97.4732 243.955 97.4728 243.432 97.4728 243.4C97.4724 241.378 97.9984 239.39 98.999 237.633C99.9996 235.876 101.44 234.409 103.18 233.378C104.919 232.347 106.897 231.786 108.918 231.751C110.94 231.715 112.936 232.207 114.71 233.177C116.485 234.147 117.975 235.563 119.037 237.284C120.098 239.005 120.693 240.973 120.763 242.994C120.833 245.015 120.375 247.019 119.436 248.81C118.496 250.6 117.107 252.115 115.404 253.206L115.406 253.209C115.406 253.209 106.665 258.836 104 266.556L104.002 266.557C103.533 268.138 103.296 269.779 103.297 271.429C103.297 272.107 103.337 278.039 103.414 282.854C103.441 284.516 104.12 286.1 105.305 287.265C106.489 288.431 108.084 289.083 109.746 289.083C110.581 289.083 111.408 288.918 112.178 288.597C112.949 288.276 113.649 287.806 114.238 287.214C114.826 286.622 115.292 285.919 115.608 285.146C115.924 284.374 116.084 283.546 116.079 282.711C116.052 278.301 116.037 273.166 116.037 272.794C116.037 268.053 120.61 263.33 124.367 260.25C128.692 256.703 131.805 251.87 133.055 246.418C133.332 245.295 133.484 244.146 133.51 242.99C133.51 239.803 132.879 236.646 131.654 233.704C130.429 230.761 128.634 228.09 126.371 225.844C124.109 223.598 121.425 221.822 118.474 220.618C115.522 219.414 112.362 218.806 109.174 218.829Z" fill="black"/>
        <path d="M93.0613 247.957C91.4324 247.957 89.8703 247.31 88.7186 246.158C87.5669 245.006 86.9198 243.444 86.9197 241.815C86.9196 240.704 86.9204 239.855 86.9221 239.734C86.9738 235.929 87.9321 232.191 89.7175 228.83C86.7842 232.846 85.1713 237.674 85.102 242.646C85.1003 242.767 85.0995 243.616 85.0996 244.727C85.0997 246.356 85.7468 247.918 86.8985 249.07C88.0503 250.222 89.6124 250.869 91.2412 250.869C92.5797 250.868 93.8814 250.431 94.9487 249.623C96.0159 248.815 96.7903 247.681 97.1542 246.393C96.0296 247.402 94.5718 247.959 93.0613 247.957Z" fill="#3F3D56"/>
        <path d="M109.59 231.771C111.473 231.861 113.306 232.407 114.932 233.361C116.557 234.316 117.927 235.65 118.924 237.251C119.92 238.851 120.513 240.67 120.652 242.55C120.79 244.43 120.471 246.316 119.72 248.045C120.806 246.77 121.604 245.276 122.06 243.664C122.515 242.053 122.618 240.362 122.362 238.707C122.105 237.053 121.494 235.473 120.572 234.075C119.649 232.678 118.436 231.496 117.015 230.61C115.594 229.724 113.998 229.154 112.337 228.941C110.676 228.727 108.989 228.874 107.39 229.372C105.791 229.87 104.318 230.706 103.072 231.825C101.826 232.943 100.835 234.317 100.168 235.853C101.321 234.497 102.77 233.423 104.404 232.716C106.037 232.008 107.812 231.685 109.59 231.771Z" fill="#3F3D56"/>
        <path d="M111.478 286.178C109.816 286.178 108.221 285.526 107.037 284.36C105.852 283.195 105.173 281.611 105.146 279.949C105.069 275.134 105.029 269.201 105.029 268.523C105.028 266.874 105.265 265.233 105.734 263.652L105.732 263.651C106.009 262.857 106.343 262.085 106.732 261.339C105.538 262.931 104.587 264.691 103.912 266.563L103.914 266.564C103.445 268.145 103.208 269.786 103.209 271.436C103.209 272.114 103.249 278.046 103.326 282.861C103.353 284.523 104.032 286.107 105.217 287.272C106.401 288.438 107.996 289.09 109.658 289.09C111.028 289.09 112.361 288.645 113.457 287.823C114.553 287.001 115.353 285.846 115.737 284.531C114.573 285.593 113.054 286.18 111.478 286.178Z" fill="#3F3D56"/>
        <path d="M108.224 312.522C107.034 312.004 105.982 311.216 105.149 310.222C104.316 309.227 103.725 308.053 103.424 306.791C103.123 305.529 103.119 304.215 103.413 302.951C103.706 301.688 104.29 300.51 105.117 299.51C104.158 300.21 103.359 301.106 102.773 302.139C102.187 303.171 101.827 304.317 101.717 305.499C101.608 306.681 101.751 307.873 102.137 308.995C102.523 310.118 103.144 311.146 103.958 312.01C104.772 312.874 105.76 313.556 106.857 314.009C107.954 314.462 109.135 314.677 110.322 314.639C111.509 314.601 112.674 314.311 113.74 313.788C114.805 313.265 115.748 312.522 116.505 311.607C115.324 312.47 113.939 313.008 112.486 313.168C111.033 313.329 109.564 313.106 108.224 312.522Z" fill="#3F3D56"/>
    </g>
</svg>
