<svg width="627" height="435" viewBox="0 0 627 435" fill="none" xmlns="http://www.w3.org/2000/svg">
<path d="M0 0H627V435H0V0Z" fill="#FAFAFA"/>
<path opacity="0.1" d="M319.023 313.405C449.565 313.405 555.391 306.742 555.391 298.523C555.391 290.304 449.565 283.641 319.023 283.641C188.481 283.641 82.6562 290.304 82.6562 298.523C82.6562 306.742 188.481 313.405 319.023 313.405Z" fill="#3F3D56"/>
<path opacity="0.1" d="M518.624 287.909C518.627 289.062 518.502 290.211 518.25 291.339C518.203 291.551 518.152 291.781 518.101 291.962C517.942 291.962 517.788 291.962 517.634 291.962C516.477 291.903 515.328 291.755 514.196 291.52C513.194 291.813 512.17 292.035 511.133 292.183C510.338 292.296 509.536 292.367 508.733 292.395H507.92C506.958 292.395 505.997 292.334 505.043 292.214C503.501 292.019 501.987 291.663 500.527 291.153C499.729 291.405 498.914 291.611 498.09 291.772C498.052 291.63 498.02 291.489 497.987 291.33C497.735 290.202 497.61 289.053 497.613 287.901C497.613 280.711 502.316 274.886 508.121 274.886C513.926 274.886 518.624 280.728 518.624 287.909Z" fill="black"/>
<path d="M438.299 55.8388L432.412 59.5714L435.985 53.0735C434.972 52.2652 433.719 51.818 432.423 51.8028H432.328C431.919 51.8088 431.511 51.7783 431.107 51.7118L429.112 52.9749L429.969 51.4197C428.554 50.9273 427.331 49.9973 426.479 48.7644L422.906 51.0403L425.163 46.9398C423.073 44.4325 420.258 42.8962 417.163 42.8962C413.449 42.8962 410.142 45.1039 408.006 48.5444C407.375 49.5774 406.48 50.424 405.413 50.9972C404.347 51.5705 403.147 51.8498 401.937 51.8066H401.736C397.635 51.8066 394.312 56.4533 394.312 62.1887C394.312 67.9241 397.635 72.5708 401.736 72.5708C402.638 72.5666 403.526 72.3441 404.323 71.9222C405.718 71.2433 407.244 70.876 408.795 70.8458C410.346 70.8157 411.885 71.1235 413.305 71.7477C414.507 72.2853 415.809 72.5632 417.125 72.5632C418.442 72.5632 419.743 72.2853 420.945 71.7477C422.355 71.1363 423.88 70.8355 425.417 70.8656C426.954 70.8957 428.466 71.256 429.851 71.9222C430.641 72.3352 431.517 72.5524 432.408 72.5557C436.509 72.5557 439.832 67.9051 439.832 62.1735C439.86 59.9669 439.333 57.7886 438.299 55.8388Z" fill="#E7E6E6"/>
<path opacity="0.03" d="M427.201 71.0308C425.063 70.6253 422.852 70.8656 420.851 71.7212C419.649 72.2576 418.347 72.5348 417.031 72.5348C415.715 72.5348 414.413 72.2576 413.211 71.7212C411.791 71.0982 410.251 70.7916 408.7 70.8223C407.149 70.8531 405.624 71.2206 404.229 71.8994C403.431 72.3197 402.544 72.5409 401.642 72.5443C398 72.5443 394.97 68.8762 394.34 64.036C395.066 63.5039 395.684 62.8383 396.161 62.0749C398.296 58.6306 401.604 56.423 405.318 56.423C409.031 56.423 412.297 58.6041 414.421 62.0104C415.061 63.0349 415.953 63.8773 417.013 64.456C418.073 65.0348 419.264 65.3304 420.472 65.3143H420.566C423.468 65.3143 425.979 67.6396 427.201 71.0308Z" fill="black"/>
<path d="M438.934 91.1643L435.421 93.477L437.554 89.4497C436.95 88.9502 436.203 88.6734 435.43 88.6631H435.371C435.128 88.6673 434.885 88.65 434.645 88.6113L433.434 89.4026L433.946 88.437C433.103 88.1332 432.373 87.5593 431.864 86.7979L429.731 88.2109L431.092 85.6721C430.525 84.9129 429.803 84.2942 428.977 83.8608C428.152 83.4273 427.243 83.1901 426.318 83.1663C424.104 83.1663 422.13 84.5322 420.873 86.666C420.494 87.3065 419.959 87.8311 419.321 88.1862C418.683 88.5413 417.966 88.714 417.242 88.6867H417.124C414.678 88.6867 412.695 91.5693 412.695 95.1162C412.695 98.663 414.678 101.55 417.124 101.55C417.662 101.548 418.192 101.411 418.667 101.15C419.499 100.729 420.41 100.501 421.335 100.482C422.26 100.462 423.179 100.652 424.027 101.037C424.74 101.372 425.513 101.547 426.296 101.55C427.077 101.548 427.849 101.378 428.565 101.051C429.406 100.672 430.316 100.486 431.232 100.504C432.149 100.521 433.051 100.744 433.878 101.155C434.349 101.412 434.872 101.548 435.403 101.55C437.849 101.55 439.832 98.6677 439.832 95.1162C439.859 93.7413 439.55 92.3818 438.934 91.1643Z" fill="#F2F2F2"/>
<path opacity="0.03" d="M432.83 100.642C431.517 100.396 430.159 100.54 428.931 101.055C428.197 101.374 427.403 101.538 426.599 101.538C425.795 101.538 425.001 101.374 424.267 101.055C423.396 100.684 422.452 100.501 421.501 100.52C420.55 100.538 419.615 100.756 418.759 101.16C418.27 101.413 417.726 101.547 417.173 101.55C414.939 101.55 413.082 99.3564 412.695 96.4674C413.141 96.1501 413.519 95.7523 413.81 95.2955C415.121 93.2378 417.15 91.9205 419.407 91.9205C421.664 91.9205 423.689 93.2242 425.004 95.2546C425.396 95.872 425.946 96.3796 426.6 96.7276C427.254 97.0756 427.99 97.2521 428.735 97.2396H428.791C430.54 97.226 432.084 98.616 432.83 100.642Z" fill="black"/>
<path d="M50.4477 78.4375C52.1253 92.6742 63.8911 103.947 66.6826 118.008C67.0325 119.852 67.2466 121.718 67.323 123.593C67.7244 131.668 66.1234 139.91 66.9487 147.999C68.4865 163.168 77.7179 175.022 89.4386 185.296C98.3047 193.047 108.596 199.865 118.062 206.464C142.162 223.276 164.764 244.503 174.663 272.148C181.261 290.582 181.766 310.615 186.609 329.585C191.453 348.555 202.484 367.967 221.127 374.015C241.136 380.51 263.184 369.683 283.776 373.961C305.873 378.555 321.544 399.412 343.349 405.303C371.052 412.789 398.661 394.395 427.099 390.562C440.754 388.72 454.653 390.283 468.381 389.103C483.662 387.776 498.459 383.081 511.705 375.357C516.215 372.714 520.775 369.466 522.872 364.665C524.675 360.517 524.4 355.788 523.846 351.298C521.771 334.634 516.522 316.519 524.779 301.873C532.396 288.361 550.854 278.696 548.117 263.442C546.471 254.258 537.433 248.525 529.054 244.413C511.773 235.932 493.364 229.294 477.919 217.84C466.87 209.634 457.354 198.186 453.296 185.309C451.631 180.161 450.946 174.747 451.275 169.347C451.844 160.835 454.793 151.278 449.652 144.464C447.424 141.509 444.01 139.694 440.578 138.307C427.635 133.083 413.258 132.781 399.801 129.07C395.188 127.812 390.754 125.971 386.606 123.593C378.398 118.846 371.792 111.852 370.195 102.722C369.262 97.3717 370.092 91.5302 367.417 86.8012C362.908 78.7843 353.992 75.4335 344.034 74.3436C331.709 72.9924 317.752 75.1047 308.408 76.1451L307.474 76.2442C295.474 77.4917 283.573 74.839 271.879 70.8396C259.252 66.5564 246.909 60.7285 234.899 56.5849C233.772 56.1946 232.648 55.8208 231.526 55.4635C222.76 52.6735 213.784 50.5876 204.684 49.2257C191.852 47.2966 178.844 46.7951 165.901 47.7304C159.336 48.2028 152.805 49.0509 146.338 50.2706C144.438 50.6309 142.54 51.0167 140.646 51.428C129.634 53.7835 118.68 56.6615 107.446 56.8326C106.639 56.8326 105.827 56.8326 105.02 56.8326C91.6213 56.6029 77.9208 53.2026 65.208 57.3101C59.4265 59.1882 53.8841 62.8813 51.5571 68.4841C50.2628 71.6052 50.0553 75.0867 50.4477 78.4375Z" fill="#3F3D56" fill-opacity="0.05"/>
<path opacity="0.2" d="M67.5031 123.727H79.0647C79.2372 120.73 80.2823 117.849 82.0706 115.442C83.8589 113.034 86.3121 111.205 89.1265 110.18C87.0256 109.02 85.3689 107.193 84.4174 104.986C83.4659 102.778 83.2736 100.317 83.8708 97.9876C84.468 95.6588 85.8207 93.5951 87.716 92.1216C89.6113 90.6481 91.9415 89.8484 94.3399 89.8484C96.7382 89.8484 99.0685 90.6481 100.964 92.1216C102.859 93.5951 104.212 95.6588 104.809 97.9876C105.406 100.317 105.214 102.778 104.262 104.986C103.311 107.193 101.654 109.02 99.5532 110.18C102.368 111.205 104.821 113.034 106.609 115.442C108.397 117.849 109.443 120.73 109.615 123.727H109.714C109.968 120.812 111.048 118.031 112.826 115.711C114.604 113.391 117.006 111.629 119.749 110.632C118.152 109.75 116.804 108.479 115.829 106.935C114.854 105.391 114.284 103.624 114.173 101.8C114.061 99.9765 114.411 98.1538 115.191 96.502C115.97 94.8502 117.154 93.4228 118.631 92.3527C120.109 91.2825 121.832 90.6042 123.641 90.3809C125.45 90.1577 127.286 90.3966 128.978 91.0756C130.67 91.7546 132.164 92.8516 133.32 94.2646C134.476 95.6775 135.256 97.3605 135.589 99.1572C136.914 98.0734 138.41 97.2201 140.017 96.6329C137.916 95.4732 136.259 93.6458 135.308 91.4386C134.356 89.2313 134.164 86.7694 134.761 84.4406C135.358 82.1117 136.711 80.0481 138.606 78.5745C140.501 77.101 142.832 76.3013 145.23 76.3013C147.628 76.3013 149.959 77.101 151.854 78.5745C153.749 80.0481 155.102 82.1117 155.699 84.4406C156.296 86.7694 156.104 89.2313 155.152 91.4386C154.201 93.6458 152.544 95.4732 150.443 96.6329C153.404 97.7083 155.962 99.6727 157.769 102.258C159.576 104.844 160.544 107.926 160.541 111.083V123.727H165.496V113.793C165.493 110.635 166.46 107.554 168.267 104.968C170.074 102.382 172.633 100.418 175.593 99.3423C173.492 98.1826 171.836 96.3553 170.884 94.148C169.933 91.9407 169.741 89.4788 170.338 87.15C170.935 84.8211 172.288 82.7575 174.183 81.284C176.078 79.8105 178.408 79.0108 180.807 79.0108C183.205 79.0108 185.535 79.8105 187.431 81.284C189.326 82.7575 190.679 84.8211 191.276 87.15C191.873 89.4788 191.681 91.9407 190.729 94.148C189.778 96.3553 188.121 98.1826 186.02 99.3423C187.978 100.057 189.77 101.164 191.288 102.596C192.805 104.027 194.017 105.753 194.848 107.669C196.66 105.087 199.219 103.126 202.18 102.052C200.079 100.892 198.423 99.0647 197.471 96.8574C196.52 94.6501 196.327 92.1883 196.925 89.8594C197.522 87.5305 198.874 85.4669 200.77 83.9934C202.665 82.5199 204.995 81.7202 207.394 81.7202C209.792 81.7202 212.122 82.5199 214.017 83.9934C215.913 85.4669 217.265 87.5305 217.863 89.8594C218.46 92.1883 218.267 94.6501 217.316 96.8574C216.365 99.0647 214.708 100.892 212.607 102.052C215.872 103.243 218.637 105.508 220.453 108.478V106.567C220.45 103.41 221.418 100.329 223.225 97.7428C225.032 95.157 227.59 93.1926 230.551 92.1172C228.45 90.9575 226.793 89.1302 225.842 86.9229C224.89 84.7156 224.698 82.2537 225.295 79.9249C225.892 77.596 227.245 75.5324 229.14 74.0589C231.035 72.5853 233.366 71.7856 235.764 71.7856C238.162 71.7856 240.493 72.5853 242.388 74.0589C244.283 75.5324 245.636 77.596 246.233 79.9249C246.83 82.2537 246.638 84.7156 245.686 86.9229C244.735 89.1302 243.078 90.9575 240.977 92.1172C243.938 93.1926 246.496 95.157 248.303 97.7428C250.11 100.329 251.078 103.41 251.075 106.567V123.727H256.48C257.322 121.857 258.528 120.175 260.028 118.779C261.528 117.383 263.291 116.302 265.213 115.599C263.112 114.439 261.455 112.612 260.504 110.404C259.552 108.197 259.36 105.735 259.957 103.406C260.554 101.078 261.907 99.014 263.802 97.5405C265.698 96.0669 268.028 95.2672 270.426 95.2672C272.825 95.2672 275.155 96.0669 277.05 97.5405C278.946 99.014 280.298 101.078 280.895 103.406C281.493 105.735 281.3 108.197 280.349 110.404C279.397 112.612 277.741 114.439 275.64 115.599C276.708 115.988 277.729 116.495 278.684 117.112C279.065 114.337 280.195 111.719 281.953 109.542C283.71 107.365 286.029 105.712 288.656 104.761C286.555 103.601 284.899 101.774 283.947 99.5668C282.996 97.3595 282.803 94.8977 283.4 92.5688C283.998 90.2399 285.35 88.1763 287.246 86.7028C289.141 85.2293 291.471 84.4296 293.869 84.4296C296.268 84.4296 298.598 85.2293 300.493 86.7028C302.389 88.1763 303.741 90.2399 304.338 92.5688C304.936 94.8977 304.743 97.3595 303.792 99.5668C302.84 101.774 301.184 103.601 299.083 104.761C301.339 105.587 303.37 106.933 305.013 108.69C306.656 110.447 307.864 112.566 308.541 114.876C310.231 112.964 312.371 111.505 314.766 110.632C312.665 109.472 311.008 107.644 310.056 105.437C309.105 103.23 308.913 100.768 309.51 98.4392C310.107 96.1103 311.46 94.0467 313.355 92.5732C315.25 91.0997 317.58 90.3 319.979 90.3C322.377 90.3 324.707 91.0997 326.603 92.5732C328.498 94.0467 329.851 96.1103 330.448 98.4392C331.045 100.768 330.853 103.23 329.901 105.437C328.95 107.644 327.293 109.472 325.192 110.632C326.845 111.236 328.38 112.122 329.732 113.251C330.555 111.296 331.772 109.533 333.307 108.072C334.841 106.611 336.66 105.484 338.65 104.761C336.549 103.601 334.892 101.774 333.941 99.5668C332.989 97.3595 332.797 94.8977 333.394 92.5688C333.991 90.2399 335.344 88.1763 337.239 86.7028C339.135 85.2293 341.465 84.4296 343.863 84.4296C346.262 84.4296 348.592 85.2293 350.487 86.7028C352.382 88.1763 353.735 90.2399 354.332 92.5688C354.93 94.8977 354.737 97.3595 353.786 99.5668C352.834 101.774 351.178 103.601 349.077 104.761C352.037 105.836 354.596 107.801 356.403 110.387C358.21 112.973 359.178 116.054 359.174 119.211V123.727H386.378C390.519 126.11 394.946 127.953 399.552 129.214C412.992 132.935 427.351 133.237 440.277 138.475C443.705 139.866 447.114 141.686 449.339 144.648C454.474 151.481 451.528 161.063 450.961 169.597C450.629 175.008 451.308 180.432 452.965 185.592H89.5904C77.8802 175.314 68.6651 163.406 67.1292 148.198C66.3275 140.092 67.9039 131.828 67.5031 123.727Z" fill="#B5B4B4"/>
<path opacity="0.1" d="M596.939 278.682C590.664 277.503 584.229 277.422 577.926 278.442C570.791 279.611 563.498 282.179 556.52 280.299C552.425 279.197 548.886 276.647 544.885 275.234C541.026 273.898 536.867 273.651 532.873 274.519C531.35 278.121 530.908 282.081 531.599 285.925C532.29 289.769 534.085 293.335 536.77 296.197C539.455 299.058 542.915 301.094 546.739 302.062C550.562 303.029 554.586 302.887 558.33 301.652C562.556 303.184 567.173 303.309 571.478 302.007C574.479 302.664 577.591 302.646 580.584 301.955C583.577 301.263 586.375 299.916 588.772 298.012C591.169 296.109 593.104 293.697 594.433 290.955C595.763 288.213 596.453 285.211 596.454 282.17C596.454 281.725 596.454 281.281 596.409 280.837C596.626 280.129 596.802 279.409 596.939 278.682Z" fill="black"/>
<path d="M491.758 93.0937L502.639 100.001L496.021 87.9811C497.894 86.4901 500.21 85.6647 502.604 85.635H502.779C503.536 85.6462 504.291 85.5906 505.038 85.4686L508.732 87.806L507.148 84.9346C509.76 84.0183 512.017 82.3031 513.6 80.0322L520.209 84.2168L516.033 76.6355C519.894 71.9957 525.103 69.1593 530.828 69.1593C537.7 69.1593 543.811 73.2388 547.759 79.6032C548.927 81.5077 550.578 83.0691 552.544 84.1285C554.511 85.188 556.723 85.7077 558.956 85.635H559.324C566.905 85.635 573.05 94.2317 573.05 104.833C573.05 115.435 566.922 124.032 559.324 124.032C557.657 124.023 556.017 123.611 554.544 122.832C551.961 121.573 549.135 120.892 546.263 120.836C543.39 120.78 540.54 121.351 537.91 122.508C535.689 123.501 533.283 124.014 530.85 124.014C528.417 124.014 526.011 123.501 523.79 122.508C521.183 121.376 518.363 120.818 515.522 120.873C512.681 120.927 509.884 121.592 507.323 122.823C505.86 123.585 504.236 123.987 502.587 123.996C495.005 123.996 488.86 115.4 488.86 104.798C488.832 100.716 489.828 96.6916 491.758 93.0937Z" fill="#E7E6E6"/>
<path opacity="0.03" d="M512.266 121.186C516.227 120.432 520.324 120.877 524.031 122.464C526.253 123.457 528.659 123.97 531.092 123.97C533.525 123.97 535.931 123.457 538.152 122.464C540.783 121.311 543.633 120.743 546.505 120.8C549.378 120.858 552.203 121.539 554.785 122.797C556.259 123.574 557.899 123.982 559.565 123.988C566.297 123.988 571.9 117.203 573.073 108.23C571.723 107.251 570.578 106.017 569.703 104.597C565.755 98.2412 559.635 94.153 552.772 94.153C545.909 94.153 539.859 98.1887 535.911 104.483C534.731 106.381 533.082 107.942 531.122 109.016C529.162 110.09 526.958 110.639 524.723 110.611H524.548C519.173 110.62 514.524 114.918 512.266 121.186Z" fill="black"/>
<path d="M141.543 290.258L150.81 284.791C149.557 282.651 147.955 280.734 146.07 279.122L128.586 284.578L142.288 276.522C138.897 274.664 135.079 273.721 131.213 273.786C127.346 273.851 123.562 274.922 120.235 276.894C116.908 278.865 114.151 281.669 112.237 285.029C110.322 288.39 109.316 292.191 109.316 296.058C109.316 308.361 119.285 308.787 131.588 308.787C143.891 308.787 153.86 308.361 153.86 296.058C153.865 292.946 153.213 289.867 151.948 287.023L141.543 290.258Z" fill="#3F3D56"/>
<path opacity="0.1" d="M143.9 302.222C142.913 301.232 141.811 300.366 140.617 299.641C138.932 298.523 137.194 297.385 135.209 297.002C133.466 296.668 131.67 296.949 129.883 296.852C126.8 296.662 123.899 295.332 121.744 293.119C120.48 291.812 119.483 290.214 117.963 289.202C116.321 288.127 114.239 287.895 112.293 288.161C111.729 288.246 111.17 288.361 110.618 288.505C109.744 290.929 109.298 293.486 109.301 296.063C109.301 308.366 119.27 308.792 131.573 308.792C137.543 308.792 142.96 308.69 146.96 307.18L146.291 305.93C145.654 304.598 144.851 303.352 143.9 302.222Z" fill="black"/>
<path d="M188.181 208.443C190.44 205.945 192.408 203.813 194.328 201.647C196.397 199.311 198.5 197.003 201.736 196.326C203.106 196.042 204.524 195.893 205.922 195.886C213.601 195.846 221.281 195.846 228.967 195.886C230.141 195.886 230.867 195.528 231.661 194.607C233.601 192.367 236.091 190.972 239.164 190.965C248.255 190.945 257.359 191.168 266.443 190.877C272.508 190.688 277.99 195.433 277.969 202.324C277.956 205.586 277.969 208.849 277.969 212.111C277.969 212.666 277.969 213.215 277.969 213.98C278.695 213.98 279.299 213.98 279.896 213.98C287.915 213.98 295.934 214.034 303.959 213.959C308.077 213.919 311.646 214.981 314.4 218.386C317.358 214.697 321.32 213.885 325.743 213.953C333.592 214.068 341.442 213.986 349.298 213.986H351.17C351.17 210.108 350.987 206.344 351.238 202.608C351.387 200.428 351.842 198.107 352.832 196.184C354.562 192.813 357.635 191.006 361.502 190.979C370.878 190.925 380.254 190.945 389.629 190.965C394.935 190.972 399.69 195.311 400.002 200.604C400.206 204.083 400.097 207.576 400.131 211.062C400.131 211.671 400.131 212.274 400.131 213.147C413.225 211.766 424.717 215.164 434.425 223.788C435.212 222.035 435.768 220.2 436.772 218.67C438.875 215.462 442.111 214.04 445.87 214.007C454.282 213.932 462.701 213.973 471.114 213.993C471.955 213.993 472.945 213.905 473.61 214.291C476.229 215.807 478.664 214.555 481.222 214.162C485.109 213.56 489.044 213.005 492.965 212.957C498.528 212.89 503.284 217.56 503.379 223.111C503.528 232.147 503.42 241.19 503.42 250.389C512.449 248.582 521.058 249.421 528.528 255.554C533.087 259.297 536.235 264.002 537.232 269.809C539.416 282.514 535.305 293.067 523.623 299.234C513.874 304.378 499.654 302.943 490.971 293.541C483.4 285.344 481.337 269.437 490.591 258.228C488.42 258.228 486.548 258.167 484.689 258.282C484.363 258.302 483.908 259.04 483.82 259.5C483.664 260.319 483.719 261.179 483.719 262.025C483.719 270.913 483.719 279.8 483.719 288.688C483.719 296.472 479.119 301.014 471.27 301.014C462.966 301.014 454.662 301.034 446.365 301.014C440.239 300.993 435.87 297.318 434.717 291.05C434.126 291.51 433.618 291.876 433.143 292.275C425.307 298.807 416.298 302.056 406.061 302.07C401.624 302.076 397.275 301.738 393.028 300.418C392.567 300.276 392.031 300.296 391.536 300.337C389.073 300.547 386.617 300.953 384.155 300.98C377.262 301.068 370.369 301.122 363.483 300.946C361.299 300.892 359.135 300.046 356.95 299.613C356.448 299.511 355.892 299.538 355.39 299.64C353.375 300.066 351.374 300.905 349.359 300.939C341.401 301.095 333.43 301.007 325.472 300.993C324.631 300.993 323.721 301.041 322.955 300.763C320.445 299.836 318.097 300.405 315.58 300.919C301.815 303.762 289.217 301.636 278.641 291.673C278.485 291.524 278.288 291.409 278.017 291.206C277.657 292.322 277.433 293.419 276.965 294.394C274.91 298.624 271.456 300.953 266.755 300.966C245.86 301.034 224.965 301.007 204.063 300.966C200.569 300.966 197.76 299.416 195.644 296.655C193.588 293.974 191.56 291.273 189.518 288.579C189.192 288.153 188.839 287.74 188.208 286.962C188.208 288.2 188.229 289.013 188.208 289.825C188.052 296.086 183.459 300.858 177.157 300.953C167.951 301.081 158.745 301.088 149.539 300.953C142.911 300.872 138.447 295.937 138.44 289.006C138.42 270.554 138.433 252.109 138.433 233.657C138.433 224.993 138.413 216.335 138.44 207.671C138.453 202.926 140.251 199.129 144.702 196.969C145.74 196.469 146.947 196.056 148.08 196.042C157.958 195.947 167.849 195.792 177.72 196.001C183.751 196.13 187.917 200.699 188.168 206.69C188.188 207.116 188.168 207.542 188.168 208.443H188.181ZM144.593 201.775V284.863H172.157V282.941C172.157 277.201 172.143 271.468 172.171 265.728C172.171 265.139 172.205 264.387 172.544 263.988C174.437 261.768 176.431 259.636 178.46 257.395C185.155 266.235 191.763 274.933 198.317 283.672C199.036 284.633 199.768 285.012 200.976 285.005C210.576 284.958 220.182 284.978 229.782 284.971C230.358 284.971 230.935 284.904 231.824 284.85C220.033 269.193 208.459 253.828 196.838 238.395C207.937 226.231 218.961 214.142 230.243 201.769C229.347 201.769 228.859 201.769 228.37 201.769C219.28 201.769 210.182 201.789 201.091 201.741C199.972 201.741 199.246 202.093 198.5 202.919C190.115 212.206 181.689 221.452 173.27 230.705C173.005 230.997 172.673 231.233 172.103 231.734V201.87C171.675 201.829 171.397 201.782 171.126 201.782C162.32 201.782 153.514 201.782 144.6 201.782L144.593 201.775ZM382.764 279.685C386.827 283.861 391.631 285.54 396.922 285.994C410.457 287.158 422.091 281.628 428.394 269.227C432.844 260.468 433.326 251.147 430.768 241.8C425.782 223.605 408.326 215.536 391.787 220.099C389.1 220.836 386.671 222.488 384.08 223.74V196.881H357.201V284.85H382.764V279.678V279.685ZM345.058 220.099H318.226V222.177C318.226 231.342 318.267 240.514 318.206 249.679C318.179 253.212 318.111 256.806 315.947 259.879C313.898 262.776 311.008 263.907 307.541 263.48C304.882 263.155 302.833 261.72 301.89 259.223C301.225 257.463 300.75 255.527 300.723 253.659C300.574 243.147 300.588 232.628 300.547 222.109C300.547 221.446 300.547 220.789 300.547 220.112H273.587C273.587 222.583 273.566 224.938 273.587 227.294C273.695 238.821 273.621 250.349 274.014 261.863C274.211 267.616 276.11 273.085 280.086 277.451C288.118 286.251 298.206 287.618 309.251 284.904C313.084 283.963 316.334 281.871 319.542 278.819V284.877H345.058V220.099ZM235.06 196.861V284.85H261.735V196.861H235.06ZM487.341 242.131V218.921C479.383 218.887 472.24 220.721 466.31 226.969V220.092H440.775V284.87H467.599C467.599 284.105 467.599 283.448 467.599 282.785C467.599 275.366 467.579 267.941 467.606 260.522C467.613 258.052 467.606 255.568 467.83 253.11C468.332 247.418 471.717 243.519 477.328 242.646C480.577 242.138 483.929 242.287 487.341 242.138V242.131ZM521.75 270.662C521.689 261.761 515.204 255.507 506.045 255.513C496.839 255.513 490.231 261.944 490.272 270.818C490.313 280.152 497.626 286.481 506.71 286.21C515.312 285.953 521.811 279.435 521.75 270.662ZM216.173 244.067C220.352 249.624 224.463 255.087 228.798 260.854V230.238C224.449 235.004 220.338 239.505 216.173 244.067Z" fill="black"/>
<path d="M144.59 201.776C153.504 201.776 162.31 201.776 171.116 201.776C171.387 201.776 171.665 201.823 172.093 201.864V231.735C172.663 231.234 172.995 230.997 173.26 230.706C181.679 221.453 190.105 212.206 198.49 202.919C199.229 202.094 199.955 201.742 201.081 201.742C210.172 201.789 219.27 201.769 228.36 201.769C228.849 201.769 229.344 201.769 230.233 201.769C218.951 214.136 207.927 226.225 196.828 238.395C208.449 253.828 220.023 269.193 231.813 284.85C230.932 284.904 230.348 284.972 229.771 284.972C220.172 284.972 210.566 284.958 200.966 285.006C199.765 285.006 199.026 284.633 198.307 283.672C191.753 274.94 185.145 266.242 178.449 257.395C176.421 259.629 174.426 261.768 172.534 263.988C172.194 264.388 172.161 265.139 172.161 265.728C172.133 271.468 172.147 277.201 172.147 282.941V284.863H144.59V201.776Z" fill="white"/>
<path d="M382.766 279.685V284.856H357.203V196.881H384.082V223.747C386.673 222.495 389.102 220.843 391.789 220.105C408.322 215.543 425.784 223.612 430.77 241.806C433.328 251.154 432.853 260.475 428.396 269.234C422.093 281.628 410.452 287.165 396.924 286C391.639 285.547 386.829 283.868 382.766 279.692V279.685ZM383.627 253.117C383.743 253.943 383.851 255.52 384.184 257.05C385.14 261.456 388.838 264.807 393.017 265.173C397.888 265.599 401.829 263.345 403.641 258.83C405.262 254.782 405.309 250.586 403.824 246.484C402.48 242.774 399.862 240.392 395.846 239.83C391.626 239.241 388.193 240.608 385.764 244.196C384.089 246.673 383.682 249.482 383.634 253.117H383.627Z" fill="white"/>
<path d="M345.058 220.099V284.877H319.543V278.819C316.334 281.871 313.084 283.963 309.251 284.904C298.207 287.618 288.119 286.251 280.086 277.451C276.104 273.092 274.205 267.623 274.015 261.863C273.621 250.349 273.696 238.815 273.587 227.294C273.567 224.938 273.587 222.583 273.587 220.112H300.547C300.547 220.782 300.547 221.446 300.547 222.109C300.588 232.628 300.574 243.14 300.724 253.659C300.751 255.527 301.226 257.463 301.891 259.223C302.834 261.72 304.882 263.149 307.542 263.48C311.008 263.907 313.899 262.776 315.947 259.879C318.118 256.806 318.179 253.212 318.206 249.679C318.274 240.514 318.227 231.342 318.227 222.177V220.099H345.058Z" fill="white"/>
<path d="M235.062 196.861H261.738V284.85H235.062V196.861Z" fill="white"/>
<path d="M487.34 242.131C483.927 242.28 480.576 242.131 477.326 242.639C471.723 243.519 468.331 247.411 467.829 253.104C467.611 255.561 467.618 258.045 467.605 260.516C467.578 267.934 467.598 275.36 467.598 282.778C467.598 283.442 467.598 284.098 467.598 284.863H440.773V220.092H466.309V226.969C472.231 220.721 479.382 218.887 487.34 218.921V242.131Z" fill="white"/>
<path d="M521.744 270.662C521.805 279.428 515.299 285.953 506.704 286.21C497.62 286.481 490.307 280.152 490.266 270.818C490.225 261.944 496.833 255.52 506.039 255.513C515.198 255.513 521.69 261.761 521.744 270.662Z" fill="white"/>
<path d="M383.628 253.117C383.675 249.475 384.082 246.673 385.758 244.196C388.187 240.608 391.613 239.241 395.839 239.83C399.856 240.392 402.481 242.774 403.817 246.484C405.303 250.592 405.262 254.782 403.634 258.83C401.83 263.345 397.881 265.599 393.01 265.172C388.831 264.807 385.134 261.456 384.177 257.05C383.845 255.52 383.73 253.95 383.621 253.117H383.628Z" fill="black"/>
<path d="M92.5096 184.238C92.5096 184.238 89.7646 164.108 85.1896 169.598C80.6146 175.088 85.1896 183.323 85.1896 183.323L88.8496 187.898L92.5096 185.153V184.238Z" fill="#FBBEBE"/>
<path d="M103.491 190.643C103.491 190.643 94.3409 180.578 92.5109 182.408C90.681 184.238 85.191 185.153 86.106 188.813C87.021 192.473 106.236 204.368 106.236 204.368L103.491 190.643Z" fill="#40B190"/>
<path opacity="0.1" d="M103.491 190.643C103.491 190.643 94.3409 180.578 92.5109 182.408C90.681 184.238 85.191 185.153 86.106 188.813C87.021 192.473 106.236 204.368 106.236 204.368L103.491 190.643Z" fill="black"/>
<path d="M155.647 189.728V197.048C155.647 197.048 156.562 213.518 151.072 212.603C145.582 211.688 148.327 197.963 148.327 197.963L149.242 189.728L155.647 189.728Z" fill="#FBBEBE"/>
<path d="M152.897 242.798C152.897 242.798 161.132 255.608 163.877 256.523C166.622 257.438 181.262 265.673 183.092 273.907L195.901 290.377L189.497 298.612C189.497 298.612 160.217 267.503 151.982 264.758C143.747 262.013 135.512 248.288 135.512 248.288L152.897 242.798Z" fill="#FBBEBE"/>
<path d="M87.9339 221.753C87.9339 221.753 70.5489 224.498 73.2939 235.478C76.0389 246.458 102.574 269.333 102.574 269.333L103.489 274.823L113.554 276.653L118.129 272.078L117.214 269.333C117.214 269.333 106.234 259.268 105.319 255.608C104.404 251.948 94.3389 237.308 89.7639 236.393L96.1688 232.733L87.9339 221.753Z" fill="#FBBEBE"/>
<path d="M193.158 290.377C193.158 290.377 189.498 284.887 194.988 285.802C200.478 286.717 204.138 287.632 204.138 291.292C204.138 294.952 199.563 320.572 194.073 318.742C188.583 316.912 193.158 308.677 193.158 308.677C193.158 308.677 190.413 301.357 188.583 300.442C186.753 299.527 186.753 294.952 188.583 294.952C190.413 294.952 194.073 292.207 193.158 290.377Z" fill="#2F2E41"/>
<path d="M115.379 270.248C115.379 270.248 115.379 265.673 119.039 270.248C122.699 274.823 124.529 278.483 120.869 281.228C117.209 283.973 104.399 290.377 104.399 290.377C104.399 290.377 90.6739 293.122 92.5039 286.718C92.5039 286.718 101.654 282.143 101.654 278.483C101.654 274.823 101.654 268.418 104.399 270.248C107.144 272.078 115.379 272.993 115.379 270.248Z" fill="#2F2E41"/>
<path d="M132.772 201.623C132.772 201.623 145.582 203.453 144.667 221.753C144.667 221.753 161.137 238.223 156.562 243.713C151.987 249.203 141.922 259.268 138.262 256.523C134.602 253.778 123.622 232.733 123.622 232.733C123.622 232.733 98.0023 241.883 93.4273 237.308C88.8523 232.733 84.2773 221.753 84.2773 221.753L107.152 209.858L132.772 201.623Z" fill="#2F2E41"/>
<path d="M97.0854 149.468C103.15 149.468 108.065 144.552 108.065 138.488C108.065 132.424 103.15 127.508 97.0854 127.508C91.0214 127.508 86.1055 132.424 86.1055 138.488C86.1055 144.552 91.0214 149.468 97.0854 149.468Z" fill="#FBBEBE"/>
<path d="M105.318 139.403C105.318 139.403 111.723 149.468 113.553 150.383C115.383 151.298 100.743 160.448 100.743 160.448C100.743 160.448 100.743 148.553 96.168 145.808L105.318 139.403Z" fill="#FBBEBE"/>
<path d="M106.233 149.468C106.233 149.468 120.873 144.893 123.618 152.213C126.363 159.533 132.768 173.258 131.853 182.408C130.938 191.558 129.108 189.728 131.853 192.473C134.598 195.218 136.428 193.388 135.513 197.048C134.598 200.708 133.683 200.708 134.598 202.538C135.513 204.368 123.618 210.773 113.553 211.688L103.488 212.603C103.488 212.603 103.488 196.133 101.658 192.473C99.828 188.813 96.168 181.493 96.168 178.748V171.485C96.168 166.651 97.4295 161.9 99.828 157.703C99.828 157.703 105.318 149.468 106.233 149.468Z" fill="#40B190"/>
<path d="M117.212 153.128C117.212 153.128 151.067 155.873 154.727 165.023C158.387 174.173 160.217 192.473 156.557 192.473C152.897 192.473 148.322 194.303 147.407 192.473C146.492 190.643 142.832 172.343 141.917 172.343C141.002 172.343 113.552 169.598 113.552 169.598C113.552 169.598 101.657 154.958 117.212 153.128Z" fill="#40B190"/>
<path d="M96.6432 135.766C96.6432 135.766 93.7294 130.702 90.0872 135.101C86.4451 139.499 80.52 131.416 81.4296 129.692C82.3392 127.967 85.5512 129.769 91.0558 127.97C96.5604 126.17 107.164 122.504 108.94 134.463C110.716 146.421 106.486 145.167 106.486 145.167C106.486 145.167 104.548 134.571 102.795 137.615L101.043 140.658L99.5234 141.032L96.6432 135.766Z" fill="#2F2E41"/>
</svg>
