<svg width="45" height="31" viewBox="0 0 45 31" fill="none" xmlns="http://www.w3.org/2000/svg">
<path d="M3.19507 0H27.2552C28.071 0.000915394 28.8531 0.32427 29.4299 0.899124C30.0067 1.47398 30.3312 2.25338 30.3321 3.06635V16.184C30.3312 16.9969 30.0067 17.7763 29.4299 18.3512C28.8531 18.926 28.071 19.2494 27.2552 19.2503H3.19507C2.3793 19.2494 1.59721 18.926 1.02038 18.3512C0.443547 17.7763 0.119081 16.9969 0.118164 16.184V3.06635C0.119081 2.25338 0.443547 1.47398 1.02038 0.899124C1.59721 0.32427 2.3793 0.000915394 3.19507 0Z" fill="#E2E8F0"/>
<path d="M3.19526 0.882812H27.2554C27.8364 0.883461 28.3933 1.11373 28.8041 1.52309C29.2149 1.93246 29.4459 2.48749 29.4466 3.06642V16.184C29.4459 16.763 29.2149 17.318 28.8041 17.7274C28.3933 18.1367 27.8364 18.367 27.2554 18.3676H3.19526C2.61434 18.367 2.0574 18.1367 1.64663 17.7274C1.23586 17.318 1.0048 16.763 1.00415 16.184V3.06642C1.0048 2.4875 1.23586 1.93247 1.64663 1.5231C2.0574 1.11374 2.61434 0.883468 3.19526 0.882812Z" fill="white"/>
<path d="M3.42999 23.9475C3.35738 23.9473 3.28554 23.9328 3.21856 23.9049C3.11859 23.8649 3.03308 23.7957 2.97323 23.7064C2.91337 23.6172 2.88195 23.5119 2.88309 23.4046V18.8699L8.94946 18.6665L3.81081 23.7875C3.76112 23.838 3.70187 23.8781 3.6365 23.9056C3.57113 23.9331 3.50093 23.9473 3.42999 23.9475Z" fill="#E2E8F0"/>
<path d="M24.2417 4.14453H6.14969C5.42534 4.14453 4.83813 4.72972 4.83813 5.45159V5.45159C4.83813 6.17346 5.42534 6.75865 6.14969 6.75865H24.2417C24.9661 6.75865 25.5533 6.17346 25.5533 5.45159C25.5533 4.72972 24.9661 4.14453 24.2417 4.14453Z" fill="#E2E8F0"/>
<path d="M24.2713 8.31787H6.17923C5.45488 8.31787 4.86768 8.90306 4.86768 9.62493V9.62493C4.86768 10.3468 5.45488 10.932 6.17923 10.932H24.2713C24.9956 10.932 25.5828 10.3468 25.5828 9.62493C25.5828 8.90306 24.9956 8.31787 24.2713 8.31787Z" fill="#E2E8F0"/>
<path d="M24.3006 12.4907H6.20853C5.48418 12.4907 4.89697 13.0759 4.89697 13.7978V13.7978C4.89697 14.5196 5.48418 15.1048 6.20853 15.1048H24.3006C25.0249 15.1048 25.6121 14.5196 25.6121 13.7978C25.6121 13.0759 25.0249 12.4907 24.3006 12.4907Z" fill="#E2E8F0"/>
<path d="M41.1878 6.68994H17.1277C16.3119 6.69086 15.5298 7.01421 14.953 7.58906C14.3762 8.16392 14.0517 8.94332 14.0508 9.75629V22.8739C14.0517 23.6869 14.3762 24.4663 14.953 25.0411C15.5298 25.616 16.3119 25.9393 17.1277 25.9402H41.1878C42.0036 25.9393 42.7857 25.616 43.3625 25.0411C43.9394 24.4663 44.2638 23.6869 44.2647 22.8739V9.75629C44.2638 8.94332 43.9394 8.16392 43.3625 7.58906C42.7857 7.01421 42.0036 6.69086 41.1878 6.68994Z" fill="#CBD5E1"/>
<path d="M41.1879 7.57373H17.1277C16.5467 7.57438 15.9898 7.80465 15.579 8.21401C15.1682 8.62338 14.9372 9.17841 14.9365 9.75734V22.875C14.9372 23.4539 15.1682 24.0089 15.579 24.4183C15.9898 24.8276 16.5467 25.0579 17.1277 25.0586H41.1879C41.7688 25.0579 42.3257 24.8276 42.7365 24.4183C43.1473 24.0089 43.3783 23.4539 43.379 22.875V9.75734C43.3783 9.17842 43.1473 8.62339 42.7365 8.21402C42.3257 7.80466 41.7688 7.57439 41.1879 7.57373Z" fill="white"/>
<path d="M39.3574 30.4775L34.2188 25.3564L40.2851 25.5599V30.0945C40.2863 30.2019 40.2548 30.3071 40.195 30.3964C40.1351 30.4856 40.0496 30.5548 39.9497 30.5949C39.8827 30.6228 39.8108 30.6373 39.7382 30.6375C39.6673 30.6373 39.5971 30.623 39.5317 30.5955C39.4663 30.5681 39.4071 30.5279 39.3574 30.4775Z" fill="#CBD5E1"/>
<path d="M23.8513 17.9729C24.7694 17.9729 25.5136 17.2312 25.5136 16.3163C25.5136 15.4014 24.7694 14.6597 23.8513 14.6597C22.9332 14.6597 22.189 15.4014 22.189 16.3163C22.189 17.2312 22.9332 17.9729 23.8513 17.9729Z" fill="#FFBB00"/>
<path d="M29.1579 17.9729C30.076 17.9729 30.8203 17.2312 30.8203 16.3163C30.8203 15.4014 30.076 14.6597 29.1579 14.6597C28.2399 14.6597 27.4956 15.4014 27.4956 16.3163C27.4956 17.2312 28.2399 17.9729 29.1579 17.9729Z" fill="#FFBB00"/>
<path d="M34.4648 17.9729C35.3829 17.9729 36.1271 17.2312 36.1271 16.3163C36.1271 15.4014 35.3829 14.6597 34.4648 14.6597C33.5467 14.6597 32.8025 15.4014 32.8025 16.3163C32.8025 17.2312 33.5467 17.9729 34.4648 17.9729Z" fill="#FFBB00"/>
</svg>
