<svg width="400" height="300" viewBox="0 0 400 300" fill="none" xmlns="http://www.w3.org/2000/svg">
    <path d="M190.23 277.51C249.948 277.51 298.36 271.157 298.36 263.32C298.36 255.483 249.948 249.13 190.23 249.13C130.511 249.13 82.0996 255.483 82.0996 263.32C82.0996 271.157 130.511 277.51 190.23 277.51Z" fill="#D1D3D4"/>
    <path d="M182.529 115C182.529 115 172.209 116.24 168.419 116.49C164.629 116.74 160.719 119.49 160.079 120.03C159.439 120.57 156.419 124.83 157.429 128.11C158.439 131.39 162.609 134.55 164.379 134.8C166.149 135.05 180.309 127.91 183.469 125.38L182.529 115Z" fill="white"/>
    <path d="M164.44 135.3H164.31C162.26 135.01 157.97 131.59 156.94 128.3C155.82 124.66 159.14 120.17 159.76 119.66C159.76 119.66 164.07 116.3 168.39 116.02C172.12 115.77 182.39 114.54 182.47 114.53C182.538 114.522 182.607 114.527 182.672 114.546C182.738 114.565 182.799 114.596 182.852 114.639C182.905 114.682 182.949 114.735 182.982 114.796C183.014 114.856 183.034 114.922 183.04 114.99L183.98 125.38C183.989 125.465 183.977 125.551 183.944 125.63C183.91 125.708 183.857 125.777 183.79 125.83C180.86 128.12 167 135.3 164.44 135.3ZM182.06 115.55C179.9 115.81 171.72 116.77 168.45 116.99C165.18 117.21 161.45 119.59 160.45 120.41C159.98 120.78 157.02 124.86 157.97 127.94C158.92 131.02 162.87 134.04 164.49 134.27C166.11 134.5 179.4 127.82 182.97 125.13L182.06 115.55Z" fill="#231F20"/>
    <path d="M158.92 128.82C158.92 128.82 165.83 134.82 168.1 134.88C170.37 134.94 169.1 132.6 169.1 132.6C169.1 132.6 171.28 134.31 171.66 132.89C172.04 131.47 171.56 130.89 171.56 130.89C171.56 130.89 173.36 133.35 173.84 131.55C174.32 129.75 174.03 129.18 174.03 129.18C174.03 129.18 175.45 132.03 176.11 130.04C176.77 128.05 172.89 121.04 169.01 117.72C169.01 117.72 173.55 118.2 173.93 116.59C174.31 114.98 170.24 114.31 168.53 114.22C166.82 114.13 163.53 116.3 160.58 116.59C158.047 116.696 155.51 116.569 153 116.21L153.38 127.21L158.92 128.82Z" fill="white"/>
    <path d="M168.23 135.4H168.08C165.77 135.31 159.7 130.18 158.67 129.29L153.19 127.71C153.083 127.682 152.988 127.62 152.92 127.533C152.851 127.447 152.813 127.34 152.81 127.23L152.43 116.23C152.429 116.154 152.444 116.078 152.473 116.008C152.502 115.937 152.545 115.873 152.6 115.82C152.658 115.772 152.725 115.737 152.797 115.716C152.87 115.696 152.945 115.69 153.02 115.7C155.49 116.05 157.987 116.173 160.48 116.07C162.014 115.825 163.508 115.371 164.92 114.72C166.042 114.161 167.26 113.822 168.51 113.72C168.56 113.72 172.96 113.99 174.12 115.54C174.251 115.706 174.342 115.899 174.387 116.105C174.432 116.311 174.43 116.525 174.38 116.73C174.06 118.1 171.87 118.33 170.38 118.33C173.96 121.96 177.28 128.14 176.59 130.22C176.37 130.89 176.01 131.22 175.54 131.28C175.35 131.276 175.164 131.233 174.992 131.154C174.82 131.075 174.666 130.961 174.54 130.82C174.54 131.08 174.43 131.37 174.35 131.7C174.15 132.45 173.74 132.7 173.43 132.7C173.227 132.721 173.023 132.701 172.829 132.641C172.634 132.581 172.455 132.482 172.3 132.35C172.268 132.569 172.225 132.786 172.17 133C172.129 133.202 172.035 133.391 171.898 133.545C171.761 133.7 171.586 133.815 171.39 133.88C170.922 133.996 170.429 133.939 170 133.72C170.05 134.066 169.98 134.42 169.8 134.72C169.628 134.969 169.389 135.164 169.112 135.284C168.834 135.404 168.529 135.444 168.23 135.4ZM153.83 126.81L159.06 128.32C159.131 128.34 159.196 128.378 159.25 128.43C161.98 130.78 166.59 134.3 168.12 134.36C168.51 134.36 168.78 134.31 168.86 134.17C168.94 134.03 168.78 133.17 168.6 132.86C168.545 132.756 168.527 132.636 168.549 132.52C168.571 132.404 168.632 132.299 168.721 132.223C168.811 132.146 168.924 132.102 169.042 132.098C169.159 132.094 169.275 132.13 169.37 132.2C169.824 132.607 170.394 132.862 171 132.93C171 132.93 171.07 132.93 171.11 132.76C171.306 132.265 171.306 131.715 171.11 131.22C171.03 131.112 170.995 130.977 171.014 130.844C171.033 130.712 171.103 130.591 171.21 130.51C171.316 130.43 171.449 130.394 171.581 130.409C171.713 130.424 171.834 130.488 171.92 130.59C172.227 131.061 172.656 131.441 173.16 131.69C173.205 131.6 173.242 131.506 173.27 131.41C173.503 130.771 173.575 130.084 173.48 129.41C173.449 129.35 173.432 129.284 173.427 129.217C173.423 129.15 173.432 129.082 173.455 129.019C173.477 128.955 173.512 128.897 173.558 128.847C173.603 128.798 173.658 128.758 173.72 128.73C173.845 128.671 173.988 128.663 174.119 128.708C174.249 128.752 174.357 128.847 174.42 128.97C174.639 129.472 174.983 129.909 175.42 130.24C175.477 130.127 175.527 130.01 175.57 129.89C176.1 128.32 172.57 121.53 168.62 118.14C168.535 118.068 168.476 117.971 168.451 117.863C168.426 117.755 168.436 117.642 168.48 117.54C168.524 117.439 168.599 117.354 168.694 117.298C168.789 117.243 168.9 117.219 169.01 117.23C170.73 117.41 173.2 117.23 173.38 116.49C173.393 116.433 173.392 116.373 173.379 116.316C173.365 116.258 173.338 116.205 173.3 116.16C172.69 115.35 170.05 114.84 168.45 114.76C167.355 114.883 166.292 115.202 165.31 115.7C163.806 116.389 162.214 116.867 160.58 117.12C158.212 117.243 155.838 117.143 153.49 116.82L153.83 126.81Z" fill="#231F20"/>
    <path d="M175.5 116C174.049 115.94 172.595 115.98 171.15 116.12C168.53 116.37 165.71 117.12 164.1 119.18C163.995 119.286 163.918 119.417 163.876 119.56C163.834 119.703 163.829 119.854 163.86 120C163.98 120.29 164.34 120.38 164.64 120.43C166.808 120.767 169.013 120.793 171.19 120.51C171.485 120.435 171.794 120.435 172.09 120.51C172.316 120.612 172.523 120.755 172.7 120.93C173.562 121.645 174.631 122.066 175.75 122.13" fill="white"/>
    <path d="M175.75 122.62C174.516 122.557 173.336 122.094 172.39 121.3L172.3 121.23C172.19 121.125 172.066 121.037 171.93 120.97C171.719 120.92 171.5 120.92 171.29 120.97C169.061 121.264 166.801 121.237 164.58 120.89C164.338 120.877 164.103 120.802 163.898 120.672C163.694 120.543 163.525 120.363 163.41 120.15C163.332 119.921 163.319 119.674 163.372 119.438C163.425 119.202 163.542 118.984 163.71 118.81C165.13 116.96 167.56 115.9 171.12 115.56C172.589 115.42 174.065 115.38 175.54 115.44C175.607 115.443 175.672 115.458 175.733 115.486C175.794 115.514 175.849 115.554 175.895 115.603C175.94 115.653 175.975 115.71 175.999 115.773C176.022 115.836 176.032 115.903 176.03 115.97C176.017 116.105 175.955 116.231 175.856 116.324C175.756 116.416 175.626 116.468 175.49 116.47C174.065 116.412 172.639 116.449 171.22 116.58C167.96 116.9 165.77 117.83 164.53 119.44C164.36 119.67 164.36 119.76 164.36 119.76C164.36 119.76 164.42 119.82 164.74 119.87C166.858 120.202 169.013 120.229 171.14 119.95C171.517 119.851 171.913 119.851 172.29 119.95C172.543 120.056 172.773 120.209 172.97 120.4C173.763 121.08 174.757 121.48 175.8 121.54C175.937 121.55 176.064 121.613 176.156 121.716C176.247 121.819 176.295 121.953 176.29 122.09C176.291 122.161 176.278 122.231 176.251 122.297C176.224 122.362 176.185 122.422 176.134 122.472C176.083 122.521 176.023 122.56 175.957 122.585C175.891 122.611 175.82 122.623 175.75 122.62Z" fill="#231F20"/>
    <path d="M269.791 251.33C269.791 251.33 270.601 256.59 269.391 258.61C268.181 260.63 267.091 263.2 266.561 267.92C267.529 269.003 268.711 269.873 270.033 270.476C271.355 271.078 272.788 271.4 274.241 271.42C279.101 271.42 283.951 267.78 284.491 266.03C285.031 264.28 280.581 245.67 280.581 245.67L269.791 251.33Z" fill="white"/>
    <path d="M274.24 271.94C272.709 271.921 271.198 271.581 269.805 270.944C268.412 270.307 267.167 269.386 266.15 268.24C266.07 268.13 266.031 267.996 266.04 267.86C266.62 262.77 267.84 260.19 268.94 258.35C269.86 256.82 269.5 252.82 269.28 251.41C269.265 251.303 269.283 251.194 269.331 251.098C269.379 251.001 269.456 250.922 269.55 250.87L280.34 245.21C280.41 245.176 280.487 245.158 280.565 245.158C280.643 245.158 280.72 245.176 280.79 245.21C280.863 245.241 280.928 245.288 280.978 245.349C281.029 245.41 281.064 245.483 281.08 245.56C281.83 248.69 285.54 264.39 284.98 266.19C284.42 267.99 279.33 271.94 274.24 271.94ZM267.09 267.75C268.013 268.725 269.12 269.506 270.348 270.048C271.575 270.591 272.899 270.884 274.24 270.91C278.9 270.91 283.55 267.33 284 265.91C284.31 264.91 282.32 255.25 280.23 246.46L270.35 251.65C270.52 252.91 270.94 257.05 269.83 258.91C268.72 260.77 267.66 263 267.09 267.75Z" fill="#231F20"/>
    <path d="M236.24 136.78L259.62 143.25L265.06 72.25C265.06 72.25 243.71 75.76 239.06 77.91C234.41 80.06 236.24 136.78 236.24 136.78Z" fill="white"/>
    <path d="M259.62 143.77H259.48L236.11 137.3C236.004 137.271 235.91 137.208 235.842 137.122C235.774 137.036 235.735 136.93 235.73 136.82C235.73 136.68 235.26 122.46 235.37 108.16C235.6 78.9301 237.93 77.8501 238.81 77.4501C243.5 75.2801 264.1 71.8901 264.97 71.7401C265.048 71.7258 265.128 71.7297 265.203 71.7515C265.279 71.7733 265.349 71.8124 265.407 71.8657C265.465 71.9191 265.51 71.9851 265.539 72.0588C265.567 72.1324 265.578 72.2116 265.57 72.2901L260.13 143.29C260.126 143.368 260.103 143.443 260.065 143.511C260.027 143.578 259.974 143.636 259.91 143.68C259.825 143.739 259.724 143.771 259.62 143.77ZM236.75 136.38L259.15 142.59L264.49 72.8501C260.89 73.4601 243.35 76.4701 239.25 78.3601C236.43 79.6701 235.85 109.15 236.75 136.38Z" fill="#231F20"/>
    <path d="M244.001 243.87V259.69L236.451 261.85L236.631 258.61L233.251 262C233.251 262 212.961 265.64 213.061 262.94C213.161 260.24 215.221 258.76 217.781 257.41C220.531 255.97 227.781 251.88 227.781 251.88L228.861 240.29" fill="white"/>
    <path d="M216.83 264.47C214.94 264.47 213.49 264.28 212.93 263.79C212.804 263.691 212.704 263.563 212.638 263.416C212.572 263.27 212.542 263.11 212.55 262.95C212.67 259.95 215.02 258.31 217.55 256.95C220.08 255.59 226.02 252.27 227.28 251.56L228.34 240.23C228.334 240.156 228.344 240.081 228.369 240.011C228.395 239.941 228.435 239.877 228.488 239.824C228.541 239.772 228.605 239.731 228.675 239.706C228.745 239.681 228.82 239.671 228.894 239.678C228.968 239.684 229.04 239.707 229.105 239.745C229.169 239.782 229.225 239.833 229.267 239.895C229.31 239.956 229.338 240.026 229.351 240.099C229.364 240.173 229.36 240.248 229.34 240.32L228.28 252C228.271 252.082 228.243 252.161 228.198 252.231C228.153 252.3 228.092 252.358 228.02 252.4C227.94 252.4 220.75 256.51 218.02 257.94C215.29 259.37 213.67 260.7 213.58 263.03C214.13 264.03 223 263.37 233 261.59L236.3 258.29C236.371 258.213 236.465 258.161 236.567 258.142C236.67 258.122 236.776 258.135 236.87 258.18C236.966 258.222 237.047 258.293 237.103 258.382C237.158 258.471 237.185 258.575 237.18 258.68L237.04 261.19L243.52 259.34V243.87C243.498 243.793 243.494 243.711 243.509 243.632C243.524 243.553 243.557 243.478 243.605 243.414C243.654 243.35 243.716 243.298 243.788 243.262C243.86 243.226 243.94 243.207 244.02 243.207C244.101 243.207 244.18 243.226 244.252 243.262C244.324 243.298 244.387 243.35 244.435 243.414C244.484 243.478 244.517 243.553 244.532 243.632C244.546 243.711 244.542 243.793 244.52 243.87V259.69C244.519 259.802 244.483 259.91 244.416 260C244.35 260.09 244.257 260.156 244.15 260.19L236.59 262.34C236.512 262.363 236.429 262.367 236.349 262.351C236.269 262.335 236.194 262.301 236.13 262.25C236.066 262.199 236.015 262.134 235.982 262.059C235.948 261.984 235.934 261.902 235.94 261.82L236.04 259.93L233.58 262.39C233.509 262.468 233.414 262.52 233.31 262.54C231.1 262.94 222.19 264.47 216.83 264.47Z" fill="#231F20"/>
    <path d="M280.3 143.16L286.65 250.25C286.65 250.25 286.05 254.64 276.52 255.18C266.99 255.72 267.95 253.49 267.95 253.49L252.95 178.41L246.83 248.35L226.26 249.62L230.35 134.62L280.3 143.16Z" fill="#231F20"/>
    <path d="M273.809 255.76C270.379 255.76 268.309 255.29 267.649 254.34C267.471 254.087 267.396 253.776 267.439 253.47L253.159 181.92L247.349 248.39C247.34 248.51 247.287 248.623 247.201 248.708C247.114 248.793 247 248.843 246.879 248.85L226.309 250.12C226.169 250.125 226.032 250.075 225.929 249.98C225.831 249.878 225.778 249.741 225.779 249.6L229.869 134.6C229.873 134.53 229.891 134.461 229.924 134.399C229.957 134.337 230.003 134.282 230.059 134.24C230.112 134.194 230.174 134.16 230.242 134.141C230.309 134.122 230.38 134.118 230.449 134.13L280.379 142.7C280.49 142.718 280.591 142.774 280.666 142.857C280.74 142.941 280.784 143.048 280.789 143.16L287.149 250.25C287.149 250.54 286.369 255.15 276.549 255.71C275.549 255.73 274.639 255.76 273.809 255.76ZM268.409 253.67C268.438 253.723 268.472 253.773 268.509 253.82C268.849 254.2 270.299 255.03 276.509 254.68C284.959 254.21 286.069 250.63 286.169 250.22L279.839 143.59L230.839 135.18L226.839 249.09L246.429 247.88L252.509 178.36C252.519 178.24 252.572 178.129 252.659 178.046C252.745 177.963 252.859 177.914 252.979 177.91C253.098 177.903 253.216 177.94 253.31 178.014C253.404 178.087 253.468 178.193 253.489 178.31L268.489 253.39C268.519 253.484 268.519 253.586 268.489 253.68L268.409 253.67Z" fill="#231F20"/>
    <path d="M261.42 70.0701C261.42 70.0701 253.32 144.96 256.92 149.64C260.52 154.32 276.61 160.51 283.8 154.76C290.99 149.01 282.18 81.3101 279 76.2801C273.435 73.4553 267.525 71.3677 261.42 70.0701Z" fill="#68E1FD"/>
    <path d="M291.471 167.47C291.471 167.47 290.471 161.08 291.041 160.47C291.611 159.86 305.911 159.47 307.041 159.6C308.171 159.73 308.361 166.38 308.361 166.38L306.231 166.59C306.231 166.59 306.461 162.26 305.671 162.07C304.881 161.88 293.271 162.23 293.271 162.23L293.891 167.45L291.471 167.47Z" fill="#231F20"/>
    <path d="M291.47 168C291.352 167.999 291.238 167.956 291.148 167.88C291.058 167.803 290.999 167.697 290.98 167.58C290.28 163.17 290.18 160.68 290.69 160.16C291.58 159.26 306.98 159.16 307.13 159.16C308.21 159.24 308.81 161.69 308.91 166.43C308.908 166.555 308.862 166.675 308.78 166.769C308.697 166.862 308.583 166.923 308.46 166.94L306.33 167.15C306.258 167.156 306.187 167.146 306.119 167.122C306.052 167.098 305.991 167.06 305.94 167.01C305.886 166.963 305.843 166.904 305.816 166.838C305.788 166.773 305.776 166.701 305.78 166.63C305.916 165.292 305.831 163.941 305.53 162.63C304.6 162.53 298.18 162.63 293.87 162.8L294.43 167.48C294.438 167.55 294.431 167.62 294.41 167.687C294.39 167.755 294.355 167.817 294.31 167.87C294.264 167.924 294.208 167.967 294.144 167.996C294.08 168.025 294.01 168.04 293.94 168.04H291.47V168ZM291.41 160.89C291.353 162.938 291.517 164.987 291.9 167H293.38L292.82 162.34C292.813 162.272 292.82 162.203 292.841 162.138C292.862 162.072 292.895 162.012 292.94 161.96C292.983 161.906 293.038 161.863 293.1 161.834C293.163 161.805 293.231 161.789 293.3 161.79C295.25 161.73 305.03 161.43 305.84 161.63C306.12 161.7 306.96 161.9 306.84 166.09L307.94 165.98C307.84 163.06 307.44 160.43 307.02 160.12C305.77 160 293 160.38 291.41 160.86V160.89Z" fill="#231F20"/>
    <path d="M294.51 150.94C293.346 152.855 292.39 154.89 291.66 157.01C291.335 158.125 291.367 159.314 291.75 160.41L295.08 159.87C295.08 159.87 294.59 166.37 295.63 166.37C296.67 166.37 298.29 167.16 298.19 162.14C298.19 162.14 298.64 164.06 300.34 163.31C301.283 162.945 302.046 162.227 302.47 161.31C302.47 161.31 303.96 163.73 305.47 161.07C306.98 158.41 304.52 150.88 304.52 150.88L304.28 147.26L294.09 147.54L294.51 150.94Z" fill="white"/>
    <path d="M296.45 166.93C296.28 166.93 296.12 166.93 295.97 166.93H295.63C295.41 166.922 295.202 166.828 295.05 166.67C294.31 165.88 294.4 162.5 294.52 160.53L291.84 160.96C291.73 160.978 291.617 160.961 291.519 160.91C291.42 160.86 291.339 160.779 291.29 160.68C290.849 159.479 290.803 158.169 291.16 156.94C291.868 154.817 292.814 152.781 293.98 150.87L293.61 147.65C293.601 147.579 293.607 147.506 293.628 147.437C293.648 147.369 293.683 147.305 293.73 147.25C293.827 147.142 293.964 147.077 294.11 147.07L304.3 146.8C304.55 146.74 304.81 147 304.83 147.28L305.06 150.83C305.32 151.62 307.52 158.64 305.94 161.37C305.37 162.37 304.71 162.87 303.94 162.88C303.673 162.88 303.409 162.825 303.165 162.718C302.921 162.611 302.701 162.455 302.52 162.26C302.005 162.953 301.314 163.495 300.52 163.83C300.254 163.963 299.961 164.032 299.665 164.032C299.368 164.032 299.075 163.963 298.81 163.83L298.64 163.74C298.68 164.729 298.352 165.698 297.72 166.46C297.374 166.776 296.918 166.945 296.45 166.93ZM295.76 165.85H296.06C296.52 165.85 296.82 165.85 297.06 165.68C297.3 165.51 297.73 164.53 297.68 162.13C297.679 162.002 297.725 161.878 297.81 161.782C297.895 161.686 298.012 161.625 298.14 161.61C298.265 161.594 298.391 161.625 298.494 161.697C298.598 161.77 298.671 161.877 298.7 162C298.788 162.358 299.005 162.672 299.31 162.88C299.444 162.93 299.588 162.951 299.731 162.94C299.874 162.93 300.014 162.889 300.14 162.82C300.958 162.517 301.623 161.902 301.99 161.11C302.025 161.021 302.085 160.943 302.161 160.885C302.238 160.827 302.329 160.791 302.425 160.781C302.52 160.771 302.617 160.787 302.704 160.827C302.791 160.867 302.866 160.93 302.92 161.01C303.04 161.22 303.5 161.78 303.92 161.78C304.34 161.78 304.75 161.24 305.01 160.78C306.18 158.78 304.69 153.04 304.01 151.01C304.004 150.967 304.004 150.923 304.01 150.88L303.8 147.76L294.67 148.01L294.99 150.85C295.001 150.961 294.977 151.074 294.92 151.17C293.786 153.045 292.851 155.032 292.13 157.1C291.9 157.983 291.883 158.909 292.08 159.8L294.96 159.33C295.036 159.315 295.116 159.319 295.191 159.342C295.266 159.364 295.334 159.405 295.39 159.46C295.448 159.513 295.493 159.578 295.523 159.65C295.552 159.723 295.565 159.802 295.56 159.88C295.41 162.36 295.44 165.25 295.76 165.85Z" fill="#231F20"/>
    <path d="M284.241 168.06L277.891 168.83L280.681 200.98L287.481 201.54L284.241 168.06Z" fill="white"/>
    <path d="M287.481 202.05L280.681 201.5C280.559 201.491 280.445 201.438 280.359 201.352C280.272 201.266 280.22 201.152 280.211 201.03L277.421 168.87C277.414 168.804 277.42 168.738 277.439 168.675C277.458 168.611 277.489 168.552 277.531 168.501C277.573 168.45 277.624 168.408 277.683 168.377C277.741 168.346 277.805 168.326 277.871 168.32L284.221 167.54C284.356 167.531 284.491 167.57 284.601 167.65C284.655 167.694 284.7 167.749 284.732 167.811C284.765 167.873 284.785 167.94 284.791 168.01L288.001 201.49C288.009 201.561 288.003 201.634 287.981 201.702C287.959 201.771 287.922 201.834 287.874 201.887C287.826 201.94 287.766 201.982 287.7 202.01C287.634 202.038 287.563 202.052 287.491 202.05H287.481ZM281.161 200.5L286.911 200.97L283.781 168.63L278.451 169.28L281.161 200.5Z" fill="#231F20"/>
    <path d="M284.239 168.06C284.089 168.5 287.479 201.54 287.479 201.54L317.889 198.41L315.839 166.11L284.239 168.06Z" fill="white"/>
    <path d="M287.48 202.05C287.361 202.049 287.246 202.01 287.15 201.94C287.048 201.85 286.984 201.725 286.97 201.59C283.57 168.44 283.7 168.03 283.75 167.9C283.779 167.799 283.84 167.711 283.922 167.646C284.005 167.581 284.105 167.544 284.21 167.54L315.81 165.59C315.947 165.582 316.081 165.628 316.184 165.717C316.286 165.807 316.35 165.934 316.36 166.07L318.41 198.38C318.419 198.512 318.375 198.642 318.289 198.743C318.204 198.844 318.082 198.907 317.95 198.92L287.53 202.05H287.48ZM284.77 168.54C284.97 171.54 286.71 188.93 287.94 200.97L317.35 197.97L315.35 166.67L284.77 168.54Z" fill="#231F20"/>
    <path d="M291.64 179.71C291.555 179.71 291.471 179.689 291.396 179.649C291.321 179.609 291.257 179.551 291.21 179.48L283.81 168.34C283.754 168.227 283.741 168.097 283.774 167.974C283.807 167.852 283.883 167.746 283.989 167.676C284.094 167.606 284.222 167.577 284.347 167.594C284.472 167.612 284.587 167.674 284.67 167.77L291.9 178.65L311.21 177.14L315.36 165.93C315.382 165.866 315.417 165.807 315.462 165.756C315.508 165.706 315.563 165.665 315.625 165.636C315.686 165.607 315.753 165.591 315.821 165.588C315.888 165.586 315.956 165.596 316.02 165.62C316.084 165.644 316.143 165.679 316.194 165.726C316.245 165.772 316.285 165.828 316.314 165.891C316.343 165.953 316.359 166.02 316.362 166.089C316.365 166.157 316.354 166.226 316.33 166.29L312.06 177.8C312.026 177.893 311.967 177.974 311.889 178.034C311.811 178.094 311.718 178.131 311.62 178.14L291.68 179.71H291.64Z" fill="#231F20"/>
    <path d="M303.837 175.73L300.904 176.051L301.548 181.926L304.48 181.604L303.837 175.73Z" fill="#D1D3D4"/>
    <path d="M229.049 76.55C229.049 76.55 220.419 152.87 222.579 155.03C224.739 157.19 234.269 154.49 237.499 152.33C240.729 150.17 245.439 71 245.439 71C245.439 71 233.729 72.59 229.049 76.55Z" fill="#68E1FD"/>
    <path d="M229.049 76.55C229.049 76.55 213.749 108.55 206.529 110.8C195.739 114.17 180.529 113.9 180.529 113.9L181.749 130.08C181.749 130.08 201.349 132.82 212.489 129.95C223.629 127.08 235.549 110.89 235.549 110.89L229.049 76.55Z" fill="#68E1FD"/>
    <path d="M247.98 81.98L250.09 85.04L242.49 130.67L247.35 136.87L253.55 131.48L252.2 85.54L254.58 82.21L251.57 80.05L247.98 81.98Z" fill="#D1D3D4"/>
    <path d="M223.121 134.51H223.071C222.935 134.495 222.811 134.428 222.724 134.324C222.636 134.22 222.592 134.086 222.601 133.95C223.311 125.42 226.531 90.7799 226.601 90.4299C226.641 90.3226 226.716 90.2317 226.813 90.1712C226.91 90.1108 227.025 90.0842 227.139 90.0956C227.253 90.107 227.36 90.1558 227.444 90.2343C227.527 90.3128 227.582 90.4168 227.601 90.5299C227.601 90.8799 224.351 125.53 223.601 134.04C223.591 134.163 223.537 134.279 223.449 134.365C223.361 134.452 223.244 134.503 223.121 134.51Z" fill="#231F20"/>
    <path d="M246 65.0801L244.83 74.9301C244.83 74.9301 245.58 79.5801 252.35 78.8301C259.12 78.0801 260.67 73.6801 260.67 73.6801L262.19 55.2401C262.19 55.2401 258.41 51.9101 261.19 41.5201C261.19 41.5201 250.65 43.3501 241.04 40.8601C241.04 40.8601 239.38 52.8601 239.52 58.0001C239.66 63.1401 246 65.0801 246 65.0801Z" fill="white"/>
    <path d="M251 79.4301C245.16 79.4301 244.39 75.0601 244.38 75.0101V74.8701L245.5 65.4401C244.03 64.9001 239.2 62.7701 239.07 58.0101C238.92 52.8401 240.52 41.2801 240.59 40.7901C240.601 40.7184 240.626 40.6498 240.666 40.5893C240.706 40.5287 240.759 40.4778 240.82 40.4401C240.879 40.398 240.946 40.369 241.017 40.3552C241.087 40.3414 241.16 40.3431 241.23 40.3601C250.6 42.8001 261 41.0001 261.15 41.0001C261.234 40.9843 261.321 40.9908 261.402 41.0189C261.482 41.0469 261.554 41.0956 261.61 41.1601C261.67 41.2228 261.713 41.3 261.734 41.3842C261.755 41.4683 261.754 41.5565 261.73 41.6401C259.06 51.6401 262.53 54.8101 262.57 54.8401C262.629 54.8947 262.674 54.9616 262.704 55.036C262.733 55.1103 262.746 55.1903 262.74 55.2701L261.22 73.7101C261.231 73.7528 261.231 73.7973 261.22 73.8401C261.16 74.0301 259.49 78.5501 252.48 79.3301C251.989 79.3919 251.495 79.4252 251 79.4301ZM245.42 74.9101C245.53 75.4401 246.53 78.9101 252.35 78.3201C258.35 77.6501 260.01 74.0801 260.22 73.5601L261.71 55.4301C260.96 54.5801 258.4 50.9301 260.56 42.1501C257.99 42.5001 249.48 43.4201 241.56 41.5001C241.23 43.9401 239.99 53.5001 240.12 57.9801C240.25 62.7301 246.12 64.5701 246.23 64.5901C246.345 64.626 246.445 64.7001 246.512 64.8001C246.579 64.9001 246.611 65.02 246.6 65.1401L245.42 74.9101Z" fill="#231F20"/>
    <path d="M259.18 54.3201C259.521 53.4469 260.135 52.707 260.93 52.2101C261.691 51.7837 262.52 51.4927 263.38 51.3501C263.842 51.2193 264.327 51.1919 264.8 51.2701C265.123 51.3664 265.425 51.5224 265.69 51.7301C266.357 52.1686 266.843 52.8324 267.06 53.6001C267.161 54.2298 267.109 54.8744 266.91 55.4801C266.743 56.1575 266.488 56.8098 266.15 57.4201C265.799 58.0197 265.332 58.5434 264.776 58.9608C264.22 59.3781 263.587 59.6807 262.913 59.851C262.24 60.0213 261.539 60.0559 260.851 59.9527C260.164 59.8496 259.504 59.6107 258.91 59.2501" fill="white"/>
    <path d="M261.631 60.5201C260.574 60.5224 259.536 60.2354 258.631 59.6901C258.516 59.6197 258.433 59.5064 258.401 59.3752C258.369 59.244 258.391 59.1055 258.461 58.9901C258.495 58.9308 258.54 58.879 258.595 58.8378C258.649 58.7965 258.712 58.7666 258.778 58.7498C258.844 58.733 258.913 58.7297 258.98 58.74C259.048 58.7504 259.113 58.7742 259.171 58.8101C259.706 59.1346 260.3 59.3495 260.919 59.4421C261.538 59.5348 262.17 59.5035 262.776 59.3499C263.383 59.1964 263.953 58.9237 264.454 58.5478C264.954 58.1718 265.374 57.7001 265.691 57.1601C266.009 56.5921 266.248 55.9831 266.401 55.3501C266.583 54.8237 266.635 54.2608 266.551 53.7101C266.349 53.0699 265.932 52.519 265.371 52.1501C265.16 51.98 264.919 51.8511 264.661 51.7701C264.266 51.7142 263.864 51.7415 263.481 51.8501C262.677 51.9838 261.903 52.2544 261.191 52.6501C260.494 53.0852 259.958 53.7343 259.661 54.5001C259.612 54.6286 259.513 54.7323 259.388 54.7885C259.262 54.8447 259.119 54.8489 258.991 54.8001C258.862 54.7508 258.759 54.6526 258.702 54.5271C258.646 54.4015 258.642 54.2587 258.691 54.1301C259.083 53.147 259.785 52.3185 260.691 51.7701C261.502 51.3145 262.384 51 263.301 50.8401C263.838 50.6917 264.403 50.6678 264.951 50.7701C265.345 50.878 265.712 51.0652 266.031 51.3201C266.795 51.8297 267.352 52.5958 267.601 53.4801C267.716 54.1961 267.661 54.9292 267.441 55.6201C267.262 56.3408 266.987 57.0339 266.621 57.6801C266.226 58.3438 265.702 58.9218 265.08 59.3803C264.459 59.8388 263.752 60.1685 263.001 60.3501C262.553 60.4635 262.093 60.5206 261.631 60.5201Z" fill="#231F20"/>
    <path d="M245.06 49.29C245.06 49.29 240.8 53.85 241.47 54.87C242.14 55.89 244.47 55.67 244.47 55.67" fill="white"/>
    <path d="M243.999 56.2001C243.159 56.2001 241.679 56.0601 241.079 55.1401C240.279 54.0001 242.999 50.7601 244.699 49.0001C244.745 48.9535 244.8 48.9165 244.86 48.8913C244.92 48.866 244.984 48.853 245.049 48.853C245.115 48.853 245.179 48.866 245.239 48.8913C245.299 48.9165 245.354 48.9535 245.399 49.0001C245.492 49.0952 245.543 49.2226 245.543 49.3551C245.543 49.4876 245.492 49.6149 245.399 49.7101C243.399 51.8401 241.749 54.1701 241.869 54.7101C242.239 55.2601 243.759 55.3301 244.439 55.2701C244.57 55.2615 244.699 55.3035 244.799 55.3872C244.9 55.471 244.964 55.5901 244.979 55.7201C244.991 55.8512 244.95 55.9814 244.865 56.0825C244.781 56.1836 244.66 56.2474 244.529 56.2601C244.352 56.2494 244.175 56.2294 243.999 56.2001Z" fill="#231F20"/>
    <path d="M249.977 48.1114C250.224 47.49 250.067 46.8437 249.625 46.6679C249.183 46.4922 248.625 46.8535 248.377 47.475C248.13 48.0965 248.288 48.7428 248.729 48.9185C249.171 49.0943 249.73 48.7329 249.977 48.1114Z" fill="#231F20"/>
    <path d="M243.671 47.065C243.917 46.4434 243.757 45.7981 243.316 45.6236C242.874 45.4492 242.317 45.8116 242.071 46.4332C241.826 47.0547 241.985 47.7 242.427 47.8745C242.869 48.0489 243.426 47.6865 243.671 47.065Z" fill="#231F20"/>
    <path d="M243 58L247.47 58.29C247.47 58.29 247.76 61.52 245.34 62.1C242.92 62.68 243 58 243 58Z" fill="white"/>
    <path d="M244.93 62.6201C244.52 62.6259 244.12 62.4879 243.8 62.2301C242.47 61.1701 242.48 58.2901 242.48 57.9601C242.485 57.8237 242.542 57.6944 242.64 57.6001C242.744 57.5136 242.875 57.4674 243.01 57.4701L247.48 57.7701C247.6 57.7746 247.714 57.8229 247.801 57.9058C247.888 57.9887 247.941 58.1006 247.95 58.2201C248.06 59.4801 247.68 62.0101 245.44 62.5601C245.273 62.5987 245.102 62.6188 244.93 62.6201ZM243.5 58.5101C243.55 59.4301 243.77 60.9301 244.42 61.4501C244.532 61.5336 244.662 61.5898 244.799 61.6142C244.936 61.6385 245.077 61.6302 245.21 61.5901C246.72 61.2201 246.94 59.5401 246.96 58.7301L243.5 58.5101Z" fill="#231F20"/>
    <path d="M268.999 52.2601C268.93 52.2738 268.859 52.2738 268.789 52.2601C268.727 52.233 268.671 52.1938 268.624 52.1448C268.577 52.0958 268.541 52.0379 268.517 51.9746C268.492 51.9113 268.481 51.8438 268.483 51.7761C268.485 51.7083 268.501 51.6417 268.529 51.5801C269.871 48.8958 270.65 45.966 270.819 42.9701C270.889 41.5156 270.626 40.0643 270.051 38.7266C269.476 37.3889 268.603 36.1999 267.499 35.2501C266.229 34.2501 264.199 33.6401 262.729 34.5801C262.649 34.6332 262.556 34.6626 262.46 34.665C262.364 34.6673 262.269 34.6425 262.187 34.5934C262.104 34.5443 262.037 34.4729 261.993 34.3874C261.95 34.3019 261.931 34.2057 261.939 34.1101C261.914 33.7723 261.819 33.4434 261.661 33.144C261.503 32.8446 261.284 32.5811 261.019 32.3701C256.719 27.9601 249.889 27.5501 244.069 27.8601C244.651 28.3748 245.174 28.9515 245.629 29.5801C245.676 29.6606 245.7 29.752 245.7 29.8451C245.7 29.9381 245.676 30.0295 245.629 30.1101C245.59 30.1924 245.53 30.2628 245.454 30.3138C245.378 30.3648 245.29 30.3946 245.199 30.4001C242.021 30.5873 238.842 30.054 235.899 28.8401C236.241 31.2983 236.949 33.6916 237.999 35.9401C238.043 36.0295 238.059 36.1298 238.046 36.2285C238.034 36.3271 237.992 36.4199 237.927 36.4954C237.863 36.5708 237.777 36.6257 237.682 36.6532C237.586 36.6807 237.484 36.6796 237.389 36.6501C234.877 35.9079 232.708 34.2994 231.269 32.1101C230.978 34.3723 231.24 36.6715 232.032 38.8103C232.825 40.9492 234.124 42.8639 235.819 44.3901C235.868 44.4367 235.906 44.4926 235.932 44.5545C235.959 44.6163 235.972 44.6829 235.972 44.7501C235.972 44.8173 235.959 44.8838 235.932 44.9456C235.906 45.0075 235.868 45.0634 235.819 45.1101C235.772 45.1587 235.715 45.1974 235.652 45.2238C235.59 45.2503 235.522 45.2639 235.454 45.2639C235.386 45.2639 235.319 45.2503 235.256 45.2238C235.194 45.1974 235.137 45.1587 235.089 45.1101C233.076 43.3054 231.585 40.9919 230.774 38.4123C229.962 35.8328 229.861 33.0824 230.479 30.4501C230.504 30.3461 230.561 30.2525 230.641 30.1826C230.722 30.1126 230.823 30.0697 230.929 30.0601C231.036 30.053 231.142 30.0777 231.235 30.1311C231.327 30.1845 231.402 30.2642 231.449 30.3601C232.499 32.5415 234.304 34.2683 236.529 35.2201C235.605 32.9102 235.022 30.478 234.799 28.0001C234.791 27.9099 234.807 27.8192 234.845 27.737C234.883 27.6548 234.942 27.5839 235.016 27.5314C235.089 27.4788 235.176 27.4465 235.266 27.4375C235.356 27.4285 235.447 27.4432 235.529 27.4801C238.228 28.7371 241.173 29.376 244.149 29.3501C243.621 28.7664 243.023 28.2493 242.369 27.8101C242.28 27.7498 242.211 27.6631 242.173 27.5621C242.135 27.461 242.129 27.3506 242.157 27.2462C242.184 27.1417 242.243 27.0484 242.326 26.9792C242.409 26.91 242.512 26.8684 242.619 26.8601C248.929 26.4101 256.799 26.5301 261.739 31.6001C262.244 32.0702 262.625 32.6576 262.849 33.3101C263.747 33.0369 264.698 32.9926 265.617 33.1812C266.535 33.3698 267.392 33.7854 268.109 34.3901C269.338 35.4368 270.312 36.7501 270.957 38.23C271.601 39.7099 271.9 41.3174 271.829 42.9301C271.661 46.0615 270.851 49.1249 269.449 51.9301C269.413 52.0221 269.352 52.1021 269.272 52.1605C269.193 52.219 269.098 52.2535 268.999 52.2601Z" fill="#231F20"/>
    <path d="M246 65.0799C246 65.0799 251.13 65.5799 253.64 64.4099C253.64 64.4099 251.1 70.0699 245.4 71.0199L246 65.0799Z" fill="#231F20"/>
    <path d="M245.441 71.5101C245.378 71.5121 245.316 71.5017 245.258 71.4794C245.199 71.457 245.146 71.4233 245.101 71.3801C245.043 71.33 244.998 71.2665 244.97 71.195C244.942 71.1235 244.932 71.0463 244.941 70.9701L245.551 65.0301C245.557 64.9656 245.576 64.903 245.606 64.8459C245.637 64.7888 245.679 64.7384 245.729 64.6974C245.779 64.6565 245.837 64.626 245.899 64.6075C245.961 64.5891 246.026 64.5832 246.091 64.5901C246.091 64.5901 251.091 65.0601 253.481 63.9601C253.571 63.9157 253.673 63.9014 253.772 63.9194C253.871 63.9374 253.962 63.9868 254.031 64.0601C254.103 64.1295 254.152 64.2195 254.172 64.3178C254.192 64.4162 254.181 64.5182 254.141 64.6101C254.031 64.8501 251.421 70.5301 245.521 71.5101H245.441ZM246.491 65.6201L246.001 70.4001C248.775 69.5978 251.142 67.7712 252.621 65.2901C250.601 65.6756 248.539 65.7866 246.491 65.6201Z" fill="#231F20"/>
    <path d="M278.571 76C278.571 76 290.001 81.46 295.941 96.77C301.881 112.08 307.161 147.67 307.161 147.67L289.301 149.22C289.301 149.22 286.971 112.08 274.301 94.38L278.571 76Z" fill="#68E1FD"/>
    <path d="M227.43 144.58C227.355 144.579 227.281 144.561 227.213 144.529C227.146 144.496 227.087 144.448 227.04 144.39C226.995 144.34 226.961 144.28 226.94 144.216C226.918 144.152 226.91 144.085 226.916 144.017C226.921 143.95 226.941 143.885 226.972 143.825C227.004 143.765 227.047 143.713 227.1 143.67L235.92 136.38C235.971 136.337 236.031 136.305 236.095 136.285C236.16 136.266 236.227 136.259 236.294 136.265C236.361 136.272 236.426 136.292 236.485 136.323C236.545 136.355 236.597 136.398 236.64 136.45C236.727 136.556 236.768 136.693 236.755 136.83C236.742 136.966 236.675 137.092 236.57 137.18L227.76 144.46C227.668 144.539 227.55 144.581 227.43 144.58Z" fill="#231F20"/>
    <path d="M277.06 144.58C276.96 144.581 276.862 144.549 276.78 144.49C273.27 142.19 265.08 136.72 264.7 135.6C264.659 135.469 264.67 135.326 264.732 135.203C264.793 135.08 264.9 134.986 265.03 134.94C265.156 134.898 265.294 134.907 265.413 134.965C265.533 135.023 265.625 135.125 265.67 135.25C266.11 135.99 271.94 140.09 277.34 143.63C277.398 143.667 277.447 143.716 277.485 143.772C277.524 143.829 277.551 143.892 277.565 143.959C277.579 144.026 277.579 144.095 277.566 144.162C277.554 144.229 277.528 144.293 277.49 144.35C277.444 144.421 277.38 144.48 277.305 144.52C277.23 144.56 277.146 144.581 277.06 144.58Z" fill="#231F20"/>
    <path d="M260.159 109.16C260.075 109.16 259.993 109.14 259.919 109.1C259.797 109.036 259.706 108.926 259.665 108.795C259.623 108.664 259.636 108.522 259.699 108.4L267.589 93.4999L261.639 88.9099C261.579 88.8634 261.531 88.8043 261.496 88.737C261.461 88.6696 261.442 88.5955 261.439 88.5199C261.436 88.4448 261.45 88.37 261.479 88.3009C261.509 88.2317 261.553 88.1699 261.609 88.1199C261.809 87.9399 266.209 83.9999 267.379 83.0299C266.969 82.1399 264.249 79.1199 261.769 76.6399C261.691 76.5399 261.652 76.4146 261.659 76.2878C261.667 76.161 261.721 76.0414 261.811 75.9516C261.901 75.8618 262.02 75.808 262.147 75.8003C262.274 75.7926 262.399 75.8316 262.499 75.9099C264.759 78.1699 268.499 82.1199 268.499 83.2099C268.493 83.3052 268.466 83.3982 268.421 83.4826C268.377 83.567 268.314 83.6411 268.239 83.6999C267.729 84.0799 264.689 86.7899 262.799 88.4699L268.599 92.9499C268.696 93.0236 268.764 93.1297 268.79 93.2489C268.815 93.3682 268.797 93.4927 268.739 93.5999L260.649 108.88C260.605 108.97 260.535 109.046 260.447 109.096C260.36 109.146 260.259 109.168 260.159 109.16Z" fill="#231F20"/>
    <path d="M240.921 103.22C240.827 103.221 240.734 103.196 240.653 103.148C240.572 103.101 240.506 103.032 240.461 102.95L233.631 89.82C233.568 89.7067 233.552 89.5736 233.585 89.4487C233.619 89.3237 233.7 89.2167 233.811 89.15L239.621 85.44L234.881 82.28C234.817 82.2384 234.763 82.183 234.723 82.118C234.684 82.0529 234.659 81.9799 234.652 81.9041C234.644 81.8283 234.653 81.7518 234.679 81.6801C234.705 81.6085 234.746 81.5435 234.801 81.49L241.271 75C241.371 74.9217 241.496 74.8827 241.623 74.8904C241.749 74.898 241.869 74.9519 241.959 75.0417C242.049 75.1315 242.102 75.2511 242.11 75.3779C242.118 75.5047 242.079 75.6299 242.001 75.73L236.001 81.73L240.851 85C240.921 85.0474 240.979 85.1114 241.019 85.1863C241.059 85.2613 241.08 85.3449 241.081 85.43C241.078 85.5155 241.054 85.5991 241.012 85.6739C240.971 85.7487 240.912 85.8124 240.841 85.86L234.761 89.74L241.381 102.45C241.441 102.572 241.452 102.714 241.411 102.844C241.37 102.975 241.28 103.084 241.161 103.15C241.086 103.188 241.004 103.211 240.921 103.22Z" fill="#231F20"/>
    <path d="M252.789 182C252.669 182.002 252.553 181.96 252.461 181.883C252.369 181.806 252.308 181.698 252.289 181.58C252.129 180.58 248.289 156.39 248.509 151.8C248.517 151.667 248.577 151.543 248.677 151.455C248.776 151.367 248.906 151.322 249.039 151.33C249.172 151.338 249.296 151.398 249.384 151.498C249.472 151.597 249.517 151.727 249.509 151.86C249.239 156.34 253.239 181.17 253.279 181.42C253.289 181.485 253.286 181.551 253.27 181.615C253.255 181.679 253.226 181.739 253.187 181.792C253.148 181.845 253.099 181.89 253.043 181.924C252.987 181.958 252.924 181.98 252.859 181.99L252.789 182Z" fill="white"/>
    <path d="M289.459 147.73C289.34 147.73 289.224 147.687 289.133 147.611C289.042 147.534 288.98 147.427 288.959 147.31L277.359 89.8601C277.346 89.7937 277.346 89.7254 277.36 89.6592C277.374 89.5929 277.4 89.5301 277.439 89.4742C277.477 89.4184 277.526 89.3707 277.582 89.3339C277.639 89.2972 277.703 89.2721 277.769 89.2601C277.835 89.2455 277.903 89.2444 277.969 89.2568C278.035 89.2693 278.098 89.2949 278.154 89.3323C278.21 89.3696 278.258 89.4179 278.295 89.4742C278.332 89.5306 278.357 89.5938 278.369 89.6601L289.999 147.11C290.014 147.176 290.015 147.244 290.002 147.31C289.99 147.376 289.964 147.439 289.927 147.495C289.89 147.551 289.841 147.599 289.785 147.636C289.729 147.673 289.665 147.698 289.599 147.71L289.459 147.73Z" fill="#231F20"/>
    <path d="M130.83 201.76L128.94 246.34C128.94 246.34 147.1 257.14 146.28 258.27C145.46 259.4 113.67 253.8 113.67 253.8L115.81 202.3" fill="white"/>
    <path d="M145.099 258.84C141.269 258.84 130.709 257.33 113.579 254.31C113.455 254.291 113.342 254.226 113.262 254.128C113.183 254.03 113.143 253.906 113.149 253.78L115.289 202.28C115.297 202.144 115.358 202.016 115.459 201.925C115.56 201.833 115.693 201.785 115.829 201.79C115.897 201.793 115.964 201.809 116.025 201.837C116.087 201.866 116.142 201.907 116.188 201.957C116.233 202.007 116.268 202.066 116.291 202.13C116.314 202.194 116.323 202.262 116.319 202.33L114.199 253.33C125.199 255.26 142.309 257.99 145.539 257.88C143.979 256.26 136.099 251.16 128.679 246.75C128.6 246.701 128.535 246.631 128.491 246.549C128.447 246.466 128.426 246.374 128.429 246.28L130.319 201.7C130.32 201.632 130.335 201.565 130.363 201.503C130.39 201.441 130.43 201.385 130.479 201.339C130.528 201.292 130.587 201.256 130.65 201.232C130.714 201.208 130.781 201.197 130.849 201.2C130.917 201.203 130.985 201.219 131.047 201.247C131.109 201.276 131.165 201.316 131.211 201.366C131.258 201.417 131.294 201.475 131.317 201.54C131.341 201.604 131.352 201.672 131.349 201.74L129.469 246.02C134.779 249.18 146.469 256.31 146.799 258.02C146.824 258.112 146.828 258.209 146.809 258.303C146.789 258.397 146.749 258.485 146.689 258.56C146.562 258.747 146.032 258.84 145.099 258.84Z" fill="#231F20"/>
    <path d="M135.19 247.83L129.31 253.14L112.43 250.79V257.49C112.43 257.49 149.7 262.41 151.43 259.32C153.16 256.23 135.19 247.83 135.19 247.83Z" fill="#231F20"/>
    <path d="M118.67 211.21L116.79 255.8C116.79 255.8 134.94 266.6 134.12 267.72C133.3 268.84 101.51 263.26 101.51 263.26L103.65 211.76" fill="white"/>
    <path d="M132.941 268.3C129.111 268.3 118.551 266.78 101.421 263.77C101.297 263.748 101.185 263.683 101.106 263.586C101.027 263.488 100.986 263.365 100.991 263.24L103.131 211.74C103.141 211.604 103.202 211.477 103.302 211.384C103.402 211.291 103.534 211.24 103.671 211.24C103.739 211.243 103.806 211.259 103.868 211.287C103.93 211.316 103.986 211.356 104.032 211.406C104.079 211.457 104.115 211.515 104.139 211.58C104.162 211.644 104.173 211.712 104.171 211.78L102.041 262.78C113.041 264.71 130.141 267.44 133.381 267.32C131.821 265.7 123.951 260.61 116.521 256.19C116.441 256.141 116.376 256.071 116.332 255.989C116.288 255.906 116.267 255.814 116.271 255.72L118.161 211.14C118.192 211.031 118.257 210.936 118.347 210.868C118.438 210.8 118.548 210.763 118.661 210.763C118.774 210.763 118.883 210.8 118.974 210.868C119.064 210.936 119.13 211.031 119.161 211.14L117.281 255.42C122.591 258.58 134.281 265.71 134.621 267.42C134.641 267.514 134.642 267.612 134.623 267.707C134.604 267.801 134.566 267.891 134.511 267.97C134.401 268.21 133.871 268.3 132.941 268.3Z" fill="#231F20"/>
    <path d="M122.879 257.21L117.119 262.65L100.189 260.65L100.309 267.34C100.309 267.34 137.679 271.42 139.309 268.29C140.939 265.16 122.879 257.21 122.879 257.21Z" fill="#231F20"/>
    <path d="M139.6 129.83C141.06 139.77 133.6 238.1 133.6 238.1C122.826 239.191 111.961 239.009 101.23 237.56C92.6695 219.79 83.6095 164.2 86.1295 151.25C88.6495 138.3 94.7595 124.82 94.7595 124.82C94.7595 124.82 139.65 130.19 139.6 129.83Z" fill="#231F20"/>
    <path d="M139.69 134.89C139.69 134.89 144.63 82.1199 142.21 78.1599C134.08 64.8899 91.8604 65.3099 88.2704 77.8899C85.4404 87.7899 90.4204 128.6 90.4204 128.6L139.69 134.89Z" fill="#68E1FD"/>
    <path d="M113.44 124.82C113.44 124.82 143.44 131.3 154.44 129.32L157.14 115.32C157.14 115.32 122.26 110.47 119.56 108.67C116.86 106.87 116.68 88.53 116.68 88.53C116.68 88.53 108.23 90.33 106.08 94.83C103.93 99.33 101.93 120 113.44 124.82Z" fill="#68E1FD"/>
    <path d="M109.481 72.9999C108.741 73.4299 127.011 104 127.011 104L121.101 72.3699C121.101 72.3699 116.491 68.9999 109.481 72.9999Z" fill="white"/>
    <path d="M146.251 131C145.761 131 97.2506 127.39 96.4106 97.33C96.4079 97.2622 96.4188 97.1945 96.4426 97.131C96.4664 97.0674 96.5026 97.0093 96.5492 96.9599C96.5957 96.9105 96.6517 96.871 96.7137 96.8435C96.7758 96.8161 96.8427 96.8013 96.9106 96.8C96.9787 96.7959 97.0469 96.8058 97.1111 96.8291C97.1753 96.8524 97.234 96.8885 97.2837 96.9354C97.3333 96.9822 97.3729 97.0387 97.3998 97.1014C97.4268 97.1641 97.4407 97.2317 97.4406 97.3C98.2306 126.43 145.841 129.94 146.321 129.97C146.429 130.001 146.525 130.067 146.593 130.157C146.661 130.247 146.698 130.357 146.698 130.47C146.698 130.583 146.661 130.693 146.593 130.783C146.525 130.873 146.429 130.939 146.321 130.97L146.251 131Z" fill="#231F20"/>
    <path d="M109.48 72.9999C108.92 66.2599 108.48 60.3299 107.96 53.5899C107.79 51.0999 107.52 48.5899 107.45 46.0999C107.35 42.4899 108.92 43.3299 112.45 43.2999C112.703 40.9799 113.056 38.6799 113.51 36.3999L115.24 42.1099C120.63 40.5899 131.83 42.1099 131.83 42.1099C131.83 42.1099 132.96 52.9699 131.53 58.1099C129.47 65.5299 119.83 63.8999 119.83 63.8999L121.08 72.3699C121.08 72.3699 121.44 75.1499 118.08 76.0999C113.24 77.4699 109.48 72.9999 109.48 72.9999Z" fill="white"/>
    <path d="M116.2 76.8799C114.195 76.8246 112.263 76.1231 110.69 74.8799C110.69 74.8799 109.06 73.6399 108.97 73.1199C108.43 66.6599 107.97 60.5599 107.45 53.6999C107.39 52.9099 107.33 52.1099 107.26 51.3099C107.12 49.6299 106.98 47.8999 106.93 46.1899C106.93 44.7599 107.1 43.9299 107.63 43.4099C108.32 42.7299 109.35 42.7699 110.78 42.8299C111.16 42.8299 111.56 42.8299 112.01 42.8299C112.26 40.6599 112.6 38.4799 113.01 36.3499C113.026 36.2327 113.083 36.125 113.171 36.0453C113.258 35.9655 113.371 35.9187 113.489 35.9127C113.607 35.9068 113.724 35.9422 113.819 36.0129C113.914 36.0835 113.981 36.185 114.01 36.2999L115.59 41.5299C121.16 40.2099 131.45 41.5299 131.89 41.5899C132.005 41.6049 132.113 41.6585 132.194 41.7419C132.276 41.8254 132.327 41.9338 132.34 42.0499C132.34 42.4999 133.47 53.0499 132.02 58.2599C130.2 64.8299 122.76 64.7099 120.44 64.4999L121.59 72.2999C121.59 72.2999 121.97 75.5499 118.23 76.5999C117.569 76.7855 116.886 76.8797 116.2 76.8799ZM110 72.8199C110.62 73.4899 113.93 76.7499 118 75.5999C120.86 74.7899 120.63 72.5199 120.62 72.4299L119.34 63.9999C119.328 63.9199 119.336 63.8383 119.362 63.7618C119.388 63.6853 119.432 63.6161 119.49 63.5599C119.547 63.5014 119.619 63.458 119.697 63.4336C119.776 63.4091 119.859 63.4044 119.94 63.4199C120.31 63.4799 129.14 64.8799 131.05 57.9999C132.28 53.5599 131.56 44.5999 131.37 42.5899C129.32 42.3499 120.05 41.3599 115.37 42.6699C115.306 42.6898 115.239 42.6968 115.173 42.6904C115.106 42.684 115.042 42.6644 114.983 42.6327C114.924 42.601 114.873 42.5579 114.831 42.5059C114.789 42.4539 114.758 42.394 114.74 42.3299L113.62 38.6399C113.35 40.2299 113.12 41.8299 112.95 43.4199C112.935 43.5455 112.875 43.6614 112.781 43.7461C112.688 43.8307 112.566 43.8783 112.44 43.8799C111.81 43.8799 111.23 43.8799 110.71 43.8799C109.54 43.8799 108.71 43.7999 108.32 44.1599C107.96 44.7606 107.822 45.4681 107.93 46.1599C107.98 47.8399 108.12 49.5599 108.26 51.2199C108.32 52.0299 108.39 52.8299 108.45 53.6299C109 60.3799 109.45 66.4299 110 72.8199Z" fill="#231F20"/>
    <path d="M119.85 63.8999C119.85 63.8999 115.85 63.3999 113.9 61.4299C113.9 61.4299 116.53 67.9999 120.58 68.9899L119.85 63.8999Z" fill="#231F20"/>
    <path d="M120.581 69.6699C120.528 69.6797 120.473 69.6797 120.421 69.6699C116.071 68.6199 113.421 61.9899 113.261 61.6699C113.207 61.5241 113.205 61.3647 113.253 61.2173C113.302 61.0699 113.399 60.9433 113.528 60.8577C113.658 60.7722 113.812 60.7328 113.967 60.7459C114.122 60.759 114.267 60.8238 114.381 60.9299C116.171 62.7199 119.901 63.1999 119.941 63.2099C120.089 63.2282 120.227 63.295 120.334 63.3999C120.441 63.5047 120.51 63.6418 120.531 63.7899L121.261 68.8799C121.275 68.9772 121.268 69.0765 121.241 69.1709C121.213 69.2654 121.165 69.3527 121.101 69.4268C121.036 69.501 120.956 69.5602 120.866 69.6005C120.776 69.6407 120.679 69.661 120.581 69.6599V69.6699ZM115.641 63.3999C116.582 65.2487 117.997 66.8151 119.741 67.9399L119.241 64.4999C118.001 64.277 116.793 63.9078 115.641 63.3999Z" fill="#231F20"/>
    <path d="M109.5 50.9C109.329 50.0465 108.924 49.2573 108.331 48.6201C107.737 47.9828 106.979 47.5224 106.14 47.29C105.766 47.1672 105.37 47.1261 104.978 47.1692C104.587 47.2123 104.209 47.3387 103.87 47.54C103.475 47.8796 103.174 48.3164 102.999 48.8074C102.824 49.2984 102.779 49.8266 102.87 50.34C102.985 51.9854 103.726 53.5242 104.941 54.6402C106.155 55.7562 107.751 56.3644 109.4 56.34" fill="white"/>
    <path d="M109.28 56.86C107.51 56.8649 105.804 56.1992 104.505 54.9969C103.206 53.7946 102.411 52.1449 102.28 50.38C102.186 49.7724 102.253 49.1507 102.474 48.577C102.695 48.0033 103.062 47.4975 103.54 47.11C103.944 46.8695 104.394 46.7167 104.86 46.6615C105.327 46.6064 105.801 46.6502 106.25 46.79C107.179 47.0486 108.02 47.5589 108.678 48.2647C109.336 48.9705 109.786 49.8444 109.98 50.79C109.995 50.9186 109.962 51.0484 109.886 51.1532C109.809 51.2579 109.696 51.3296 109.569 51.3538C109.441 51.378 109.31 51.3528 109.2 51.2834C109.091 51.2139 109.012 51.1055 108.98 50.98C108.816 50.2251 108.45 49.5288 107.922 48.9653C107.394 48.4018 106.722 47.9921 105.98 47.78C105.676 47.6758 105.354 47.638 105.035 47.669C104.716 47.7001 104.407 47.7993 104.13 47.96C103.816 48.2561 103.578 48.6232 103.435 49.0303C103.292 49.4374 103.249 49.8728 103.31 50.3C103.419 51.8101 104.101 53.2214 105.216 54.2455C106.331 55.2696 107.796 55.8292 109.31 55.81C109.387 55.7879 109.468 55.784 109.548 55.7988C109.627 55.8135 109.701 55.8464 109.766 55.8948C109.83 55.9433 109.882 56.006 109.918 56.0781C109.954 56.1501 109.972 56.2295 109.972 56.31C109.972 56.3905 109.954 56.4698 109.918 56.5419C109.882 56.6139 109.83 56.6766 109.766 56.7251C109.701 56.7736 109.627 56.8065 109.548 56.8212C109.468 56.8359 109.387 56.8321 109.31 56.81L109.28 56.86Z" fill="#231F20"/>
    <path d="M130.374 44.5779C130.407 43.8994 130.14 43.3347 129.776 43.3166C129.412 43.2985 129.089 43.8338 129.055 44.5122C129.022 45.1907 129.289 45.7554 129.653 45.7735C130.017 45.7917 130.34 45.2563 130.374 44.5779Z" fill="#231F20"/>
    <path d="M124.29 45.4221C124.323 44.7436 124.056 44.1789 123.692 44.1608C123.328 44.1427 123.005 44.678 122.971 45.3565C122.938 46.035 123.205 46.5997 123.569 46.6178C123.933 46.6359 124.256 46.1006 124.29 45.4221Z" fill="#231F20"/>
    <path d="M129.82 57.5701C128.951 58.1267 127.999 58.5419 127 58.8001C125.67 59.1501 124.06 59.1401 123.14 58.1201C122.765 57.6607 122.486 57.13 122.32 56.5601" fill="white"/>
    <path d="M125.489 59.52C124.991 59.5465 124.492 59.4667 124.026 59.2856C123.561 59.1046 123.139 58.8265 122.789 58.47C122.374 57.9582 122.061 57.3707 121.869 56.74C121.822 56.6074 121.828 56.4612 121.888 56.3337C121.948 56.2062 122.057 56.1077 122.189 56.06C122.322 56.0122 122.468 56.0191 122.596 56.0791C122.723 56.1392 122.822 56.2474 122.869 56.38C123.024 56.886 123.267 57.3602 123.589 57.78C124.589 58.78 126.389 58.44 126.929 58.3C127.864 58.0528 128.755 57.6614 129.569 57.14C129.683 57.0657 129.822 57.0398 129.955 57.0679C130.089 57.0961 130.205 57.1759 130.279 57.29C130.354 57.404 130.379 57.5429 130.351 57.676C130.323 57.8092 130.243 57.9257 130.129 58C129.228 58.5861 128.239 59.0249 127.199 59.3C126.641 59.4459 126.066 59.5198 125.489 59.52Z" fill="#231F20"/>
    <path d="M128.46 46.8401C128.46 46.8401 134.02 53.1701 132.65 54.5301C131.28 55.8901 128.07 55.2101 128.07 55.2101" fill="white"/>
    <path d="M129.831 55.8999C129.206 55.8975 128.584 55.8372 127.971 55.7199C127.859 55.6734 127.767 55.5893 127.71 55.4822C127.654 55.375 127.637 55.2515 127.661 55.133C127.686 55.0144 127.752 54.9083 127.847 54.8329C127.941 54.7575 128.06 54.7176 128.181 54.7199C129.001 54.8899 131.331 55.1299 132.291 54.1799C132.821 53.6399 130.811 50.3099 128.071 47.1799C127.984 47.0752 127.94 46.9409 127.949 46.8049C127.959 46.669 128.02 46.5419 128.121 46.4499C128.168 46.4013 128.225 46.3626 128.288 46.3362C128.35 46.3097 128.418 46.2961 128.486 46.2961C128.554 46.2961 128.621 46.3097 128.684 46.3362C128.746 46.3626 128.803 46.4013 128.851 46.4499C130.621 48.4499 134.561 53.3099 133.021 54.8499C132.129 55.5921 130.989 55.9675 129.831 55.8999Z" fill="#231F20"/>
    <path d="M139.51 113.47H139.38C122.64 109.11 113.9 100.37 109.51 93.7999C106.704 89.7859 104.803 85.2105 103.94 80.3899C103.923 80.256 103.959 80.1208 104.042 80.014C104.124 79.9071 104.246 79.8373 104.38 79.8199C104.516 79.8029 104.654 79.8407 104.763 79.9251C104.871 80.0094 104.942 80.1334 104.96 80.2699C104.96 80.5099 108.28 104.27 139.64 112.47C139.757 112.504 139.858 112.578 139.925 112.68C139.992 112.782 140.02 112.905 140.004 113.026C139.989 113.147 139.93 113.258 139.839 113.34C139.749 113.421 139.632 113.467 139.51 113.47Z" fill="#231F20"/>
    <path d="M97.2104 63.56C97.1018 63.5623 96.9958 63.5269 96.9104 63.46C96.8444 63.4134 96.7901 63.3521 96.7519 63.2809C96.7138 63.2098 96.6927 63.1307 96.6904 63.05L96.5804 47.71C96.5804 43.1 96.5104 37.87 98.5804 33.29C99.8504 30.42 102.38 26.97 105.66 25.89C106.502 25.606 107.393 25.4993 108.277 25.5768C109.162 25.6542 110.021 25.9141 110.8 26.34C111.967 25.4219 113.182 24.5673 114.44 23.78C116.015 22.9913 117.701 22.4484 119.44 22.17C122.65 21.63 125.44 22.24 128.93 24.17C131 25.4263 132.8 27.0794 134.228 29.0341C135.656 30.9889 136.683 33.2067 137.25 35.56C138.358 40.2217 138.358 45.0782 137.25 49.74C137.249 49.8164 137.23 49.8916 137.197 49.9602C137.163 50.0288 137.114 50.089 137.054 50.1366C136.994 50.1843 136.925 50.2181 136.85 50.2357C136.776 50.2534 136.698 50.2543 136.624 50.2386C136.549 50.2229 136.478 50.1909 136.417 50.1448C136.356 50.0987 136.306 50.0397 136.27 49.972C136.235 49.9044 136.214 49.8296 136.211 49.7532C136.208 49.6768 136.221 49.6006 136.25 49.53C137.318 45.0223 137.318 40.3276 136.25 35.82C135.718 33.6004 134.753 31.5079 133.409 29.663C132.065 27.8181 130.37 26.2571 128.42 25.07C125.16 23.22 122.6 22.68 119.61 23.17C117.985 23.4412 116.411 23.957 114.94 24.7C114.63 24.86 111.54 27.05 111.21 27.31L111.14 27.37C111.06 27.4165 110.968 27.441 110.875 27.441C110.782 27.441 110.691 27.4165 110.61 27.37C109.931 26.9558 109.169 26.6948 108.378 26.605C107.587 26.5152 106.786 26.5988 106.03 26.85C103.03 27.85 100.74 31.02 99.5604 33.69C97.6204 38.07 97.6504 43.18 97.6904 47.69L97.7904 62.33C98.83 62.0504 99.904 61.9191 100.98 61.94C100.946 60.8991 101.232 59.8727 101.8 59C101.859 58.9224 101.937 58.8619 102.027 58.8249C102.116 58.788 102.214 58.7759 102.31 58.79C102.405 58.8061 102.494 58.8483 102.566 58.9119C102.639 58.9754 102.692 59.0579 102.72 59.15C102.978 60.01 103.113 60.9022 103.12 61.8L105.49 61.65C105.559 61.6459 105.627 61.6554 105.692 61.6778C105.756 61.7003 105.816 61.7353 105.867 61.7808C105.918 61.8263 105.96 61.8815 105.99 61.9431C106.019 62.0047 106.037 62.0716 106.04 62.14C106.044 62.207 106.035 62.2741 106.013 62.3375C105.991 62.401 105.957 62.4594 105.912 62.5096C105.868 62.5598 105.814 62.6007 105.753 62.6299C105.693 62.6591 105.627 62.6761 105.56 62.68L102.62 62.86C102.548 62.866 102.476 62.8556 102.408 62.8296C102.341 62.8037 102.28 62.7627 102.23 62.71C102.177 62.6601 102.136 62.5995 102.108 62.5323C102.081 62.465 102.068 62.3926 102.07 62.32C102.086 61.8788 102.063 61.437 102 61C101.891 61.4652 101.87 61.9471 101.94 62.42C101.95 62.496 101.943 62.5732 101.918 62.6459C101.894 62.7187 101.854 62.785 101.8 62.84C101.749 62.8989 101.683 62.9443 101.61 62.9722C101.537 63 101.458 63.0096 101.38 63C100.026 62.9029 98.6666 63.0763 97.3804 63.51C97.327 63.5364 97.2695 63.5533 97.2104 63.56Z" fill="#231F20"/>
    <path d="M140.051 108.35C139.914 108.345 139.784 108.287 139.689 108.188C139.594 108.089 139.54 107.957 139.541 107.82C139.541 107.65 139.791 90.01 137.671 82.35C137.642 82.2202 137.664 82.0842 137.732 81.9701C137.8 81.856 137.91 81.7724 138.038 81.7365C138.166 81.7007 138.303 81.7153 138.421 81.7773C138.538 81.8393 138.628 81.9441 138.671 82.07C140.821 89.88 140.591 107.07 140.571 107.84C140.571 107.908 140.557 107.975 140.531 108.038C140.505 108.1 140.466 108.157 140.418 108.204C140.369 108.252 140.312 108.289 140.249 108.314C140.186 108.339 140.118 108.351 140.051 108.35Z" fill="#231F20"/>
    <path d="M133.221 263.41C133.088 263.409 132.959 263.359 132.861 263.27C131.731 262.13 125.121 258.83 122.661 257.66C122.543 257.6 122.453 257.496 122.41 257.371C122.368 257.246 122.375 257.11 122.431 256.99C122.489 256.873 122.591 256.783 122.714 256.74C122.837 256.698 122.972 256.704 123.091 256.76C123.461 256.94 132.091 261.08 133.571 262.56C133.663 262.655 133.715 262.782 133.715 262.915C133.715 263.047 133.663 263.175 133.571 263.27C133.475 263.357 133.35 263.407 133.221 263.41Z" fill="white"/>
    <path d="M92.5805 149.06C92.5148 149.072 92.4474 149.072 92.3819 149.058C92.3165 149.045 92.2544 149.018 92.1991 148.981C92.1439 148.943 92.0966 148.895 92.0599 148.839C92.0233 148.783 91.998 148.721 91.9855 148.655C91.973 148.589 91.9736 148.522 91.9872 148.456C92.0008 148.391 92.0272 148.329 92.0648 148.274C92.1024 148.218 92.1505 148.171 92.2064 148.134C92.2623 148.098 92.3248 148.072 92.3905 148.06C98.5605 145.48 100.711 137.68 100.731 137.6C100.748 137.534 100.777 137.473 100.818 137.419C100.859 137.364 100.91 137.319 100.969 137.285C101.027 137.25 101.092 137.228 101.159 137.218C101.226 137.209 101.295 137.213 101.361 137.23C101.426 137.247 101.488 137.277 101.542 137.318C101.596 137.359 101.642 137.41 101.676 137.468C101.71 137.527 101.733 137.592 101.742 137.659C101.752 137.726 101.748 137.794 101.731 137.86C101.641 138.2 99.4405 146.22 92.8105 148.98C92.7396 149.021 92.6615 149.048 92.5805 149.06Z" fill="white"/>
</svg>
