<svg width="340" height="170" viewBox="0 0 340 170" fill="none" xmlns="http://www.w3.org/2000/svg">
    <path d="M339.041 158.563H12.0034C11.8513 158.563 11.7053 158.503 11.5977 158.395C11.4901 158.287 11.4297 158.142 11.4297 157.99C11.4297 157.838 11.4901 157.692 11.5977 157.584C11.7053 157.477 11.8513 157.416 12.0034 157.416H339.041C339.193 157.416 339.339 157.477 339.447 157.584C339.554 157.692 339.615 157.838 339.615 157.99C339.615 158.142 339.554 158.287 339.447 158.395C339.339 158.503 339.193 158.563 339.041 158.563Z" fill="#D1D3D4"/>
    <path d="M120.374 122.214H54.6914V165.558H120.374V122.214Z" fill="white"/>
    <path d="M120.42 166.131H54.6909C54.5388 166.131 54.3928 166.071 54.2852 165.963C54.1776 165.855 54.1172 165.71 54.1172 165.558V122.214C54.1172 122.062 54.1776 121.916 54.2852 121.808C54.3928 121.701 54.5388 121.64 54.6909 121.64H120.42C120.572 121.64 120.718 121.701 120.825 121.808C120.933 121.916 120.993 122.062 120.993 122.214V165.558C120.993 165.71 120.933 165.855 120.825 165.963C120.718 166.071 120.572 166.131 120.42 166.131ZM55.3106 164.984H119.846V122.787H55.2647L55.3106 164.984Z" fill="#231F20"/>
    <path d="M208.341 85.0959H142.658V165.546H208.341V85.0959Z" fill="white"/>
    <path d="M208.341 166.131H142.658C142.506 166.131 142.36 166.071 142.252 165.963C142.144 165.855 142.084 165.71 142.084 165.558V85.1075C142.084 84.9554 142.144 84.8096 142.252 84.702C142.36 84.5945 142.506 84.5341 142.658 84.5341H208.341C208.493 84.5341 208.639 84.5945 208.746 84.702C208.854 84.8096 208.914 84.9554 208.914 85.1075V165.558C208.914 165.71 208.854 165.855 208.746 165.963C208.639 166.071 208.493 166.131 208.341 166.131ZM143.231 164.984H207.767V85.6808H143.231V164.984Z" fill="#D1D3D4"/>
    <path d="M296.31 56.5096H230.627V165.558H296.31V56.5096Z" fill="white"/>
    <path d="M296.308 166.131H230.58C230.427 166.131 230.282 166.071 230.174 165.963C230.066 165.856 230.006 165.71 230.006 165.558V56.5096C230.009 56.3585 230.07 56.2143 230.177 56.1075C230.284 56.0006 230.428 55.9392 230.58 55.9363H296.262C296.415 55.9363 296.561 55.9967 296.668 56.1042C296.776 56.2117 296.836 56.3576 296.836 56.5096V165.558C296.837 165.702 296.783 165.841 296.685 165.948C296.587 166.054 296.452 166.119 296.308 166.131ZM231.199 164.984H295.735V57.083H231.199V164.984Z" fill="#D1D3D4"/>
    <path d="M324.835 131.467C324.907 130.39 324.677 129.313 324.17 128.36C323.756 127.66 323.114 127.11 322.77 126.387C322.184 125.115 322.598 123.624 322.46 122.237C322.334 121.074 321.82 119.988 321.002 119.152C320.268 118.418 319.327 117.914 318.639 117.145C317.491 115.884 317.17 114.118 316.527 112.559C315.598 110.336 313.992 108.463 311.937 107.204C313.177 109.703 310.354 112.88 311.627 115.357C312.041 116.136 312.775 116.71 313.108 117.547C313.831 119.553 311.432 121.732 312.201 123.727C312.58 124.713 313.647 125.287 314.152 126.238C314.817 127.511 314.29 129.048 314.347 130.493C314.562 132.481 315.531 134.311 317.055 135.607C317.95 136.467 318.948 137.212 319.912 137.98C321.06 138.898 321.553 139.872 322.563 138.393C323.973 136.352 324.762 133.946 324.835 131.467Z" fill="#231F20"/>
    <path d="M326.12 132.602C325.637 131.112 325.637 129.506 326.12 128.016C326.832 126.376 328.587 125.218 328.794 123.429C328.932 122.282 328.346 121.136 328.576 119.989C328.965 118.912 329.635 117.958 330.515 117.226C332.292 115.273 333.349 112.773 333.51 110.139C334.699 111.552 335.659 113.142 336.356 114.852C336.698 115.711 336.839 116.638 336.768 117.56C336.696 118.482 336.414 119.376 335.943 120.172C335.649 120.519 335.405 120.905 335.22 121.319C334.876 122.466 335.84 123.498 336.367 124.564C336.663 125.176 336.786 125.857 336.724 126.534C336.661 127.211 336.415 127.858 336.012 128.406C335.002 129.667 333.04 130.16 332.569 131.708C332.442 132.28 332.384 132.865 332.397 133.451C332.291 134.468 331.883 135.43 331.224 136.213C330.565 136.996 329.687 137.564 328.702 137.843C327.555 138.141 327.555 137.659 327.314 136.696C326.969 135.263 326.442 133.955 326.12 132.602Z" fill="#231F20"/>
    <path d="M322.301 121.583C321.452 118.636 321.153 115.563 320.212 112.627C319.453 110.336 318.521 108.105 317.424 105.954L321.084 107.49C322.316 107.852 323.378 108.641 324.079 109.715C325.032 111.71 323.311 114.302 324.32 116.228C324.757 116.871 325.24 117.48 325.766 118.051C326.231 118.856 326.502 119.758 326.558 120.685C326.614 121.612 326.453 122.54 326.087 123.395C325.835 124.151 324.722 128.05 323.735 126.972C323.345 126.537 323.311 124.92 323.138 124.323C322.886 123.406 322.565 122.5 322.301 121.583Z" fill="#231F20"/>
    <path d="M324.043 160.742C323.32 155.926 321.037 138.955 321.014 138.794L322.161 138.634C322.161 138.806 324.456 155.765 325.191 160.57L324.043 160.742Z" fill="#231F20"/>
    <path d="M325.421 165.248H324.273C324.273 159.515 326.741 137.545 328.141 136.019L328.99 136.776C328.003 138.106 325.467 158.322 325.421 165.248Z" fill="#231F20"/>
    <path d="M326.66 164.17H325.512C326.051 151.866 323.435 126.009 323.412 125.745L324.56 125.631C324.583 125.849 327.199 151.786 326.66 164.17Z" fill="#231F20"/>
    <path d="M318.043 146.913H331.652L330.7 162.358C330.686 163.585 330.203 164.759 329.349 165.64C328.495 166.521 327.336 167.041 326.11 167.094H323.528C322.311 167.03 321.165 166.504 320.322 165.624C319.48 164.744 319.005 163.576 318.995 162.358L318.043 146.913Z" fill="white"/>
    <path d="M326.156 167.69H323.529C322.161 167.621 320.871 167.035 319.919 166.052C318.967 165.069 318.424 163.761 318.399 162.393L317.447 146.947C317.441 146.867 317.452 146.787 317.48 146.712C317.508 146.637 317.551 146.568 317.607 146.511C317.662 146.45 317.729 146.4 317.804 146.367C317.879 146.333 317.961 146.316 318.043 146.317H331.653C331.733 146.317 331.813 146.335 331.886 146.369C331.959 146.402 332.024 146.451 332.077 146.511C332.134 146.568 332.177 146.637 332.205 146.712C332.233 146.787 332.244 146.867 332.238 146.947L331.286 162.393C331.261 163.761 330.718 165.069 329.766 166.052C328.814 167.035 327.524 167.621 326.156 167.69ZM318.675 147.509L319.581 162.313C319.587 163.381 319.998 164.407 320.73 165.186C321.462 165.964 322.462 166.437 323.529 166.509H326.156C327.223 166.437 328.223 165.964 328.955 165.186C329.687 164.407 330.097 163.381 330.104 162.313L331.022 147.509H318.675Z" fill="#231F20"/>
    <path d="M59.8659 81.7363C59.8659 81.7363 95.3466 77.8949 98.6284 84.4539C101.348 89.8891 100.315 111.274 100.315 111.274L88.8403 113.075C88.8403 113.075 87.119 94.728 85.501 93.4093C83.883 92.0907 49.4351 96.7117 49.4351 96.7117L34.7356 161.12L19.4395 158.827L28.5047 84.0181L59.8659 81.7363Z" fill="#231F20"/>
    <path d="M34.7367 161.693H34.6564L19.3717 159.4C19.2232 159.377 19.0896 159.297 18.9995 159.177C18.9094 159.057 18.87 158.907 18.8898 158.758L27.9435 83.9493C27.9595 83.8183 28.0212 83.697 28.1177 83.6068C28.2142 83.5167 28.3394 83.4634 28.4714 83.4563L59.8211 81.1629C63.539 80.7616 95.7837 77.4936 99.1459 84.2016C101.888 89.6941 100.925 110.414 100.89 111.297C100.884 111.429 100.833 111.554 100.745 111.652C100.657 111.75 100.538 111.815 100.408 111.836L88.9332 113.648C88.7784 113.668 88.6218 113.627 88.4971 113.533C88.4347 113.485 88.383 113.425 88.3454 113.356C88.3079 113.287 88.2853 113.21 88.2791 113.132C87.4529 104.303 86.0644 94.6706 85.1579 93.8565C83.5858 93.1341 62.8734 95.5192 49.9181 97.2277L35.299 161.246C35.2684 161.373 35.1965 161.485 35.0946 161.566C34.9928 161.647 34.8669 161.692 34.7367 161.693ZM20.0831 158.311L34.3581 160.478L48.8969 96.5856C48.9222 96.472 48.9821 96.3691 49.0685 96.2911C49.1548 96.213 49.2632 96.1637 49.3788 96.1498C57.5031 95.072 84.171 91.6549 85.8578 92.9621C87.5447 94.2693 88.8873 107.456 89.3003 112.455L99.7656 110.781C99.8918 107.639 100.523 89.5107 98.1246 84.7061C95.5772 79.6264 69.6896 81.2661 59.9358 82.3096L29.0222 84.5226L20.0831 158.311Z" fill="#231F20"/>
    <path d="M88.7949 113.075V121.812H113.455C109.682 117.605 105.243 114.045 100.316 111.274L88.7949 113.075Z" fill="white"/>
    <path d="M113.454 122.386H88.7945C88.6423 122.386 88.4964 122.325 88.3888 122.218C88.2812 122.11 88.2207 121.964 88.2207 121.812V113.075C88.2193 112.939 88.2674 112.807 88.3561 112.703C88.4447 112.6 88.5679 112.532 88.7027 112.513L100.178 110.701C100.299 110.685 100.423 110.705 100.533 110.758C105.528 113.555 110.023 117.163 113.833 121.434C113.905 121.516 113.953 121.618 113.969 121.726C113.986 121.835 113.971 121.946 113.926 122.046C113.881 122.146 113.809 122.231 113.717 122.291C113.625 122.352 113.518 122.384 113.408 122.386H113.454ZM89.3568 121.239H112.135C108.66 117.529 104.64 114.37 100.212 111.871L89.3568 113.568V121.239Z" fill="#231F20"/>
    <path d="M19.44 158.827L18.6367 167.289C18.6367 167.289 47.6914 171.039 47.4619 168.573C47.2324 166.108 34.7361 161.12 34.7361 161.12L19.44 158.827Z" fill="white"/>
    <path d="M42.8253 169.926C35.355 169.926 21.9408 168.252 18.5786 167.828C18.4306 167.805 18.2965 167.728 18.203 167.611C18.1095 167.494 18.0633 167.347 18.0737 167.197L18.8769 158.746C18.8824 158.668 18.9047 158.591 18.9423 158.522C18.98 158.453 19.032 158.392 19.095 158.345C19.1554 158.296 19.2256 158.261 19.3007 158.241C19.3759 158.221 19.4544 158.218 19.531 158.23L34.8272 160.524H34.9534C37.9599 161.728 47.7939 165.821 48.0464 168.436C48.0553 168.572 48.0343 168.708 47.9847 168.835C47.9351 168.961 47.8582 169.076 47.7595 169.17C47.2317 169.731 45.3727 169.926 42.8253 169.926ZM19.2786 166.762C31.7978 168.355 45.2006 169.399 46.8186 168.459C46.3137 167.083 40.186 163.872 34.5403 161.67L19.9212 159.457L19.2786 166.762Z" fill="#231F20"/>
    <path d="M11.2924 59.7776C11.2924 59.7776 0.827154 74.0995 1.5386 76.2667C2.6861 79.8787 25.5214 100.954 25.5214 100.954C25.5214 100.954 31.5572 103.145 32.108 100.163C32.6588 97.1819 26.7492 91.6435 26.7492 91.6435L27.1049 87.6072C27.1049 87.6072 23.41 89.3616 22.71 89.1896C22.01 89.0176 12.9333 75.5443 12.9333 75.5443L21.31 64.4216" fill="white"/>
    <path d="M29.4807 102.319C28.0631 102.257 26.6628 101.982 25.3268 101.505C25.2553 101.474 25.1894 101.431 25.1317 101.379C22.8367 99.2115 2.1817 80.108 1.0342 76.4501C0.276845 74.1568 8.36672 62.8507 10.8568 59.4451C10.9001 59.3827 10.9557 59.3297 11.0201 59.2894C11.0844 59.249 11.1564 59.2222 11.2314 59.2104C11.3065 59.1986 11.3832 59.2021 11.4569 59.2208C11.5305 59.2394 11.5997 59.2728 11.66 59.3189C11.7212 59.3633 11.773 59.4192 11.8125 59.4836C11.8519 59.548 11.8783 59.6195 11.89 59.6941C11.9017 59.7686 11.8986 59.8448 11.8808 59.9182C11.863 59.9915 11.8309 60.0607 11.7863 60.1216C6.8635 66.864 1.75712 74.8907 2.12432 76.0947C3.03085 78.9269 19.4401 94.6133 25.8317 100.461C26.9792 100.851 29.7446 101.608 30.9839 100.874C31.129 100.789 31.2536 100.673 31.3488 100.534C31.444 100.395 31.5075 100.237 31.5347 100.071C31.9364 97.8813 27.9431 93.5584 26.3595 92.0448C26.2958 91.9879 26.2469 91.9165 26.2169 91.8367C26.187 91.7568 26.1768 91.6708 26.1874 91.5861L26.4513 88.536C24.8792 89.2355 23.1924 89.8891 22.5728 89.6827C22.3203 89.6827 21.6548 89.4533 12.4518 75.808C12.3826 75.7109 12.3455 75.5947 12.3455 75.4755C12.3455 75.3563 12.3826 75.24 12.4518 75.1429L20.8286 64.0203C20.8738 63.96 20.9304 63.9093 20.9953 63.8709C21.0601 63.8326 21.1318 63.8073 21.2064 63.7967C21.281 63.7861 21.357 63.7902 21.43 63.8089C21.503 63.8276 21.5716 63.8604 21.6318 63.9056C21.6921 63.9508 21.7429 64.0074 21.7813 64.0721C21.8197 64.1369 21.8449 64.2086 21.8556 64.2832C21.8662 64.3577 21.8621 64.4336 21.8434 64.5066C21.8247 64.5795 21.7918 64.648 21.7466 64.7083L13.6108 75.5099C16.8467 80.3029 21.9531 87.6645 22.8941 88.5704C24.2563 88.1862 25.5782 87.6717 26.8415 87.0339C26.9279 86.9812 27.0271 86.9533 27.1283 86.9533C27.2296 86.9533 27.3288 86.9812 27.4152 87.0339C27.4953 87.093 27.5592 87.1711 27.6013 87.2613C27.6434 87.3514 27.6623 87.4506 27.6562 87.5499L27.3234 91.3109C28.4709 92.4576 33.1871 97.1933 32.6478 100.163C32.5866 100.497 32.4519 100.813 32.2534 101.089C32.055 101.365 31.7977 101.593 31.5003 101.757C30.884 102.108 30.1901 102.301 29.4807 102.319Z" fill="#231F20"/>
    <path d="M75.8393 40.72L84.7439 45.3066L86.8553 23.0154C86.8553 23.0154 84.4455 20.7221 84.3996 19.048C84.2619 15.0576 86.8553 15.5392 86.8553 15.5392C86.8553 15.5392 86.8553 7.93676 87.7962 7.67302C89.724 7.14556 89.8043 11.4226 89.724 15.8144C89.724 15.8144 94.314 14.9314 94.1075 17.0298C93.9009 19.1282 91.6059 22.3733 91.6059 22.3733C91.6059 22.3733 95.1173 58.0232 90.6305 57.1517C86.1438 56.2802 71.3066 49.9506 71.3066 49.9506" fill="white"/>
    <path d="M90.7919 57.7365H90.528C86.0413 56.8536 71.686 50.7533 71.0205 50.501C70.951 50.4711 70.8881 50.4278 70.8355 50.3735C70.7829 50.3192 70.7415 50.255 70.7138 50.1847C70.686 50.1143 70.6725 50.0392 70.6739 49.9636C70.6754 49.888 70.6918 49.8135 70.7221 49.7443C70.7827 49.6069 70.8947 49.4987 71.0342 49.443C71.1736 49.3872 71.3294 49.3884 71.468 49.4461C71.6172 49.4461 86.3167 55.7528 90.6886 56.6128C90.7306 56.6209 90.7739 56.6178 90.8143 56.6037C90.8546 56.5896 90.8904 56.565 90.9181 56.5325C93.2131 54.4571 92.1574 34.528 90.9181 22.4536C90.9062 22.3156 90.9427 22.1777 91.0214 22.0637C91.0214 22.0637 93.3164 18.9218 93.4197 16.9954C93.435 16.9206 93.4303 16.8431 93.4061 16.7706C93.3819 16.6982 93.3391 16.6334 93.282 16.5826C92.7197 16.0781 90.8608 16.1698 89.7133 16.3877C89.6286 16.4042 89.5413 16.4015 89.4579 16.3796C89.3744 16.3578 89.297 16.3175 89.2313 16.2616C89.1673 16.2065 89.1165 16.1377 89.0827 16.0602C89.0489 15.9828 89.033 15.8988 89.0362 15.8144C89.0362 13.7848 89.1625 9.03758 88.1871 8.28078C88.1505 8.25133 88.108 8.22997 88.0625 8.21812C88.017 8.20626 87.9695 8.20417 87.9232 8.21198C87.5215 8.88852 87.292 12.4891 87.315 15.5507C87.3168 15.6352 87.2995 15.719 87.2643 15.7959C87.2292 15.8728 87.1771 15.9407 87.1121 15.9947C87.047 16.0487 86.9706 16.0874 86.8885 16.1078C86.8064 16.1282 86.7208 16.1298 86.638 16.1125C86.4467 16.091 86.2531 16.1095 86.0694 16.1667C85.8857 16.224 85.7159 16.3187 85.5708 16.4451C85.2729 16.8029 85.0553 17.2204 84.9326 17.6694C84.8099 18.1184 84.7849 18.5885 84.8593 19.048C84.8593 20.1946 86.5232 22.0178 87.1543 22.6141C87.2148 22.6758 87.2614 22.7496 87.2911 22.8306C87.3208 22.9117 87.3328 22.9982 87.3265 23.0843L85.3183 45.3066C85.308 45.3996 85.2755 45.4887 85.2236 45.5665C85.1717 45.6443 85.1019 45.7086 85.02 45.7538C84.9373 45.799 84.8446 45.8227 84.7503 45.8227C84.6561 45.8227 84.5634 45.799 84.4807 45.7538L75.5875 41.1672C75.5195 41.1343 75.4589 41.0881 75.4091 41.0313C75.3594 40.9745 75.3216 40.9083 75.2981 40.8366C75.2745 40.7649 75.2656 40.6892 75.272 40.614C75.2784 40.5388 75.2998 40.4656 75.3351 40.3989C75.368 40.331 75.4142 40.2703 75.471 40.2206C75.5279 40.1709 75.5941 40.1332 75.6659 40.1096C75.7377 40.0861 75.8134 40.0772 75.8887 40.0836C75.9639 40.09 76.0371 40.1114 76.1039 40.1466L84.2512 44.3205L86.2593 23.1416C85.6282 22.4994 83.8725 20.5616 83.8266 18.9792C83.7383 18.3439 83.7958 17.6968 83.9946 17.087C84.1934 16.4771 84.5283 15.9204 84.9741 15.4589C85.3512 15.1383 85.8139 14.935 86.3052 14.8741C86.3052 7.39785 87.292 7.12265 87.6707 7.01945C87.902 6.94964 88.1466 6.93611 88.3841 6.97999C88.6217 7.02388 88.8453 7.1239 89.0362 7.27172C90.1837 8.15465 90.3903 10.792 90.3329 15.0461C91.3771 14.92 93.282 14.8168 94.177 15.6309C94.3692 15.7985 94.5177 16.0103 94.6096 16.248C94.7016 16.4858 94.7343 16.7423 94.7049 16.9954C94.5328 18.9562 92.7197 21.7197 92.2148 22.4536C92.6164 26.5701 95.1639 54.1819 91.7673 57.2779C91.5157 57.5537 91.165 57.7186 90.7919 57.7365Z" fill="#231F20"/>
    <path d="M27.4721 38.4266C17.8675 44.676 8.13672 61.4976 8.13672 61.4976L21.9067 69.0197L30.272 57.92L27.4721 85.44L67.1641 81.0941L62.2643 48.2077L73.2803 52.3586L77.6064 39.7453C77.6064 39.7453 67.6575 34.2413 58.512 34.2413C49.3664 34.2413 37.0652 32.1888 27.4721 38.4266Z" fill="#F46C6C"/>
    <path d="M56.079 10.4136C56.7249 8.68162 56.6962 6.77045 55.9987 5.05863C55.222 3.42416 53.8454 2.15123 52.1546 1.50396C50.4762 0.86928 48.6702 0.645173 46.8875 0.850364C43.9699 1.08691 41.217 2.29874 39.0731 4.29036C38.0292 5.27728 37.2257 6.49025 36.7244 7.83603C36.2231 9.1818 36.0373 10.6245 36.1814 12.0533C35.5504 11.9431 34.9016 11.9982 34.2982 12.2133C33.6949 12.4283 33.1577 12.7959 32.7389 13.2802C30.2144 15.8258 30.4439 20.1602 32.0848 23.3021C32.601 24.3615 33.3409 25.2965 34.2536 26.0426C35.1257 26.6803 36.1108 27.1472 37.1567 27.4186C41.85 28.7488 47.4842 27.304 50.1005 23.1645C51.489 20.9285 51.1103 18.0733 52.3955 15.952C53.6807 13.8306 55.2987 12.7184 56.079 10.4136Z" fill="white"/>
    <path d="M40.6802 28.485C39.4396 28.4867 38.2044 28.3209 37.0082 27.992C35.8913 27.7044 34.8397 27.2062 33.91 26.5242C32.945 25.7197 32.1626 24.719 31.615 23.5888C29.974 20.4698 29.5036 15.7915 32.3723 12.8904C33.1941 12.0241 34.313 11.4999 35.505 11.4226C35.4684 10.009 35.7282 8.60334 36.2677 7.29602C36.8072 5.9887 37.6145 4.80865 38.6377 3.83172C40.8742 1.75506 43.7517 0.501363 46.7964 0.277051C48.6732 0.063845 50.5739 0.303705 52.3388 0.976509C54.1638 1.67955 55.6501 3.05407 56.4928 4.81785C57.2412 6.64928 57.278 8.69402 56.596 10.5512C56.0628 11.8978 55.2847 13.1341 54.301 14.1976C53.7474 14.8336 53.2448 15.5123 52.7978 16.2272C52.2836 17.2478 51.9497 18.3495 51.811 19.4837C51.6685 20.8962 51.2514 22.2672 50.5831 23.52C49.4861 25.1156 48.0027 26.4078 46.2711 27.276C44.5395 28.1441 42.6161 28.5601 40.6802 28.485ZM35.505 12.5693C34.5998 12.6372 33.7545 13.0472 33.1411 13.716C30.6855 16.2042 31.133 20.3093 32.5903 23.0613C33.0706 24.0528 33.7595 24.929 34.6099 25.6298C35.4245 26.218 36.3435 26.646 37.318 26.8912C42.0687 28.2442 47.3587 26.5242 49.6078 22.8893C50.2129 21.7881 50.6023 20.5816 50.7553 19.3346C50.9229 18.0654 51.3112 16.8353 51.9028 15.6997C52.3784 14.9341 52.9116 14.2058 53.4978 13.521C54.3883 12.5622 55.0926 11.4463 55.5748 10.2301C56.1844 8.64301 56.1844 6.88656 55.5748 5.29945C54.8499 3.80573 53.5816 2.64499 52.029 2.05438C50.4223 1.4373 48.6893 1.22084 46.98 1.42372C44.2009 1.62516 41.572 2.76085 39.5212 4.64585C38.5131 5.57918 37.737 6.73492 37.2549 8.02096C36.7728 9.307 36.5979 10.6878 36.7443 12.0533C36.7593 12.1461 36.7503 12.2411 36.7182 12.3295C36.6861 12.4178 36.6318 12.4964 36.5607 12.5578C36.4905 12.6217 36.4053 12.6667 36.313 12.6888C36.2207 12.7108 36.1243 12.7092 36.0328 12.684C35.8627 12.6228 35.6852 12.5843 35.505 12.5693Z" fill="#231F20"/>
    <path d="M50.1007 31.2256L51.4204 37.7157C51.4204 37.7157 51.1909 40.8576 46.6353 40.7314C42.0797 40.6053 40.7945 37.7616 40.7945 37.7616L38.7634 25.561C38.7634 25.561 41.0584 23.1416 38.6602 16.3877C43.1874 16.6984 47.7329 16.1617 52.063 14.8053C52.923 18.547 53.5781 22.3328 54.0252 26.1458C54.2203 29.6088 50.1007 31.2256 50.1007 31.2256Z" fill="white"/>
    <path d="M46.8876 41.3162H46.6122C41.7583 41.1901 40.3354 38.14 40.278 38.0138C40.2731 37.9681 40.2731 37.922 40.278 37.8762L38.2354 25.6642C38.2243 25.5771 38.2329 25.4885 38.2607 25.4051C38.2885 25.3217 38.3348 25.2457 38.3961 25.1826C38.3961 25.1826 40.4157 22.8893 38.1666 16.5712C38.1331 16.4819 38.1229 16.3856 38.137 16.2913C38.151 16.197 38.1889 16.1079 38.2469 16.0322C38.3062 15.956 38.3831 15.8953 38.4711 15.8554C38.559 15.8154 38.6554 15.7974 38.7518 15.8029C43.1956 16.1072 47.6574 15.5902 51.9136 14.2778C51.9881 14.2466 52.0681 14.2305 52.1489 14.2305C52.2296 14.2305 52.3096 14.2466 52.3841 14.2778C52.4524 14.3173 52.512 14.3701 52.5593 14.4332C52.6066 14.4962 52.6407 14.5682 52.6595 14.6448C53.5399 18.4259 54.2027 22.2544 54.6447 26.1114C54.8168 29.2648 51.9366 30.9962 50.8006 31.5581L52.0284 37.601C52.0399 37.6539 52.0399 37.7087 52.0284 37.7616C52.0284 37.7616 51.6727 41.3162 46.8876 41.3162ZM41.3452 37.5896C41.5517 37.968 42.8369 40.0549 46.6466 40.1581C50.4563 40.2613 50.7776 38.1629 50.8465 37.7386L49.5383 31.3402C49.5117 31.2083 49.5314 31.0713 49.5941 30.9522C49.6568 30.8332 49.7587 30.7394 49.8826 30.6866C49.8826 30.6866 53.6234 29.1845 53.4513 26.1802C53.0459 22.6098 52.4406 19.0648 51.6382 15.5621C47.6916 16.7121 43.5808 17.1965 39.4747 16.9954C41.196 22.3618 39.8993 24.9533 39.3715 25.7101L41.3452 37.5896Z" fill="#231F20"/>
    <path d="M39.6826 24.7813C39.3406 24.1642 38.817 23.6671 38.1827 23.3574C37.5484 23.0477 36.8342 22.9403 36.1369 23.0498C35.7996 23.0982 35.4792 23.2279 35.2034 23.4277C34.9275 23.6275 34.7044 23.8913 34.5533 24.1965C34.4079 24.717 34.3926 25.2652 34.5086 25.793C34.6247 26.3208 34.8685 26.812 35.2189 27.2237C35.7496 27.9856 36.5607 28.5062 37.4748 28.6717C38.3889 28.8372 39.3313 28.634 40.0957 28.1066" fill="white"/>
    <path d="M38.0757 29.2533C37.8542 29.2707 37.6317 29.2707 37.4102 29.2533C36.3366 29.0679 35.3797 28.4662 34.748 27.5792C34.3434 27.0831 34.0662 26.4958 33.9402 25.8684C33.8142 25.2409 33.8433 24.5923 34.0251 23.9786C34.2185 23.5884 34.5029 23.2504 34.8544 22.9929C35.2058 22.7355 35.6141 22.5663 36.0447 22.4994C36.8632 22.3698 37.7018 22.4964 38.4455 22.8618C39.1892 23.2272 39.8016 23.8136 40.1986 24.5405C40.2318 24.6083 40.2512 24.6819 40.2559 24.7572C40.2606 24.8324 40.2504 24.9079 40.2259 24.9792C40.2014 25.0506 40.1631 25.1164 40.1131 25.1729C40.0631 25.2295 40.0025 25.2756 39.9347 25.3088C39.8669 25.3419 39.7932 25.3613 39.7179 25.366C39.6425 25.3707 39.567 25.3605 39.4956 25.336C39.4242 25.3115 39.3584 25.2732 39.3018 25.2233C39.2452 25.1734 39.199 25.1128 39.1659 25.045C38.8808 24.5387 38.448 24.1313 37.9251 23.8772C37.4023 23.6232 36.8143 23.5345 36.2397 23.6232C35.9966 23.6599 35.7658 23.7539 35.5662 23.8975C35.3667 24.0411 35.2042 24.23 35.0922 24.4488C34.9931 24.8778 34.9954 25.324 35.099 25.7519C35.2026 26.1799 35.4046 26.5778 35.6889 26.9141C36.1559 27.5289 36.8424 27.9398 37.6053 28.0608C38.3825 28.1827 39.1768 27.9976 39.8199 27.5448C39.9423 27.4583 40.0936 27.4231 40.2415 27.4467C40.3895 27.4703 40.5223 27.5507 40.6117 27.6709C40.6578 27.7312 40.6913 27.8003 40.7099 27.8739C40.7286 27.9475 40.7322 28.0242 40.7204 28.0992C40.7086 28.1742 40.6817 28.2461 40.6413 28.3104C40.6009 28.3748 40.5479 28.4303 40.4855 28.4736C39.7841 28.9799 38.941 29.2527 38.0757 29.2533Z" fill="#231F20"/>
    <path d="M47.0836 25.3661C47.0082 25.3646 46.9339 25.3483 46.8649 25.3181C46.7958 25.2879 46.7334 25.2444 46.6812 25.1901C46.629 25.1358 46.588 25.0717 46.5606 25.0016C46.5331 24.9314 46.5198 24.8566 46.5213 24.7813C46.5213 24.7065 46.5362 24.6325 46.5652 24.5636C46.5941 24.4947 46.6366 24.4322 46.69 24.3799C46.7435 24.3276 46.8068 24.2864 46.8764 24.2589C46.9459 24.2313 47.0202 24.2179 47.095 24.2194C47.5882 24.2365 48.0766 24.1175 48.5065 23.8754C47.8169 22.7895 46.9612 21.8183 45.9705 20.9973C45.9167 20.944 45.874 20.8806 45.8449 20.8107C45.8158 20.7409 45.8008 20.6659 45.8008 20.5902C45.8008 20.5145 45.8158 20.4396 45.8449 20.3697C45.874 20.2999 45.9167 20.2365 45.9705 20.1832C46.0229 20.1298 46.0853 20.0874 46.1543 20.0584C46.2233 20.0294 46.2973 20.0145 46.3721 20.0145C46.4469 20.0145 46.521 20.0294 46.5899 20.0584C46.6589 20.0874 46.7214 20.1298 46.7737 20.1832C50.2162 23.2792 49.7458 24.1162 49.5966 24.3914C49.0458 25.3088 47.4622 25.3661 47.0836 25.3661Z" fill="#231F20"/>
    <path d="M50.1017 31.2256C50.1017 31.2256 46.6592 31.8333 44.9609 31.2256C45.5803 32.2823 46.4302 33.1858 47.4475 33.8687C48.4647 34.5517 49.623 34.9965 50.8361 35.1701L50.1017 31.2256Z" fill="#231F20"/>
    <path d="M50.8359 35.7091C49.5284 35.5336 48.2787 35.061 47.1826 34.3275C46.0865 33.594 45.1733 32.6192 44.5132 31.4779C44.4562 31.375 44.4322 31.2571 44.4446 31.1402C44.4569 31.0233 44.5049 30.913 44.582 30.8243C44.6575 30.7354 44.7589 30.6722 44.8719 30.6434C44.985 30.6146 45.1043 30.6217 45.2131 30.6637C46.8073 30.9862 48.4499 30.9862 50.0441 30.6637C50.1932 30.6369 50.3468 30.6701 50.4715 30.756C50.5961 30.8419 50.6818 30.9736 50.7097 31.1224L51.4441 35.0325C51.46 35.1198 51.4559 35.2095 51.4321 35.2949C51.4082 35.3803 51.3652 35.4592 51.3064 35.5256C51.2477 35.5907 51.1746 35.6412 51.0929 35.6731C51.0112 35.7049 50.9232 35.7173 50.8359 35.7091ZM46.2459 32.0283C47.2356 33.2323 48.5879 34.0849 50.1015 34.4592L49.6195 31.8677C48.5111 32.0356 47.3883 32.0894 46.2688 32.0283H46.2459Z" fill="#231F20"/>
    <path d="M43.266 19.9455C43.5506 19.9274 43.7571 19.5335 43.7273 19.0658C43.6974 18.5982 43.4425 18.2337 43.1579 18.2519C42.8733 18.27 42.6668 18.6639 42.6966 19.1315C42.7265 19.5992 42.9814 19.9636 43.266 19.9455Z" fill="#231F20"/>
    <path d="M48.9281 19.517C49.2127 19.4988 49.4193 19.105 49.3894 18.6373C49.3595 18.1696 49.1046 17.8052 48.82 17.8234C48.5354 17.8415 48.3289 18.2353 48.3587 18.703C48.3886 19.1707 48.6435 19.5351 48.9281 19.517Z" fill="#231F20"/>
    <path d="M43.2051 26.3293C43.2051 26.3293 45.9935 29.5744 50.0901 26.3293H43.2051Z" fill="white"/>
    <path d="M46.4865 28.3475C45.0787 28.3148 43.7414 27.7251 42.7686 26.7077C42.6627 26.5986 42.6035 26.4526 42.6035 26.3007C42.6035 26.1487 42.6627 26.0027 42.7686 25.8936C42.8246 25.8438 42.8901 25.8056 42.9612 25.7815C43.0323 25.7574 43.1074 25.7477 43.1823 25.753C43.2572 25.7584 43.3302 25.7786 43.3971 25.8126C43.464 25.8466 43.5234 25.8936 43.5718 25.9509C43.6751 26.0656 46.0848 28.7259 49.6191 25.8821C49.6779 25.8347 49.7455 25.7993 49.8179 25.7779C49.8904 25.7566 49.9663 25.7497 50.0415 25.7577C50.1166 25.7657 50.1894 25.7884 50.2557 25.8245C50.3221 25.8606 50.3807 25.9094 50.4281 25.9681C50.4756 26.0269 50.511 26.0944 50.5324 26.1668C50.5538 26.2392 50.5606 26.3151 50.5526 26.3902C50.5447 26.4652 50.5219 26.538 50.4858 26.6043C50.4497 26.6706 50.4008 26.7291 50.3421 26.7765C49.2747 27.7257 47.9137 28.2802 46.4865 28.3475Z" fill="#231F20"/>
    <path d="M30.2728 58.4589C30.198 58.456 30.1244 58.4381 30.0565 58.4064C29.9887 58.3747 29.9278 58.3298 29.8776 58.2742C29.8273 58.2187 29.7887 58.1536 29.7639 58.0829C29.7392 58.0123 29.7289 57.9374 29.7335 57.8626L30.2958 46.9693C30.3015 46.8944 30.3222 46.8213 30.3567 46.7545C30.3912 46.6877 30.4387 46.6285 30.4965 46.5804C30.5542 46.5323 30.6211 46.4963 30.693 46.4744C30.765 46.4526 30.8406 46.4454 30.9154 46.4533C30.9918 46.4562 31.0668 46.4744 31.1361 46.5066C31.2054 46.5389 31.2675 46.5847 31.3188 46.6413C31.3701 46.698 31.4096 46.7642 31.4349 46.8363C31.4602 46.9084 31.4709 46.9848 31.4662 47.061L30.8466 57.92C30.8352 58.065 30.7701 58.2006 30.664 58.3003C30.5579 58.3999 30.4184 58.4565 30.2728 58.4589Z" fill="#231F20"/>
    <path d="M86.8555 15.4933C86.8555 15.4933 90.298 15.1379 90.298 16.1928C90.298 18.3944 87.8423 17.8555 87.8423 17.8555C87.8423 17.8555 89.4947 19.1741 88.5882 20.2749" fill="white"/>
    <path d="M88.566 20.8826C88.4326 20.8845 88.3028 20.8399 88.1988 20.7565C88.0823 20.6603 88.0085 20.522 87.9934 20.3717C87.9784 20.2214 88.0233 20.0712 88.1184 19.9538C88.1726 19.8962 88.2131 19.8271 88.237 19.7517C88.2608 19.6762 88.2673 19.5964 88.2561 19.5181C88.1176 19.0631 87.8409 18.6624 87.4644 18.3714C87.3628 18.2924 87.2915 18.181 87.2623 18.0558C87.2331 17.9306 87.2477 17.7992 87.3037 17.6834C87.3614 17.5674 87.4553 17.4734 87.5712 17.4154C87.6872 17.3575 87.8188 17.3389 87.9463 17.3624C88.437 17.4785 88.9536 17.4048 89.3922 17.156C89.5069 17.0415 89.5943 16.9027 89.6479 16.7499C89.7016 16.597 89.7201 16.434 89.702 16.273C88.7905 16.0451 87.8431 15.9983 86.9136 16.1354C86.7619 16.1484 86.6111 16.1017 86.4933 16.0054C86.3754 15.909 86.2998 15.7706 86.2824 15.6194C86.2745 15.5441 86.2816 15.4679 86.3033 15.3953C86.3251 15.3227 86.361 15.2551 86.409 15.1965C86.457 15.1378 86.5162 15.0893 86.5831 15.0536C86.65 15.018 86.7233 14.9959 86.7988 14.9888C87.4529 14.92 89.6561 14.7594 90.4823 15.4818C90.7015 15.6842 90.8332 15.9638 90.8495 16.2616C90.8758 16.5947 90.823 16.9293 90.6954 17.2382C90.5678 17.547 90.3689 17.8214 90.1151 18.0389C89.8124 18.2813 89.4531 18.443 89.0709 18.509C89.2479 18.7909 89.3615 19.1078 89.4036 19.4378C89.4259 19.6652 89.4028 19.8948 89.3359 20.1132C89.2689 20.3317 89.1593 20.5347 89.0135 20.7106C88.9557 20.7699 88.8858 20.8159 88.8086 20.8456C88.7313 20.8753 88.6486 20.8879 88.566 20.8826Z" fill="#231F20"/>
    <path d="M85.9942 135.893L78.3633 139.574V133.978L86.3958 130.114H92.5234V155.341H85.9942V135.893Z" fill="#231F20"/>
</svg>
