<svg width="336" height="200" viewBox="0 0 336 200" fill="none" xmlns="http://www.w3.org/2000/svg">
    <path d="M104.749 43.21C104.749 43.21 66.4992 60.21 65.2292 60.98C63.9592 61.75 59.9692 65.61 58.3392 67.42C55.4792 70.58 54.5292 71.22 53.9892 69.42C53.4492 67.62 56.5192 64.93 56.5192 64.93C56.5192 64.93 41.4092 64.69 42.5192 61.39C45.5192 52.94 55.3492 55.45 56.7992 55.27C58.2492 55.09 74.7992 38.91 102.379 30.91" fill="white"/>
    <path d="M54.8094 70.9201C54.7331 70.9305 54.6557 70.9305 54.5794 70.9201C53.9294 70.7801 53.6594 70.1201 53.5094 69.6301C53.0694 68.2301 54.3894 66.4901 55.3394 65.4701C52.0994 65.3501 43.7994 64.8501 42.2794 62.6801C42.1369 62.4833 42.045 62.2545 42.0119 62.0138C41.9787 61.7731 42.0054 61.528 42.0894 61.3001C44.6994 53.8201 52.3494 54.5001 55.6194 54.7801C56.004 54.8295 56.3916 54.8529 56.7794 54.8501C57.6935 54.2666 58.5717 53.6288 59.4094 52.9401C65.6894 48.1201 80.4094 36.8501 102.279 30.5001C102.342 30.4803 102.409 30.4734 102.474 30.4799C102.54 30.4864 102.604 30.5061 102.662 30.5379C102.72 30.5697 102.771 30.6128 102.812 30.6647C102.852 30.7166 102.882 30.7763 102.899 30.8401C102.934 30.9673 102.918 31.103 102.854 31.2186C102.791 31.3342 102.685 31.4207 102.559 31.4601C80.8594 37.7001 66.2594 48.9201 60.0094 53.7001C57.9294 55.2901 57.3094 55.7601 56.8894 55.8101C56.4318 55.8284 55.9736 55.8083 55.5194 55.7501C52.5194 55.4801 45.3794 54.8601 43.0294 61.6001C42.9949 61.678 42.9823 61.7638 42.9929 61.8484C43.0035 61.9329 43.0368 62.013 43.0894 62.0801C44.2194 63.6801 51.9294 64.3901 56.5194 64.4701C56.6196 64.47 56.7174 64.5006 56.7997 64.5578C56.8819 64.615 56.9446 64.6961 56.9794 64.7901C57.0146 64.8851 57.02 64.9886 56.995 65.0869C56.97 65.1851 56.9157 65.2734 56.8394 65.3401C55.7494 66.3401 54.1294 68.2501 54.4494 69.3401C54.6294 69.9101 54.7794 69.9501 54.7794 69.9501C55.3194 70.0801 57.2294 67.9501 57.9594 67.1101C59.6094 65.2801 63.6094 61.3501 64.9594 60.5701C66.3094 59.7901 102.959 43.4801 104.529 42.7801C104.651 42.7164 104.794 42.7038 104.925 42.7451C105.056 42.7864 105.166 42.8781 105.229 43.0001C105.293 43.1221 105.306 43.2644 105.264 43.3956C105.223 43.5269 105.131 43.6364 105.009 43.7001C91.7794 49.5901 66.5094 60.8801 65.5194 61.4401C63.0896 63.357 60.828 65.4781 58.7594 67.7801C56.7794 69.8901 55.6894 70.9201 54.8094 70.9201Z" fill="#231F20"/>
    <path d="M188.11 61.7001L219.88 77.7001C219.88 77.7001 227.77 76.6101 229.4 77.7001C231.03 78.7901 240.03 82.4601 236 87.0201C234.31 88.9201 230.62 93.8801 220.7 90.5301C217.16 89.3401 213.36 83.1401 213.36 83.1401C213.36 83.1401 192.51 80.1401 188.11 78.5201C183.71 76.9001 167.41 63.2901 167.41 63.2901L188.11 61.7001Z" fill="white"/>
    <path d="M226.89 92.23C224.724 92.1856 222.58 91.7905 220.54 91.06C217.2 89.93 213.76 84.76 213.05 83.65C210.65 83.3 192.14 80.59 187.94 79.03C183.51 77.39 167.75 64.28 167.09 63.72C167.012 63.6565 166.955 63.571 166.927 63.4747C166.898 63.3784 166.899 63.2757 166.93 63.18C166.959 63.0847 167.017 63.0007 167.096 62.9398C167.175 62.8789 167.271 62.844 167.37 62.84L188.07 61.24C188.164 61.2337 188.258 61.2545 188.34 61.3L220.01 77.23C221.34 77.06 228.01 76.23 229.72 77.33C229.95 77.49 230.35 77.7 230.83 77.96C233.15 79.21 237.01 81.3 237.51 84.11C237.596 84.7062 237.542 85.3143 237.351 85.8855C237.16 86.4568 236.837 86.9755 236.41 87.4L236.17 87.68C235.093 89.1176 233.69 90.2795 232.077 91.0704C230.464 91.8613 228.686 92.2587 226.89 92.23ZM168.68 63.7C172.22 66.62 184.62 76.7 188.29 78.06C192.59 79.65 213.22 82.62 213.43 82.65C213.502 82.6643 213.57 82.6929 213.63 82.7342C213.69 82.7754 213.741 82.8284 213.78 82.89C213.78 82.95 217.54 88.95 220.86 90.07C230 93.15 233.63 88.99 235.37 86.98L235.62 86.69C235.947 86.3785 236.196 85.9944 236.347 85.5688C236.498 85.1432 236.547 84.688 236.49 84.24C236.07 81.91 232.33 79.89 230.32 78.8C229.8 78.52 229.38 78.29 229.12 78.13C228.05 77.41 222.93 77.79 219.95 78.2C219.856 78.2299 219.754 78.2299 219.66 78.2L188.01 62.2L168.68 63.7Z" fill="#231F20"/>
    <path d="M98.7695 30.16C98.7695 30.16 104.39 26.67 124.51 24.29C144.63 21.91 149.25 25.67 158.33 30.89C158.33 30.89 166.09 34.29 167.41 36.11L188.11 61.7L172.11 70.54L160.01 60.17C156.41 66.03 144.73 85.57 142.7 90.58C142.7 90.58 121.7 86.02 107.01 70.58C105.53 73.58 114.71 50.79 114.19 45.48C114.19 45.48 114.41 45.12 114.78 44.48L102.49 46.48L98.7695 30.16Z" fill="#F1C21B"/>
    <path d="M108.2 115.8C108.2 115.8 94.6301 130.8 91.4901 132.16C88.3501 133.52 41.1301 145.76 41.1301 145.76L40.8301 131.96L82.4401 118.31L93.4401 100.05L108.2 115.8Z" fill="white"/>
    <path d="M41.1301 146.26C41.0007 146.255 40.8777 146.202 40.7853 146.112C40.6928 146.021 40.6375 145.899 40.6301 145.77L40.3301 131.97C40.3304 131.862 40.3642 131.757 40.4269 131.669C40.4896 131.581 40.5781 131.515 40.6801 131.48L82.1101 117.9L93.0101 99.79C93.0501 99.7229 93.1053 99.666 93.1713 99.624C93.2372 99.5821 93.3121 99.5562 93.3899 99.5484C93.4677 99.5406 93.5462 99.5512 93.6192 99.5792C93.6922 99.6073 93.7576 99.6521 93.8101 99.71L108.57 115.46C108.657 115.55 108.706 115.67 108.706 115.795C108.706 115.92 108.657 116.04 108.57 116.13C108.02 116.75 94.8901 131.13 91.6901 132.62C88.4901 134.11 43.1801 145.7 41.2601 146.24L41.1301 146.26ZM41.3401 132.32L41.6201 145.11C47.1601 143.7 88.4101 133 91.2801 131.7C93.6401 130.65 102.76 121.04 107.52 115.8L93.5201 100.88L82.8601 118.57C82.7932 118.672 82.6949 118.749 82.5801 118.79L41.3401 132.32Z" fill="#231F20"/>
    <path d="M124.451 100.31C124.451 100.31 116.321 112.25 108.201 115.8L91.7109 99.1C91.7109 99.1 98.6009 86.55 103.271 76.4C107.941 66.25 124.451 100.31 124.451 100.31Z" fill="#231F20"/>
    <path d="M108.201 116.29C108.071 116.289 107.946 116.239 107.851 116.15L91.3509 99.45C91.2761 99.3732 91.2279 99.2745 91.2135 99.1682C91.1991 99.062 91.2192 98.9539 91.2709 98.86C91.3409 98.73 98.2109 86.21 102.811 76.2C103 75.5983 103.366 75.0678 103.863 74.6786C104.359 74.2895 104.961 74.0598 105.591 74.02C112.041 74.02 123.591 97.42 124.881 100.09C124.923 100.167 124.945 100.253 124.945 100.34C124.945 100.427 124.923 100.513 124.881 100.59C124.541 101.08 116.581 112.68 108.421 116.25C108.352 116.282 108.276 116.295 108.201 116.29ZM92.3209 99.01L108.321 115.2C115.491 111.87 122.711 101.92 123.881 100.26C120.321 92.98 110.491 75.01 105.631 75.01C104.851 75.01 104.241 75.54 103.751 76.61C99.5209 85.75 93.4309 96.97 92.3209 99.01Z" fill="#231F20"/>
    <path d="M147.65 96.2001L165.25 108.48L195.04 157.62L186.16 169.95L151.34 119.9L127.65 111.2L147.65 98.4201" fill="white"/>
    <path d="M186.159 170.45C186.079 170.447 186 170.425 185.929 170.387C185.858 170.349 185.796 170.295 185.749 170.23L151.009 120.32L127.479 111.7C127.392 111.668 127.315 111.613 127.257 111.541C127.199 111.469 127.162 111.382 127.149 111.29C127.14 111.197 127.156 111.102 127.197 111.018C127.237 110.933 127.3 110.861 127.379 110.81L147.379 98.03C147.49 97.9665 147.622 97.9482 147.746 97.9787C147.87 98.0092 147.978 98.0862 148.047 98.1939C148.117 98.3016 148.142 98.4317 148.118 98.5575C148.094 98.6833 148.023 98.7951 147.919 98.87L128.769 111.11L151.519 119.46C151.612 119.5 151.692 119.566 151.749 119.65L186.169 169.11L194.439 157.62L164.869 108.86L147.359 96.6C147.305 96.563 147.26 96.5157 147.224 96.4608C147.189 96.4059 147.165 96.3445 147.154 96.2802C147.143 96.2159 147.145 96.1501 147.159 96.0865C147.174 96.0229 147.201 95.9629 147.239 95.91C147.314 95.802 147.428 95.7278 147.557 95.7035C147.687 95.6791 147.82 95.7066 147.929 95.78L165.529 108.07C165.589 108.11 165.64 108.161 165.679 108.22L195.469 157.36C195.523 157.442 195.552 157.537 195.552 157.635C195.552 157.733 195.523 157.828 195.469 157.91L186.579 170.24C186.532 170.307 186.469 170.362 186.396 170.399C186.323 170.435 186.241 170.453 186.159 170.45Z" fill="#231F20"/>
    <path d="M150.94 7.00998C151.561 5.11279 152.68 3.41711 154.18 2.09999C156.54 0.319985 159.78 0.409985 162.74 0.579985C166.09 0.779985 169.74 1.07998 172.26 3.24998C173.084 3.97859 173.792 4.82832 174.36 5.76998C175.526 7.48254 176.185 9.48957 176.26 11.56C176.292 12.5902 176.073 13.6128 175.621 14.5395C175.17 15.4663 174.501 16.2695 173.67 16.88C170.19 19.22 164.79 16.88 161.67 19.67C160.67 20.59 160.02 21.95 158.85 22.67C158.086 23.1065 157.229 23.3534 156.35 23.39C155.433 23.5282 154.497 23.4826 153.598 23.256C152.698 23.0294 151.853 22.6262 151.11 22.07C146.6 18.23 149.15 11.46 150.94 7.00998Z" fill="#231F20"/>
    <path d="M155.369 23.95C153.706 24.0208 152.071 23.496 150.759 22.47C145.869 18.26 148.869 10.82 150.479 6.82003C151.135 4.84319 152.309 3.0785 153.879 1.71003C156.309 -0.12997 159.469 -0.109969 162.759 0.0900313C165.759 0.260031 169.759 0.50003 172.579 2.87003C173.444 3.63217 174.186 4.52256 174.779 5.51003C175.995 7.28332 176.688 9.36222 176.779 11.51C176.814 12.6233 176.576 13.7281 176.086 14.7284C175.596 15.7287 174.87 16.5944 173.969 17.25C172.189 18.45 169.969 18.51 167.859 18.56C165.749 18.61 163.499 18.68 161.999 20.01C161.591 20.3949 161.22 20.8167 160.889 21.27C160.41 21.9696 159.811 22.579 159.119 23.07C158.289 23.5467 157.356 23.8175 156.399 23.86C156.069 23.93 155.729 23.95 155.369 23.95ZM151.369 7.20003C149.269 12.41 147.369 18.26 151.369 21.71C152.774 22.7389 154.528 23.1703 156.249 22.91C157.05 22.8823 157.832 22.6629 158.529 22.27C159.133 21.8368 159.66 21.3062 160.089 20.7C160.452 20.1941 160.864 19.7252 161.319 19.3C163.099 17.73 165.499 17.67 167.819 17.61C169.889 17.55 171.819 17.5 173.389 16.47C174.153 15.9049 174.767 15.1628 175.18 14.3074C175.593 13.4521 175.792 12.5092 175.759 11.56C175.537 8.52826 174.171 5.69408 171.939 3.63003C169.589 1.63003 166.369 1.30003 162.709 1.08003C159.599 0.900033 156.639 0.870031 154.489 2.50003C153.054 3.75919 151.986 5.38325 151.399 7.20003H151.369Z" fill="#231F20"/>
    <path d="M158.4 34.26C156.3 38.42 156.83 39.73 151.68 41.1C150.89 41.3534 150.057 41.4452 149.23 41.37C148.468 41.1938 147.753 40.8539 147.135 40.3738C146.516 39.8938 146.01 39.2852 145.65 38.59C142.05 32.66 145.87 25.59 147.79 19.75C147.899 19.3124 148.111 18.9075 148.41 18.57C148.792 18.2702 149.236 18.0616 149.71 17.96C151.662 17.205 153.315 15.8363 154.42 14.06C155.511 12.2892 156.38 10.3918 157.01 8.41003C156.73 9.21003 161.69 12.67 162.36 13.13C164.397 14.5389 166.596 15.6973 168.91 16.58C170.49 17.18 170.43 17.15 170.08 18.83C169.8 20.16 169.52 21.49 169.19 22.83C168.566 25.467 167.675 28.0336 166.53 30.49C166.006 31.7737 165.133 32.8854 164.01 33.7C162.38 34.76 160.25 34.52 158.4 34.26Z" fill="white"/>
    <path d="M149.77 41.9101C149.567 41.9247 149.363 41.9247 149.16 41.9101C148.322 41.7332 147.534 41.3722 146.852 40.8534C146.171 40.3346 145.613 39.6708 145.22 38.9101C142.12 33.7901 144.3 27.9101 146.22 22.7401C146.61 21.6801 146.99 20.6501 147.32 19.6501C147.447 19.1303 147.705 18.6517 148.07 18.2601C148.441 17.9545 148.874 17.7328 149.34 17.6101L149.55 17.5401C151.395 16.8226 152.957 15.5238 154 13.8401C155.062 12.1114 155.905 10.2571 156.51 8.32008C156.555 8.19526 156.647 8.09303 156.767 8.03514C156.886 7.97725 157.024 7.96826 157.15 8.01008C157.257 8.04788 157.348 8.12093 157.408 8.21725C157.468 8.31356 157.493 8.42741 157.48 8.54008C157.68 9.02008 159.48 10.6401 162.63 12.7901C164.632 14.175 166.794 15.3132 169.07 16.1801C170.81 16.8401 170.95 17.0901 170.59 18.8301V19.0001C170.32 20.2701 170.03 21.6401 169.69 23.0001C169.062 25.6516 168.164 28.2318 167.01 30.7001C166.45 32.0493 165.538 33.2235 164.37 34.1001C162.71 35.1901 160.69 35.1001 158.73 34.8101C158.4 35.4901 158.14 36.0801 157.91 36.6101C156.75 39.2301 156.22 40.4301 151.85 41.6101C151.172 41.7995 150.473 41.9004 149.77 41.9101ZM157.1 9.60008C156.53 11.2629 155.768 12.8537 154.83 14.3401C153.651 16.2096 151.896 17.6451 149.83 18.4301L149.61 18.5001C149.285 18.5775 148.982 18.7242 148.72 18.9301C148.476 19.2173 148.307 19.5611 148.23 19.9301C147.9 20.9301 147.51 21.9901 147.11 23.0601C145.27 28.0601 143.18 33.6501 146.04 38.3601C146.365 38.9889 146.821 39.5414 147.376 39.981C147.931 40.4206 148.573 40.7373 149.26 40.9101C150.02 40.9681 150.785 40.8764 151.51 40.6401C155.42 39.6401 155.83 38.6401 156.91 36.2301C157.18 35.6001 157.5 34.8901 157.91 34.0601C157.955 33.9669 158.029 33.8906 158.121 33.842C158.212 33.7935 158.317 33.7753 158.42 33.7901C160.42 34.0701 162.26 34.2501 163.73 33.2801C164.744 32.5019 165.532 31.466 166.01 30.2801C167.167 27.8555 168.062 25.3144 168.68 22.7001C169.02 21.3501 169.31 20.0001 169.57 18.7001V18.5301C169.8 17.4401 169.8 17.4401 168.69 17.0201C166.332 16.1257 164.092 14.947 162.02 13.5101C160.251 12.3768 158.603 11.0667 157.1 9.60008Z" fill="#231F20"/>
    <path d="M150.069 23.3701C148.779 23.3385 147.554 22.7995 146.659 21.8701C145.957 21.0547 145.513 20.0498 145.381 18.9821C145.249 17.9144 145.436 16.8316 145.919 15.8701C146.139 15.3606 146.483 14.9139 146.919 14.5701C147.312 14.316 147.774 14.1901 148.242 14.2098C148.709 14.2295 149.159 14.3938 149.529 14.6801C150.759 15.4201 150.969 16.2501 151.529 17.4701" fill="white"/>
    <path d="M150.07 23.87C148.646 23.8361 147.294 23.2392 146.31 22.21C145.54 21.3281 145.051 20.2373 144.903 19.0763C144.755 17.9153 144.956 16.7366 145.48 15.69C145.74 15.0982 146.146 14.5821 146.66 14.19C147.127 13.8719 147.684 13.7093 148.249 13.7255C148.815 13.7416 149.361 13.9357 149.81 14.28C150.762 14.8568 151.472 15.7593 151.81 16.82L152.02 17.3C152.071 17.421 152.074 17.5573 152.027 17.6802C151.981 17.8032 151.888 17.9035 151.77 17.96C151.709 17.9865 151.644 18.0008 151.578 18.002C151.512 18.0033 151.447 17.9915 151.386 17.9673C151.324 17.9432 151.268 17.9071 151.221 17.8612C151.174 17.8153 151.136 17.7606 151.11 17.7L150.89 17.22C150.647 16.3511 150.082 15.6074 149.31 15.14C148.21 14.48 147.61 14.75 147.25 15C146.876 15.2979 146.581 15.6824 146.39 16.12C145.965 16.9868 145.801 17.9579 145.916 18.9161C146.032 19.8743 146.422 20.7787 147.04 21.52C147.843 22.3543 148.942 22.8393 150.1 22.87C150.232 22.87 150.359 22.9227 150.453 23.0165C150.547 23.1102 150.6 23.2374 150.6 23.37C150.6 23.5026 150.547 23.6298 150.453 23.7236C150.359 23.8173 150.232 23.87 150.1 23.87H150.07Z" fill="#231F20"/>
    <path d="M156.67 38.07C155.684 37.8754 154.768 37.4204 154.017 36.7522C153.266 36.0839 152.708 35.2269 152.4 34.27C151.06 30.78 152.4 29.47 152.4 29.47C152.4 29.47 152.92 32.34 158.34 34.13L156.67 38.07Z" fill="#231F20"/>
    <path d="M156.671 38.57C155.59 38.3733 154.584 37.8871 153.758 37.1634C152.932 36.4396 152.318 35.5053 151.981 34.46C150.541 30.71 151.981 29.19 152.061 29.13C152.126 29.0667 152.206 29.0213 152.294 28.9985C152.381 28.9757 152.473 28.9763 152.561 29C152.648 29.0278 152.725 29.0789 152.785 29.1476C152.845 29.2164 152.885 29.3002 152.901 29.39C152.901 29.39 153.501 32.01 158.511 33.66C158.643 33.7069 158.75 33.804 158.811 33.93C158.838 33.9931 158.853 34.0612 158.853 34.13C158.853 34.1989 158.838 34.2669 158.811 34.33L157.171 38.27C157.131 38.367 157.06 38.4485 156.97 38.5025C156.88 38.5565 156.775 38.5802 156.671 38.57ZM152.371 30.7C152.204 31.8602 152.374 33.0439 152.861 34.11C153.124 34.9211 153.582 35.6557 154.193 36.2499C154.805 36.8442 155.552 37.2802 156.371 37.52L157.651 34.44C154.441 33.26 153.011 31.7 152.371 30.7Z" fill="#231F20"/>
    <path d="M164.06 21.1901C164.06 21.1901 165.14 26.8301 164.12 27.3001C163.1 27.7701 161.35 26.4301 161.35 26.4301" fill="white"/>
    <path d="M163.63 27.8901C162.673 27.7893 161.764 27.4182 161.01 26.8201C160.957 26.7808 160.913 26.7312 160.88 26.6744C160.846 26.6175 160.825 26.5546 160.817 26.4892C160.808 26.4239 160.813 26.3575 160.831 26.2941C160.849 26.2306 160.879 26.1715 160.92 26.1201C161.003 26.0177 161.122 25.9512 161.252 25.9344C161.383 25.9177 161.515 25.9519 161.62 26.0301C162.11 26.4101 163.31 27.1001 163.87 26.8401C164.18 26.5001 164.03 23.8401 163.53 21.2801C163.519 21.2097 163.523 21.1377 163.541 21.0689C163.56 21.0001 163.593 20.936 163.639 20.8811C163.684 20.8262 163.741 20.7816 163.805 20.7504C163.869 20.7192 163.939 20.702 164.01 20.7001C164.14 20.6762 164.274 20.7035 164.384 20.7762C164.494 20.8489 164.571 20.9614 164.6 21.0901C165.12 23.8401 165.51 27.2301 164.37 27.7501C164.137 27.8522 163.884 27.9 163.63 27.8901Z" fill="#231F20"/>
    <path d="M167.561 21.1703C167.8 20.5284 167.796 19.9347 167.553 19.8443C167.309 19.7538 166.919 20.2009 166.68 20.8428C166.441 21.4847 166.445 22.0784 166.689 22.1689C166.932 22.2593 167.323 21.8122 167.561 21.1703Z" fill="#231F20"/>
    <path d="M162.796 18.8842C163.034 18.2423 163.03 17.6486 162.787 17.5581C162.544 17.4677 162.153 17.9148 161.914 18.5567C161.676 19.1986 161.68 19.7923 161.923 19.8827C162.166 19.9732 162.557 19.5261 162.796 18.8842Z" fill="#231F20"/>
    <path d="M161.949 31.45C161.269 31.45 158.829 30.97 155.469 24.91C155.433 24.8527 155.408 24.7885 155.397 24.7214C155.386 24.6543 155.389 24.5857 155.406 24.5198C155.422 24.4539 155.452 24.392 155.493 24.3379C155.534 24.2839 155.586 24.2388 155.645 24.2055C155.704 24.1721 155.77 24.1512 155.837 24.1439C155.905 24.1367 155.973 24.1433 156.038 24.1634C156.103 24.1835 156.163 24.2166 156.215 24.2607C156.267 24.3048 156.309 24.359 156.339 24.42C159.739 30.55 161.949 30.42 161.979 30.42C162.112 30.4014 162.246 30.4363 162.353 30.5169C162.46 30.5976 162.53 30.7174 162.549 30.85C162.568 30.9826 162.533 31.1171 162.452 31.224C162.371 31.3309 162.252 31.4014 162.119 31.42L161.949 31.45Z" fill="#231F20"/>
    <path d="M142.649 90.5801L155.119 97.3701L144.009 118.7C144.009 118.7 108.929 106.23 104.009 94.2701C99.0893 82.3101 107.009 70.5801 107.009 70.5801L142.649 90.5801Z" fill="#231F20"/>
    <path d="M144.009 119.18C143.953 119.19 143.895 119.19 143.839 119.18C142.399 118.67 108.489 106.5 103.569 94.46C98.6491 82.42 106.469 70.46 106.569 70.33C106.638 70.2275 106.744 70.1551 106.865 70.1273C106.985 70.0995 107.112 70.1183 107.219 70.18L142.909 90.18L155.379 96.96C155.437 96.9904 155.488 97.032 155.529 97.0823C155.57 97.1326 155.601 97.1906 155.62 97.253C155.638 97.3154 155.644 97.3809 155.637 97.4456C155.63 97.5103 155.611 97.573 155.579 97.63L144.469 118.94C144.422 119.018 144.354 119.082 144.273 119.124C144.192 119.167 144.1 119.186 144.009 119.18ZM107.129 71.25C105.869 73.36 100.239 83.68 104.489 94.06C108.959 105 139.839 116.63 143.759 118.06L154.449 97.57L142.449 91.02L107.129 71.25Z" fill="#231F20"/>
    <path d="M172.48 150.79C172.405 150.79 172.33 150.774 172.263 150.741C172.195 150.708 172.136 150.66 172.09 150.6C172.008 150.496 171.971 150.365 171.986 150.234C172.001 150.102 172.067 149.983 172.17 149.9L184.35 140.1C184.454 140.031 184.581 140.003 184.704 140.023C184.828 140.042 184.94 140.107 185.018 140.205C185.096 140.303 185.134 140.427 185.125 140.552C185.116 140.677 185.061 140.794 184.97 140.88L172.8 150.7C172.705 150.763 172.593 150.794 172.48 150.79Z" fill="#231F20"/>
    <path d="M102.439 46.93C102.322 46.9316 102.208 46.8911 102.118 46.8159C102.028 46.7407 101.968 46.6357 101.949 46.52C101.926 46.3901 101.955 46.2563 102.03 46.1476C102.105 46.039 102.22 45.9644 102.349 45.94L129.229 40.94C129.295 40.9282 129.362 40.9295 129.428 40.9437C129.493 40.9579 129.554 40.9848 129.609 41.0228C129.664 41.0609 129.711 41.1094 129.747 41.1655C129.783 41.2217 129.807 41.2844 129.819 41.35C129.831 41.4157 129.83 41.483 129.816 41.5482C129.801 41.6134 129.775 41.6752 129.736 41.73C129.698 41.7847 129.65 41.8315 129.594 41.8675C129.538 41.9036 129.475 41.9282 129.409 41.94L102.529 46.94L102.439 46.93Z" fill="#231F20"/>
    <path d="M118.55 108.42C118.474 108.419 118.399 108.402 118.33 108.37C118.19 108.3 104.27 101.31 101.97 87.3C101.959 87.2355 101.961 87.1695 101.975 87.1057C101.99 87.0418 102.017 86.9816 102.055 86.9285C102.093 86.8753 102.142 86.8304 102.198 86.7963C102.254 86.7622 102.316 86.7397 102.38 86.73C102.51 86.7097 102.643 86.7414 102.749 86.8181C102.856 86.8948 102.928 87.0105 102.95 87.14C105.18 100.65 118.63 107.4 118.77 107.47C118.872 107.519 118.955 107.602 119.004 107.704C119.052 107.807 119.065 107.922 119.04 108.033C119.014 108.143 118.952 108.242 118.863 108.312C118.774 108.382 118.664 108.42 118.55 108.42Z" fill="white"/>
    <path d="M40.8293 131.96C40.8293 131.96 29.7393 129.5 29.3293 130.82C28.9193 132.14 21.3293 163.82 23.0693 164.37C24.8093 164.92 27.2693 167.12 29.5593 163.72C31.8493 160.32 42.6793 146.35 43.9793 144.72C41.8191 140.82 40.7321 136.417 40.8293 131.96Z" fill="#231F20"/>
    <path d="M26.6802 166.08C25.6988 166.011 24.7438 165.731 23.8802 165.26C23.5551 165.104 23.2212 164.967 22.8802 164.85C22.2502 164.64 21.3802 164.35 24.8802 147.78C26.5902 139.71 28.5902 131.39 28.8102 130.67C29.1802 129.51 33.2402 129.78 40.9002 131.47C41.0165 131.496 41.1197 131.563 41.1912 131.658C41.2627 131.753 41.2978 131.871 41.2902 131.99C41.1957 136.365 42.2582 140.687 44.3702 144.52C44.419 144.608 44.4403 144.708 44.4314 144.808C44.4224 144.908 44.3837 145.002 44.3202 145.08C43.0102 146.7 32.2402 160.63 30.0102 164C29.687 164.609 29.209 165.122 28.6244 165.487C28.0397 165.852 27.3691 166.057 26.6802 166.08ZM23.3602 163.95C23.6602 164.06 23.9702 164.2 24.3002 164.36C25.8902 165.1 27.5302 165.86 29.1502 163.44C31.3302 160.2 41.3802 147.22 43.3802 144.71C41.3391 140.912 40.2868 136.662 40.3202 132.35C35.7502 131.35 30.5802 130.61 29.7802 131.04C28.9002 133.98 22.5902 161.47 23.3602 163.95Z" fill="#231F20"/>
    <path d="M62.4395 140.4C62.3356 140.399 62.2344 140.366 62.1502 140.305C62.066 140.244 62.0028 140.158 61.9695 140.06L57.6095 127.26C57.5681 127.135 57.5773 126.999 57.6354 126.881C57.6934 126.763 57.7955 126.673 57.9195 126.63C58.0456 126.588 58.183 126.597 58.3025 126.655C58.422 126.713 58.5142 126.815 58.5595 126.94L62.9195 139.7C62.9614 139.826 62.9524 139.963 62.8945 140.083C62.8366 140.202 62.7344 140.295 62.6095 140.34L62.4395 140.4Z" fill="#231F20"/>
    <path d="M145.36 85.63C145.284 85.6276 145.209 85.6107 145.14 85.58C145.081 85.5514 145.028 85.5111 144.985 85.4615C144.941 85.412 144.908 85.3542 144.888 85.2917C144.867 85.2292 144.859 85.1631 144.865 85.0976C144.871 85.032 144.889 84.9682 144.92 84.91C147.61 79.5 163.97 52.14 164.13 51.91C164.199 51.7958 164.309 51.713 164.438 51.6794C164.567 51.6457 164.704 51.6639 164.82 51.73C164.933 51.8003 165.013 51.9117 165.045 52.0405C165.077 52.1693 165.057 52.3055 164.99 52.42C164.83 52.7 148.49 80.02 145.81 85.42C145.761 85.4919 145.693 85.5493 145.614 85.5862C145.534 85.6231 145.447 85.6382 145.36 85.63Z" fill="#231F20"/>
    <path d="M272.66 69.9601H272.14C265.49 69.8301 259.82 67.1701 256.14 62.4601C252.46 57.7501 251.32 51.6001 252.85 45.1301C254.567 38.4717 258.504 32.5983 264.01 28.4801C275.77 19.3701 291.4 19.7801 298.85 29.4001C306.3 39.0201 302.8 54.2601 291.05 63.4001C285.812 67.5567 279.346 69.8632 272.66 69.9601ZM282.36 24.8901C276.337 25.0166 270.524 27.1255 265.82 30.8901C260.877 34.6063 257.349 39.8977 255.82 45.8901C254.5 51.4601 255.48 56.7101 258.56 60.6901C261.64 64.6701 266.49 66.9201 272.21 67.0401C278.394 67.0331 284.391 64.9165 289.21 61.0401C299.66 52.9401 302.92 39.5901 296.48 31.2801C293.18 27.0101 288.01 24.8901 282.36 24.8901Z" fill="#231F20"/>
    <path d="M238.93 78.8001C238.702 78.8009 238.477 78.7489 238.272 78.6483C238.068 78.5477 237.889 78.4011 237.75 78.2201C237.629 78.0654 237.539 77.8883 237.486 77.6987C237.433 77.5092 237.419 77.3111 237.443 77.1159C237.467 76.9207 237.53 76.7322 237.627 76.5612C237.725 76.3903 237.855 76.2404 238.01 76.1201C251.67 65.5301 265.3 65.8501 265.88 65.8701C266.277 65.8857 266.652 66.0572 266.924 66.3473C267.195 66.6375 267.341 67.0229 267.33 67.4201C267.328 67.6184 267.286 67.8141 267.206 67.9955C267.125 68.1769 267.01 68.3403 266.865 68.4758C266.72 68.6112 266.549 68.716 266.363 68.7838C266.177 68.8515 265.978 68.8809 265.78 68.8701C265.62 68.8701 252.59 68.6101 239.85 78.4901C239.587 78.6925 239.263 78.8016 238.93 78.8001Z" fill="#231F20"/>
    <path d="M237.49 76.94C237.179 76.9387 236.875 76.8405 236.622 76.659C236.369 76.4775 236.179 76.2217 236.077 75.927C235.976 75.6324 235.969 75.3136 236.058 75.0149C236.146 74.7161 236.325 74.4523 236.57 74.26C249.34 64.36 252.33 51.67 252.35 51.55C252.393 51.3576 252.473 51.1755 252.586 51.0141C252.699 50.8527 252.843 50.7151 253.009 50.6093C253.175 50.5034 253.361 50.4313 253.555 50.3972C253.749 50.363 253.948 50.3673 254.14 50.41C254.332 50.4527 254.515 50.5328 254.676 50.6459C254.837 50.759 254.975 50.9027 255.081 51.0689C255.187 51.2351 255.259 51.4206 255.293 51.6146C255.327 51.8087 255.323 52.0076 255.28 52.2C255.16 52.76 252.07 66.04 238.41 76.63C238.146 76.8325 237.823 76.9415 237.49 76.94Z" fill="#231F20"/>
    <path d="M215.145 93.2827L216.076 94.4843C216.729 95.3268 217.941 95.4806 218.783 94.8278L240.34 78.1251C241.182 77.4722 241.336 76.2599 240.683 75.4173L239.752 74.2158C239.099 73.3732 237.887 73.2195 237.044 73.8723L215.488 90.575C214.646 91.2279 214.492 92.4402 215.145 93.2827Z" fill="#231F20"/>
    <path d="M217.601 95.7001C217.498 95.71 217.394 95.71 217.291 95.7001C216.973 95.6635 216.665 95.5632 216.387 95.4052C216.109 95.2471 215.865 95.0345 215.671 94.7801L214.751 93.5901C214.555 93.3379 214.411 93.0497 214.327 92.7419C214.242 92.4341 214.219 92.1127 214.259 91.796C214.299 91.4793 214.401 91.1736 214.559 90.8964C214.717 90.6191 214.929 90.3757 215.181 90.1801L236.731 73.4801C236.983 73.2844 237.271 73.1402 237.579 73.0559C237.887 72.9716 238.208 72.9488 238.525 72.9887C238.841 73.0286 239.147 73.1305 239.424 73.2886C239.702 73.4467 239.945 73.6579 240.141 73.9101L241.061 75.1101C241.256 75.3622 241.401 75.6504 241.485 75.9582C241.569 76.2661 241.592 76.5875 241.552 76.9041C241.512 77.2208 241.41 77.5265 241.252 77.8038C241.094 78.081 240.883 78.3244 240.631 78.5201L219.081 95.2101C218.657 95.5356 218.135 95.7083 217.601 95.7001ZM215.531 92.9601L216.461 94.1501C216.579 94.3073 216.729 94.4376 216.902 94.5324C217.074 94.6272 217.265 94.6844 217.461 94.7001C217.838 94.743 218.218 94.6392 218.521 94.4101L240.011 77.7001C240.31 77.4687 240.505 77.1285 240.553 76.7537C240.602 76.379 240.5 76.0001 240.271 75.7001L239.341 74.5001C239.108 74.2028 238.767 74.0096 238.392 73.9628C238.018 73.916 237.64 74.0192 237.341 74.2501L215.791 90.9501C215.492 91.1814 215.297 91.5217 215.248 91.8964C215.199 92.2712 215.301 92.65 215.531 92.9501V92.9601Z" fill="#231F20"/>
    <path d="M227.371 77.3C229.792 78.3601 232.009 79.8357 233.921 81.6601C234.13 81.8187 234.302 82.0205 234.427 82.2517C234.551 82.4829 234.624 82.7381 234.641 83.0001C234.578 83.2734 234.428 83.519 234.213 83.6994C233.999 83.8799 233.731 83.9854 233.451 84.0001C232.88 84.0156 232.313 83.9028 231.791 83.6701C229.791 82.9501 227.758 82.2834 225.691 81.6701C225.401 81.5419 225.075 81.5206 224.771 81.6101C224.606 81.6978 224.46 81.8166 224.341 81.96C222.703 83.6514 220.483 84.656 218.131 84.7701" fill="white"/>
    <path d="M218.131 85.26C217.998 85.26 217.871 85.2073 217.777 85.1136C217.684 85.0198 217.631 84.8926 217.631 84.76C217.631 84.6274 217.684 84.5002 217.777 84.4065C217.871 84.3127 217.998 84.26 218.131 84.26C220.354 84.1581 222.454 83.21 224.001 81.61C224.161 81.4119 224.362 81.2514 224.591 81.14C225.004 80.9859 225.458 80.9859 225.871 81.14C227.871 81.79 229.971 82.49 231.971 83.2C232.427 83.4026 232.922 83.5049 233.421 83.5C233.751 83.5 234.131 83.22 234.161 82.91C234.191 82.6 233.891 82.27 233.591 81.98C231.723 80.1898 229.553 78.7442 227.181 77.71C227.077 77.6456 227 77.5452 226.965 77.4278C226.93 77.3104 226.939 77.1842 226.991 77.0732C227.042 76.9622 227.133 76.8741 227.246 76.8256C227.358 76.777 227.485 76.7715 227.601 76.81C230.079 77.8913 232.347 79.4011 234.301 81.27C234.561 81.4788 234.773 81.7416 234.921 82.0403C235.07 82.3391 235.152 82.6665 235.161 83C235.095 83.3949 234.899 83.7562 234.603 84.0263C234.308 84.2964 233.93 84.4597 233.531 84.49C232.882 84.521 232.235 84.4012 231.641 84.14C229.641 83.43 227.641 82.74 225.561 82.14C225.382 82.0618 225.185 82.0341 224.991 82.06C224.899 82.1148 224.817 82.186 224.751 82.27C223.025 84.0791 220.668 85.1535 218.171 85.27L218.131 85.26Z" fill="#231F20"/>
    <path d="M139.71 44.9001C139.44 44.906 139.173 44.8367 138.94 44.7001C138.688 44.5111 138.481 44.267 138.338 43.9862C138.194 43.7054 138.116 43.3955 138.11 43.0801C137.623 39.5693 137.677 36.0045 138.27 32.5101C138.58 30.6901 139.27 28.1001 141.2 26.7301C141.309 26.6625 141.44 26.6393 141.565 26.6653C141.691 26.6912 141.801 26.7643 141.874 26.8695C141.948 26.9747 141.978 27.104 141.958 27.2306C141.939 27.3572 141.871 27.4716 141.77 27.5501C140.1 28.7101 139.54 31.0301 139.26 32.6701C138.682 36.0685 138.628 39.5353 139.1 42.9501C139.1 43.3201 139.23 43.7101 139.45 43.8401C139.748 43.9222 140.066 43.9011 140.35 43.7801C142.35 43.2101 144.42 42.6001 146.42 41.9601C146.548 41.9222 146.685 41.9355 146.802 41.9972C146.92 42.0588 147.009 42.1639 147.05 42.2901C147.088 42.416 147.074 42.5517 147.012 42.6678C146.951 42.7838 146.846 42.8709 146.72 42.9101C144.72 43.5501 142.66 44.1701 140.62 44.7401C140.327 44.8384 140.02 44.8923 139.71 44.9001Z" fill="#231F20"/>
    <path d="M151.929 49.59C149.839 49.59 149.269 44.28 149.149 42.65C149.141 42.519 149.185 42.3899 149.271 42.2907C149.357 42.1916 149.479 42.1302 149.609 42.12C149.742 42.1116 149.872 42.1549 149.973 42.2407C150.073 42.3266 150.137 42.4482 150.149 42.58C150.359 45.42 151.149 48.58 151.929 48.58C152.709 48.58 156.839 46.58 159.059 43.36C159.727 42.5437 160.177 41.5724 160.369 40.5359C160.562 39.4995 160.489 38.4312 160.159 37.43C160.135 37.3678 160.123 37.3013 160.125 37.2345C160.126 37.1677 160.141 37.1018 160.169 37.0409C160.196 36.98 160.236 36.9252 160.285 36.8798C160.334 36.8344 160.392 36.7993 160.455 36.7765C160.517 36.7538 160.584 36.7439 160.651 36.7474C160.718 36.7509 160.783 36.7678 160.843 36.797C160.903 36.8262 160.957 36.8672 161.001 36.9176C161.045 36.9679 161.078 37.0265 161.099 37.09C161.48 38.2434 161.568 39.4734 161.355 40.6692C161.142 41.865 160.635 42.9891 159.879 43.94C157.549 47.26 153.329 49.59 151.929 49.59Z" fill="#231F20"/>
    <path d="M184.23 167.5C184.23 167.5 193.13 162.41 193.75 155.07C195.685 155.896 197.767 156.322 199.87 156.322C201.974 156.322 204.056 155.896 205.99 155.07C212.86 152.3 218.88 150.07 219.93 151.44C220.98 152.81 219.2 155.73 219.2 155.73C219.2 155.73 198.07 179.54 192.26 180.13C186.45 180.72 184.23 167.5 184.23 167.5Z" fill="#231F20"/>
    <path d="M191.88 180.7C186 180.7 183.83 168.17 183.74 167.63C183.722 167.529 183.736 167.425 183.778 167.332C183.821 167.239 183.892 167.162 183.98 167.11C184.07 167.06 192.66 162.11 193.25 155.11C193.259 155.029 193.288 154.951 193.333 154.883C193.378 154.816 193.439 154.76 193.51 154.72C193.582 154.681 193.663 154.66 193.745 154.66C193.827 154.66 193.908 154.681 193.98 154.72C195.85 155.511 197.86 155.919 199.89 155.919C201.921 155.919 203.93 155.511 205.8 154.72C214.71 151.13 219.15 149.72 220.33 151.24C221.51 152.76 219.83 155.77 219.63 156.1C218.71 157.15 198.24 180.1 192.31 180.74L191.88 180.7ZM184.78 167.8C185.16 169.8 187.31 179.7 191.88 179.7H192.21C196.65 179.24 211.57 163.64 218.83 155.46C219.2 154.85 220.23 152.71 219.54 151.8C218.61 150.58 210.21 153.97 206.18 155.59C202.36 157.2 198.07 157.297 194.18 155.86C193.18 162.26 186.34 166.79 184.78 167.75V167.8Z" fill="#231F20"/>
    <path d="M335.5 199.41H0.500002C0.368195 199.408 0.242498 199.354 0.149279 199.261C0.0560596 199.168 0.00256007 199.042 0 198.91V111.43C0.00256007 111.298 0.0560596 111.173 0.149279 111.079C0.242498 110.986 0.368195 110.933 0.500002 110.93H335.5C335.632 110.933 335.758 110.986 335.851 111.079C335.944 111.173 335.997 111.298 336 111.43V198.91C335.997 199.042 335.944 199.168 335.851 199.261C335.758 199.354 335.632 199.408 335.5 199.41ZM1.01 198.41H335.01V111.93H1.01V198.41Z" fill="#D1D3D4"/>
    <path d="M335.49 104.09H0.519531V111.43H335.49V104.09Z" fill="#D1D3D4"/>
    <path d="M335.5 111.93H0.500002C0.367394 111.93 0.240216 111.877 0.146448 111.784C0.0526799 111.69 0 111.563 0 111.43V104.09C0.00256007 103.958 0.0560596 103.833 0.149279 103.739C0.242498 103.646 0.368195 103.593 0.500002 103.59H335.5C335.632 103.593 335.758 103.646 335.851 103.739C335.944 103.833 335.997 103.958 336 104.09V111.43C336 111.563 335.947 111.69 335.854 111.784C335.76 111.877 335.633 111.93 335.5 111.93ZM1.01 110.93H335.01V104.59H1.01V110.93Z" fill="#D1D3D4"/>
    <path d="M15.9102 199.41C15.7783 199.408 15.6527 199.354 15.5594 199.261C15.4662 199.168 15.4127 199.042 15.4102 198.91V111.43C15.4127 111.298 15.4662 111.173 15.5594 111.079C15.6527 110.986 15.7783 110.933 15.9102 110.93C16.0428 110.93 16.1699 110.983 16.2637 111.077C16.3575 111.17 16.4102 111.297 16.4102 111.43V198.91C16.4102 199.043 16.3575 199.17 16.2637 199.264C16.1699 199.357 16.0428 199.41 15.9102 199.41Z" fill="#D1D3D4"/>
    <path d="M32.0098 199.41C31.8772 199.41 31.75 199.357 31.6562 199.264C31.5624 199.17 31.5098 199.043 31.5098 198.91V111.43C31.5098 111.297 31.5624 111.17 31.6562 111.077C31.75 110.983 31.8772 110.93 32.0098 110.93C32.1424 110.93 32.2696 110.983 32.3633 111.077C32.4571 111.17 32.5098 111.297 32.5098 111.43V198.91C32.5098 199.043 32.4571 199.17 32.3633 199.264C32.2696 199.357 32.1424 199.41 32.0098 199.41Z" fill="#D1D3D4"/>
    <path d="M48.0098 199.41C47.8772 199.41 47.75 199.357 47.6562 199.264C47.5624 199.17 47.5098 199.043 47.5098 198.91V111.43C47.5098 111.297 47.5624 111.17 47.6562 111.077C47.75 110.983 47.8772 110.93 48.0098 110.93C48.1416 110.933 48.2673 110.986 48.3605 111.079C48.4537 111.173 48.5072 111.298 48.5098 111.43V198.91C48.5072 199.042 48.4537 199.168 48.3605 199.261C48.2673 199.354 48.1416 199.408 48.0098 199.41Z" fill="#D1D3D4"/>
    <path d="M64.0801 199.41C63.9483 199.408 63.8226 199.354 63.7294 199.261C63.6361 199.168 63.5826 199.042 63.5801 198.91V111.43C63.5826 111.298 63.6361 111.173 63.7294 111.079C63.8226 110.986 63.9483 110.933 64.0801 110.93C64.2127 110.93 64.3399 110.983 64.4336 111.077C64.5274 111.17 64.5801 111.297 64.5801 111.43V198.91C64.5801 199.043 64.5274 199.17 64.4336 199.264C64.3399 199.357 64.2127 199.41 64.0801 199.41Z" fill="#D1D3D4"/>
    <path d="M80.1406 199.41C80.008 199.41 79.8808 199.357 79.7871 199.264C79.6933 199.17 79.6406 199.043 79.6406 198.91V111.43C79.6406 111.297 79.6933 111.17 79.7871 111.077C79.8808 110.983 80.008 110.93 80.1406 110.93C80.2732 110.93 80.4004 110.983 80.4942 111.077C80.5879 111.17 80.6406 111.297 80.6406 111.43V198.91C80.6406 199.043 80.5879 199.17 80.4942 199.264C80.4004 199.357 80.2732 199.41 80.1406 199.41Z" fill="#D1D3D4"/>
    <path d="M96.1992 199.41C96.0666 199.41 95.9394 199.357 95.8457 199.264C95.7519 199.17 95.6992 199.043 95.6992 198.91V111.43C95.6992 111.297 95.7519 111.17 95.8457 111.077C95.9394 110.983 96.0666 110.93 96.1992 110.93C96.331 110.933 96.4567 110.986 96.5499 111.079C96.6432 111.173 96.6967 111.298 96.6992 111.43V198.91C96.6967 199.042 96.6432 199.168 96.5499 199.261C96.4567 199.354 96.331 199.408 96.1992 199.41Z" fill="#D1D3D4"/>
    <path d="M112.25 199.41C112.117 199.41 111.99 199.357 111.896 199.264C111.803 199.17 111.75 199.043 111.75 198.91V111.43C111.75 111.297 111.803 111.17 111.896 111.077C111.99 110.983 112.117 110.93 112.25 110.93C112.383 110.93 112.51 110.983 112.604 111.077C112.697 111.17 112.75 111.297 112.75 111.43V198.91C112.75 199.043 112.697 199.17 112.604 199.264C112.51 199.357 112.383 199.41 112.25 199.41Z" fill="#D1D3D4"/>
    <path d="M128.311 199.41C128.178 199.41 128.051 199.357 127.957 199.264C127.863 199.17 127.811 199.043 127.811 198.91V111.43C127.811 111.297 127.863 111.17 127.957 111.077C128.051 110.983 128.178 110.93 128.311 110.93C128.442 110.933 128.568 110.986 128.661 111.079C128.754 111.173 128.808 111.298 128.811 111.43V198.91C128.808 199.042 128.754 199.168 128.661 199.261C128.568 199.354 128.442 199.408 128.311 199.41Z" fill="#D1D3D4"/>
    <path d="M144.359 199.41C144.228 199.408 144.102 199.354 144.009 199.261C143.915 199.168 143.862 199.042 143.859 198.91V111.43C143.862 111.298 143.915 111.173 144.009 111.079C144.102 110.986 144.228 110.933 144.359 110.93C144.492 110.93 144.619 110.983 144.713 111.077C144.807 111.17 144.859 111.297 144.859 111.43V198.91C144.859 199.043 144.807 199.17 144.713 199.264C144.619 199.357 144.492 199.41 144.359 199.41Z" fill="#D1D3D4"/>
    <path d="M160.42 199.41C160.287 199.41 160.16 199.357 160.066 199.264C159.973 199.17 159.92 199.043 159.92 198.91V111.43C159.92 111.297 159.973 111.17 160.066 111.077C160.16 110.983 160.287 110.93 160.42 110.93C160.553 110.93 160.68 110.983 160.773 111.077C160.867 111.17 160.92 111.297 160.92 111.43V198.91C160.92 199.043 160.867 199.17 160.773 199.264C160.68 199.357 160.553 199.41 160.42 199.41Z" fill="#D1D3D4"/>
    <path d="M176.48 199.41C176.348 199.41 176.221 199.357 176.127 199.264C176.033 199.17 175.98 199.043 175.98 198.91V111.43C175.98 111.297 176.033 111.17 176.127 111.077C176.221 110.983 176.348 110.93 176.48 110.93C176.612 110.933 176.738 110.986 176.831 111.079C176.924 111.173 176.978 111.298 176.98 111.43V198.91C176.978 199.042 176.924 199.168 176.831 199.261C176.738 199.354 176.612 199.408 176.48 199.41Z" fill="#D1D3D4"/>
    <path d="M192.529 199.41C192.397 199.408 192.272 199.354 192.179 199.261C192.085 199.168 192.032 199.042 192.029 198.91V111.43C192.032 111.298 192.085 111.173 192.179 111.079C192.272 110.986 192.397 110.933 192.529 110.93C192.662 110.93 192.789 110.983 192.883 111.077C192.977 111.17 193.029 111.297 193.029 111.43V198.91C193.029 199.043 192.977 199.17 192.883 199.264C192.789 199.357 192.662 199.41 192.529 199.41Z" fill="#D1D3D4"/>
    <path d="M208.59 199.41C208.457 199.41 208.33 199.357 208.236 199.264C208.143 199.17 208.09 199.043 208.09 198.91V111.43C208.09 111.297 208.143 111.17 208.236 111.077C208.33 110.983 208.457 110.93 208.59 110.93C208.722 110.93 208.85 110.983 208.943 111.077C209.037 111.17 209.09 111.297 209.09 111.43V198.91C209.09 199.043 209.037 199.17 208.943 199.264C208.85 199.357 208.722 199.41 208.59 199.41Z" fill="#D1D3D4"/>
    <path d="M224.65 199.41C224.518 199.41 224.391 199.357 224.297 199.264C224.203 199.17 224.15 199.043 224.15 198.91V111.43C224.15 111.297 224.203 111.17 224.297 111.077C224.391 110.983 224.518 110.93 224.65 110.93C224.782 110.933 224.908 110.986 225.001 111.079C225.094 111.173 225.148 111.298 225.15 111.43V198.91C225.148 199.042 225.094 199.168 225.001 199.261C224.908 199.354 224.782 199.408 224.65 199.41Z" fill="#D1D3D4"/>
    <path d="M240.699 199.41C240.567 199.408 240.442 199.354 240.349 199.261C240.255 199.168 240.202 199.042 240.199 198.91V111.43C240.202 111.298 240.255 111.173 240.349 111.079C240.442 110.986 240.567 110.933 240.699 110.93C240.832 110.93 240.959 110.983 241.053 111.077C241.147 111.17 241.199 111.297 241.199 111.43V198.91C241.199 199.043 241.147 199.17 241.053 199.264C240.959 199.357 240.832 199.41 240.699 199.41Z" fill="#D1D3D4"/>
    <path d="M256.76 199.41C256.627 199.41 256.5 199.357 256.406 199.264C256.312 199.17 256.26 199.043 256.26 198.91V111.43C256.26 111.297 256.312 111.17 256.406 111.077C256.5 110.983 256.627 110.93 256.76 110.93C256.892 110.933 257.017 110.986 257.11 111.079C257.204 111.173 257.257 111.298 257.26 111.43V198.91C257.257 199.042 257.204 199.168 257.11 199.261C257.017 199.354 256.892 199.408 256.76 199.41Z" fill="#D1D3D4"/>
    <path d="M272.811 199.41C272.679 199.408 272.553 199.354 272.46 199.261C272.367 199.168 272.313 199.042 272.311 198.91V111.43C272.313 111.298 272.367 111.173 272.46 111.079C272.553 110.986 272.679 110.933 272.811 110.93C272.943 110.93 273.07 110.983 273.164 111.077C273.258 111.17 273.311 111.297 273.311 111.43V198.91C273.311 199.043 273.258 199.17 273.164 199.264C273.07 199.357 272.943 199.41 272.811 199.41Z" fill="#D1D3D4"/>
    <path d="M288.869 199.41C288.737 199.41 288.609 199.357 288.516 199.264C288.422 199.17 288.369 199.043 288.369 198.91V111.43C288.369 111.297 288.422 111.17 288.516 111.077C288.609 110.983 288.737 110.93 288.869 110.93C289.002 110.93 289.129 110.983 289.223 111.077C289.316 111.17 289.369 111.297 289.369 111.43V198.91C289.369 199.043 289.316 199.17 289.223 199.264C289.129 199.357 289.002 199.41 288.869 199.41Z" fill="#D1D3D4"/>
    <path d="M304.93 199.41C304.797 199.41 304.67 199.357 304.576 199.264C304.482 199.17 304.43 199.043 304.43 198.91V111.43C304.43 111.297 304.482 111.17 304.576 111.077C304.67 110.983 304.797 110.93 304.93 110.93C305.061 110.933 305.187 110.986 305.28 111.079C305.374 111.173 305.427 111.298 305.43 111.43V198.91C305.427 199.042 305.374 199.168 305.28 199.261C305.187 199.354 305.061 199.408 304.93 199.41Z" fill="#D1D3D4"/>
    <path d="M321.01 199.41C320.878 199.408 320.752 199.354 320.659 199.261C320.566 199.168 320.512 199.042 320.51 198.91V111.43C320.512 111.298 320.566 111.173 320.659 111.079C320.752 110.986 320.878 110.933 321.01 110.93C321.142 110.93 321.27 110.983 321.363 111.077C321.457 111.17 321.51 111.297 321.51 111.43V198.91C321.51 199.043 321.457 199.17 321.363 199.264C321.27 199.357 321.142 199.41 321.01 199.41Z" fill="#D1D3D4"/>
    <path d="M335.5 124.53H0.500002C0.367394 124.53 0.240216 124.477 0.146448 124.384C0.0526799 124.29 0 124.163 0 124.03C0 123.897 0.0526799 123.77 0.146448 123.676C0.240216 123.583 0.367394 123.53 0.500002 123.53H335.5C335.633 123.53 335.76 123.583 335.854 123.676C335.947 123.77 336 123.897 336 124.03C336 124.163 335.947 124.29 335.854 124.384C335.76 124.477 335.633 124.53 335.5 124.53Z" fill="#D1D3D4"/>
    <path d="M335.5 140.1H0.500002C0.367394 140.1 0.240216 140.047 0.146448 139.954C0.0526799 139.86 0 139.733 0 139.6C0 139.467 0.0526799 139.34 0.146448 139.246C0.240216 139.153 0.367394 139.1 0.500002 139.1H335.5C335.633 139.1 335.76 139.153 335.854 139.246C335.947 139.34 336 139.467 336 139.6C336 139.733 335.947 139.86 335.854 139.954C335.76 140.047 335.633 140.1 335.5 140.1Z" fill="#D1D3D4"/>
    <path d="M335.5 155.7H0.500002C0.367394 155.7 0.240216 155.647 0.146448 155.554C0.0526799 155.46 0 155.333 0 155.2C0 155.067 0.0526799 154.94 0.146448 154.847C0.240216 154.753 0.367394 154.7 0.500002 154.7H335.5C335.633 154.7 335.76 154.753 335.854 154.847C335.947 154.94 336 155.067 336 155.2C336 155.333 335.947 155.46 335.854 155.554C335.76 155.647 335.633 155.7 335.5 155.7Z" fill="#D1D3D4"/>
    <path d="M335.5 171.24H0.500002C0.368195 171.237 0.242498 171.184 0.149279 171.091C0.0560596 170.997 0.00256007 170.872 0 170.74C0 170.607 0.0526799 170.48 0.146448 170.386C0.240216 170.293 0.367394 170.24 0.500002 170.24H335.5C335.633 170.24 335.76 170.293 335.854 170.386C335.947 170.48 336 170.607 336 170.74C335.997 170.872 335.944 170.997 335.851 171.091C335.758 171.184 335.632 171.237 335.5 171.24Z" fill="#D1D3D4"/>
    <path d="M335.5 186.81H0.500002C0.368195 186.807 0.242498 186.754 0.149279 186.661C0.0560596 186.568 0.00256007 186.442 0 186.31C0 186.177 0.0526799 186.05 0.146448 185.956C0.240216 185.863 0.367394 185.81 0.500002 185.81H335.5C335.633 185.81 335.76 185.863 335.854 185.956C335.947 186.05 336 186.177 336 186.31C335.997 186.442 335.944 186.568 335.851 186.661C335.758 186.754 335.632 186.807 335.5 186.81Z" fill="#D1D3D4"/>
    <path d="M294.721 52C305.446 52 314.141 43.3054 314.141 32.58C314.141 21.8547 305.446 13.16 294.721 13.16C283.995 13.16 275.301 21.8547 275.301 32.58C275.301 43.3054 283.995 52 294.721 52Z" fill="#F1C21B"/>
    <path d="M287.011 48.7501C286.941 48.7638 286.87 48.7638 286.801 48.7501C286.741 48.7222 286.687 48.6826 286.642 48.6337C286.597 48.5848 286.563 48.5275 286.541 48.4652C286.518 48.4029 286.508 48.3367 286.512 48.2706C286.515 48.2045 286.532 48.1397 286.561 48.08C290.041 40.64 290.041 33.87 286.561 27.97C284.979 25.2941 282.82 23.0051 280.241 21.27C280.127 21.2033 280.044 21.0944 280.011 20.9671C279.977 20.8397 279.995 20.7043 280.061 20.59C280.129 20.4758 280.24 20.3931 280.369 20.3594C280.498 20.3258 280.635 20.3439 280.751 20.41C280.911 20.51 296.131 29.93 287.461 48.51C287.413 48.5853 287.346 48.647 287.267 48.689C287.188 48.731 287.1 48.7521 287.011 48.7501Z" fill="white"/>
    <path d="M307.059 43.7001C306.98 43.7009 306.902 43.6832 306.831 43.6485C306.759 43.6138 306.697 43.563 306.649 43.5001C295.769 28.5701 303.239 17.0001 303.319 16.8801C303.355 16.8256 303.402 16.7788 303.457 16.7427C303.511 16.7065 303.572 16.6816 303.637 16.6695C303.701 16.6574 303.767 16.6583 303.831 16.6721C303.895 16.6859 303.956 16.7125 304.009 16.7501C304.119 16.8234 304.195 16.937 304.221 17.0663C304.247 17.1955 304.222 17.3299 304.149 17.4401C302.855 19.6724 302.063 22.1603 301.829 24.7301C301.379 28.8801 301.989 35.4101 307.459 42.9101C307.535 43.0183 307.566 43.1517 307.546 43.2823C307.525 43.4129 307.455 43.5304 307.349 43.6101C307.264 43.6683 307.163 43.6996 307.059 43.7001Z" fill="white"/>
</svg>
