<svg width="345" height="97" viewBox="0 0 345 97" fill="none" xmlns="http://www.w3.org/2000/svg">
    <g opacity="0.015">
        <path d="M43.0906 15.5359C45.0415 13.3789 46.7404 11.5377 48.3984 9.66719C50.1852 7.65057 52.0013 5.65733 54.7958 5.0728C55.9792 4.82729 57.2037 4.6987 58.4105 4.69285C65.0423 4.65778 71.6741 4.65778 78.3117 4.69285C79.3252 4.69285 79.9521 4.38305 80.6375 3.58809C82.313 1.6533 84.4631 0.449176 87.117 0.44333C94.9673 0.425795 102.829 0.618689 110.674 0.367342C115.911 0.203674 120.645 4.30122 120.627 10.2517C120.616 13.0691 120.627 15.8866 120.627 18.704C120.627 19.1833 120.627 19.6568 120.627 20.3173C121.254 20.3173 121.776 20.3173 122.291 20.3173C129.216 20.3173 136.141 20.3641 143.071 20.2998C146.627 20.2647 149.709 21.1824 152.087 24.1226C154.642 20.9369 158.063 20.2355 161.883 20.2939C168.661 20.3933 175.439 20.3231 182.223 20.3231H183.84C183.84 16.9738 183.682 13.7238 183.899 10.4972C184.028 8.61504 184.42 6.61011 185.276 4.95005C186.77 2.03909 189.423 0.478402 192.763 0.455021C200.859 0.408259 208.956 0.425795 217.052 0.44333C221.633 0.449176 225.74 4.196 226.01 8.76702C226.185 11.7715 226.092 14.7877 226.121 17.798C226.121 18.3241 226.121 18.8443 226.121 19.5983C237.428 18.4059 247.352 21.3402 255.735 28.7871C256.415 27.2732 256.895 25.6891 257.762 24.3681C259.579 21.5974 262.373 20.3699 265.619 20.3407C272.883 20.2764 280.154 20.3115 287.418 20.329C288.144 20.329 289 20.253 289.574 20.5862C291.835 21.8955 293.939 20.8141 296.147 20.4751C299.504 19.9549 302.902 19.4756 306.288 19.4347C311.092 19.3762 315.199 23.4095 315.281 28.2026C315.41 36.006 315.316 43.8153 315.316 51.7591C323.114 50.1984 330.548 50.9232 336.998 56.219C340.935 59.4515 343.653 63.514 344.515 68.5292C346.401 79.5008 342.851 88.6136 332.763 93.9387C324.344 98.3811 312.065 97.1419 304.566 89.0228C298.028 81.9441 296.247 68.2077 304.238 58.5279C302.363 58.5279 300.746 58.4753 299.141 58.5747C298.86 58.5922 298.467 59.2294 298.391 59.6268C298.256 60.3341 298.303 61.0765 298.303 61.8071C298.303 69.482 298.303 77.1569 298.303 84.8317C298.303 91.5538 294.331 95.476 287.553 95.476C280.382 95.476 273.211 95.4935 266.046 95.476C260.756 95.4585 256.983 92.2845 255.987 86.8717C255.478 87.2692 255.038 87.5848 254.628 87.9297C247.862 93.5704 240.082 96.3762 231.241 96.3878C227.41 96.3937 223.654 96.1014 219.987 94.9616C219.589 94.8388 219.126 94.8564 218.698 94.8915C216.572 95.0727 214.451 95.4234 212.324 95.4468C206.372 95.5227 200.42 95.5695 194.473 95.4175C192.587 95.3708 190.718 94.6401 188.832 94.266C188.398 94.1783 187.918 94.2017 187.484 94.2894C185.744 94.6576 184.016 95.3825 182.276 95.4117C175.404 95.5461 168.52 95.4701 161.648 95.4584C160.922 95.4584 160.137 95.4994 159.475 95.2597C157.307 94.4589 155.28 94.9499 153.107 95.3941C141.22 97.8492 130.341 96.0137 121.207 87.4095C121.073 87.2809 120.903 87.1815 120.668 87.0062C120.358 87.9706 120.165 88.9176 119.76 89.7593C117.985 93.4126 115.003 95.4234 110.943 95.4351C92.8993 95.4935 74.8552 95.4701 56.8053 95.4351C53.7882 95.4351 51.3628 94.0965 49.5349 91.7116C47.7598 89.3969 46.0081 87.0646 44.2447 84.7382C43.9635 84.3699 43.6589 84.0134 43.1141 83.3412C43.1141 84.4109 43.1316 85.1123 43.1141 85.8137C42.9793 91.2206 39.0131 95.3415 33.5706 95.4234C25.6207 95.5344 17.6707 95.5403 9.72078 95.4234C3.99706 95.3532 0.14219 91.092 0.136331 85.1064C0.118756 69.1722 0.130473 53.2438 0.130473 37.3095C0.130473 29.8276 0.112897 22.3515 0.136331 14.8695C0.148048 10.7719 1.70054 7.49274 5.5437 5.6281C6.44004 5.19555 7.48285 4.83898 8.46121 4.82729C16.9911 4.74546 25.5328 4.61102 34.0569 4.79222C39.265 4.90328 42.8621 8.84885 43.0789 14.0219C43.0965 14.3902 43.0789 14.7584 43.0789 15.5359H43.0906ZM5.44996 9.77825V81.5291H29.2529V79.8691C29.2529 74.9123 29.2412 69.9613 29.2646 65.0045C29.2646 64.496 29.2939 63.8471 29.5868 63.5023C31.2214 61.585 32.9438 59.7437 34.6954 57.809C40.4777 65.4429 46.1839 72.9541 51.8432 80.5004C52.4642 81.3304 53.0969 81.6577 54.1397 81.6519C62.4294 81.611 70.725 81.6285 79.0147 81.6227C79.5127 81.6227 80.0107 81.5642 80.7781 81.5174C70.5961 67.9973 60.6016 54.7285 50.566 41.4012C60.1505 30.8973 69.6705 20.4576 79.4131 9.77241C78.6398 9.77241 78.218 9.77241 77.7962 9.77241C69.9458 9.77241 62.0896 9.78994 54.2393 9.74902C53.2726 9.74902 52.6458 10.053 52.0014 10.7661C44.7603 18.7858 37.4841 26.7705 30.2137 34.761C29.9852 35.0123 29.6982 35.2169 29.206 35.6495V9.86008C28.837 9.82501 28.5968 9.7841 28.3624 9.7841C20.7581 9.7841 13.1538 9.7841 5.45582 9.7841L5.44996 9.77825ZM211.123 77.0575C214.632 80.664 218.78 82.1137 223.35 82.5053C235.037 83.5107 245.085 78.7351 250.527 68.0265C254.37 60.4627 254.786 52.4138 252.578 44.3414C248.272 28.6293 233.198 21.6617 218.915 25.6014C216.595 26.2386 214.498 27.6648 212.26 28.7462V5.55211H189.048V81.5174H211.123V77.0516V77.0575ZM178.562 25.6014H155.392V27.3959C155.392 35.3105 155.427 43.2308 155.374 51.1453C155.351 54.1966 155.292 57.3004 153.423 59.9542C151.654 62.456 149.158 63.4321 146.164 63.0639C143.868 62.7833 142.099 61.5441 141.284 59.3872C140.71 57.8674 140.3 56.1957 140.277 54.5824C140.148 45.5046 140.16 36.4211 140.124 27.3375C140.124 26.7646 140.124 26.1977 140.124 25.6131H116.843C116.843 27.7467 116.825 29.7808 116.843 31.815C116.937 41.7695 116.872 51.724 117.212 61.6668C117.382 66.6353 119.022 71.3583 122.455 75.1285C129.392 82.7274 138.103 83.9082 147.641 81.5642C150.951 80.7517 153.757 78.9455 156.528 76.3093V81.5408H178.562V25.6014ZM83.5726 5.53457V81.5174H106.608V5.53457H83.5726ZM301.431 44.6278V24.5844C294.559 24.5551 288.391 26.1392 283.27 31.5344V25.5956H261.219V81.535H284.383C284.383 80.8745 284.383 80.3075 284.383 79.7346C284.383 73.3282 284.366 66.9159 284.389 60.5095C284.395 58.3759 284.389 56.2307 284.583 54.1089C285.016 49.193 287.939 45.8261 292.784 45.0721C295.591 44.6337 298.485 44.7623 301.431 44.6337V44.6278ZM331.146 69.2657C331.093 61.5792 325.492 56.1781 317.583 56.184C309.633 56.184 303.927 61.737 303.962 69.4002C303.997 77.4608 310.313 82.9261 318.157 82.6923C325.586 82.4702 331.198 76.8412 331.146 69.2657ZM67.2627 46.2996C70.8715 51.0986 74.4217 55.8157 78.1653 60.7959V34.3577C74.41 38.4728 70.8598 42.3599 67.2627 46.2996Z" fill="black"/>
        <path d="M5.45032 9.77811C13.1483 9.77811 20.7526 9.77811 28.3569 9.77811C28.5913 9.77811 28.8315 9.81903 29.2005 9.8541V35.6494C29.6927 35.2168 29.9797 35.0122 30.2082 34.7609C37.4786 26.7704 44.7548 18.7857 51.9958 10.766C52.6344 10.0528 53.2613 9.74889 54.2338 9.74889C62.0841 9.7898 69.9403 9.77227 77.7907 9.77227C78.2125 9.77227 78.6402 9.77227 79.4076 9.77227C69.665 20.4516 60.145 30.8913 50.5605 41.4011C60.5961 54.7284 70.5906 67.9972 80.7726 81.5173C80.011 81.5641 79.5072 81.6225 79.0092 81.6225C70.7195 81.6225 62.4239 81.6108 54.1342 81.6517C53.0972 81.6517 52.4587 81.3303 51.8377 80.5002C46.1784 72.9598 40.4722 65.4486 34.6899 57.8088C32.9382 59.7378 31.2159 61.5849 29.5813 63.5021C29.2884 63.847 29.2591 64.4958 29.2591 65.0044C29.2357 69.9612 29.2474 74.9121 29.2474 79.8689V81.529H5.45032V9.77811Z" fill="white"/>
        <path d="M211.123 77.0575V81.5233H189.049V5.55212H212.26V28.7521C214.498 27.6707 216.595 26.2444 218.915 25.6073C233.192 21.6676 248.272 28.6352 252.578 44.3473C254.786 52.4196 254.376 60.4686 250.527 68.0324C245.085 78.7351 235.032 83.5165 223.35 82.5111C218.786 82.1195 214.632 80.6699 211.123 77.0633V77.0575ZM211.867 54.1147C211.967 54.8279 212.061 56.1898 212.348 57.5109C213.174 61.3161 216.367 64.2096 219.975 64.5252C224.182 64.8935 227.586 62.947 229.15 59.0482C230.55 55.5527 230.591 51.9286 229.308 48.3864C228.148 45.1832 225.887 43.1256 222.418 42.6405C218.774 42.1319 215.81 43.3127 213.713 46.4107C212.266 48.55 211.914 50.9758 211.873 54.1147H211.867Z" fill="white"/>
        <path d="M178.562 25.6014V81.5407H156.528V76.3092C153.757 78.9454 150.951 80.7516 147.641 81.5641C138.103 83.9081 129.392 82.7273 122.455 75.1285C119.016 71.3641 117.376 66.6411 117.212 61.6668C116.872 51.724 116.937 41.7636 116.843 31.8149C116.825 29.7808 116.843 27.7466 116.843 25.6131H140.124C140.124 26.1918 140.124 26.7646 140.124 27.3374C140.159 36.421 140.148 45.4987 140.277 54.5823C140.3 56.1956 140.71 57.8674 141.284 59.3871C142.099 61.544 143.868 62.7774 146.164 63.0638C149.158 63.4321 151.654 62.4559 153.423 59.9541C155.298 57.3004 155.35 54.1965 155.374 51.1453C155.433 43.2308 155.391 35.3104 155.391 27.3959V25.6014H178.562Z" fill="white"/>
        <path d="M83.5726 5.53453H106.608V81.5174H83.5726V5.53453Z" fill="white"/>
        <path d="M301.432 44.6278C298.485 44.7564 295.591 44.6278 292.785 45.0662C287.945 45.8261 285.016 49.1871 284.583 54.103C284.395 56.2248 284.401 58.3701 284.389 60.5036C284.366 66.91 284.383 73.3223 284.383 79.7287C284.383 80.3016 284.383 80.8686 284.383 81.5291H261.219V25.5956H283.27V31.5344C288.385 26.1392 294.56 24.5551 301.432 24.5843V44.6278Z" fill="white"/>
        <path d="M331.146 69.2656C331.198 76.8353 325.58 82.4701 318.157 82.6923C310.313 82.9261 303.998 77.4607 303.962 69.4001C303.927 61.7369 309.633 56.1897 317.583 56.1839C325.492 56.1839 331.099 61.5791 331.146 69.2656Z" fill="white"/>
        <path d="M211.867 54.1148C211.908 50.97 212.26 48.5501 213.707 46.4107C215.804 43.3127 218.763 42.132 222.412 42.6405C225.881 43.1257 228.148 45.1832 229.302 48.3864C230.585 51.9345 230.55 55.5527 229.144 59.0482C227.586 62.947 224.176 64.8935 219.97 64.5253C216.361 64.2096 213.168 61.3162 212.342 57.5109C212.055 56.1899 211.955 54.8338 211.861 54.1148H211.867Z" fill="black"/>
    </g>
</svg>
