<svg width="202" height="116" viewBox="0 0 202 116" fill="none" xmlns="http://www.w3.org/2000/svg">
  <path d="M102.586 78.5365L117.457 87.0971C117.457 87.0971 120.832 87.7361 119.151 82.2261C119 81.7301 118.807 81.187 118.568 80.588L111.542 73.9541L111.789 73.4312L117.408 61.5356L119.582 56.9314L115.879 50.4852L115.172 49.2539L98.1906 57.3736L98.2311 57.5765L100.659 69.2592L102.586 78.5365Z" fill="#FFB7B7"/>
  <path d="M109.621 76.7422L124.492 85.3027C124.741 85.3499 124.997 85.3438 125.243 85.2849C125.488 85.226 125.719 85.1155 125.919 84.9609C126.119 84.8062 126.284 84.6109 126.403 84.3878C126.523 84.1646 126.593 83.9188 126.61 83.6664C126.677 83.1774 126.671 82.6813 126.592 82.194C126.398 81.0256 126.066 79.8842 125.604 78.7937L118.578 72.1597L121.814 65.3088L123.427 61.8921L124.47 59.6832L126.617 55.137L122.208 47.4596L113.53 51.6075L105.226 55.5792L105.61 57.4211L106.066 59.6217L108.257 70.1788L108.704 72.3293L109.621 76.7422Z" fill="#FFB7B7"/>
  <path d="M82.6045 65.6109C82.6045 65.6109 88.719 67.0683 92.2155 63.7094C93.3402 62.5882 94.0873 61.1441 94.3526 59.5783L98.2898 55.5078L103.896 49.7069L113.195 51.0537L113.53 51.6075L118.189 59.3102L119.614 61.667L121.814 65.3087L132.488 82.957C132.751 84.1834 133.212 85.3585 133.855 86.4357C134.438 87.4488 135.133 88.3938 135.925 89.253C138.23 91.7543 142.038 94.3235 148.285 95.5293L177.504 113.871L187.233 93.4783L163.244 76.4215L132.012 38.6636L103.473 37.2381L85.8172 50.8501L82.6045 65.6109Z" fill="#FFB7B7"/>
  <rect x="9.603" y="0.539965" width="106.488" height="66.0088" rx="3.5" transform="rotate(4.78875 9.603 0.539965)" fill="white" stroke="#3F3D56"/>
  <path d="M115.116 23.5987L7.98633 14.828L7.1169 25.4099L114.247 34.1807L115.116 23.5987Z" fill="#3F3D56"/>
  <path d="M16.0469 43.1586C15.7623 43.0418 15.5215 42.8276 15.3605 42.548C15.1995 42.2684 15.127 41.9385 15.1538 41.6077L15.9652 31.7312C15.999 31.326 16.1792 30.9497 16.4665 30.6847C16.7538 30.4197 17.1245 30.2878 17.4975 30.3179L26.5874 31.0621C26.9603 31.0931 27.3047 31.2836 27.5448 31.5918C27.785 31.8999 27.9014 32.3006 27.8685 32.7059L27.057 42.5823C27.0233 42.9875 26.843 43.3639 26.5558 43.6288C26.2685 43.8938 25.8977 44.0257 25.5247 43.9956L16.4349 43.2514C16.3019 43.2407 16.1713 43.2094 16.0469 43.1586Z" fill="#D5D5D5"/>
  <path d="M22.5184 10.3373C22.5267 10.2358 22.5298 10.134 22.5278 10.0323C22.516 9.33468 22.2671 8.66999 21.8288 8.16591C21.3905 7.66183 20.7937 7.35391 20.1532 7.30134C19.5127 7.24876 18.8736 7.45522 18.3587 7.88106C17.8439 8.3069 17.4895 8.92207 17.3638 9.60836C17.3449 9.70826 17.3312 9.80917 17.3228 9.91059C17.2735 10.5214 17.4076 11.1305 17.7051 11.6465C18.0025 12.1625 18.4473 12.5577 18.9729 12.7729C19.2022 12.8674 19.4434 12.9251 19.6889 12.9443C20.3773 13.0001 21.0617 12.757 21.5922 12.2682C22.1226 11.7795 22.4557 11.0851 22.5184 10.3373ZM19.7274 12.474C19.1537 12.4264 18.6239 12.1335 18.2543 11.6596C17.8847 11.1856 17.7054 10.5694 17.7557 9.94589C17.7648 9.8447 17.7791 9.74406 17.7986 9.64446C17.9126 9.08327 18.2105 8.58353 18.6365 8.23868C19.0625 7.89383 19.5876 7.72747 20.1135 7.77074C20.6394 7.814 21.1301 8.06391 21.4939 8.47374C21.8577 8.88357 22.0696 9.42525 22.0901 9.9975C22.0958 10.0989 22.0943 10.2006 22.0855 10.302C22.0335 10.9252 21.7559 11.5041 21.3138 11.9113C20.8717 12.3186 20.3011 12.5209 19.7274 12.474Z" fill="#878787"/>
  <path d="M15.8837 9.79285C15.928 9.25458 16.1257 8.74239 16.4493 8.32762C16.7729 7.91286 17.2062 7.61619 17.689 7.47893C17.3414 7.31516 16.9617 7.24444 16.5814 7.27266C16.2012 7.30088 15.8314 7.42724 15.5028 7.64119C15.1743 7.85514 14.8965 8.15049 14.6927 8.50265C14.4889 8.85481 14.3649 9.25358 14.331 9.66573C14.2971 10.0779 14.3544 10.4915 14.498 10.8721C14.6417 11.2527 14.8675 11.5893 15.1567 11.8538C15.4459 12.1183 15.7902 12.3031 16.1608 12.3928C16.5313 12.4825 16.9175 12.4745 17.2872 12.3695C16.8333 12.1555 16.4542 11.7923 16.2026 11.3305C15.951 10.8686 15.8396 10.3311 15.8837 9.79285Z" fill="#878787"/>
  <rect x="36.9326" y="34.5159" width="46.904" height="4.59789" rx="2.29895" transform="rotate(4.78875 36.9326 34.5159)" fill="#CCCCCC"/>
  <rect width="20.2404" height="3.93309" rx="1.96654" transform="matrix(0.996255 0.0864602 -0.0445484 0.999007 45.1748 43)" fill="#CCCCCC"/>
  <rect width="16.5405" height="3.93309" rx="1.96654" transform="matrix(0.996255 0.0864618 -0.04455 0.999007 69.1973 45.1936)" fill="#CCCCCC"/>
  <path opacity="0.15" d="M119.649 83.3278L120.06 82.8563L111.548 75.4223L111.753 66.4404L116.187 64.672L115.955 64.0903L111.136 66.0122L110.915 75.7012L119.649 83.3278Z" fill="black"/>
  <path opacity="0.1" d="M126.593 82.194L128.795 84.261L133.855 86.4357C134.438 87.4489 135.132 88.3938 135.925 89.253L140.559 90.5222L148.382 92.6801L129.109 62.2312L123.427 61.8921C123.427 61.8921 126.676 82.791 126.593 82.194Z" fill="black"/>
  <path d="M92.2158 63.7094C92.8623 64.0549 93.5821 64.398 94.3892 64.74C98.5561 66.5023 107.469 69.8901 108.258 70.1787C113.564 72.1002 116.95 73.146 116.95 73.146L126.593 82.1939L128.796 84.261L149.131 93.0018L128.182 59.9051L124.471 59.6831L118.189 59.3102L111.269 58.8988L105.611 57.421L98.2901 55.5078L92.3727 53.9617C91.3507 53.6835 90.2601 53.821 89.3391 54.3442C88.4182 54.8674 87.7417 55.7338 87.4573 56.7541C86.9524 58.7078 87.6286 61.2487 92.2158 63.7094Z" fill="#FFB7B7"/>
  <path opacity="0.15" d="M92.1841 62.5405C92.2843 62.5187 94.6483 61.9842 95.547 60.0163C96.1512 58.6933 95.937 57.0692 94.9102 55.189L94.3568 55.4912C95.2821 57.1856 95.4902 58.6188 94.9752 59.7507C94.2106 61.4309 92.0712 61.9197 92.0497 61.9244L92.1841 62.5405Z" fill="black"/>
  <path opacity="0.15" d="M117.833 73.545L126.364 81.5518L125.936 82.0083L117.405 74.0015L117.833 73.545Z" fill="black"/>
  <path opacity="0.15" d="M125.883 60.832L113.39 50.8094L112.998 51.2978L123.794 59.959L112.737 58.673L112.664 59.295L125.883 60.832Z" fill="black"/>
</svg>
