<svg width="72" height="95" viewBox="0 0 72 95" fill="none" xmlns="http://www.w3.org/2000/svg">
    <path d="M1.29999 21.14C1.04891 21.2767 0.85176 21.4946 0.740912 21.7581C0.630064 22.0216 0.612125 22.315 0.690009 22.59L15.33 93.2C15.46 93.82 15.94 94.2 16.41 94.02L70.41 73.61C70.6606 73.4702 70.857 73.2503 70.9676 72.9855C71.0783 72.7208 71.0967 72.4265 71.02 72.15L56.38 1.55C56.25 0.919998 55.76 0.54999 55.3 0.72999L1.29999 21.14Z" fill="#E6E6E6"/>
    <path d="M17.09 90.68L68.52 71.24L54.59 4.06L3.16003 23.51L17.09 90.68Z" fill="white"/>
    <path d="M10 32.48C9.65005 32.61 9.51004 33.38 9.68004 34.19C9.85004 35 10.27 35.57 10.61 35.44L34 26.57C34.34 26.44 34.4801 25.6699 34.3201 24.8499C34.1601 24.0299 33.7301 23.48 33.3901 23.61L10 32.48Z" fill="#E6E6E6"/>
    <path d="M11.85 41.59C11.5 41.72 11.36 42.49 11.53 43.3C11.7 44.11 12.12 44.68 12.46 44.55L35.92 35.68C36.26 35.55 36.4 34.78 36.23 33.96C36.06 33.14 35.65 32.5899 35.3 32.7199L11.85 41.59Z" fill="#E6E6E6"/>
    <path d="M13.71 50.59C13.37 50.72 13.23 51.49 13.4 52.31C13.57 53.13 13.99 53.68 14.33 53.55L37.79 44.69C38.13 44.56 38.27 43.79 38.1 42.97C37.93 42.15 37.52 41.59 37.17 41.72L13.71 50.59Z" fill="#E6E6E6"/>
    <path d="M15.6 59.7C15.26 59.83 15.12 60.6 15.29 61.42C15.46 62.24 15.87 62.79 16.22 62.66L39.68 53.8C40.02 53.67 40.16 52.9 39.99 52.08C39.82 51.26 39.4 50.7 39.06 50.83L15.6 59.7Z" fill="#E6E6E6"/>
    <path d="M45.32 19.21C44.9939 19.3917 44.7385 19.6781 44.5951 20.0228C44.4518 20.3676 44.4288 20.7506 44.53 21.11C44.7 21.92 45.32 22.4 45.93 22.18L50.32 20.53C50.6449 20.347 50.8992 20.0604 51.0424 19.7161C51.1856 19.3718 51.2094 18.9894 51.11 18.63C50.94 17.81 50.31 17.34 49.71 17.57L45.32 19.21Z" fill="#E6E6E6"/>
    <path d="M47.1701 28.15C46.8447 28.33 46.5896 28.6145 46.4462 28.9576C46.3029 29.3006 46.2795 29.682 46.3801 30.04C46.5501 30.86 47.18 31.34 47.78 31.11L52.1601 29.45C52.4862 29.2683 52.7416 28.9819 52.8849 28.6371C53.0283 28.2924 53.0512 27.9094 52.9501 27.55C52.7801 26.74 52.15 26.26 51.55 26.49L47.1701 28.15Z" fill="#E6E6E6"/>
    <path d="M49 37.08C48.6753 37.2611 48.4203 37.5453 48.2754 37.8876C48.1305 38.23 48.104 38.6108 48.2 38.97C48.37 39.79 49 40.27 49.61 40.04L53.99 38.38C54.3153 38.2001 54.5704 37.9155 54.7138 37.5725C54.8572 37.2294 54.8805 36.848 54.78 36.49C54.61 35.67 53.99 35.19 53.38 35.42L49 37.08Z" fill="#E6E6E6"/>
    <path d="M50.88 46C50.5538 46.1817 50.2984 46.468 50.155 46.8128C50.0117 47.1575 49.9888 47.5406 50.09 47.9C50.26 48.72 50.8899 49.19 51.4899 48.96L55.88 47.31C56.2031 47.1254 56.4553 46.8383 56.5966 46.4941C56.7379 46.1499 56.7602 45.7683 56.66 45.41C56.49 44.59 55.87 44.12 55.26 44.35L50.88 46Z" fill="#E6E6E6"/>
    <path d="M52.6501 61.5C52.2373 61.7314 51.9143 62.0948 51.7329 62.5319C51.5515 62.969 51.5224 63.4543 51.6501 63.91C51.8701 64.91 52.6501 65.56 53.4401 65.27L59.0301 63.16C59.4449 62.9282 59.7694 62.5631 59.9509 62.1239C60.1324 61.6847 60.1603 61.197 60.0301 60.74C59.8201 59.74 59.0301 59.09 58.2501 59.39L52.6501 61.5Z" fill="black"/>
    <path d="M17.05 69.51L58.4001 53.88L58.5001 54.38L17.1501 70.01L17.05 69.51Z" fill="#E6E6E6"/>
</svg>
