<svg width="60" height="74" viewBox="0 0 60 74" fill="none" xmlns="http://www.w3.org/2000/svg">
  <g clip-path="url(#clip0_385_337)">
    <path d="M40.7597 64.92C40.164 64.0289 39.2529 63.3965 38.2097 63.15C37.2721 62.9903 36.319 62.9399 35.3697 63L23.3697 63.09C22.9062 63.1712 22.4862 63.4132 22.1835 63.7736C21.8808 64.1339 21.7148 64.5894 21.7148 65.06C21.7148 65.5306 21.8808 65.9861 22.1835 66.3464C22.4862 66.7067 22.9062 66.9488 23.3697 67.03L33.9097 66.94C34.7397 66.94 35.5697 66.94 36.3997 66.94H37.0697L37.3697 67.01C37.3697 67.01 37.4297 67.08 37.4797 67.1L37.5297 67.17L37.6597 67.42C37.7975 67.7889 37.9111 68.1664 37.9997 68.55C38.1951 69.1511 38.2995 69.778 38.3097 70.41C38.2549 70.6991 38.2646 70.9967 38.338 71.2816C38.4114 71.5665 38.5468 71.8317 38.7344 72.0582C38.9221 72.2848 39.1574 72.4672 39.4237 72.5924C39.6899 72.7176 39.9805 72.7825 40.2747 72.7825C40.5689 72.7825 40.8595 72.7176 41.1258 72.5924C41.392 72.4672 41.6274 72.2848 41.815 72.0582C42.0027 71.8317 42.1381 71.5665 42.2115 71.2816C42.2849 70.9967 42.2945 70.6991 42.2397 70.41C42.274 68.477 41.7609 66.5738 40.7597 64.92Z" fill="#D5D5D5"/>
    <path d="M24.0804 69.35C23.8504 67.99 23.6304 66.62 23.4004 65.25C23.2576 63.8848 22.6211 62.6188 21.6104 61.69C21.3304 61.45 21.0304 61.22 20.7304 60.99C20.619 60.9165 20.5121 60.8363 20.4104 60.75C19.9604 60.36 19.5304 59.97 19.1204 59.55C18.7104 59.13 18.4004 58.78 18.0604 58.37L17.7604 58C17.7103 57.9462 17.6635 57.8895 17.6204 57.83L17.4704 57.63L17.1904 57.22C16.565 56.2685 16.023 55.2648 15.5704 54.22C15.5704 54.11 15.4804 54.01 15.4404 53.91V53.78C15.3404 53.5333 15.2504 53.2833 15.1704 53.03C14.9904 52.49 14.8404 51.94 14.7104 51.39C14.6504 51.11 14.5904 50.84 14.5404 50.56C14.4904 50.28 14.4904 50.28 14.4704 50.13C14.475 50.0434 14.475 49.9566 14.4704 49.87C14.4704 49.78 14.4704 49.63 14.4704 49.6C14.4704 49.57 14.4704 49.32 14.4704 49.17C14.4704 48.85 14.4704 48.52 14.4204 48.17C14.4204 47.59 14.4204 47.01 14.4204 46.43C14.4204 46.11 14.4204 45.78 14.5104 45.43V45.33L14.6004 44.79C14.7193 44.1159 14.8728 43.4483 15.0604 42.79C15.1504 42.48 15.2404 42.17 15.3504 41.86C15.3504 41.72 15.4404 41.59 15.4904 41.45C15.5404 41.31 15.6404 41.08 15.6404 41.07C16.2304 39.68 17.1904 38.41 17.1904 36.83C17.2171 36.4296 17.1184 36.0308 16.9079 35.6891C16.6974 35.3474 16.3856 35.0799 16.016 34.9236C15.6463 34.7674 15.2372 34.7303 14.8454 34.8175C14.4537 34.9046 14.0989 35.1118 13.8304 35.41C13.6091 35.6103 13.4337 35.8561 13.3164 36.1306C13.199 36.405 13.1424 36.7016 13.1504 37V37.09C13.0304 37.34 12.8904 37.57 12.7704 37.82C12.4273 38.4864 12.1202 39.1707 11.8504 39.87C11.3906 41.0077 11.039 42.1863 10.8004 43.39C10.2795 46.0277 10.2388 48.7378 10.6804 51.39C11.4723 56.0783 13.8648 60.3473 17.4504 63.47C17.7504 63.73 18.0604 63.98 18.3704 64.23L18.7604 64.53C18.8304 64.53 19.0804 64.78 18.9704 64.68C19.2104 64.89 19.3204 64.99 19.3804 65.15V65.3L19.5004 65.82C19.8004 67.35 20.0104 68.9 20.2704 70.44C20.4046 70.9466 20.7323 71.3802 21.183 71.6476C21.6337 71.9151 22.1714 71.9949 22.6804 71.87C23.1884 71.7038 23.615 71.3519 23.8746 70.8846C24.1342 70.4173 24.2077 69.8692 24.0804 69.35Z" fill="#D5D5D5"/>
    <path d="M41.0002 73.32C40.1738 73.3225 39.3797 72.9991 38.7902 72.42C38.2115 71.8326 37.8819 71.0445 37.8702 70.22V68C33.6451 68.2586 29.4067 68.2018 25.1902 67.83V70.15C25.18 70.9719 24.85 71.7574 24.2702 72.34C23.6839 72.922 22.8913 73.2486 22.0652 73.2486C21.2391 73.2486 20.4465 72.922 19.8602 72.34C19.2803 71.7574 18.9503 70.9719 18.9402 70.15V65.57C15.1886 63.4633 12.2138 60.2062 10.4549 56.2795C8.696 52.3529 8.24624 47.9647 9.17201 43.7629C10.0978 39.5611 12.35 35.7682 15.5962 32.9443C18.8425 30.1204 22.9106 28.415 27.2002 28.08C27.7502 28.08 28.2902 28.02 28.8302 28.02C30.7102 28.02 39.2202 28.31 41.3502 28.92L46.2202 24.09C46.2911 24.0187 46.3816 23.97 46.4802 23.95C46.578 23.9205 46.6823 23.9205 46.7802 23.95C46.8734 23.99 46.9533 24.056 47.0102 24.14C47.062 24.2243 47.0896 24.3211 47.0902 24.42V25.19L48.0902 24.25C48.1619 24.1779 48.2535 24.1289 48.3533 24.1093C48.4531 24.0897 48.5565 24.1004 48.6502 24.14C48.7434 24.18 48.8233 24.246 48.8802 24.33C48.9393 24.4113 48.9709 24.5094 48.9702 24.61V33.2C51.4124 35.4029 53.2737 38.174 54.3892 41.268C55.5047 44.362 55.8399 47.6833 55.3653 50.9378C54.8906 54.1923 53.6206 57.2795 51.6679 59.926C49.7151 62.5725 47.1399 64.6965 44.1702 66.11V70.19C44.1729 70.6052 44.0925 71.0167 43.9337 71.4003C43.7748 71.784 43.5408 72.1319 43.2453 72.4236C42.9499 72.7153 42.599 72.9449 42.2134 73.0989C41.8278 73.2528 41.4153 73.328 41.0002 73.32ZM38.0802 67.7V70.22C38.1234 70.9532 38.4452 71.6421 38.9796 72.146C39.514 72.6498 40.2207 72.9304 40.9552 72.9304C41.6896 72.9304 42.3963 72.6498 42.9307 72.146C43.4652 71.6421 43.7869 70.9532 43.8302 70.22V66H43.9002C46.8544 64.6154 49.4191 62.5198 51.3647 59.9008C53.3104 57.2818 54.5762 54.2213 55.0488 50.9931C55.5214 47.7649 55.1861 44.4699 54.073 41.4031C52.9598 38.3363 51.1034 35.5934 48.6702 33.42V24.72C48.6847 24.6745 48.6847 24.6255 48.6702 24.58C48.643 24.5337 48.6006 24.4983 48.5502 24.48C48.4978 24.4655 48.4425 24.4655 48.3902 24.48C48.3369 24.4929 48.2883 24.5206 48.2502 24.56L46.8902 25.91V24.45C46.8872 24.3964 46.8699 24.3446 46.8402 24.3C46.8095 24.2593 46.7679 24.2281 46.7202 24.21C46.6712 24.1953 46.6191 24.1953 46.5702 24.21C46.5169 24.2229 46.4683 24.2506 46.4302 24.29L41.4302 29.22H41.3602C39.3602 28.6 30.7402 28.3 28.8402 28.3C28.3102 28.3 27.7702 28.3 27.2302 28.37C22.9786 28.6858 18.9428 30.3661 15.7233 33.1608C12.5039 35.9555 10.2729 39.7151 9.36264 43.88C8.45234 48.0449 8.91133 52.3924 10.6713 56.2754C12.4313 60.1584 15.3981 63.3693 19.1302 65.43H19.2002V70.13C19.2093 70.8825 19.5147 71.6011 20.0502 72.13C20.3158 72.3964 20.6314 72.6077 20.9789 72.7519C21.3264 72.8961 21.6989 72.9704 22.0752 72.9704C22.4514 72.9704 22.8239 72.8961 23.1714 72.7519C23.5189 72.6077 23.8345 72.3964 24.1002 72.13C24.6356 71.6011 24.941 70.8825 24.9502 70.13V67.51H25.1002C29.3859 67.9001 33.6952 67.9603 37.9902 67.69L38.0802 67.7Z" fill="white"/>
    <path d="M37.8696 67.98H38.8696V66.86L37.7196 67L37.8696 67.98ZM25.1896 67.81L25.3496 66.81L24.1896 66.62V67.8L25.1896 67.81ZM18.9396 65.57H19.9396V65L19.4296 64.72L18.9396 65.57ZM41.3496 28.92L41.0796 29.92L41.6396 30.09L42.0596 29.67L41.3496 28.92ZM47.0896 25.22H46.0896V27.62L47.7996 25.93L47.0896 25.22ZM48.9696 33.23H47.9696V33.67L48.2996 33.97L48.9696 33.23ZM44.1696 66.14L43.7396 65.24L43.1696 65.51V66.14H44.1696ZM38.1696 67.7H39.1696V66.56L37.9996 66.71L38.1696 67.7ZM43.8696 65.99L43.4396 65.08L42.8696 65.36V66L43.8696 65.99ZM48.7096 33.41H47.7096V33.85L48.0396 34.15L48.7096 33.41ZM46.8896 25.88H45.8896V28.28L47.5896 26.59L46.8896 25.88ZM41.4296 29.27L41.1296 30.27L41.7096 30.45L42.1296 30.02L41.4296 29.27ZM19.1496 65.39H20.1496V64.8L19.6296 64.51L19.1496 65.39ZM24.8996 67.47L25.0896 66.47L23.8996 66.25V67.45L24.8996 67.47ZM40.9396 72.25C40.3822 72.2494 39.8473 72.0304 39.4496 71.64L38.0396 73.06C38.4243 73.4564 38.8842 73.7721 39.3925 73.9885C39.9008 74.2048 40.4472 74.3175 40.9996 74.32L40.9396 72.25ZM39.4496 71.64C39.053 71.2406 38.8271 70.7028 38.8196 70.14H36.8196C36.8304 71.2321 37.2683 72.2766 38.0396 73.05L39.4496 71.64ZM38.8196 70.15V68H36.8196V70.24L38.8196 70.15ZM37.7196 67C36.6196 67.13 34.0796 67.18 31.4896 67.15C29.4255 67.1593 27.3624 67.0558 25.3096 66.84L24.9896 68.84C27.1381 69.0757 29.2982 69.1892 31.4596 69.18C34.0496 69.18 36.6996 69.18 37.9396 69.02L37.7196 67ZM24.1496 67.83V70.15H26.1496V67.81L24.1496 67.83ZM24.1496 70.14C24.1437 70.7002 23.9173 71.2355 23.5196 71.63L24.9296 73C25.7005 72.2346 26.1388 71.1963 26.1496 70.11L24.1496 70.14ZM23.5196 71.63C23.3244 71.8265 23.0922 71.9824 22.8365 72.0888C22.5808 72.1952 22.3065 72.25 22.0296 72.25V74.25C23.1169 74.2494 24.1597 73.8179 24.9296 73.05L23.5196 71.63ZM21.9996 72.23C21.7211 72.2302 21.4453 72.1756 21.1879 72.0692C20.9305 71.9628 20.6966 71.8068 20.4996 71.61L19.1196 73C19.8803 73.7731 20.9151 74.2151 21.9996 74.23V72.23ZM20.4996 71.61C20.1018 71.2155 19.8755 70.6802 19.8696 70.12H17.8696C17.8909 71.2071 18.34 72.242 19.1196 73L20.4996 71.61ZM19.8696 70.13V65.57H17.8696V70.13H19.8696ZM19.3596 64.7C16.3899 63.0488 13.9174 60.6316 12.1996 57.7L10.4796 58.7C12.381 61.9298 15.1121 64.5919 18.3896 66.41L19.3596 64.7ZM12.1996 57.7C10.4787 54.7747 9.56749 51.444 9.55957 48.05H7.55957C7.56536 51.7969 8.57355 55.4741 10.4796 58.7L12.1996 57.7ZM9.58957 48.07C9.5883 45.204 10.2385 42.3752 11.491 39.7974C12.7435 37.2196 14.5656 34.9602 16.8196 33.19L15.5696 31.62C13.0762 33.576 11.0603 36.0734 9.67434 38.9233C8.28837 41.7732 7.56864 44.901 7.56957 48.07H9.58957ZM16.8196 33.19C19.806 30.8126 23.4344 29.3815 27.2396 29.08L27.0796 27.08C22.8767 27.4069 18.8679 28.9846 15.5696 31.61L16.8196 33.19ZM27.2396 29.08C27.7596 29.08 28.2396 29.02 28.7896 29.02V27C28.2296 27 27.6496 27 27.0796 27.07L27.2396 29.08ZM28.7896 29C29.7096 29 32.2796 29.07 34.8996 29.22C36.2096 29.29 37.5096 29.39 38.6196 29.5C39.4338 29.5622 40.2425 29.6825 41.0396 29.86L41.5896 28C40.6789 27.7844 39.7527 27.6406 38.8196 27.57C37.6696 27.45 36.3396 27.36 35.0096 27.28C32.3696 27.13 29.7596 27.06 28.7896 27.06V29ZM41.9996 29.63L46.8596 24.8L45.4496 23.38L40.5896 28.21L41.9996 29.63ZM46.8696 24.8C46.8004 24.8664 46.7136 24.9115 46.6196 24.93L46.2196 22.93C45.9261 22.9884 45.6575 23.1349 45.4496 23.35L46.8696 24.8ZM46.6196 24.93C46.5252 24.9599 46.4239 24.9599 46.3296 24.93L47.0996 23.09C46.8224 22.9704 46.5152 22.9389 46.2196 23L46.6196 24.93ZM46.3496 24.93C46.2557 24.8959 46.1752 24.8329 46.1196 24.75L47.7796 23.63C47.6109 23.3783 47.3705 23.1832 47.0896 23.07L46.3496 24.93ZM46.1196 24.75C46.0614 24.6644 46.03 24.5635 46.0296 24.46H48.0296C48.0376 24.1574 47.9502 23.86 47.7796 23.61L46.1196 24.75ZM46.0296 24.47V25.24H48.0296V24.47H46.0296ZM47.7396 25.95L48.6996 25L47.2996 23.58L46.3496 24.52L47.7396 25.95ZM48.7396 25.01C48.6704 25.0764 48.5836 25.1215 48.4896 25.14L48.0996 23.14C47.8038 23.2 47.5325 23.3461 47.3196 23.56L48.7396 25.01ZM48.4896 25.14C48.3952 25.1699 48.2939 25.1699 48.1996 25.14L48.9696 23.3C48.6959 23.1805 48.3919 23.1491 48.0996 23.21L48.4896 25.14ZM48.2196 25.14C48.1288 25.1006 48.0496 25.0386 47.9896 24.96L49.6496 23.84C49.4809 23.5883 49.2405 23.3932 48.9596 23.28L48.2196 25.14ZM47.9996 24.92C47.9487 24.8317 47.9212 24.7319 47.9196 24.63H49.9196C49.9195 24.3271 49.829 24.0311 49.6596 23.78L47.9996 24.92ZM47.9196 24.64V33.23H49.9196V24.64H47.9196ZM48.2096 34C50.5275 36.0951 52.2929 38.7296 53.3496 41.67L55.2396 41C54.0644 37.7537 52.1106 34.8453 49.5496 32.53L48.2096 34ZM53.3496 41.67C54.4092 44.6071 54.7286 47.7601 54.2796 50.85L56.2796 51.14C56.7854 47.7259 56.4419 44.2397 55.2796 40.99L53.3496 41.67ZM54.2796 50.85C53.8284 53.9447 52.623 56.8809 50.7696 59.4L52.3796 60.58C54.4295 57.8003 55.7622 54.5578 56.2596 51.14L54.2796 50.85ZM50.7696 59.4C48.9147 61.912 46.4692 63.9281 43.6496 65.27L44.5096 67.08C47.6276 65.5935 50.3307 63.3609 52.3796 60.58L50.7696 59.4ZM43.0796 66.17V70.25H45.0796V66.14L43.0796 66.17ZM43.0796 70.24C43.0763 70.8037 42.8498 71.343 42.4496 71.74L43.8596 73.16C44.6344 72.3891 45.073 71.343 45.0796 70.25L43.0796 70.24ZM42.4496 71.74C42.0531 72.1323 41.5173 72.3516 40.9596 72.35V74.35C42.0481 74.3503 43.0932 73.923 43.8696 73.16L42.4496 71.74ZM37.0796 67.74V70.26H39.0796V67.7L37.0796 67.74ZM37.0796 70.27C37.0873 71.2942 37.4967 72.2744 38.2196 73L39.6296 71.58C39.4553 71.4071 39.317 71.2015 39.2226 70.975C39.1283 70.7484 39.0796 70.5054 39.0796 70.26L37.0796 70.27ZM38.2196 73C38.9666 73.7141 39.9664 74.1025 40.9996 74.08V72.08C40.5013 72.0782 40.0236 71.8806 39.6696 71.53L38.2196 73ZM40.9996 74.08C42.0019 74.08 42.9655 73.6931 43.6896 73L42.2796 71.58C41.9292 71.93 41.4548 72.1277 40.9596 72.13L40.9996 74.08ZM43.6896 73C44.4146 72.28 44.8246 71.3018 44.8296 70.28H42.8296C42.8295 70.5254 42.7809 70.7684 42.6865 70.995C42.5921 71.2215 42.4538 71.4271 42.2796 71.6L43.6896 73ZM44.8296 70.27V66H42.8296V70.23L44.8296 70.27ZM44.2596 66.94H44.3296L43.4796 65.13H43.3996L44.2596 66.94ZM44.3296 66.94C47.8298 65.2794 50.8001 62.6795 52.9096 59.43L51.2296 58.34C49.3242 61.2767 46.6413 63.6272 43.4796 65.13L44.3296 66.94ZM52.9096 59.43C55.5947 55.2878 56.715 50.324 56.0696 45.43L54.0696 45.69C54.6616 50.1194 53.647 54.6144 51.2096 58.36L52.9096 59.43ZM56.0696 45.43C55.4143 40.529 53.0271 36.0242 49.3396 32.73L47.9996 34.12C51.3288 37.0963 53.4851 41.1641 54.0796 45.59L56.0696 45.43ZM49.6296 33.44V24.74H47.6296V33.44H49.6296ZM49.6296 24.76C49.6369 24.5039 49.5634 24.252 49.4196 24.04L47.7596 25.15C47.6723 25.0276 47.6267 24.8803 47.6296 24.73L49.6296 24.76ZM49.4196 24.04C49.277 23.8254 49.0706 23.661 48.8296 23.57L48.0996 25.43C47.9579 25.3776 47.8381 25.279 47.7596 25.15L49.4196 24.04ZM48.8596 23.58C48.6268 23.4788 48.3686 23.4509 48.1196 23.5L48.5096 25.5C48.3663 25.5446 48.2128 25.5446 48.0696 25.5L48.8596 23.58ZM48.1196 23.5C47.8689 23.5524 47.6393 23.6776 47.4596 23.86L48.8896 25.26C48.7841 25.3609 48.6525 25.4302 48.5096 25.46L48.1196 23.5ZM47.4696 23.85L46.0996 25.1L47.5096 26.52L48.8796 25.17L47.4696 23.85ZM47.8096 25.91V24.45H45.8096V25.81L47.8096 25.91ZM47.8096 24.57C47.814 24.3128 47.737 24.0608 47.5896 23.85L45.9296 24.96C45.8493 24.8348 45.8076 24.6887 45.8096 24.54L47.8096 24.57ZM47.5896 23.85C47.4533 23.6337 47.2494 23.4685 47.0096 23.38L46.2796 25.24C46.1364 25.1857 46.014 25.0877 45.9296 24.96L47.5896 23.85ZM46.9996 23.29C46.7631 23.1892 46.502 23.1613 46.2496 23.21L46.6396 25.21C46.4997 25.2544 46.3495 25.2544 46.2096 25.21L46.9996 23.29ZM46.2496 23.21C45.9989 23.2624 45.7693 23.3876 45.5896 23.57L47.0696 25C46.9604 25.1012 46.8255 25.1704 46.6796 25.2L46.2496 23.21ZM45.6096 23.56L40.6096 28.49L42.0096 29.91L47.0096 24.98L45.6096 23.56ZM41.6096 28.25H41.5396L40.9396 30.15H41.0096L41.6096 28.25ZM41.5396 28.25C40.6478 28.0206 39.7377 27.87 38.8196 27.8C37.6796 27.68 36.3296 27.59 34.9996 27.51C32.3496 27.36 29.6896 27.28 28.7196 27.28V29.28C29.6396 29.28 32.2596 29.36 34.8896 29.51C36.2096 29.58 37.5096 29.68 38.6096 29.79C39.3943 29.8499 40.1733 29.9702 40.9396 30.15L41.5396 28.25ZM28.7196 27.25C28.1596 27.25 27.5996 27.25 27.0296 27.32L27.1896 29.32C27.6996 29.32 28.1896 29.26 28.7196 29.26V27.25ZM27.0296 27.32C22.8793 27.6531 18.9216 29.2125 15.6596 31.8L16.9996 33.38C19.9485 31.0318 23.5317 29.618 27.2896 29.32L27.0296 27.32ZM15.7296 31.81C13.2665 33.7442 11.2754 36.2132 9.90675 39.0301C8.53814 41.847 7.82785 44.9382 7.82957 48.07H9.82957C9.83227 45.238 10.4792 42.4437 11.7214 39.8986C12.9636 37.3535 14.7686 35.1244 16.9996 33.38L15.7296 31.81ZM7.82957 48.08C7.84351 51.7961 8.84801 55.4413 10.7396 58.64L12.4596 57.64C10.7481 54.7477 9.84017 51.4507 9.82957 48.09L7.82957 48.08ZM10.7396 58.64C12.6331 61.8381 15.3466 64.4723 18.5996 66.27L19.5996 64.52C16.6585 62.8928 14.2042 60.511 12.4896 57.62L10.7396 58.64ZM18.5996 66.27H18.6596L19.6596 64.52H19.5996L18.5996 66.27ZM18.1496 65.43V70.13H20.1496V65.43H18.1496ZM18.1496 70.14C18.16 71.1607 18.5691 72.1369 19.2896 72.86L20.6996 71.44C20.5253 71.2671 20.387 71.0615 20.2926 70.835C20.1983 70.6084 20.1496 70.3654 20.1496 70.12L18.1496 70.14ZM19.2896 72.86C20.0096 73.579 20.9821 73.9881 21.9996 74V72C21.7526 72.0002 21.5081 71.9517 21.2799 71.8573C21.0517 71.7629 20.8443 71.6245 20.6696 71.45L19.2896 72.86ZM21.9996 74C23.0228 73.997 24.0036 73.591 24.7296 72.87L23.3196 71.45C22.9692 71.8 22.4948 71.9977 21.9996 72V74ZM24.7296 72.87C25.4501 72.1469 25.8592 71.1707 25.8696 70.15H23.8696C23.8695 70.3954 23.8209 70.6384 23.7265 70.865C23.6321 71.0915 23.4938 71.2971 23.3196 71.47L24.7296 72.87ZM25.8696 70.14V67.51H23.8696V70.13L25.8696 70.14ZM24.7196 68.5H24.8596L25.2296 66.5H25.0896L24.7196 68.5ZM24.8596 68.5C27.053 68.7606 29.2608 68.8809 31.4696 68.86C33.671 68.9167 35.874 68.86 38.0696 68.69L37.8096 66.69C35.707 66.8499 33.5976 66.9033 31.4896 66.85C29.3985 66.8646 27.3083 66.7578 25.2296 66.53L24.8596 68.5ZM38.0696 68.69H38.2096L37.9496 66.69H37.8096L38.0696 68.69Z" fill="white"/>
    <path d="M24.3098 14.64L10.7098 18.73C10.282 18.8619 9.92295 19.1563 9.70981 19.55C9.49823 19.9497 9.45157 20.4163 9.57981 20.85C9.71312 21.2801 10.0116 21.6397 10.4098 21.85C10.6068 21.9574 10.8234 22.0242 11.0467 22.0465C11.2699 22.0689 11.4954 22.0462 11.7098 21.98L23.5998 18.4L23.8498 18.33C23.8938 17.0456 24.2362 15.7892 24.8498 14.66C24.7757 14.6213 24.6934 14.6008 24.6098 14.6C24.5082 14.5941 24.4064 14.6077 24.3098 14.64Z" fill="#CCCCCC"/>
    <path d="M11.4597 22.86C11.2799 22.8637 11.104 22.8074 10.9597 22.7C10.8107 22.598 10.6985 22.4508 10.6398 22.28L9.78975 19.71C9.77451 19.5972 9.77451 19.4828 9.78975 19.37C9.79962 19.2587 9.83014 19.1502 9.87975 19.05C9.9293 18.9486 10.0011 18.8598 10.0897 18.79C10.1727 18.7127 10.2717 18.6546 10.3797 18.62L21.4097 15C21.5183 14.9748 21.6312 14.9748 21.7397 15C21.8511 15.0099 21.9596 15.0404 22.0597 15.09C22.1599 15.1417 22.2511 15.2093 22.3298 15.29C22.4023 15.3785 22.4567 15.4805 22.4897 15.59L23.3398 18.15C23.4248 18.3583 23.4248 18.5917 23.3398 18.8C23.2936 18.8991 23.2283 18.9881 23.1476 19.0619C23.067 19.1357 22.9726 19.1928 22.8698 19.23L11.7297 22.82C11.6425 22.848 11.5513 22.8615 11.4597 22.86Z" fill="white"/>
    <path d="M32.1798 10.08C29.946 10.079 27.7996 10.9482 26.1959 12.5033C24.5922 14.0585 23.6575 16.1772 23.5898 18.41V18.68C23.5883 20.3807 24.0923 22.0435 25.0378 23.4573C25.9832 24.871 27.3275 25.9718 28.8998 26.62C30.478 27.2877 32.2221 27.4586 33.8998 27.11C35.9585 26.6598 37.7802 25.4694 39.0192 23.7647C40.2581 22.0601 40.8281 19.9599 40.6208 17.8628C40.4136 15.7657 39.4436 13.8177 37.8949 12.3885C36.3463 10.9594 34.3268 10.1486 32.2198 10.11L32.1798 10.08ZM32.1798 27.08C29.967 27.0774 27.8457 26.1965 26.282 24.6308C24.7182 23.0652 23.8398 20.9428 23.8398 18.73V18.39C23.904 16.7528 24.4496 15.1709 25.4083 13.8422C26.3671 12.5135 27.6963 11.497 29.2298 10.92C30.7464 10.3215 32.4062 10.1858 33.9998 10.53C35.9787 11.0033 37.7166 12.1829 38.8871 13.8471C40.0576 15.5113 40.5803 17.5457 40.3568 19.568C40.1333 21.5904 39.1791 23.4615 37.6735 24.83C36.1678 26.1985 34.2143 26.9701 32.1798 27V27.08Z" fill="white"/>
    <path d="M11.8499 33.27C11.661 33.2717 11.4773 33.2081 11.3299 33.09C11.1786 32.9751 11.0696 32.8134 11.0199 32.63L10.5599 30.88C10.5293 30.7713 10.5216 30.6575 10.537 30.5456C10.5525 30.4338 10.591 30.3263 10.6499 30.23C10.7039 30.1308 10.778 30.0439 10.8676 29.975C10.9571 29.9061 11.0601 29.8567 11.1699 29.83L25.7699 26C25.9937 25.9537 26.2267 25.9855 26.4299 26.09C26.6243 26.2088 26.7643 26.3991 26.8199 26.62L27.2199 28.1H27.1399C23.3981 28.3878 19.8169 29.7412 16.8199 32L12.0999 33.25C12.0182 33.2701 11.9338 33.2769 11.8499 33.27Z" fill="white"/>
    <path d="M9.43982 41.93C7.72291 41.6815 6.08118 41.0603 4.62982 40.11C3.90408 39.6473 3.23313 39.1038 2.62982 38.49C2.00068 37.9006 1.50315 37.185 1.16982 36.39C0.880259 35.6472 0.880259 34.8228 1.16982 34.08C1.47642 33.3507 2.05866 32.7721 2.78982 32.47C3.54007 32.1654 4.37956 32.1654 5.12982 32.47C5.47159 32.6213 5.768 32.8592 5.98982 33.16C6.08886 33.2997 6.16327 33.4552 6.20982 33.62C6.24556 33.7713 6.24556 33.9288 6.20982 34.08C6.1649 34.2331 6.09013 34.3759 5.98982 34.5C5.89014 34.6211 5.7634 34.717 5.61982 34.78C5.30796 34.9429 4.96915 35.048 4.61982 35.09C4.42729 35.142 4.22584 35.1519 4.02913 35.1191C3.83243 35.0863 3.64509 35.0116 3.47982 34.9C3.4252 34.8414 3.38121 34.7737 3.34982 34.7C3.335 34.6409 3.335 34.5791 3.34982 34.52C3.34982 34.52 3.34982 34.46 3.34982 34.47C3.37955 34.4324 3.42241 34.4074 3.46982 34.4H3.51982H3.61982C3.6469 34.4284 3.67948 34.4511 3.71558 34.4666C3.75168 34.482 3.79054 34.49 3.82982 34.49C3.86749 34.4892 3.90463 34.4809 3.93899 34.4654C3.97336 34.4499 4.00425 34.4277 4.02982 34.4C4.08117 34.3461 4.10982 34.2745 4.10982 34.2C4.10982 34.1255 4.08117 34.0539 4.02982 34C3.88844 33.8728 3.70499 33.8024 3.51482 33.8024C3.32464 33.8024 3.14119 33.8728 2.99982 34C2.84565 34.1919 2.7729 34.4366 2.79721 34.6816C2.82152 34.9265 2.94094 35.1522 3.12982 35.31C3.33835 35.4719 3.57978 35.5862 3.83717 35.645C4.09456 35.7037 4.36169 35.7054 4.61982 35.65C5.06193 35.6105 5.49271 35.4883 5.88982 35.29C6.19699 35.156 6.45361 34.9278 6.62258 34.6384C6.79156 34.349 6.86413 34.0134 6.82982 33.68C6.79957 33.4556 6.72839 33.2387 6.61982 33.04C6.37683 32.6322 6.03515 32.292 5.62623 32.0509C5.21731 31.8097 4.7543 31.6753 4.27982 31.66C3.79658 31.6206 3.31035 31.6784 2.84982 31.83C2.38886 31.9784 1.96337 32.2201 1.59982 32.54C0.908298 33.1804 0.486408 34.0599 0.419816 35C0.377999 35.9826 0.68235 36.9488 1.27982 37.73C1.85838 38.54 2.55241 39.261 3.33982 39.87C4.87425 41.0919 6.67144 41.9409 8.58982 42.35L9.27982 42.47C9.35401 42.4889 9.43262 42.4787 9.49955 42.4415C9.56648 42.4043 9.61666 42.343 9.63982 42.27C9.65467 42.2352 9.66233 42.1978 9.66233 42.16C9.66233 42.1222 9.65467 42.0848 9.63982 42.05C9.6166 42.0172 9.58684 41.9897 9.55241 41.969C9.51799 41.9484 9.47964 41.9351 9.43982 41.93Z" fill="white"/>
    <path d="M36.8595 29.41C34.3495 29.41 31.8595 29.41 29.3595 29.61C28.5095 29.66 27.7695 29.96 27.7695 30.47C27.7695 30.98 28.4995 31.39 29.3595 31.33C31.8462 31.17 34.3462 31.1067 36.8595 31.14C38.9095 31.17 38.9095 29.44 36.8595 29.41Z" fill="#CCCCCC"/>
    <path d="M33.1498 31.06C32.8798 31.06 26.5098 31.06 26.5098 30.17C26.5098 29.28 32.8798 29.27 33.1498 29.27C33.4198 29.27 39.7998 29.27 39.7998 30.17C39.7998 31.07 33.4298 31.06 33.1498 31.06ZM26.7598 30.17C26.9298 30.43 29.2798 30.81 33.1498 30.81C37.0198 30.81 39.3698 30.43 39.5498 30.17C39.3698 29.9 37.0298 29.52 33.1498 29.52C29.2698 29.52 26.9298 29.9 26.7598 30.17Z" fill="#3F3D56"/>
    <path d="M53.3701 54.21C54.9499 54.3137 56.5245 53.941 57.8901 53.14C58.3019 52.8327 58.6429 52.4405 58.8901 51.99C59.1241 51.5408 59.2572 51.046 59.2801 50.54C59.3058 50.1807 59.2479 49.8203 59.1108 49.4871C58.9737 49.154 58.7613 48.8572 58.4901 48.62C58.0856 48.3223 57.6137 48.129 57.1165 48.0575C56.6194 47.986 56.1122 48.0384 55.6401 48.21L56.7901 39.79L55.9501 39.67L54.5901 49.58L55.3001 49.25C55.7001 49.0143 56.1559 48.89 56.6201 48.89C57.0844 48.89 57.5401 49.0143 57.9401 49.25C58.1117 49.404 58.2452 49.5957 58.3301 49.81C58.4182 50.0217 58.4525 50.2518 58.4301 50.48C58.4121 50.8579 58.3096 51.227 58.1301 51.56C57.9564 51.8933 57.7145 52.1863 57.4201 52.42C56.2047 53.1086 54.8138 53.4251 53.4201 53.33L53.3701 54.21Z" fill="white"/>
    <path d="M51.0004 40.52H46.4404V41.37H51.0004V40.52Z" fill="white"/>
    <path d="M13.9295 37.2C13.7272 37.1969 13.5324 37.1225 13.3795 36.99C13.2219 36.8585 13.1186 36.6732 13.0895 36.47L12.8095 34.68C12.7913 34.5597 12.7988 34.4368 12.8315 34.3196C12.8643 34.2024 12.9215 34.0934 12.9995 34C13.1348 33.818 13.3357 33.696 13.5595 33.66L28.4795 31.32C28.5908 31.3013 28.7047 31.3049 28.8146 31.3306C28.9245 31.3564 29.0282 31.4038 29.1195 31.47C29.3037 31.6049 29.429 31.8053 29.4695 32.03L29.7495 33.83C29.7695 33.9431 29.7666 34.0591 29.741 34.171C29.7154 34.283 29.6676 34.3887 29.6005 34.4819C29.5334 34.5751 29.4483 34.6539 29.3502 34.7137C29.2522 34.7735 29.1431 34.813 29.0295 34.83L14.0695 37.19L13.9295 37.2Z" fill="white"/>
    <path d="M7.76001 16.2C9.00095 16.202 10.2146 15.8357 11.2472 15.1475C12.2798 14.4593 13.085 13.4801 13.5608 12.334C14.0366 11.1879 14.1616 9.92643 13.92 8.70924C13.6784 7.49205 13.081 6.37392 12.2036 5.49645C11.3261 4.61897 10.208 4.02161 8.99077 3.78C7.77357 3.53839 6.51206 3.66339 5.36596 4.1392C4.21986 4.615 3.24072 5.42019 2.55253 6.45281C1.86433 7.48544 1.49803 8.69906 1.50001 9.94C1.50001 11.6003 2.15954 13.1925 3.33352 14.3665C4.5075 15.5405 6.09975 16.2 7.76001 16.2Z" fill="white"/>
    <path d="M11.3 11.56C11.5005 11.4878 11.6843 11.3755 11.84 11.23C11.9406 11.1232 12.0188 10.9974 12.07 10.86C12.095 10.7178 12.095 10.5722 12.07 10.43C12.0578 10.3278 12.0238 10.2293 11.9703 10.1414C11.9169 10.0534 11.8451 9.9779 11.76 9.92C11.6326 9.85086 11.49 9.81464 11.345 9.81464C11.2 9.81464 11.0574 9.85086 10.93 9.92V7.47H10.7V10.35L10.89 10.23C10.9924 10.1437 11.1169 10.0877 11.2494 10.0683C11.3818 10.0489 11.5171 10.0668 11.64 10.12C11.6961 10.1562 11.7438 10.2039 11.78 10.26C11.7949 10.3225 11.7949 10.3875 11.78 10.45C11.8003 10.5557 11.8003 10.6643 11.78 10.77C11.7381 10.8685 11.6808 10.9597 11.61 11.04C11.2934 11.2963 10.9062 11.4498 10.5 11.48V11.72C10.7705 11.6881 11.038 11.6346 11.3 11.56Z" fill="#2F2E41"/>
    <path d="M13.4699 7.31L12.1699 7.51V7.75L13.4799 7.55L13.4699 7.31Z" fill="#2F2E41"/>
    <path d="M9.35 7.92999L8 8.12999V8.36999L9.31 8.17999L9.35 7.92999Z" fill="#2F2E41"/>
    <path d="M11.9 37.09C11.6741 37.0915 11.4536 37.0215 11.27 36.89C11.0831 36.7629 10.94 36.5813 10.86 36.37L6.53997 24.8C6.0146 23.3808 6.072 21.8114 6.69963 20.4343C7.32726 19.0573 8.47416 17.9845 9.88997 17.45L13.4 16.14C13.5368 16.0869 13.6833 16.063 13.83 16.07C13.9756 16.0724 14.1189 16.1065 14.25 16.17C14.3824 16.2288 14.5014 16.3138 14.6 16.42C14.6981 16.523 14.7731 16.6457 14.82 16.78L22.82 31.89C22.8731 32.0269 22.897 32.1734 22.89 32.32C22.8876 32.4656 22.8535 32.609 22.79 32.74C22.733 32.8734 22.6477 32.9929 22.54 33.09C22.435 33.1929 22.3087 33.2715 22.17 33.32L12.28 37C12.1604 37.0547 12.0313 37.0853 11.9 37.09Z" fill="white"/>
    <path d="M12.3398 16.54L20.2698 27.16L14.8998 16.65C14.859 16.5263 14.7906 16.4134 14.6998 16.32C14.6171 16.2189 14.5106 16.1399 14.3898 16.09C14.2672 16.034 14.1346 16.0034 13.9998 16C13.8676 16.0003 13.7361 16.0206 13.6098 16.06L12.3398 16.54Z" fill="#E6E6E6"/>
    <path d="M24.9004 24.6L10.7404 23.69C10.5149 23.6749 10.2944 23.6172 10.0904 23.52C9.88908 23.4185 9.70916 23.2793 9.56038 23.11C9.41644 22.9418 9.30459 22.7486 9.23037 22.54C9.16133 22.3271 9.13085 22.1036 9.14038 21.88C9.16004 21.6541 9.22105 21.4338 9.32037 21.23C9.41223 21.0284 9.54907 20.8505 9.72038 20.71C9.88781 20.5574 10.0854 20.4415 10.3004 20.37C10.5097 20.3004 10.73 20.2699 10.9504 20.28L25.1204 21.2C25.2256 21.2003 25.3289 21.2279 25.4204 21.28C25.5176 21.3226 25.6033 21.3878 25.6704 21.47C25.7388 21.5502 25.7929 21.6415 25.8304 21.74C25.8456 21.8428 25.8456 21.9472 25.8304 22.05L25.7104 23.86C25.6925 24.0696 25.5938 24.264 25.4352 24.4021C25.2765 24.5402 25.0704 24.6112 24.8604 24.6H24.9004Z" fill="#CCCCCC"/>
    <path d="M21.1197 25.19H21.0597L9.42967 24.44C9.31493 24.4314 9.2029 24.4008 9.09967 24.35C9.00097 24.3006 8.9127 24.2327 8.83967 24.15C8.7642 24.0619 8.70647 23.96 8.66967 23.85C8.6328 23.744 8.61585 23.6321 8.61967 23.52L8.81967 20.43C8.84037 20.2043 8.94363 19.9942 9.10967 19.84C9.19803 19.7702 9.29562 19.713 9.39967 19.67C9.51217 19.6506 9.62717 19.6506 9.73967 19.67L21.3697 20.42C21.4825 20.4262 21.5928 20.4551 21.6942 20.5049C21.7956 20.5547 21.8859 20.6245 21.9597 20.71C22.0349 20.7937 22.0923 20.8918 22.1284 20.9984C22.1645 21.105 22.1785 21.2178 22.1697 21.33L21.9997 24.38C21.9942 24.546 21.9384 24.7064 21.8397 24.84C21.7407 24.9726 21.6051 25.0733 21.4497 25.13C21.3451 25.1731 21.2327 25.1935 21.1197 25.19Z" fill="white"/>
    <path d="M7.68959 5.77C8.50959 5.06 9.68959 5.69 10.5896 5.58C11.0336 5.49814 11.4427 5.2846 11.7637 4.96716C12.0847 4.64971 12.3028 4.24304 12.3896 3.8C12.4637 3.3035 12.4025 2.79619 12.2125 2.33156C12.0224 1.86692 11.7105 1.46218 11.3096 1.16C10.8843 0.842155 10.4001 0.612142 9.885 0.483376C9.36993 0.354611 8.83439 0.329669 8.30959 0.410005C7.11065 0.600847 5.97531 1.07762 4.99959 1.8C4.032 2.4296 3.13954 3.16772 2.33959 4C1.59361 4.77369 1.07769 5.73974 0.849589 6.79C0.645266 7.76503 0.832001 8.7813 1.36959 9.62C1.66322 10.0481 2.06292 10.3926 2.52959 10.62C3.01959 10.86 3.52959 11.03 3.99959 11.3C4.39426 11.4864 4.71993 11.7927 4.93006 12.1752C5.14019 12.5578 5.22402 12.997 5.16959 13.43C5.1244 13.6202 5.03147 13.7957 4.89959 13.94C4.73959 14.12 4.45959 13.88 4.61959 13.71C4.74563 13.5588 4.82425 13.3738 4.8456 13.1781C4.86694 12.9824 4.83007 12.7848 4.73959 12.61C4.5666 12.1843 4.25232 11.8312 3.84959 11.61C3.35959 11.33 2.84959 11.15 2.30959 10.9C1.83169 10.6688 1.41662 10.3258 1.09959 9.9C0.508999 9.03421 0.27609 7.97358 0.449589 6.94C0.630928 5.84601 1.11999 4.82626 1.85959 4C2.64593 3.11576 3.53949 2.33305 4.51959 1.67C5.5258 0.892089 6.695 0.351936 7.93959 0.0900046C9.04023 -0.14347 10.1884 0.0419459 11.1596 0.610005C11.6157 0.879352 12.0019 1.25242 12.2868 1.69895C12.5718 2.14548 12.7474 2.65288 12.7996 3.18C12.8224 3.66592 12.7154 4.14913 12.4896 4.58C12.253 4.99777 11.9074 5.34341 11.4896 5.58C11.0693 5.83403 10.5785 5.94621 10.0896 5.9C9.57061 5.81327 9.04573 5.76646 8.51959 5.76C8.27867 5.76552 8.04785 5.85785 7.86959 6.02C7.71959 6.22 7.50959 5.92 7.68959 5.77Z" fill="#2F2E41"/>
    <path d="M37.43 13.67C36.4682 12.6743 35.2415 11.9748 33.8948 11.6541C32.5481 11.3335 31.1378 11.4051 29.8305 11.8605C28.5232 12.3159 27.3736 13.136 26.5176 14.224C25.6616 15.312 25.135 16.6223 25 18C25 18.22 25 18.45 25 18.68C24.9983 19.8658 25.2875 21.034 25.8422 22.0821C26.397 23.1302 27.2004 24.0262 28.1819 24.6916C29.1635 25.357 30.2933 25.7714 31.4723 25.8986C32.6513 26.0258 33.8435 25.8619 34.9444 25.4212C36.0453 24.9805 37.0213 24.2764 37.7869 23.3708C38.5524 22.4651 39.0841 21.3855 39.3354 20.2266C39.5866 19.0677 39.5498 17.8648 39.2281 16.7235C38.9063 15.5821 38.3095 14.5371 37.49 13.68L37.43 13.67ZM34.49 17.26L34.3 18.17H31.15C31.15 18.26 31.15 18.38 31.15 18.52C31.15 18.66 31.15 18.8 31.15 18.95H34.15L33.96 19.85H31.28C31.3508 20.2136 31.5048 20.5559 31.73 20.85C31.9141 21.0731 32.1468 21.2513 32.4102 21.3709C32.6736 21.4904 32.9608 21.5483 33.25 21.54C33.5814 21.5557 33.9125 21.5024 34.2223 21.3837C34.5321 21.2649 34.814 21.0832 35.05 20.85V22.64C34.4938 22.9018 33.8847 23.0318 33.27 23.02C32.7453 23.0367 32.223 22.9409 31.7384 22.7391C31.2537 22.5373 30.8178 22.2342 30.46 21.85C29.9433 21.2919 29.5964 20.5982 29.46 19.85H28.6L28.79 18.95H29.36V18.65C29.36 18.47 29.36 18.31 29.36 18.17H28.6L28.79 17.26H29.49C29.6311 16.5134 29.9774 15.8208 30.49 15.26C31.0933 14.6794 31.8557 14.2914 32.6802 14.1454C33.5047 13.9994 34.354 14.1019 35.12 14.44L34.77 16.06C34.5731 15.8853 34.3437 15.7513 34.0948 15.6655C33.846 15.5797 33.5827 15.5438 33.32 15.56C33.0269 15.5544 32.7361 15.6133 32.4682 15.7325C32.2004 15.8517 31.962 16.0284 31.77 16.25C31.5316 16.5384 31.3699 16.8824 31.3 17.25L34.49 17.26Z" fill="white"/>
  </g>
  <defs>
    <clipPath id="clip0_385_337">
      <rect width="60" height="74" fill="white"/>
    </clipPath>
  </defs>
</svg>
