<svg width="332" height="352" viewBox="0 0 332 352" fill="none" xmlns="http://www.w3.org/2000/svg">
<path d="M177.94 139.07H179.18V58.94H90.0601V61.02H177.94V139.07Z" fill="#3F3D56"/>
<path d="M104.53 255H102.62V302.47H240.74V301.24H104.53V255Z" fill="#3F3D56"/>
<path d="M52.1 178.92C52.0905 169.653 55.6335 160.734 62 154L40.16 124C38.5007 121.719 36.0041 120.189 33.2181 119.747C30.4322 119.304 27.5845 119.985 25.3 121.64C24.879 121.943 24.4812 122.277 24.11 122.64C15.2427 131.347 8.5664 142.033 4.62911 153.821C0.691826 165.608 -0.39424 178.161 1.46005 190.45C1.69348 191.995 2.26196 193.471 3.12566 194.773C3.98936 196.076 5.1274 197.174 6.46005 197.99C7.76952 198.787 9.23631 199.289 10.7591 199.464C12.2819 199.638 13.8244 199.48 15.28 199L53 186.79C52.4164 184.207 52.1147 181.568 52.1 178.92Z" fill="#F2F2F2"/>
<path d="M54.1 190.82L14.93 203.55C13.6011 203.978 12.3694 204.663 11.3057 205.568C10.2419 206.472 9.36691 207.577 8.73068 208.82C8.09444 210.062 7.70949 211.418 7.59785 212.81C7.48621 214.202 7.65007 215.602 8.08005 216.93C8.24061 217.411 8.43098 217.882 8.65005 218.34C14.2279 229.659 22.4515 239.466 32.6244 246.932C42.7972 254.398 54.6195 259.303 67.09 261.23C68.6072 261.463 70.1569 261.366 71.633 260.945C73.1091 260.524 74.4767 259.788 75.6421 258.789C76.8074 257.79 77.743 256.551 78.3847 255.156C79.0265 253.762 79.3592 252.245 79.36 250.71V214.12C73.5584 212.613 68.2179 209.698 63.8119 205.634C59.4058 201.569 56.07 196.481 54.1 190.82Z" fill="#E6E6E6"/>
<path d="M171.92 213.68C171.26 212.109 170.268 210.7 169.014 209.547C167.759 208.394 166.271 207.525 164.65 207L121.92 193.12C119.424 198.984 115.431 204.09 110.342 207.926C105.253 211.762 99.2448 214.195 92.92 214.98V259.5C92.92 261.057 93.2269 262.599 93.823 264.037C94.4192 265.475 95.2929 266.782 96.3944 267.883C97.4958 268.983 98.8033 269.856 100.242 270.451C101.681 271.046 103.223 271.351 104.78 271.35C105.383 271.348 105.984 271.301 106.58 271.21C120.462 269.061 133.622 263.599 144.947 255.288C156.271 246.976 165.427 236.059 171.64 223.46C172.386 221.945 172.797 220.288 172.845 218.601C172.894 216.913 172.578 215.235 171.92 213.68Z" fill="#1A3769"/>
<path d="M161.3 111.57C160.189 110.481 158.874 109.623 157.43 109.042C155.987 108.462 154.443 108.172 152.888 108.189C151.332 108.206 149.795 108.529 148.364 109.14C146.934 109.751 145.638 110.638 144.55 111.75C144.142 112.163 143.768 112.608 143.43 113.08L114.22 153.28C121.003 160.089 124.807 169.31 124.8 178.92C124.8 179.8 124.75 180.68 124.69 181.55L171.13 196.63C174.123 197.597 177.377 197.337 180.179 195.906C182.98 194.476 185.099 191.992 186.07 189C186.27 188.373 186.421 187.731 186.52 187.08C187.178 182.741 187.512 178.359 187.52 173.97C187.558 162.342 185.256 150.825 180.752 140.105C176.247 129.385 169.632 119.681 161.3 111.57Z" fill="#9ABB35"/>
<path d="M88.45 142.57C94.701 142.564 100.847 144.176 106.29 147.25L124.12 122.71C125.03 121.46 125.657 120.028 125.959 118.512C126.262 116.996 126.231 115.433 125.87 113.93C125.518 112.457 124.852 111.077 123.916 109.886C122.98 108.695 121.798 107.721 120.45 107.03C109.442 101.433 97.271 98.5071 84.922 98.4897C72.573 98.4724 60.3935 101.364 49.37 106.93C47.9798 107.632 46.7589 108.628 45.7919 109.849C44.825 111.069 44.135 112.486 43.77 114C43.4092 115.492 43.377 117.045 43.6757 118.55C43.9744 120.056 44.5969 121.479 45.5 122.72L65.73 150.55C72.1712 145.376 80.1881 142.56 88.45 142.57Z" fill="#E6E6E6"/>
<path d="M324.156 308.781C328.03 285.228 312.076 262.994 288.523 259.12C264.97 255.246 242.735 271.199 238.862 294.753C234.988 318.306 250.941 340.54 274.494 344.414C298.048 348.288 320.282 332.335 324.156 308.781Z" fill="#1A3769"/>
<path d="M99.9677 58.4349C104.117 34.9285 88.4245 12.5094 64.9181 8.36035C41.4118 4.2113 18.9926 19.9035 14.8436 43.4099C10.6945 66.9163 26.3867 89.3355 49.8931 93.4845C73.3995 97.6336 95.8187 81.9413 99.9677 58.4349Z" fill="#9ABB35"/>
</svg>
