<svg width="8" height="8" viewBox="0 0 8 8" fill="none" xmlns="http://www.w3.org/2000/svg">
  <path d="M6.47359 8C6.61294 8 6.7466 7.94464 6.84514 7.8461C6.94368 7.74756 6.99904 7.61391 6.99904 7.47455C6.99904 7.33519 6.94368 7.20154 6.84514 7.10299C6.7466 7.00445 6.61294 6.94909 6.47359 6.94909H1.79354L7.83276 0.909875C7.88438 0.86177 7.92579 0.80376 7.95451 0.739304C7.98323 0.674849 7.99867 0.60527 7.99992 0.534717C8.00116 0.464164 7.98818 0.394083 7.96176 0.328654C7.93533 0.263226 7.89599 0.203791 7.8461 0.153894C7.7962 0.103998 7.73677 0.0646629 7.67134 0.0382352C7.60591 0.0118079 7.53583 -0.00117016 7.46528 7.43866e-05C7.39472 0.00131941 7.32514 0.0167613 7.26069 0.0454807C7.19623 0.0741997 7.13822 0.115608 7.09012 0.167233L1.0509 6.20645V1.52641C1.0509 1.38705 0.995541 1.2534 0.896999 1.15486C0.798457 1.05631 0.664805 1.00095 0.525446 1.00095C0.386087 1.00095 0.252437 1.05631 0.153895 1.15486C0.0553536 1.2534 -7.62939e-06 1.38705 -7.62939e-06 1.52641V7.47455C0.000361443 7.54439 0.0146532 7.61346 0.0420299 7.67772C0.0801635 7.7673 0.142126 7.84471 0.22118 7.90153C0.300236 7.95835 0.393357 7.99241 0.490417 8H6.47359Z" fill="#B91C1C"/>
</svg>
