<svg width="428" height="379" viewBox="0 0 428 379" fill="none" xmlns="http://www.w3.org/2000/svg">
    <path d="M406.535 230.904C393.576 264.023 367.589 299.692 331.644 309.806C277.343 325.101 270.182 368.56 173.464 363.003C159.337 362.254 145.333 359.975 131.697 356.206C125.032 354.34 118.492 352.05 112.118 349.351C55.9231 325.558 27.2157 274.68 25.5784 221.891C23.4401 152.457 72.3629 120.152 104.104 101.257C135.845 82.3615 174.964 7.95798 270.114 12.6777C284.643 13.3372 299.046 15.6721 313.039 19.636C344.932 28.8151 377.197 48.4949 395.683 76.822C397.064 78.9486 398.386 81.105 399.654 83.3412C424.335 126.729 424.212 185.742 406.535 230.904Z" fill="black"/>
    <path d="M316.036 375.835C310.756 371.372 307.548 364.323 308.389 357.461C309.23 350.599 314.441 344.291 321.199 342.833C327.957 341.376 335.661 345.41 337.714 352.012C338.844 339.284 340.145 326.022 346.912 315.183C353.04 305.368 363.653 298.346 375.155 297.089C386.656 295.833 398.766 300.578 405.94 309.656C413.113 318.735 414.869 331.933 409.845 342.355C406.144 350.033 399.326 355.747 392.182 360.396C369.096 375.291 341.409 381.348 314.213 377.453L316.036 375.835Z" fill="#626269" fill-opacity="0.17"/>
    <path d="M394.567 300.841C385.077 308.571 376.37 317.217 368.573 326.653C356.372 341.369 346.498 357.869 339.296 375.578C338.769 376.87 340.867 377.432 341.388 376.155C353.171 347.374 371.983 322.008 396.101 302.375C397.184 301.493 395.641 299.966 394.567 300.841Z" fill="white"/>
    <path d="M133.02 374.622C140.273 368.493 144.678 358.812 143.523 349.386C142.368 339.961 135.212 331.296 125.929 329.295C116.647 327.293 106.065 332.834 103.246 341.901C101.694 324.419 99.906 306.205 90.6115 291.317C82.1954 277.837 67.6188 268.191 51.8209 266.466C36.0231 264.74 19.39 271.257 9.53746 283.726C-0.315078 296.195 -2.72743 314.323 4.17303 328.638C9.25635 339.184 18.6216 347.032 28.4341 353.417C59.7393 373.787 98.5734 382.283 135.525 376.845" fill="#E4E4E5"/>
    <path d="M25.1604 271.619C38.1955 282.236 50.1539 294.111 60.8626 307.071C71.5729 320.018 81.0023 333.973 89.0181 348.741C93.4986 357.025 97.5235 365.547 101.075 374.27C101.799 376.044 98.9177 376.816 98.2016 375.062C91.9112 359.684 84.1288 344.959 74.966 331.099C65.8477 317.289 55.4113 304.397 43.8034 292.602C37.238 285.934 30.3108 279.633 23.0534 273.726C21.5659 272.514 23.6851 270.417 25.1604 271.619Z" fill="white"/>
    <path d="M296.318 378.084H123.269V200.53C123.269 162.754 154.001 132.021 191.777 132.021H227.81C265.586 132.021 296.318 162.754 296.318 200.53V378.084Z" fill="#F2F2F2"/>
    <path d="M260.285 378.084H123.268V200.53C123.23 186.055 127.814 171.946 136.351 160.257C136.666 159.828 136.98 159.404 137.304 158.986C141.433 153.569 146.347 148.8 151.884 144.833C152.197 144.606 152.511 144.382 152.83 144.158C157.463 140.952 162.475 138.331 167.751 136.355C168.064 136.236 168.383 136.117 168.702 136.003C173.474 134.3 178.421 133.134 183.451 132.525C183.763 132.483 184.083 132.449 184.403 132.416C189.305 131.892 194.249 131.892 199.151 132.416C199.47 132.449 199.79 132.483 200.106 132.526C205.134 133.134 210.08 134.301 214.851 136.003C215.17 136.117 215.489 136.236 215.803 136.355C221.014 138.307 225.967 140.888 230.551 144.043C230.869 144.262 231.188 144.486 231.502 144.709C234.606 146.925 237.521 149.393 240.218 152.088C242.381 154.251 244.396 156.555 246.251 158.987C246.573 159.405 246.887 159.828 247.201 160.256C255.739 171.945 260.323 186.055 260.285 200.53V378.084Z" fill="#CCCCCC"/>
    <path d="M249.145 298.67C253.335 298.67 256.731 295.274 256.731 291.085C256.731 286.895 253.335 283.499 249.145 283.499C244.956 283.499 241.56 286.895 241.56 291.085C241.56 295.274 244.956 298.67 249.145 298.67Z" fill="white"/>
    <path d="M282.142 372.765H276.329L273.563 350.346L282.142 350.346L282.142 372.765Z" fill="#FFB8B8"/>
    <path d="M272.18 371.104H283.39V378.162H265.122C265.122 377.236 265.305 376.318 265.659 375.462C266.014 374.605 266.534 373.827 267.189 373.172C267.845 372.516 268.623 371.996 269.479 371.642C270.335 371.287 271.253 371.104 272.18 371.104Z" fill="#626269"/>
    <path d="M311.062 372.765H305.25L302.484 350.346L311.063 350.346L311.062 372.765Z" fill="#FFB8B8"/>
    <path d="M301.096 371.104H312.306V378.162H294.038C294.038 377.236 294.221 376.318 294.575 375.462C294.93 374.605 295.45 373.827 296.105 373.172C296.761 372.516 297.539 371.996 298.395 371.642C299.251 371.287 300.169 371.104 301.096 371.104Z" fill="#626269"/>
    <path d="M252.984 292.587C252.565 291.971 252.287 291.271 252.169 290.536C252.051 289.801 252.095 289.049 252.299 288.332C252.503 287.616 252.861 286.954 253.349 286.391C253.837 285.828 254.442 285.379 255.122 285.076L274.881 230.617L284.603 235.923L262.043 287.966C262.477 289.142 262.465 290.436 262.008 291.604C261.552 292.771 260.683 293.731 259.566 294.301C258.449 294.87 257.162 295.01 255.949 294.695C254.736 294.379 253.681 293.629 252.984 292.587Z" fill="#FFB8B8"/>
    <path d="M308.092 302.82C307.446 302.45 306.889 301.943 306.461 301.334C306.032 300.725 305.742 300.029 305.612 299.296C305.481 298.563 305.512 297.811 305.704 297.091C305.896 296.372 306.243 295.703 306.721 295.132L300.6 237.523L311.664 238.029L314.208 294.695C315.114 295.561 315.67 296.73 315.772 297.979C315.874 299.229 315.513 300.472 314.76 301.474C314.006 302.476 312.911 303.166 311.682 303.414C310.453 303.662 309.176 303.451 308.092 302.82Z" fill="#FFB8B8"/>
    <path d="M290.441 220.529C296.873 220.529 302.086 215.316 302.086 208.885C302.086 202.454 296.873 197.24 290.441 197.24C284.01 197.24 278.797 202.454 278.797 208.885C278.797 215.316 284.01 220.529 290.441 220.529Z" fill="#FFB8B8"/>
    <path d="M308.019 289.719H272.913L272.955 289.445C273.018 289.037 279.212 248.464 274.644 235.19C274.186 233.886 274.226 232.458 274.757 231.181C275.288 229.905 276.273 228.87 277.522 228.276C284.051 225.201 296.584 221.415 307.163 230.604C308.72 231.978 309.935 233.696 310.714 235.621C311.492 237.546 311.812 239.626 311.648 241.696L308.019 289.719Z" fill="white"/>
    <path d="M279.657 254.46L263.852 251.253L271.26 233.697C271.703 231.997 272.803 230.542 274.318 229.651C275.833 228.76 277.639 228.507 279.34 228.946C281.042 229.385 282.5 230.481 283.394 231.994C284.288 233.507 284.546 235.312 284.111 237.015L279.657 254.46Z" fill="white"/>
    <path d="M299.898 260.414L298.948 238.632C298.227 234.538 300.571 230.667 304.176 230.034C307.782 229.404 311.302 232.244 312.026 236.369L315.598 256.721L299.898 260.414Z" fill="white"/>
    <path d="M306.852 287.111C312.501 308.624 313.117 335.977 311.593 365.813L304.007 364.865L290.258 307.972L282.672 365.813L274.138 365.339C271.589 334.034 269.107 307.158 273.19 289.481L306.852 287.111Z" fill="#626269"/>
    <path d="M298.116 217.884C295.944 220.198 291.909 218.956 291.626 215.795C291.604 215.549 291.606 215.302 291.631 215.057C291.777 213.657 292.586 212.385 292.392 210.907C292.349 210.539 292.212 210.188 291.994 209.888C290.263 207.57 286.199 210.925 284.566 208.826C283.564 207.54 284.742 205.514 283.973 204.075C282.958 202.177 279.953 203.114 278.068 202.074C275.971 200.918 276.097 197.7 277.477 195.744C279.16 193.357 282.112 192.084 285.027 191.9C287.941 191.717 290.836 192.505 293.557 193.565C296.649 194.77 299.714 196.435 301.617 199.154C303.931 202.46 304.153 206.904 302.996 210.77C302.292 213.122 299.89 215.994 298.116 217.884Z" fill="#2F2E41"/>
    <path d="M398.479 378.389H48.4476C48.2982 378.388 48.155 378.329 48.0495 378.223C47.944 378.117 47.8848 377.974 47.8848 377.824C47.8848 377.675 47.944 377.531 48.0495 377.426C48.155 377.32 48.2982 377.26 48.4476 377.26H398.479C398.629 377.26 398.772 377.32 398.878 377.426C398.983 377.531 399.042 377.675 399.042 377.824C399.042 377.974 398.983 378.117 398.878 378.223C398.772 378.329 398.629 378.388 398.479 378.389Z" fill="#3F3D56"/>
    <path d="M222.595 326.643H160.961C160.149 326.647 159.369 326.329 158.791 325.759C158.213 325.189 157.885 324.413 157.879 323.601V186.029C157.885 185.218 158.213 184.441 158.791 183.871C159.369 183.301 160.149 182.983 160.961 182.988H222.595C223.406 182.983 224.187 183.301 224.765 183.871C225.342 184.441 225.67 185.218 225.676 186.029V323.601C225.67 324.413 225.342 325.189 224.765 325.759C224.187 326.329 223.406 326.647 222.595 326.643Z" fill="white"/>
    <path d="M225.676 227.502H157.879V228.45H225.676V227.502Z" fill="#CCCCCC"/>
    <path d="M225.911 281.602H158.113V282.551H225.911V281.602Z" fill="#CCCCCC"/>
    <path d="M180.159 182.988H179.211V327.117H180.159V182.988Z" fill="#CCCCCC"/>
    <path d="M203.868 182.988H202.92V327.117H203.868V182.988Z" fill="#CCCCCC"/>
</svg>
