<svg width="258" height="200" viewBox="0 0 258 200" fill="none" xmlns="http://www.w3.org/2000/svg">
    <path d="M8.22335 181.92C8.07445 181.921 7.92789 181.883 7.79835 181.809C7.58604 181.663 7.40826 181.472 7.27755 181.249C7.14684 181.027 7.06638 180.778 7.04185 180.521C6.69398 177.719 6.94792 174.875 7.78657 172.179C8.62523 169.484 10.0291 167.001 11.9039 164.896C13.8736 162.75 16.2457 161.016 18.8843 159.791C21.5228 158.567 24.376 157.878 27.2804 157.762C29.1259 157.755 30.9314 158.302 32.4654 159.332C31.6707 154.619 32.0779 149.781 33.649 145.269C35.22 140.757 37.9037 136.717 41.4499 133.527C45.0964 130.259 49.0999 128.655 52.6954 128.996C53.936 129.124 55.1346 129.519 56.2097 130.154C57.2848 130.788 58.2112 131.648 58.9258 132.674C59.4891 133.481 59.8506 134.411 59.9799 135.388C62.5299 131.829 67.9358 130.703 71.2084 130.345C78.5268 129.551 84.8083 130.345 89.8403 132.794C96.0028 135.746 100.193 141.327 100.508 147.087C100.612 148.618 100.379 150.153 99.8279 151.584C101.804 150.636 104.013 150.292 106.182 150.595C108.351 150.899 110.383 151.836 112.025 153.291C113.728 154.952 114.766 157.182 114.943 159.559C115.12 161.936 114.424 164.296 112.986 166.193C112.913 166.271 112.813 166.318 112.707 166.326C112.601 166.333 112.496 166.301 112.412 166.234C112.329 166.168 112.274 166.072 112.257 165.967C112.24 165.861 112.264 165.753 112.323 165.664C113.636 163.938 114.275 161.789 114.118 159.623C113.962 157.456 113.021 155.423 111.473 153.905C109.786 152.405 107.652 151.507 105.404 151.353C103.156 151.199 100.92 151.796 99.0459 153.052C98.9653 153.11 98.867 153.138 98.768 153.131C98.669 153.124 98.5756 153.082 98.5039 153.013C98.4323 152.944 98.3869 152.853 98.3756 152.754C98.3644 152.655 98.388 152.555 98.4424 152.471C99.4051 150.866 99.8421 148.998 99.6919 147.13C99.3944 141.702 95.3994 136.378 89.4919 133.553C84.5874 131.206 78.4419 130.413 71.3189 131.189C67.7404 131.573 61.4844 132.896 59.8354 137.504C59.7968 137.609 59.7198 137.694 59.6202 137.744C59.5205 137.793 59.4059 137.802 59.2999 137.769C59.2472 137.752 59.1983 137.725 59.156 137.69C59.1138 137.654 59.0789 137.61 59.0536 137.561C59.0283 137.512 59.013 137.458 59.0086 137.403C59.0042 137.348 59.0107 137.292 59.0279 137.239C59.2088 136.541 59.2318 135.81 59.095 135.102C58.9582 134.393 58.6652 133.724 58.2374 133.143C57.5879 132.225 56.7523 131.456 55.7854 130.885C54.8185 130.314 53.7422 129.956 52.6274 129.833C48.0799 129.414 44.0424 132.393 42.0364 134.159C38.4191 137.385 35.7245 141.521 34.2303 146.141C32.7362 150.761 32.4966 155.698 33.5364 160.442C33.5575 160.536 33.5461 160.635 33.5041 160.722C33.462 160.809 33.3917 160.879 33.3048 160.92C33.2179 160.962 33.1194 160.973 33.0256 160.951C32.9317 160.929 32.8481 160.876 32.7883 160.8C31.7173 159.426 29.0314 158.539 27.2804 158.607C21.6492 158.826 16.3352 161.282 12.5074 165.434C10.7156 167.447 9.37372 169.822 8.57179 172.399C7.76985 174.977 7.52642 177.696 7.85785 180.375C7.8791 180.625 7.99466 180.857 8.18085 181.024C8.2874 180.979 8.407 180.976 8.51575 181.015C8.62449 181.055 8.71434 181.134 8.76735 181.237C8.79184 181.287 8.80621 181.341 8.80962 181.397C8.81302 181.452 8.80541 181.508 8.78721 181.56C8.76901 181.613 8.7406 181.661 8.70362 181.702C8.66665 181.743 8.62185 181.777 8.57185 181.801C8.46577 181.865 8.34682 181.906 8.22335 181.92Z" fill="#D1D3D4"/>
    <path d="M233.047 194.148C232.978 194.149 232.911 194.133 232.85 194.102C232.789 194.071 232.737 194.025 232.698 193.969C232.666 193.922 232.643 193.87 232.631 193.815C232.62 193.759 232.619 193.702 232.629 193.647C232.639 193.591 232.661 193.538 232.691 193.491C232.722 193.444 232.762 193.403 232.809 193.371C236.84 190.578 240.053 186.752 242.113 182.29C244.174 177.829 245.006 172.895 244.525 168.001C244.043 163.108 242.265 158.432 239.375 154.462C236.485 150.491 232.589 147.37 228.091 145.423C225.244 144.185 220.994 142.991 216.922 144.305C214.688 145.171 212.6 146.38 210.734 147.889C210.68 147.929 210.617 147.955 210.551 147.967C210.485 147.979 210.416 147.976 210.352 147.957C210.287 147.935 210.229 147.898 210.182 147.849C210.134 147.8 210.099 147.741 210.08 147.675C208.924 143.929 206.757 140.577 203.819 137.992C200.881 135.407 197.287 133.69 193.435 133.031C189.584 132.373 185.626 132.798 182.002 134.261C178.377 135.724 175.227 138.167 172.901 141.318C172.84 141.4 172.751 141.458 172.651 141.48C172.551 141.502 172.447 141.487 172.357 141.437C172.266 141.39 172.196 141.311 172.16 141.215C172.124 141.119 172.125 141.013 172.161 140.917C173.071 138.417 172.102 135.276 169.798 133.28C167.342 131.155 164.052 130.609 161.723 130.532C157.017 130.377 152.389 131.773 148.548 134.508C143.151 138.4 137.804 142.666 136.827 149.493C136.104 154.485 137.26 159.511 138.62 164.196C138.648 164.288 138.644 164.388 138.609 164.478C138.573 164.568 138.508 164.643 138.425 164.691C138.34 164.736 138.242 164.752 138.147 164.737C138.052 164.722 137.964 164.675 137.898 164.606C134.362 160.8 130.902 160.091 126.695 162.327C122.037 164.802 118.424 169.555 116.784 175.375C116.265 177.201 115.934 179.684 117.413 181.109C117.484 181.189 117.523 181.293 117.522 181.401C117.52 181.509 117.478 181.612 117.404 181.689C117.329 181.767 117.229 181.814 117.122 181.82C117.014 181.826 116.909 181.792 116.826 181.723C114.659 179.616 111.318 180.179 108.964 181.664C106.235 183.37 105.487 187.466 105.164 190.376C105.16 190.432 105.145 190.487 105.118 190.537C105.092 190.587 105.056 190.631 105.012 190.666C104.968 190.702 104.918 190.727 104.863 190.742C104.809 190.757 104.752 190.76 104.697 190.752C104.585 190.739 104.484 190.682 104.413 190.594C104.343 190.506 104.311 190.394 104.323 190.282C104.663 187.193 105.47 182.867 108.513 180.938C110.613 179.616 113.443 178.967 115.772 179.991C115.376 178.387 115.444 176.702 115.968 175.136C117.668 169.094 121.433 164.153 126.295 161.576C130.384 159.409 133.945 159.818 137.345 162.89C136.164 158.555 135.297 153.973 135.96 149.373C136.988 142.257 142.488 137.794 148.03 133.826C152.024 130.989 156.833 129.538 161.723 129.696C164.188 129.781 167.673 130.361 170.325 132.648C171.308 133.482 172.088 134.531 172.605 135.714C173.122 136.898 173.363 138.184 173.309 139.475C175.849 136.547 179.114 134.344 182.773 133.088C186.433 131.832 190.358 131.568 194.152 132.322C197.946 133.076 201.475 134.821 204.382 137.382C207.289 139.943 209.471 143.229 210.709 146.907C212.504 145.48 214.512 144.345 216.659 143.545C220.977 142.146 225.448 143.4 228.431 144.689C233.067 146.699 237.083 149.919 240.061 154.014C243.039 158.108 244.871 162.929 245.366 167.974C245.861 173.02 245.002 178.107 242.878 182.706C240.753 187.306 237.441 191.251 233.285 194.131C233.209 194.161 233.126 194.167 233.047 194.148Z" fill="#D1D3D4"/>
    <path d="M256.644 195.573H1.35469C1.24197 195.573 1.13387 195.528 1.05417 195.448C0.974464 195.368 0.929688 195.26 0.929688 195.146C0.931864 195.034 0.977337 194.927 1.05657 194.847C1.13581 194.768 1.24265 194.722 1.35469 194.72H256.644C256.756 194.722 256.863 194.768 256.942 194.847C257.021 194.927 257.067 195.034 257.069 195.146C257.069 195.26 257.024 195.368 256.944 195.448C256.865 195.528 256.756 195.573 256.644 195.573Z" fill="#D1D3D4"/>
    <path d="M147.802 17.7301C147.912 15.6907 146.399 13.4634 146.314 11.3984C146.281 11.1657 146.326 10.9287 146.442 10.7243C146.568 10.5808 146.741 10.488 146.93 10.4629C147.119 10.4378 147.311 10.4821 147.47 10.5877C147.781 10.8089 148.034 11.1015 148.21 11.4411L149.111 12.96C149.305 12.456 149.624 12.0098 150.037 11.6629C150.668 11.2177 151.388 10.9168 152.148 10.7811C152.907 10.6455 153.686 10.6785 154.432 10.8779C155.419 11.1241 156.334 11.6055 157.097 12.2813C157.86 12.9571 158.451 13.8075 158.818 14.7605C159.234 15.9203 159.439 17.146 159.421 18.3786C159.461 21.0816 158.903 23.7598 157.789 26.2208C157.789 26.2208 160.747 55.456 156.939 56.8042C141.146 62.4021 123.262 49.1242 123.262 49.1242C123.262 49.1242 122.888 35.6416 122.871 35.2661C122.914 36.256 139.149 40.497 140.534 40.753C143.084 41.2224 147.334 43.0741 147.538 39.0976C147.7 36.5802 147.589 21.4933 147.802 17.7301Z" fill="white"/>
    <path d="M148.694 58.5877C135.493 58.5877 123.194 49.5509 123.007 49.4399C122.952 49.4016 122.907 49.3505 122.876 49.2911C122.845 49.2317 122.828 49.1657 122.828 49.0986C122.828 48.9621 122.454 35.6159 122.437 35.249C122.413 35.1358 122.435 35.0179 122.498 34.921C122.561 34.8242 122.66 34.7565 122.773 34.7327C122.885 34.709 123.003 34.7311 123.099 34.7943C123.196 34.8575 123.263 34.9566 123.287 35.0698C124.409 36.0682 138.749 39.9423 140.619 40.2837C141.061 40.3605 141.545 40.4799 142.047 40.6079C143.653 41.0005 145.447 41.4613 146.399 40.7615C146.635 40.5472 146.822 40.2832 146.945 39.9882C147.069 39.6932 147.126 39.3745 147.113 39.0549C147.172 37.9541 147.189 34.2506 147.206 30.3253C147.206 25.393 147.249 19.8037 147.368 17.7215C147.335 16.6335 147.096 15.5618 146.662 14.5642C146.25 13.5644 145.986 12.5092 145.88 11.4325C145.848 11.102 145.922 10.7698 146.093 10.4853C146.28 10.2492 146.549 10.0921 146.846 10.0448C147.144 9.99741 147.448 10.0632 147.699 10.2293C148.066 10.4913 148.358 10.8441 148.549 11.2533L149.051 12.1066C149.239 11.8318 149.462 11.5823 149.714 11.3642C150.391 10.8596 151.172 10.5115 151.999 10.3448C152.826 10.1781 153.68 10.1969 154.499 10.3999C155.559 10.6555 156.542 11.1667 157.361 11.8894C158.18 12.612 158.811 13.5243 159.2 14.5471C159.644 15.7537 159.86 17.0328 159.837 18.3189C159.868 21.0448 159.314 23.7456 158.214 26.2378C158.307 27.2106 158.962 34.0458 159.2 40.9407C159.684 54.5941 158.205 56.7615 157.057 57.1541C154.371 58.1066 151.542 58.5914 148.694 58.5877ZM123.695 48.8597C127.031 51.1684 130.608 53.1055 134.363 54.6367C140.168 57.0005 148.77 59.2191 156.786 56.3434C158.137 55.8655 159.48 47.2639 157.355 26.2122C157.338 26.1363 157.338 26.0577 157.355 25.9818C158.442 23.5704 158.988 20.9485 158.953 18.3018C158.968 17.1383 158.772 15.9817 158.375 14.8885C158.038 14.0006 157.492 13.2083 156.783 12.5795C156.074 11.9507 155.223 11.5043 154.304 11.2789C153.624 11.0936 152.913 11.0587 152.219 11.1766C151.524 11.2945 150.864 11.5623 150.283 11.9615C149.931 12.2621 149.659 12.6464 149.493 13.0794C149.464 13.1583 149.414 13.2275 149.347 13.2789C149.281 13.3302 149.202 13.3617 149.119 13.3695C149.036 13.3776 148.953 13.3619 148.879 13.3241C148.805 13.2863 148.744 13.228 148.702 13.1562L147.793 11.6543C147.659 11.3774 147.461 11.1373 147.215 10.9546C147.062 10.8607 146.832 10.8607 146.773 10.9546C146.718 11.0838 146.701 11.2255 146.722 11.3642C146.821 12.3503 147.065 13.3163 147.444 14.2314C147.923 15.3393 148.18 16.531 148.201 17.7386C148.09 19.7951 148.065 25.4186 148.039 30.2911C148.039 34.4042 148.039 37.9711 147.946 39.0634C147.957 39.5167 147.866 39.9668 147.681 40.3803C147.495 40.7938 147.22 41.1603 146.875 41.4527C145.608 42.3914 143.585 41.8879 141.775 41.4527C141.29 41.3333 140.823 41.2138 140.398 41.137C139.692 41.009 135.238 39.8741 131.048 38.6623C128.409 37.9953 125.821 37.1398 123.304 36.1023C123.415 38.8927 123.653 47.3407 123.695 48.8597Z" fill="#231F20"/>
    <path d="M132.594 119.131L156.938 172.354L170.104 168.343L152.628 110.385L132.594 119.131Z" fill="white"/>
    <path d="M156.94 172.798C156.855 172.8 156.772 172.777 156.701 172.731C156.63 172.685 156.574 172.619 156.54 172.542L132.196 119.311C132.153 119.201 132.153 119.079 132.196 118.97C132.24 118.883 132.312 118.814 132.4 118.773L152.435 110.018C152.491 109.993 152.552 109.979 152.613 109.979C152.675 109.979 152.735 109.993 152.792 110.018C152.847 110.045 152.897 110.084 152.938 110.131C152.979 110.177 153.01 110.232 153.03 110.291L170.506 168.25C170.523 168.306 170.528 168.364 170.523 168.423C170.517 168.481 170.5 168.538 170.472 168.589C170.444 168.641 170.407 168.686 170.361 168.723C170.316 168.76 170.264 168.788 170.208 168.804L157.05 172.781L156.94 172.798ZM133.14 119.354L157.135 171.825L169.52 168.053L152.316 110.982L133.14 119.354Z" fill="#231F20"/>
    <path d="M83.2183 133.937L55.4062 184.027H69.3123L110.945 127.426L83.2183 133.937Z" fill="white"/>
    <path d="M69.3129 184.48H55.4154C55.3389 184.48 55.2636 184.46 55.1966 184.423C55.1297 184.386 55.0734 184.332 55.0329 184.266C54.9972 184.198 54.9785 184.122 54.9785 184.045C54.9785 183.967 54.9972 183.891 55.0329 183.823L82.8449 133.741C82.8742 133.686 82.9154 133.638 82.9654 133.601C83.0154 133.564 83.073 133.539 83.1339 133.527L110.852 127.016C110.939 126.993 111.031 126.997 111.115 127.03C111.199 127.062 111.271 127.12 111.32 127.196C111.371 127.271 111.399 127.36 111.399 127.452C111.399 127.543 111.371 127.632 111.32 127.708L69.6699 184.301C69.6281 184.356 69.5742 184.401 69.5123 184.432C69.4504 184.463 69.3821 184.479 69.3129 184.48ZM56.1549 183.626H69.0919L109.892 128.16L83.5419 134.355L56.1549 183.626Z" fill="#231F20"/>
    <path d="M91.209 27.4665C88.6001 26.9331 85.908 26.9651 83.3125 27.5604C77.575 29.1134 73.7755 34.5833 71.4125 40.0702C68.1145 47.8356 66.763 56.2836 65.7005 64.6377C64.6092 72.3435 64.0554 80.1163 64.043 87.8996C64.043 91.3129 64.4 94.9566 66.593 97.4996C69.568 100.913 74.685 101.032 79.1985 101.177C82.9555 101.297 86.738 101.613 90.4695 101.118C94.201 100.623 97.9495 99.1977 100.474 96.3988C101.941 94.5963 103.09 92.5561 103.874 90.3657C105.718 85.8601 107.112 81.1924 108.506 76.5332C111.575 66.2932 114.643 56.0532 116.063 45.4718C116.473 43.361 116.444 41.1879 115.978 39.0889C114.737 34.8222 109.365 33.9006 105.778 32.2622C101.143 30.0519 96.2477 28.4405 91.209 27.4665Z" fill="#231F20"/>
    <path d="M85.8956 101.783C84.3911 101.783 82.8866 101.715 81.4076 101.655L79.2486 101.57H79.0786C74.5396 101.425 69.3971 101.263 66.3286 97.7555C64.0421 95.1443 63.6936 91.4664 63.6426 87.8824C63.6574 80.0766 64.2112 72.2812 65.3001 64.5523C66.2861 56.8723 67.6206 47.9464 71.0461 39.8824C73.1116 35.0013 76.9026 28.7891 83.1926 27.0824C85.8474 26.457 88.6064 26.422 91.2761 26.98C96.3867 27.967 101.351 29.6044 106.049 31.8525C106.831 32.2024 107.681 32.5181 108.599 32.8424C111.838 34.0285 115.501 35.4024 116.53 38.9437C117.013 41.0949 117.048 43.3235 116.632 45.4888C115.204 56.1299 112.076 66.5491 109.058 76.6184C107.681 81.2093 106.262 86.0051 104.409 90.4851C103.602 92.7288 102.411 94.8139 100.89 96.6461C97.9486 99.9144 93.6816 101.092 90.6301 101.502C89.0602 101.704 87.4783 101.798 85.8956 101.783ZM87.1026 27.4664C85.8613 27.4553 84.624 27.6073 83.4221 27.9187C77.4721 29.5315 73.8341 35.4792 71.8366 40.1896C68.4366 48.1512 67.1276 56.9832 66.1501 64.6376C65.0689 72.3272 64.5179 80.0825 64.5011 87.8483C64.5011 91.2616 64.8751 94.7603 66.9746 97.1667C69.7966 100.392 74.7436 100.58 79.1126 100.691H79.2741L81.4416 100.776C84.4519 100.992 87.4752 100.944 90.4771 100.631C93.3926 100.239 97.4556 99.1293 100.227 96.0488C101.69 94.2918 102.841 92.2941 103.627 90.1437C105.463 85.6467 106.874 80.9192 108.242 76.3539C111.26 66.3101 114.371 55.9251 115.79 45.3523C116.187 43.3005 116.158 41.1886 115.705 39.1485C114.804 35.9997 111.506 34.788 108.31 33.6189C107.384 33.2861 106.517 32.9704 105.709 32.6035C101.085 30.4028 96.2005 28.7999 91.1741 27.8333C89.8293 27.5989 88.4675 27.4762 87.1026 27.4664Z" fill="#231F20"/>
    <path d="M135.425 52.2134C135.425 52.2134 138.205 39.8571 138.332 39.0038C138.434 38.3638 118.493 35.215 118.493 35.215L118.961 33.8838L113.682 33.9691C113.682 33.9691 108.752 33.8411 102.981 38.4662C98.4756 42.0758 93.2226 49.5595 90.9616 55.6609C82.9716 77.0539 86.9411 103.712 86.9411 103.712L131.141 87.0294C131.141 87.0294 126.704 75.6971 126.432 70.9867C126.305 68.8107 127.044 61.8817 127.282 54.5259L135.425 52.2134Z" fill="#F1C21B"/>
    <path d="M125.87 37.8004C126.992 40.6676 128.42 43.3983 128.794 46.513C129.194 49.9263 128.616 53.2543 127.944 56.6164C127.247 60.2687 126.61 63.9295 126.202 67.6159C126.083 68.6996 125.93 70.4746 127.001 71.1487C127.434 71.4218 129.423 66.3956 129.61 65.9007C132.974 57.3026 133.107 47.7697 129.984 39.0804C129.398 37.4847 128.42 35.6671 126.737 35.4708C126.193 35.3855 125.513 35.5903 125.386 36.1279C125.35 36.3984 125.391 36.6737 125.505 36.9215L125.87 37.8004Z" fill="#231F20"/>
    <path d="M127.087 71.5754C126.989 71.5772 126.893 71.5537 126.807 71.5071C125.472 70.6538 125.702 68.5802 125.812 67.5732C126.246 63.6308 126.943 59.7823 127.563 56.5396C128.226 53.0239 128.753 49.8495 128.413 46.5642C128.041 44.2795 127.343 42.0607 126.339 39.9764C126.059 39.3108 125.778 38.6367 125.489 37.9626C125.37 37.6639 125.26 37.3652 125.149 37.1092C125.001 36.7868 124.956 36.4258 125.022 36.0767C125.151 35.7165 125.408 35.4166 125.743 35.2341C126.079 35.0516 126.469 34.9992 126.841 35.0868C128.371 35.3087 129.544 36.5802 130.428 38.978C133.577 47.7651 133.444 57.4009 130.054 66.097C128.702 69.5786 127.759 71.4303 127.24 71.601C127.188 71.6038 127.136 71.5951 127.087 71.5754ZM126.237 37.6468C126.501 38.321 126.781 38.9866 127.087 39.6436C128.116 41.8057 128.832 44.1046 129.212 46.4703C129.603 49.8836 129.068 53.1263 128.362 56.7103C127.742 59.9444 127.053 63.7759 126.662 67.6842C126.577 68.4436 126.416 69.9455 127.045 70.6282C129.611 65.8606 131.163 60.6098 131.602 55.2085C132.041 49.8072 131.357 44.3733 129.595 39.2511C128.83 37.169 127.895 36.0767 126.688 35.906C126.322 35.8548 125.838 35.9828 125.838 36.2474C125.823 36.4353 125.858 36.6237 125.94 36.7935L126.271 37.6468H126.237Z" fill="#231F20"/>
    <path d="M107.324 73.0602C112.076 67.4253 114.737 60.3121 114.855 52.9301C115.018 48.9871 114.088 45.0761 112.169 41.6319C111.197 39.9224 109.85 38.4577 108.23 37.3488C106.61 36.2399 104.76 35.5159 102.819 35.2319L100.456 38.5599C104.145 40.0277 108.021 42.0757 109.551 45.7535C110.246 47.6625 110.485 49.7084 110.248 51.7269C109.245 65.5082 96.9883 78.7946 83.1758 80.3989L84.4168 84.5546C84.4614 84.8354 84.6065 85.0902 84.8248 85.2714C84.9734 85.3442 85.1354 85.3855 85.3006 85.3929C85.4659 85.4002 85.6308 85.3734 85.7853 85.3141C93.6138 83.4282 102.029 79.2981 107.324 73.0602Z" fill="#231F20"/>
    <path d="M85.266 85.8091C85.0258 85.8154 84.7892 85.7501 84.586 85.6214C84.2831 85.3848 84.0773 85.0446 84.008 84.6657L82.767 80.5099C82.7499 80.4499 82.7457 80.387 82.7544 80.3253C82.7632 80.2635 82.7849 80.2043 82.818 80.1515C82.8542 80.1016 82.8999 80.0592 82.9524 80.027C83.0049 79.9948 83.0632 79.9733 83.124 79.9638C96.5965 78.4022 108.82 65.4571 109.823 51.6843C110.058 49.7415 109.831 47.7703 109.16 45.9329C107.638 42.2891 103.626 40.3009 100.303 38.9697C100.243 38.9463 100.189 38.9096 100.145 38.8624C100.102 38.8153 100.069 38.7587 100.05 38.6972C100.032 38.6356 100.027 38.5705 100.037 38.5069C100.047 38.4433 100.071 38.3827 100.107 38.3297L102.479 34.9846C102.522 34.9234 102.582 34.8753 102.651 34.8452C102.719 34.8152 102.795 34.8044 102.87 34.8139C104.876 35.0967 106.791 35.8386 108.467 36.9823C110.143 38.126 111.534 39.6409 112.534 41.4102C114.504 44.9201 115.455 48.9139 115.28 52.9387C115.135 60.4166 112.434 67.6172 107.63 73.3334C102.776 79.0593 94.8795 83.5734 85.861 85.7153C85.6676 85.7724 85.4676 85.8039 85.266 85.8091ZM83.7275 80.7489L84.8155 84.4182C84.8517 84.6025 84.9369 84.7735 85.062 84.9131C85.2627 84.9847 85.4818 84.9847 85.6825 84.9131C94.4885 82.8054 102.258 78.3937 107.001 72.8129C111.669 67.2401 114.292 60.2277 114.43 52.9473C114.606 49.0756 113.696 45.232 111.803 41.8539C110.889 40.2345 109.626 38.8403 108.107 37.773C106.588 36.7057 104.851 35.9921 103.023 35.6843L101.119 38.3809C104.519 39.7718 108.378 41.8539 109.942 45.6086C110.667 47.5694 110.918 49.6754 110.673 51.7526C109.653 65.7217 97.3785 78.8801 83.7275 80.7489Z" fill="#231F20"/>
    <path d="M112.891 32.0317C109.304 32.7656 105.08 31.5539 103.448 28.2771C104.51 28.5356 105.615 28.556 106.686 28.3368C105.267 26.7155 103.677 25.4355 103.057 23.3021C102.349 20.6003 102.33 17.7632 103.002 15.0521C103.673 12.341 105.013 9.84313 106.899 7.78854C110.171 4.1704 117.048 0.108536 122.003 2.05414C124.495 2.98007 126.718 4.51378 128.472 6.51707C129.993 8.36027 131.515 11.4835 130.699 13.8984C130.104 15.736 129.303 17.4996 128.31 19.1549C127.054 20.913 125.668 22.5732 124.162 24.1213C121.085 27.5347 118.034 30.7859 113.299 31.9464L112.891 32.0317Z" fill="white"/>
    <path d="M110.86 32.6634C107.775 32.6634 104.511 31.3664 103.066 28.465C103.032 28.3923 103.019 28.3115 103.028 28.2317C103.037 28.1519 103.067 28.0761 103.117 28.0128C103.168 27.9497 103.236 27.902 103.312 27.8749C103.388 27.8478 103.471 27.8424 103.55 27.8592C104.298 28.0396 105.07 28.0973 105.837 28.0298L105.429 27.5946C104.174 26.4547 103.219 25.0213 102.649 23.4218C101.917 20.6516 101.891 17.7407 102.574 14.9579C103.258 12.175 104.628 9.60966 106.559 7.49864C109.883 3.82077 116.912 -0.420295 122.131 1.66184C124.692 2.60608 126.975 4.18192 128.77 6.24424C130.521 8.36051 131.906 11.5861 131.073 14.0352C130.467 15.9053 129.652 17.7003 128.642 19.3856C127.672 20.7942 126.589 22.1213 125.404 23.3536C125.089 23.7034 124.766 24.0533 124.452 24.4117C121.188 28.0725 118.111 31.2384 113.402 32.3648L113.002 32.4501C112.297 32.5925 111.58 32.6639 110.86 32.6634ZM104.29 28.8576C106.126 31.4176 109.832 32.2709 112.79 31.6138L113.155 31.537C117.652 30.4277 120.635 27.3984 123.797 23.857C124.12 23.4986 124.443 23.1488 124.758 22.7904C125.922 21.5978 126.983 20.3074 127.928 18.9333C128.9 17.3058 129.687 15.5741 130.274 13.7706C130.997 11.6373 129.713 8.73597 128.115 6.79891C126.412 4.8452 124.246 3.35425 121.817 2.46397C117.031 0.552507 110.257 4.69117 107.188 8.08744C105.36 10.0939 104.065 12.5296 103.42 15.1704C102.775 17.8113 102.803 20.5725 103.499 23.2C104.026 24.6667 104.901 25.982 106.049 27.0314C106.364 27.3728 106.687 27.7141 107.001 28.0725C107.05 28.1283 107.084 28.1961 107.099 28.2691C107.114 28.3421 107.11 28.4177 107.086 28.4885C107.063 28.5592 107.022 28.6227 106.967 28.6725C106.912 28.7222 106.844 28.7566 106.772 28.7722C105.954 28.9285 105.116 28.9572 104.29 28.8576Z" fill="#231F20"/>
    <path d="M131.795 19.9658C131.795 19.9658 134.948 25.5466 134.098 26.6133C133.248 27.68 130.928 26.7584 130.928 26.7584" fill="white"/>
    <path d="M132.782 27.5348C132.102 27.5134 131.43 27.3808 130.793 27.1422C130.69 27.0987 130.607 27.0165 130.563 26.9131C130.518 26.8097 130.516 26.693 130.555 26.5876C130.574 26.535 130.603 26.4867 130.641 26.4457C130.679 26.4046 130.724 26.3715 130.775 26.3485C130.826 26.3254 130.881 26.3128 130.936 26.3113C130.992 26.3099 131.047 26.3197 131.099 26.3401C131.635 26.5449 133.275 26.9886 133.777 26.3401C134.117 25.8964 133.02 23.0121 131.431 20.1705C131.376 20.072 131.362 19.9556 131.392 19.8469C131.422 19.7381 131.494 19.6458 131.592 19.5902C131.69 19.535 131.806 19.521 131.915 19.5514C132.023 19.5818 132.115 19.6541 132.17 19.7524C133.148 21.5102 135.332 25.7257 134.448 26.8606C134.242 27.0953 133.984 27.2783 133.695 27.3954C133.405 27.5124 133.093 27.5601 132.782 27.5348Z" fill="#231F20"/>
    <path d="M131.55 8.15578C133.649 10.1526 132.714 18.6774 132.51 21.1947C132.227 24.7275 131.861 28.2575 131.414 31.7846C131.133 34.0118 125.345 33.6363 124.376 32.8939L124.631 41.8198C124.631 41.8198 121.8 42.383 117.295 39.8656C112.79 37.3483 112.85 36.2475 112.85 36.2475L113.98 26.0075C113.98 26.0075 117.805 26.3147 120.398 21.9115C122.99 17.5083 123.407 10.4768 123.407 10.4768C123.407 10.4768 129.518 6.21018 131.55 8.15578Z" fill="white"/>
    <path d="M123.9 42.2976C121.499 42.2098 119.159 41.5109 117.1 40.2667C112.706 37.8176 112.4 36.5803 112.417 36.256L113.547 26.016C113.558 25.9059 113.611 25.8042 113.695 25.7326C113.779 25.6609 113.888 25.6249 113.998 25.632C114.142 25.632 117.602 25.8539 120.016 21.7494C122.523 17.4827 122.965 10.5707 122.965 10.5024C122.97 10.4377 122.989 10.3748 123.021 10.3186C123.054 10.2624 123.098 10.2144 123.152 10.1782C123.807 9.71737 129.621 5.74083 131.856 7.86563C133.701 9.5723 133.471 15.264 133.012 20.5718L132.953 21.2459C132.672 24.7702 132.298 28.3371 131.856 31.8528C131.791 32.2229 131.625 32.5674 131.375 32.8477C131.126 33.1281 130.804 33.3332 130.445 33.44C128.627 34.0302 126.678 34.0747 124.835 33.568L125.073 41.8283C125.077 41.9285 125.045 42.0268 124.982 42.1051C124.92 42.1834 124.831 42.2366 124.733 42.255C124.457 42.2929 124.178 42.3072 123.9 42.2976ZM113.301 36.2304C113.36 36.3926 113.879 37.4507 117.551 39.4902C120.951 41.3931 123.373 41.487 124.249 41.4358L124.002 32.9024C124 32.8219 124.02 32.7423 124.06 32.6729C124.101 32.6034 124.16 32.5469 124.232 32.5099C124.3 32.4685 124.377 32.4465 124.457 32.4465C124.536 32.4465 124.614 32.4685 124.682 32.5099C125.218 32.9195 128.414 33.3632 130.148 32.5952C130.7 32.3648 130.998 32.0576 131.049 31.6822C131.491 28.1835 131.856 24.6251 132.145 21.1179L132.196 20.4352C132.443 17.6192 133.097 10.1184 131.304 8.4203C129.893 7.08057 125.498 9.5723 123.832 10.7072C123.747 11.936 123.178 18.0544 120.781 22.1248C118.562 25.8966 115.494 26.3915 114.38 26.3915L113.301 36.2304Z" fill="#231F20"/>
    <path d="M131.549 29.1734C131.549 29.1734 130.367 28.9772 127.035 26.1782L131.549 29.1734Z" fill="white"/>
    <path d="M131.549 29.5659H131.481C131.345 29.5659 130.087 29.2758 126.763 26.4768C126.719 26.4421 126.683 26.3988 126.656 26.3497C126.63 26.3005 126.613 26.2465 126.608 26.1908C126.602 26.1351 126.608 26.0788 126.624 26.0254C126.641 25.9719 126.668 25.9223 126.704 25.8795C126.778 25.7936 126.882 25.7401 126.995 25.7306C127.108 25.721 127.22 25.7561 127.307 25.8283C130.435 28.448 131.617 28.7211 131.625 28.7296C131.738 28.7398 131.842 28.7945 131.915 28.8818C131.987 28.969 132.022 29.0815 132.012 29.1947C132.002 29.3079 131.947 29.4123 131.86 29.4852C131.774 29.558 131.661 29.5932 131.549 29.583V29.5659Z" fill="#231F20"/>
    <path d="M124.876 21.7323C124.826 20.8365 124.532 19.9718 124.026 19.232C123.726 18.6077 123.333 18.0324 122.862 17.5254C122.625 17.2756 122.336 17.0812 122.016 16.9558C121.696 16.8305 121.352 16.7773 121.009 16.8C120.709 16.8534 120.424 16.97 120.172 17.1421C119.92 17.3142 119.707 17.5379 119.547 17.7984C119.229 18.316 119.035 18.8999 118.978 19.5051C118.819 20.8313 119.013 22.176 119.538 23.4032C120.063 24.6304 120.902 25.6966 121.969 26.4939L121.791 26.272" fill="white"/>
    <path d="M122.013 26.946C121.925 26.9456 121.839 26.9189 121.767 26.8692C120.643 26.021 119.76 24.8931 119.204 23.597C118.648 22.301 118.438 20.8816 118.596 19.4793C118.659 18.8041 118.878 18.1528 119.234 17.5764C119.423 17.2604 119.679 16.9893 119.982 16.7816C120.286 16.574 120.631 16.4347 120.993 16.3732C121.402 16.339 121.813 16.398 122.195 16.5458C122.578 16.6936 122.923 16.9263 123.203 17.2265C123.702 17.7605 124.118 18.3676 124.436 19.0271C124.972 19.8377 125.266 20.7849 125.286 21.7577C125.282 21.8138 125.268 21.8686 125.243 21.9191C125.219 21.9695 125.185 22.0147 125.143 22.0519C125.101 22.0892 125.052 22.1178 125 22.1361C124.947 22.1545 124.891 22.1622 124.835 22.1588C124.779 22.1554 124.725 22.1411 124.674 22.1165C124.624 22.092 124.579 22.0577 124.542 22.0157C124.505 21.9737 124.476 21.9248 124.458 21.8718C124.44 21.8187 124.432 21.7626 124.436 21.7065C124.388 20.8961 124.127 20.1128 123.679 19.4367C123.396 18.8541 123.03 18.3164 122.591 17.8409C122.399 17.636 122.165 17.4755 121.906 17.3709C121.646 17.2662 121.366 17.2199 121.087 17.2351C120.843 17.2862 120.614 17.3887 120.413 17.5358C120.212 17.683 120.045 17.8713 119.922 18.0884C119.639 18.5578 119.467 19.0863 119.421 19.6329C119.289 20.8 119.442 21.9816 119.867 23.0758C120.292 24.17 120.976 25.1439 121.86 25.9135C121.917 25.9182 121.972 25.9351 122.022 25.9631C122.072 25.991 122.115 26.0294 122.149 26.0756L122.328 26.2975C122.396 26.3753 122.433 26.4754 122.433 26.5791C122.433 26.6827 122.396 26.7828 122.328 26.8607C122.238 26.9291 122.125 26.9597 122.013 26.946Z" fill="#231F20"/>
    <path d="M124.392 32.8937C124.392 32.8937 121.46 31.7417 120.21 29.5742C120.21 29.5742 120.023 34.9758 124.503 36.8702L124.392 32.8937Z" fill="#231F20"/>
    <path d="M124.503 37.297C124.45 37.3091 124.395 37.3091 124.342 37.297C119.641 35.3087 119.786 29.617 119.786 29.617C119.789 29.5239 119.822 29.4344 119.88 29.3619C119.938 29.2895 120.019 29.2383 120.109 29.216C120.198 29.1947 120.293 29.2022 120.378 29.2374C120.463 29.2726 120.536 29.3337 120.585 29.4122C121.732 31.4261 124.52 32.5439 124.546 32.5525C124.623 32.5835 124.69 32.6362 124.738 32.7043C124.786 32.7724 124.814 32.853 124.818 32.9365L124.928 36.913C124.93 36.9851 124.914 37.0565 124.882 37.1207C124.849 37.1848 124.801 37.2396 124.741 37.2799C124.665 37.3098 124.582 37.3158 124.503 37.297ZM120.755 30.9824C120.879 32.043 121.242 33.0615 121.814 33.9615C122.387 34.8615 123.155 35.6197 124.061 36.1791L123.976 33.1754C122.78 32.6439 121.689 31.9011 120.755 30.9824Z" fill="#231F20"/>
    <path d="M130.457 17.4889C130.623 16.8069 130.544 16.2013 130.28 16.1361C130.015 16.071 129.666 16.571 129.499 17.253C129.332 17.9349 129.412 18.5406 129.676 18.6058C129.94 18.6709 130.29 18.1709 130.457 17.4889Z" fill="#231F20"/>
    <path d="M131.108 16.8681C131.034 16.8685 130.961 16.8509 130.896 16.8169L128.524 15.5198C128.426 15.4641 128.354 15.3725 128.322 15.2642C128.291 15.1559 128.302 15.0395 128.354 14.9396C128.381 14.8902 128.417 14.8465 128.46 14.8112C128.504 14.7759 128.554 14.7495 128.608 14.7336C128.662 14.7178 128.718 14.7127 128.773 14.7188C128.829 14.7248 128.883 14.7419 128.932 14.7689L131.312 16.083C131.41 16.1386 131.482 16.2309 131.512 16.3397C131.543 16.4484 131.529 16.5648 131.474 16.6633C131.436 16.7268 131.383 16.7792 131.318 16.8151C131.254 16.8511 131.182 16.8694 131.108 16.8681Z" fill="#231F20"/>
    <path d="M102.504 20.5715L132.909 10.9886C132.909 10.9886 129.628 0.356046 118.314 1.22645C107.001 2.09685 101.994 11.0654 102.504 20.5715Z" fill="white"/>
    <path d="M102.504 20.9983C102.416 21.0001 102.329 20.9732 102.258 20.9215C102.204 20.8858 102.16 20.8377 102.129 20.7813C102.098 20.7248 102.081 20.6617 102.079 20.5972C101.586 11.4068 106.414 1.72146 118.289 0.808395C129.849 -0.104672 133.249 10.7583 133.317 10.8607C133.349 10.9693 133.337 11.0863 133.285 11.1866C133.233 11.287 133.143 11.363 133.036 11.3983L102.649 20.9812L102.504 20.9983ZM119.649 1.602C119.232 1.602 118.799 1.602 118.365 1.6532C110.928 2.23346 102.496 7.3876 102.921 19.9999L132.399 10.7156C131.676 8.88093 128.395 1.602 119.649 1.602Z" fill="#231F20"/>
    <path d="M120.975 15.2895C120.862 15.3076 120.747 15.28 120.655 15.2128C120.562 15.1456 120.5 15.0442 120.482 14.9311C120.464 14.8179 120.491 14.7022 120.558 14.6094C120.625 14.5166 120.726 14.4543 120.839 14.4362L146.05 6.13322C146.157 6.09701 146.274 6.10498 146.375 6.15539C146.477 6.2058 146.554 6.29452 146.59 6.40202C146.626 6.50952 146.618 6.627 146.568 6.72862C146.517 6.83024 146.429 6.90767 146.322 6.94389L121.102 15.2554L120.975 15.2895Z" fill="#231F20"/>
    <path d="M102.844 15.1272C102.844 15.1272 105.827 14.8627 106.711 17.3629L102.844 18.4979" fill="#231F20"/>
    <path d="M102.844 18.9333C102.752 18.9347 102.662 18.9053 102.588 18.8497C102.514 18.7941 102.461 18.7154 102.436 18.626C102.405 18.5174 102.418 18.4006 102.472 18.3014C102.526 18.2022 102.617 18.1287 102.725 18.097L106.125 17.0986C105.19 15.3919 102.904 15.5626 102.879 15.5626C102.766 15.5697 102.656 15.5328 102.57 15.4596C102.484 15.3863 102.43 15.2825 102.419 15.1701C102.41 15.0582 102.445 14.947 102.516 14.8608C102.588 14.7745 102.691 14.7201 102.802 14.7092C103.958 14.6068 106.329 15.0079 107.111 17.2692C107.136 17.3212 107.149 17.378 107.149 17.4356C107.149 17.4933 107.136 17.5501 107.111 17.602C107.085 17.653 107.049 17.6981 107.006 17.7347C106.962 17.7714 106.911 17.7988 106.856 17.8154L102.963 18.9333H102.844Z" fill="#231F20"/>
    <path d="M138.936 12.627C137.831 12.627 136.93 14.6238 136.93 17.0814C136.93 19.539 137.831 21.5443 138.936 21.5443H161.435V12.627H138.936Z" fill="white"/>
    <path d="M161.436 21.9794H138.936C137.542 21.9794 136.488 19.8716 136.488 17.0812C136.488 14.2908 137.542 12.1831 138.936 12.1831H161.436C161.552 12.1853 161.662 12.2331 161.743 12.3161C161.824 12.399 161.869 12.5106 161.869 12.6268V21.5356C161.87 21.5935 161.86 21.651 161.839 21.7048C161.817 21.7586 161.786 21.8076 161.745 21.8489C161.705 21.8902 161.657 21.923 161.604 21.9454C161.551 21.9678 161.493 21.9794 161.436 21.9794ZM138.936 13.0706C138.197 13.0706 137.372 14.7772 137.372 17.0812C137.372 19.3852 138.222 21.1004 138.936 21.1004H160.994V13.0706H138.936Z" fill="#231F20"/>
    <path d="M161.436 21.5358C162.544 21.5358 163.442 19.5415 163.442 17.0814C163.442 14.6213 162.544 12.627 161.436 12.627C160.328 12.627 159.43 14.6213 159.43 17.0814C159.43 19.5415 160.328 21.5358 161.436 21.5358Z" fill="white"/>
    <path d="M161.434 21.9794C160.04 21.9794 158.986 19.8716 158.986 17.0812C158.986 14.2908 160.04 12.1831 161.434 12.1831C162.828 12.1831 163.848 14.2908 163.848 17.0812C163.848 19.8716 162.828 21.9794 161.434 21.9794ZM161.434 13.0706C160.695 13.0706 159.862 14.7772 159.862 17.0812C159.862 19.3852 160.712 21.1004 161.434 21.1004C162.157 21.1004 163.007 19.3938 163.007 17.0812C163.007 14.7687 162.148 13.0706 161.434 13.0706Z" fill="#231F20"/>
    <path d="M129.85 14.2314C129.144 14.2314 128.566 15.5114 128.566 17.0816C128.566 18.6517 129.144 19.9402 129.85 19.9402H144.3V14.2314H129.85Z" fill="#231F20"/>
    <path d="M144.213 20.3666H129.848C128.871 20.3666 128.148 18.9501 128.148 17.0813C128.148 15.2125 128.828 13.813 129.848 13.813H144.298C144.411 13.813 144.519 13.8579 144.599 13.938C144.679 14.018 144.723 14.1265 144.723 14.2397V19.9485C144.723 20.0117 144.709 20.0742 144.682 20.1314C144.655 20.1886 144.616 20.239 144.567 20.279C144.518 20.319 144.461 20.3477 144.4 20.3628C144.339 20.378 144.275 20.3792 144.213 20.3666ZM129.848 14.6663C129.559 14.6663 128.998 15.5197 128.998 17.0898C128.998 18.6599 129.517 19.5218 129.848 19.5218H143.788V14.6663H129.848Z" fill="#231F20"/>
    <path d="M134.44 12.627C133.335 12.627 132.434 14.6238 132.434 17.0814C132.434 19.539 133.335 21.5443 134.44 21.5443H156.939V12.627H134.44Z" fill="white"/>
    <path d="M156.938 21.9794H134.438C133.044 21.9794 131.99 19.8716 131.99 17.0812C131.99 14.2908 133.044 12.1831 134.438 12.1831H156.938C157.053 12.1853 157.164 12.2331 157.245 12.3161C157.326 12.399 157.371 12.5106 157.371 12.6268V21.5356C157.372 21.5935 157.362 21.651 157.341 21.7048C157.319 21.7586 157.288 21.8076 157.247 21.8489C157.207 21.8902 157.159 21.923 157.106 21.9454C157.052 21.9678 156.995 21.9794 156.938 21.9794ZM134.438 13.0706C133.699 13.0706 132.866 14.7772 132.866 17.0812C132.866 19.3852 133.716 21.1004 134.438 21.1004H156.496V13.0706H134.438Z" fill="#231F20"/>
    <path d="M156.94 21.5358C158.047 21.5358 158.946 19.5415 158.946 17.0814C158.946 14.6213 158.047 12.627 156.94 12.627C155.832 12.627 154.934 14.6213 154.934 17.0814C154.934 19.5415 155.832 21.5358 156.94 21.5358Z" fill="white"/>
    <path d="M156.938 21.9794C155.536 21.9794 154.49 19.8716 154.49 17.0812C154.49 14.2908 155.536 12.1831 156.938 12.1831C158.341 12.1831 159.378 14.2908 159.378 17.0812C159.378 19.8716 158.332 21.9794 156.938 21.9794ZM156.938 13.0706C156.19 13.0706 155.366 14.7772 155.366 17.0812C155.366 19.3852 156.216 21.1004 156.938 21.1004C157.661 21.1004 158.502 19.3938 158.502 17.0812C158.502 14.7687 157.678 13.0706 156.938 13.0706Z" fill="#231F20"/>
    <path d="M116.547 64.4585C143.058 67.7267 147.232 62.9395 149.952 58.3998C152.672 53.8601 151.762 18.2931 151.133 16.1257C150.504 13.9582 145.047 12.3027 145.047 12.3027C145.047 10.7838 143.347 8.77848 142.395 10.8009C141.001 13.6852 140.304 17.3459 139.454 20.435C139.415 20.6411 139.321 20.8326 139.182 20.9897C138.991 21.1332 138.758 21.2109 138.519 21.2115L135.901 21.5273C135.969 23.123 139.522 25.043 139.964 26.5193C140.364 27.8334 138.332 48.7913 137.916 50.0201L118.493 47.7587" fill="white"/>
    <path d="M131.618 65.9859C126.56 65.9282 121.51 65.5634 116.496 64.8936C116.397 64.8652 116.311 64.8022 116.254 64.716C116.197 64.6298 116.172 64.526 116.185 64.4233C116.197 64.3205 116.245 64.2255 116.321 64.1553C116.397 64.0851 116.495 64.0443 116.598 64.0403C141.945 67.1635 146.663 63.0504 149.578 58.1864C152.222 53.7747 151.227 18.0797 150.709 16.2707C150.241 14.6664 146.374 13.1731 144.92 12.7379C144.83 12.7091 144.75 12.6523 144.694 12.5757C144.637 12.4991 144.607 12.4065 144.606 12.3112C144.616 11.9222 144.518 11.5379 144.325 11.2007C144.132 10.8635 143.849 10.5863 143.509 10.3997C143.254 10.3315 143.016 10.5363 142.795 10.9971C141.796 13.2927 141.027 15.6824 140.5 18.1309C140.296 18.9843 140.092 19.7779 139.871 20.5544C139.816 20.8399 139.68 21.1035 139.48 21.3139C139.22 21.5211 138.902 21.6406 138.571 21.6552L136.446 21.9027C136.963 22.691 137.607 23.3886 138.35 23.9677C139.211 24.6044 139.913 25.4342 140.398 26.3912C140.84 27.876 138.698 49.0387 138.341 50.1651C138.307 50.26 138.243 50.341 138.159 50.3951C138.074 50.4492 137.974 50.4734 137.874 50.4637L118.451 48.1939C118.337 48.1789 118.233 48.1197 118.161 48.0288C118.09 47.9379 118.057 47.8226 118.069 47.7075C118.084 47.592 118.142 47.4868 118.232 47.4137C118.323 47.3405 118.438 47.3052 118.553 47.3149L137.585 49.5421C138.069 46.6323 139.914 27.9699 139.557 26.6472C139.101 25.8582 138.491 25.1702 137.763 24.6248C136.658 23.6264 135.519 22.5939 135.468 21.5443C135.463 21.433 135.501 21.324 135.574 21.2399C135.647 21.1557 135.749 21.1028 135.859 21.092L138.477 20.7763C138.623 20.7758 138.767 20.7376 138.894 20.6653C138.967 20.561 139.017 20.4415 139.038 20.3155C139.251 19.5475 139.455 18.7368 139.659 17.9176C140.197 15.4066 140.985 12.9565 142.013 10.6045C142.591 9.4184 143.399 9.4696 143.713 9.5464C144.201 9.74588 144.624 10.0786 144.934 10.507C145.243 10.9353 145.427 11.4421 145.464 11.9699C146.714 12.3709 150.938 13.8813 151.55 16.0061C152.094 17.8749 153.165 53.8856 150.335 58.6216C147.989 62.5299 144.58 65.9859 131.618 65.9859Z" fill="#231F20"/>
    <path d="M102.752 62.4448L116.547 64.4586L118.494 47.7589L108.013 46.0352" fill="#F1C21B"/>
    <path d="M116.547 64.8852H116.487L102.649 62.8629C102.536 62.8459 102.435 62.7846 102.367 62.6926C102.3 62.6006 102.271 62.4853 102.288 62.3722C102.305 62.259 102.366 62.1572 102.458 62.0892C102.549 62.0212 102.664 61.9925 102.777 62.0095L116.139 63.9636L117.992 48.1002L107.911 46.4447C107.856 46.4365 107.803 46.4172 107.755 46.3881C107.708 46.359 107.667 46.3207 107.634 46.2753C107.602 46.23 107.579 46.1786 107.566 46.1241C107.554 46.0697 107.553 46.0133 107.562 45.9583C107.57 45.9031 107.59 45.8501 107.619 45.8024C107.648 45.7547 107.686 45.7134 107.731 45.6807C107.776 45.6481 107.827 45.6249 107.882 45.6125C107.936 45.6001 107.992 45.5987 108.047 45.6085L118.527 47.3151C118.636 47.334 118.734 47.394 118.8 47.4829C118.867 47.5717 118.897 47.6826 118.884 47.793L116.938 64.4927C116.919 64.6072 116.858 64.7106 116.768 64.7829C116.705 64.8375 116.629 64.873 116.547 64.8852Z" fill="#231F20"/>
    <path d="M86.941 103.729L76.418 141.463L110.622 136.813L116.954 110.206L134.243 126.965L156.938 110.564L131.107 87.0464L86.941 103.729Z" fill="#231F20"/>
    <path d="M76.4181 141.89C76.3572 141.89 76.2971 141.876 76.2415 141.851C76.186 141.826 76.1361 141.79 76.0951 141.745C76.0485 141.691 76.0163 141.626 76.0015 141.555C75.9866 141.485 75.9896 141.413 76.0101 141.344L86.4991 103.61C86.5185 103.545 86.5523 103.487 86.5981 103.438C86.6438 103.389 86.7001 103.351 86.7626 103.328L130.963 86.6538C131.035 86.6257 131.114 86.618 131.19 86.6315C131.266 86.645 131.338 86.6793 131.396 86.7306L157.219 110.24C157.266 110.283 157.302 110.336 157.326 110.395C157.349 110.454 157.359 110.518 157.355 110.581C157.354 110.645 157.338 110.707 157.308 110.764C157.279 110.82 157.237 110.868 157.185 110.906L134.499 127.307C134.422 127.37 134.326 127.405 134.227 127.405C134.127 127.405 134.031 127.37 133.955 127.307L117.193 111.093L111.03 136.983C111.013 137.066 110.97 137.141 110.907 137.198C110.844 137.255 110.765 137.29 110.682 137.299L76.4776 141.95L76.4181 141.89ZM87.2896 104.053L77.0046 140.96L110.274 136.437L116.538 110.112C116.556 110.039 116.592 109.971 116.645 109.917C116.697 109.863 116.763 109.824 116.836 109.805C116.908 109.78 116.985 109.777 117.059 109.795C117.132 109.813 117.2 109.852 117.252 109.907L134.252 126.419L156.225 110.53L130.98 87.5498L87.2896 104.053Z" fill="#231F20"/>
    <path d="M79.1212 69.3737C79.203 67.9663 78.9311 66.5607 78.3307 65.2862C77.5572 63.938 76.1207 63.1358 74.7437 62.402C72.6612 61.3012 70.2302 60.1833 68.0457 61.0708C66.0907 61.8558 65.0537 63.9721 64.3142 65.9604C62.4939 70.8595 61.4194 76.006 61.1267 81.2265C60.9227 84.9897 61.1777 88.9065 63.1327 92.1662C63.9316 93.4571 65.0431 94.524 66.3636 95.2673C67.684 96.0106 69.1704 96.4063 70.6842 96.4173C72.198 96.4284 73.69 96.0546 75.0211 95.3306C76.3522 94.6067 77.479 93.5562 78.2967 92.2772C79.9372 89.6745 79.2912 85.7321 79.2827 82.8308C79.277 78.3479 79.2232 73.8622 79.1212 69.3737Z" fill="#231F20"/>
    <path d="M70.7666 96.8682H70.6901C69.1006 96.8617 67.539 96.4484 66.1529 95.6675C64.7668 94.8866 63.6018 93.7639 62.7681 92.4053C60.5666 88.7787 60.5326 84.2901 60.7026 81.2266C60.9891 75.953 62.0724 70.7537 63.9156 65.8069C64.6381 63.8698 65.7431 61.5402 67.8936 60.6869C70.2566 59.7397 72.7726 60.8917 74.9486 62.0437C76.5211 62.897 77.8981 63.6906 78.6971 65.0901C79.3287 66.4195 79.6208 67.8858 79.5471 69.3568C79.6406 73.8368 79.7001 78.3765 79.7086 82.8394C79.7086 83.4453 79.7086 84.1024 79.7681 84.7765C79.8871 87.3877 80.0231 90.3488 78.6546 92.5162C77.816 93.8543 76.6518 94.956 75.2717 95.7174C73.8917 96.4788 72.3413 96.8749 70.7666 96.8682ZM69.7466 61.1733C69.2198 61.1686 68.6972 61.2671 68.2081 61.4634C66.3806 62.1973 65.4116 64.2197 64.7146 66.1056C62.8982 70.9692 61.8319 76.0827 61.5526 81.2693C61.3911 84.2218 61.4166 88.5397 63.4991 91.9616C64.2536 93.1989 65.3117 94.2213 66.5722 94.931C67.8327 95.6406 69.2534 96.0138 70.6986 96.0149H70.7666C72.1979 96.0211 73.6074 95.6617 74.8623 94.9706C76.1173 94.2794 77.1766 93.2792 77.9406 92.064C79.1646 90.1269 79.0371 87.3109 78.9181 84.8277C78.9181 84.1365 78.8586 83.4709 78.8586 82.848C78.8586 78.3936 78.7906 73.8624 78.6971 69.3824C78.7845 68.0469 78.533 66.711 77.9661 65.4997C77.2691 64.2965 76.0111 63.5626 74.5661 62.7861C73.1069 61.8783 71.4564 61.326 69.7466 61.1733Z" fill="#231F20"/>
    <path d="M76.7408 94.5983C76.6566 94.5992 76.5741 94.5755 76.5031 94.53C76.4322 94.4846 76.3759 94.4193 76.3413 94.3423C76.3158 94.2905 76.3011 94.234 76.2981 94.1762C76.295 94.1185 76.3037 94.0607 76.3236 94.0065C76.3435 93.9522 76.3741 93.9026 76.4137 93.8605C76.4533 93.8185 76.5009 93.785 76.5538 93.7621C78.3388 92.9087 81.0248 88.369 78.9763 66.993C78.4153 61.1221 72.9838 61.2501 71.1988 61.2842C71.0178 61.2998 70.8358 61.2998 70.6548 61.2842C70.5981 61.2731 70.5442 61.2506 70.4963 61.2183C70.4484 61.1859 70.4073 61.1443 70.3757 61.0958C70.344 61.0473 70.3223 60.9929 70.3118 60.9359C70.3014 60.8789 70.3024 60.8203 70.3148 60.7637C70.3355 60.6507 70.3998 60.5506 70.4938 60.485C70.5877 60.4195 70.7036 60.3939 70.8163 60.4138C70.9351 60.4228 71.0545 60.4228 71.1733 60.4138C76.5198 60.2944 79.4268 62.4789 79.8518 66.9162C81.4498 83.633 80.4638 92.9344 76.9193 94.5642C76.8638 94.5912 76.8023 94.603 76.7408 94.5983Z" fill="white"/>
    <path d="M74.531 79.4091C69.431 79.4091 63.192 76.3883 62.8775 76.2347C62.7808 76.1781 62.7091 76.0867 62.6769 75.9791C62.6447 75.8714 62.6544 75.7555 62.704 75.6547C62.7537 75.554 62.8395 75.4759 62.9443 75.4362C63.0491 75.3966 63.165 75.3983 63.2685 75.4411C63.3535 75.4411 72.1595 79.759 77.098 78.1718C77.1538 78.1539 77.2126 78.1472 77.271 78.152C77.3294 78.1569 77.3863 78.1733 77.4384 78.2002C77.4904 78.2272 77.5367 78.2642 77.5746 78.3091C77.6125 78.354 77.6411 78.4059 77.659 78.4619C77.6769 78.518 77.6835 78.577 77.6787 78.6356C77.6738 78.6942 77.6575 78.7513 77.6307 78.8036C77.6039 78.8559 77.567 78.9024 77.5223 78.9404C77.4776 78.9784 77.4258 79.0072 77.37 79.0251C76.4483 79.2956 75.4912 79.4251 74.531 79.4091Z" fill="white"/>
    <path d="M76.8173 54.3893C76.0492 54.3742 75.2953 54.1796 74.6152 53.8212C73.935 53.4628 73.3474 52.9502 72.8988 52.3242C72.3269 51.4118 71.968 50.3814 71.8487 49.3101C71.7295 48.2387 71.8531 47.1542 72.2103 46.1376C72.2276 46.0815 72.2557 46.0295 72.293 45.9844C72.3304 45.9392 72.3762 45.902 72.4279 45.8746C72.4796 45.8473 72.5362 45.8304 72.5943 45.825C72.6525 45.8196 72.7112 45.8258 72.767 45.8432C72.8228 45.8605 72.8747 45.8888 72.9196 45.9263C72.9646 45.9638 73.0017 46.0098 73.0289 46.0617C73.0562 46.1136 73.0729 46.1704 73.0783 46.2288C73.0837 46.2872 73.0776 46.3461 73.0603 46.4021C72.7419 47.2899 72.6278 48.2386 72.7264 49.177C72.825 50.1154 73.1338 51.0192 73.6298 51.8208C74.6073 53.2117 76.7322 54.0736 78.3387 53.1349C79.1084 52.602 79.7453 51.8983 80.2003 51.0784C83.8802 45.3063 86.2054 38.7702 87.0003 31.9637C87.0131 31.8473 87.0712 31.7408 87.162 31.6673C87.2527 31.5937 87.3688 31.5592 87.4848 31.5712C87.6014 31.5861 87.7075 31.6463 87.7806 31.7388C87.8536 31.8312 87.8878 31.9487 87.8757 32.0661C87.0554 39.0096 84.6719 45.6746 80.9058 51.5562C80.3864 52.51 79.6422 53.3216 78.7382 53.92C78.1495 54.2416 77.4874 54.4034 76.8173 54.3893Z" fill="white"/>
    <path d="M85.9547 135.063C85.9154 135.071 85.875 135.071 85.8357 135.063C85.725 135.032 85.631 134.957 85.5739 134.857C85.5167 134.757 85.5009 134.638 85.5297 134.526L93.6047 104.992C93.6411 104.884 93.7171 104.795 93.8171 104.742C93.9171 104.689 94.0335 104.677 94.1424 104.707C94.2513 104.738 94.3443 104.809 94.4024 104.907C94.4605 105.004 94.4792 105.12 94.4547 105.231L86.3797 134.756C86.3507 134.846 86.2938 134.925 86.2174 134.98C86.1409 135.035 86.0489 135.064 85.9547 135.063Z" fill="white"/>
    <path d="M99.0194 108.994C98.9191 108.995 98.822 108.959 98.7474 108.892C98.6579 108.821 98.5998 108.718 98.5855 108.604C98.5712 108.491 98.6018 108.377 98.6709 108.286C98.7134 108.235 98.8494 108.098 99.0619 107.902C100.243 106.775 103.856 103.354 104.306 99.5733C104.325 99.4587 104.386 99.3554 104.478 99.2842C104.569 99.213 104.684 99.1791 104.799 99.1893C104.914 99.2042 105.018 99.2634 105.089 99.3543C105.161 99.4452 105.194 99.5605 105.182 99.6757C104.689 103.78 100.932 107.356 99.6654 108.542C99.5584 108.633 99.4562 108.73 99.3594 108.832C99.3177 108.882 99.2657 108.922 99.207 108.95C99.1483 108.978 99.0843 108.993 99.0194 108.994Z" fill="white"/>
    <path d="M118.493 110.82H118.365C118.31 110.804 118.259 110.776 118.215 110.74C118.171 110.703 118.134 110.658 118.107 110.608C118.08 110.557 118.064 110.501 118.059 110.444C118.053 110.387 118.059 110.329 118.076 110.274C118.076 110.214 119.921 104.096 119.921 101.374C119.902 101.308 119.899 101.238 119.911 101.171C119.924 101.103 119.952 101.039 119.993 100.985C120.034 100.93 120.087 100.885 120.149 100.855C120.21 100.824 120.277 100.808 120.346 100.808C120.414 100.808 120.482 100.824 120.543 100.855C120.604 100.885 120.657 100.93 120.699 100.985C120.74 101.039 120.768 101.103 120.78 101.171C120.793 101.238 120.79 101.308 120.771 101.374C120.771 104.224 118.969 110.265 118.892 110.53C118.861 110.612 118.806 110.683 118.736 110.735C118.665 110.786 118.58 110.816 118.493 110.82Z" fill="white"/>
    <path d="M48.1562 195.172C48.1562 195.172 91.0387 196.546 89.9932 195.172C91.1917 190.616 70.4943 184.079 72.2283 182.475C73.9623 180.871 80.1502 172.354 80.1502 172.354L61.0678 169.12L48.1562 195.172Z" fill="#231F20"/>
    <path d="M79.7408 196.213C76.9358 196.213 73.3658 196.213 68.8353 196.102C58.5673 195.932 48.2483 195.607 48.1378 195.599C48.0668 195.599 47.9971 195.58 47.9359 195.544C47.8746 195.508 47.824 195.456 47.7893 195.394C47.7558 195.331 47.7383 195.261 47.7383 195.189C47.7383 195.118 47.7558 195.047 47.7893 194.984L60.7008 168.889C60.7418 168.806 60.8089 168.738 60.8917 168.697C60.9746 168.655 61.0687 168.642 61.1598 168.659L80.2423 171.936C80.3136 171.95 80.3804 171.981 80.4368 172.028C80.4931 172.074 80.5373 172.133 80.5653 172.2C80.5912 172.268 80.6001 172.34 80.5912 172.412C80.5823 172.483 80.5559 172.551 80.5143 172.61C80.2593 172.951 74.4028 180.973 72.5923 182.731C72.9493 183.362 76.0518 184.872 78.5423 186.093C84.4158 188.96 91.0713 192.194 90.4423 195.198C90.4471 195.282 90.4326 195.367 90.3998 195.445C90.2128 195.778 89.9918 196.213 79.7408 196.213ZM48.8263 194.771C64.3813 195.257 87.2463 195.693 89.6263 194.993C90.0683 192.646 82.9368 189.173 78.1938 186.861C73.9438 184.787 71.8783 183.746 71.7338 182.807C71.7155 182.69 71.7269 182.57 71.767 182.458C71.8071 182.346 71.8746 182.246 71.9633 182.167C73.3998 180.811 78.0238 174.573 79.4263 172.661L61.3298 169.547L48.8263 194.771Z" fill="#231F20"/>
    <path d="M170.105 160.058L151.354 165.792L155.672 181.229L191.355 166.611L170.105 168.343V160.058Z" fill="#231F20"/>
    <path d="M155.671 181.655C155.606 181.658 155.542 181.643 155.484 181.613C155.431 181.587 155.383 181.551 155.345 181.505C155.307 181.459 155.279 181.406 155.263 181.348L150.945 165.911C150.914 165.804 150.925 165.688 150.978 165.589C151.03 165.49 151.119 165.416 151.226 165.382L169.985 159.648C170.048 159.627 170.115 159.622 170.18 159.633C170.245 159.643 170.306 159.669 170.359 159.708C170.413 159.749 170.456 159.802 170.486 159.862C170.515 159.923 170.53 159.99 170.529 160.058V167.883L191.32 166.176C191.42 166.169 191.519 166.198 191.6 166.257C191.681 166.316 191.739 166.403 191.762 166.5C191.785 166.599 191.773 166.702 191.728 166.792C191.683 166.882 191.608 166.954 191.516 166.995L155.816 181.613C155.77 181.634 155.721 181.649 155.671 181.655ZM151.872 166.082L155.952 180.657L188.643 167.268L170.138 168.77C170.081 168.775 170.023 168.768 169.969 168.749C169.915 168.73 169.865 168.699 169.824 168.659C169.778 168.62 169.742 168.572 169.717 168.517C169.692 168.463 169.679 168.403 169.679 168.343V160.663L151.872 166.082Z" fill="#231F20"/>
    <path d="M216.337 195.172V188.158C216.337 185.7 212.249 181.596 206.528 180.23C202.984 179.377 204.879 174.257 204.658 171.987C204.51 170.513 203.922 169.118 202.971 167.986C202.02 166.853 200.751 166.035 199.329 165.638C193.379 163.795 188.219 166.637 183.017 169.052C177.169 171.757 171.075 174.453 164.53 174.598C161.495 174.667 158.418 174.283 155.443 174.888C152.468 175.494 149.995 176.928 147.445 178.361C145.116 179.684 142.685 180.921 140.398 182.304C139.174 183.055 137.466 185.419 135.995 185.427C134.117 185.427 130.963 187.552 129.654 188.764L125.481 192.587C124.835 193.175 123.883 194.105 123.883 195.087C123.883 195.087 123.883 195.147 123.883 195.172H216.337Z" fill="white"/>
    <path d="M216.336 195.616H123.899C123.788 195.614 123.681 195.57 123.601 195.492C123.52 195.415 123.472 195.309 123.465 195.198C123.462 195.161 123.462 195.124 123.465 195.087C123.465 193.849 124.647 192.774 125.165 192.262L129.339 188.439C130.52 187.356 133.827 185.026 135.977 185.026C136.751 185.026 137.762 184.079 138.646 183.242C139.109 182.774 139.612 182.348 140.151 181.971C141.613 181.118 143.151 180.264 144.639 179.411C145.489 178.942 146.339 178.472 147.189 177.994C149.739 176.561 152.357 175.076 155.315 174.479C157.404 174.133 159.526 174.024 161.639 174.154C162.574 174.154 163.534 174.197 164.478 174.154C170.7 174.009 176.454 171.594 182.787 168.642L184.036 168.053C188.839 165.8 193.803 163.471 199.413 165.212C200.918 165.634 202.261 166.501 203.268 167.7C204.274 168.9 204.898 170.376 205.057 171.936C205.086 172.735 205.041 173.535 204.921 174.325C204.598 177.218 204.521 179.3 206.621 179.795C212.426 181.177 216.761 185.35 216.761 188.149V195.164C216.764 195.221 216.755 195.279 216.734 195.333C216.714 195.388 216.683 195.437 216.644 195.479C216.604 195.521 216.557 195.555 216.504 195.579C216.451 195.602 216.394 195.615 216.336 195.616ZM124.375 194.762H215.895V188.183C215.895 186.101 212.12 182.039 206.425 180.682C203.45 179.974 203.824 176.672 204.088 174.257C204.202 173.529 204.247 172.792 204.224 172.055C204.079 170.668 203.521 169.356 202.624 168.291C201.727 167.226 200.531 166.456 199.192 166.082C193.905 164.444 189.102 166.705 184.453 168.889L183.195 169.47C176.769 172.448 170.929 174.922 164.537 175.068C163.577 175.068 162.599 175.068 161.656 175.068C159.608 174.939 157.552 175.042 155.527 175.375C152.714 175.946 150.147 177.397 147.665 178.788C146.815 179.274 145.965 179.744 145.064 180.213C143.593 181.007 142.063 181.834 140.627 182.722C140.136 183.065 139.678 183.454 139.259 183.882C138.255 184.83 137.116 185.905 135.994 185.905C134.362 185.905 131.379 187.808 129.942 189.13L125.777 192.953C125.177 193.422 124.696 194.027 124.375 194.72V194.762Z" fill="#231F20"/>
    <path d="M204.455 177.525C204.455 177.525 183.06 181.869 175.436 185.154C175.436 185.154 196.771 178.95 206.529 180.23" fill="#231F20"/>
    <path d="M175.434 185.589C175.344 185.59 175.256 185.563 175.183 185.511C175.11 185.459 175.055 185.385 175.026 185.299C174.986 185.194 174.989 185.077 175.033 184.974C175.078 184.87 175.16 184.788 175.264 184.745C182.846 181.485 204.164 177.133 204.359 177.065C204.462 177.063 204.563 177.097 204.643 177.161C204.724 177.225 204.779 177.316 204.801 177.417C204.822 177.518 204.807 177.624 204.759 177.715C204.711 177.806 204.633 177.878 204.538 177.918C204.419 177.918 197.738 179.292 190.606 181.05C196.335 179.974 202.447 179.206 206.586 179.753C206.686 179.781 206.772 179.845 206.829 179.932C206.886 180.019 206.91 180.124 206.896 180.227C206.883 180.33 206.833 180.425 206.756 180.495C206.679 180.564 206.58 180.604 206.476 180.606C196.913 179.36 175.765 185.453 175.553 185.513L175.434 185.589Z" fill="#231F20"/>
    <path d="M163.271 190.325C163.212 190.338 163.151 190.338 163.092 190.325C151.192 185.163 138.264 188.132 138.136 188.167C138.031 188.176 137.926 188.146 137.84 188.084C137.754 188.022 137.693 187.931 137.668 187.828C137.644 187.725 137.657 187.616 137.705 187.521C137.754 187.427 137.834 187.353 137.932 187.313C138.06 187.313 151.286 184.25 163.432 189.532C163.543 189.556 163.64 189.624 163.702 189.719C163.764 189.814 163.786 189.93 163.764 190.042C163.742 190.154 163.677 190.252 163.583 190.317C163.489 190.381 163.374 190.405 163.262 190.385L163.271 190.325Z" fill="#231F20"/>
    <path d="M188.244 181.809C188.191 181.817 188.136 181.817 188.083 181.809C182.649 179.582 176.77 178.67 170.921 179.147C170.778 179.146 170.637 179.174 170.505 179.23C170.374 179.286 170.255 179.368 170.156 179.471C170.191 179.583 170.182 179.704 170.129 179.81C170.077 179.915 169.986 179.995 169.876 180.034C169.821 180.053 169.764 180.061 169.707 180.057C169.65 180.054 169.594 180.039 169.543 180.013C169.491 179.988 169.445 179.952 169.408 179.909C169.37 179.866 169.341 179.816 169.323 179.761C169.28 179.629 169.267 179.489 169.286 179.351C169.305 179.214 169.356 179.082 169.434 178.967C169.608 178.76 169.824 178.591 170.067 178.47C170.309 178.35 170.574 178.281 170.845 178.268C176.833 177.784 182.85 178.717 188.414 180.99C188.508 181.029 188.586 181.1 188.634 181.191C188.682 181.281 188.698 181.386 188.677 181.486C188.657 181.587 188.603 181.678 188.524 181.743C188.445 181.808 188.346 181.843 188.244 181.843V181.809Z" fill="#231F20"/>
    <path d="M217.748 165.323H217.697C217.585 165.31 217.483 165.253 217.413 165.165C217.343 165.077 217.311 164.965 217.323 164.853C217.624 161.918 217.133 158.956 215.902 156.276C214.671 153.597 212.745 151.299 210.325 149.624C207.905 147.949 205.082 146.958 202.149 146.755C199.217 146.551 196.285 147.144 193.659 148.469C193.558 148.52 193.442 148.528 193.335 148.493C193.229 148.458 193.14 148.382 193.089 148.281C193.063 148.232 193.047 148.177 193.042 148.121C193.038 148.065 193.044 148.009 193.062 147.956C193.079 147.902 193.107 147.853 193.144 147.811C193.181 147.769 193.226 147.734 193.276 147.71C196.038 146.31 199.124 145.683 202.211 145.895C205.297 146.106 208.27 147.149 210.816 148.912C213.363 150.676 215.389 153.096 216.682 155.917C217.975 158.739 218.487 161.858 218.164 164.947C218.154 165.05 218.105 165.146 218.028 165.216C217.951 165.285 217.851 165.323 217.748 165.323Z" fill="#D1D3D4"/>
    <path d="M31.1215 170.263C31.015 170.262 30.9128 170.221 30.8344 170.149C30.756 170.076 30.7069 169.977 30.6965 169.871C30.5299 167.927 30.7978 165.971 31.4807 164.144C32.1637 162.318 33.2443 160.668 34.6439 159.314C36.0434 157.961 37.7264 156.938 39.5699 156.321C41.4134 155.704 43.371 155.508 45.2995 155.748C45.4101 155.765 45.5098 155.824 45.5779 155.913C45.6461 156.002 45.6773 156.114 45.665 156.226C45.6588 156.282 45.6414 156.336 45.6138 156.385C45.5863 156.434 45.5492 156.477 45.5048 156.511C45.4603 156.545 45.4094 156.57 45.3552 156.584C45.3009 156.598 45.2444 156.601 45.189 156.593C43.387 156.37 41.5581 156.554 39.836 157.132C38.1138 157.709 36.5418 158.665 35.2345 159.93C33.9273 161.195 32.9178 162.737 32.2797 164.444C31.6417 166.15 31.3912 167.978 31.5465 169.794C31.556 169.908 31.5202 170.022 31.447 170.109C31.3738 170.197 31.2691 170.253 31.1555 170.263H31.1215Z" fill="#D1D3D4"/>
    <path d="M31.8951 199.251C31.7886 199.25 31.6864 199.209 31.608 199.136C31.5296 199.064 31.4805 198.965 31.4701 198.859C31.2518 196.246 30.5271 193.7 29.3366 191.366C29.3109 191.317 29.2953 191.262 29.2906 191.206C29.2859 191.15 29.2922 191.094 29.3091 191.04C29.3261 190.987 29.3534 190.937 29.3895 190.894C29.4255 190.852 29.4697 190.816 29.5193 190.79C29.569 190.765 29.6233 190.749 29.679 190.744C29.7347 190.739 29.7908 190.746 29.8441 190.763C29.8974 190.78 29.9468 190.807 29.9895 190.843C30.0322 190.88 30.0674 190.924 30.0931 190.974C31.334 193.406 32.0905 196.059 32.3201 198.782C32.3247 198.838 32.3183 198.894 32.3011 198.948C32.284 199.001 32.2564 199.051 32.2201 199.094C32.1837 199.137 32.1393 199.172 32.0894 199.197C32.0395 199.223 31.985 199.238 31.9291 199.243L31.8951 199.251Z" fill="#D1D3D4"/>
    <path d="M36.8667 198.986C36.7659 198.987 36.668 198.952 36.5914 198.886C36.5148 198.82 36.4647 198.728 36.4503 198.628C36.1376 196.556 36.2358 194.441 36.7392 192.407C36.7674 192.297 36.8374 192.202 36.9344 192.143C37.0313 192.084 37.1474 192.066 37.2577 192.091C37.366 192.122 37.4584 192.193 37.5154 192.29C37.5725 192.387 37.5898 192.502 37.5637 192.612C37.0872 194.537 36.9948 196.539 37.2917 198.5C37.3065 198.612 37.2776 198.725 37.211 198.816C37.1444 198.906 37.0454 198.968 36.9348 198.986H36.8667Z" fill="#D1D3D4"/>
    <path d="M113.877 199.251C113.766 199.251 113.659 199.207 113.579 199.129C113.5 199.051 113.454 198.945 113.452 198.833C113.415 197.078 113.742 195.334 114.413 193.713C114.448 193.601 114.507 193.498 114.585 193.41C114.662 193.322 114.757 193.25 114.863 193.201C114.97 193.157 115.088 193.144 115.202 193.164C115.316 193.183 115.422 193.235 115.509 193.312C115.588 193.382 115.646 193.472 115.676 193.573C115.706 193.674 115.707 193.782 115.679 193.883C115.644 193.991 115.568 194.081 115.468 194.133C115.368 194.186 115.252 194.197 115.144 194.165C114.545 195.646 114.256 197.235 114.294 198.833C114.296 198.947 114.254 199.057 114.176 199.14C114.098 199.223 113.991 199.272 113.877 199.277V199.251Z" fill="#D1D3D4"/>
    <path d="M245.492 197.877C245.379 197.877 245.271 197.832 245.191 197.752C245.111 197.672 245.067 197.563 245.067 197.45C245.011 195.803 244.872 194.16 244.65 192.527C244.636 192.416 244.665 192.304 244.731 192.214C244.798 192.125 244.897 192.066 245.007 192.049C245.118 192.034 245.231 192.063 245.321 192.13C245.412 192.197 245.473 192.296 245.492 192.407C245.723 194.079 245.865 195.763 245.917 197.45C245.917 197.563 245.872 197.672 245.792 197.752C245.713 197.832 245.604 197.877 245.492 197.877Z" fill="#D1D3D4"/>
    <path d="M248.969 197.399C248.863 197.402 248.76 197.363 248.681 197.292C248.602 197.221 248.553 197.122 248.544 197.015C248.332 194.856 249.828 192.1 249.887 191.981C249.914 191.931 249.95 191.887 249.994 191.852C250.037 191.817 250.088 191.791 250.142 191.776C250.196 191.761 250.252 191.757 250.308 191.764C250.363 191.772 250.417 191.79 250.465 191.819C250.563 191.874 250.635 191.966 250.667 192.074C250.699 192.182 250.687 192.299 250.635 192.399C250.635 192.399 249.199 195.044 249.386 196.93C249.398 197.042 249.365 197.154 249.295 197.242C249.225 197.33 249.123 197.386 249.012 197.399H248.969Z" fill="#D1D3D4"/>
</svg>
