<svg width="495" height="399" viewBox="0 0 495 399" fill="none" xmlns="http://www.w3.org/2000/svg">
    <g clip-path="url(#clip0_2668_1039)">
        <path d="M281.993 352.986C278.57 348.194 273.936 344.688 268.111 343.376C263.032 342.232 257.808 342.427 252.645 342.467L187.356 342.97C181.765 343.013 176.404 347.856 176.663 353.66C176.921 359.415 181.363 364.397 187.356 364.351C206.481 364.203 225.606 364.056 244.731 363.908C249.24 363.874 253.752 363.792 258.261 363.807C259.273 363.81 260.282 363.864 261.293 363.875C261.538 363.878 261.715 363.876 261.84 363.87C261.871 363.88 261.898 363.889 261.939 363.9C262.466 364.045 263.008 364.145 263.539 364.282C263.353 364.288 263.883 364.618 264.149 364.731C264.186 364.803 264.264 364.931 264.394 365.128C264.576 365.469 265.114 366.504 265.136 366.471C265.944 368.515 266.611 370.612 267.132 372.747C268.375 377.455 268.648 378.44 268.827 382.857C269.053 388.438 273.583 393.813 279.52 393.548C285.119 393.297 290.455 388.842 290.213 382.857C289.804 372.772 288.033 361.443 281.993 352.986Z" fill="#E6E6E6"/>
        <path d="M191.194 377.11C189.968 369.68 188.765 362.246 187.515 354.821C186.246 347.288 183.656 340.39 177.792 335.446C176.225 334.125 174.601 332.892 172.97 331.663C172.396 331.231 171.823 330.798 171.257 330.356C171.223 330.33 171.201 330.313 171.172 330.29C171.109 330.237 171.035 330.173 170.934 330.088C168.49 328.02 166.129 325.86 163.88 323.565C161.882 321.526 159.972 319.4 158.149 317.187C157.694 316.635 157.244 316.077 156.8 315.514C156.724 315.418 156.313 314.886 156.042 314.54C155.79 314.193 155.329 313.566 155.252 313.457C154.734 312.724 154.224 311.984 153.724 311.237C150.318 306.136 147.369 300.744 144.911 295.125C144.667 294.567 144.429 294.007 144.197 293.443C144.135 293.271 144.054 293.05 143.947 292.755C143.452 291.394 142.958 290.033 142.505 288.655C141.542 285.728 140.715 282.758 140.023 279.745C139.68 278.257 139.372 276.761 139.098 275.258C138.957 274.485 138.825 273.711 138.702 272.935C138.681 272.806 138.561 271.968 138.491 271.495C138.438 271.02 138.341 270.178 138.328 270.048C138.25 269.265 138.18 268.482 138.12 267.698C137.983 265.934 137.89 264.168 137.842 262.398C137.76 259.252 137.816 256.107 138.011 252.962C138.122 251.195 138.28 249.433 138.475 247.674C138.486 247.566 138.495 247.48 138.504 247.402C138.516 247.324 138.529 247.234 138.546 247.123C138.69 246.151 138.841 245.18 139.01 244.213C139.652 240.538 140.486 236.9 141.509 233.313C141.994 231.616 142.52 229.934 143.088 228.265C143.342 227.524 143.603 226.786 143.872 226.051C143.855 226.098 144.662 224.036 144.673 223.966C147.878 216.397 153.119 209.496 153.126 200.898C153.131 195.076 148.205 189.499 142.433 189.768C139.556 189.876 136.833 191.097 134.838 193.174C132.843 195.25 131.733 198.019 131.74 200.898C131.74 201.028 131.74 201.14 131.739 201.248C131.685 201.43 131.64 201.581 131.6 201.714C130.975 203.072 130.209 204.362 129.524 205.686C127.645 209.31 126.042 213.052 124.519 216.85C122.026 223.034 120.117 229.438 118.819 235.978C115.996 250.307 115.777 265.027 118.172 279.434C122.318 304.698 135.99 328.883 154.998 345.139C156.647 346.55 158.337 347.913 160.043 349.249C160.749 349.801 161.46 350.344 162.176 350.883C162.514 351.138 163.914 352.242 163.298 351.707C164.623 352.837 165.181 353.406 165.521 354.239C165.57 354.431 165.638 354.691 165.729 355.048C165.969 355.987 166.196 356.924 166.386 357.876C168.04 366.195 169.19 374.654 170.572 383.027C171.522 388.78 178.606 392.525 183.726 390.801C189.684 388.793 192.212 383.274 191.194 377.11Z" fill="#E6E6E6"/>
        <path d="M283.074 398.688C278.583 398.699 274.271 396.93 271.084 393.767C267.897 390.604 266.094 386.307 266.072 381.817V369.622C253.302 371.052 209.571 370.72 197.036 368.707V381.329C197.003 385.815 195.197 390.106 192.012 393.266C188.827 396.427 184.522 398.2 180.034 398.2C175.547 398.2 171.242 396.427 168.057 393.266C164.872 390.106 163.066 385.815 163.032 381.329V356.547C146.055 347.117 131.901 333.329 122.033 316.605C112.164 299.881 106.938 280.828 106.895 261.41C106.895 228.117 121.987 197.058 148.302 176.199C165.412 162.591 186.2 154.407 207.997 152.698C210.956 152.466 213.932 152.349 216.845 152.349C227.105 152.349 273.396 153.934 285.011 157.274L311.494 131.002C311.884 130.61 312.381 130.344 312.923 130.236C313.464 130.128 314.026 130.184 314.535 130.396C315.049 130.6 315.489 130.955 315.797 131.414C316.105 131.872 316.267 132.413 316.262 132.966V137.143L321.419 132.037C321.808 131.645 322.305 131.378 322.846 131.27C323.387 131.162 323.948 131.218 324.458 131.43C324.972 131.635 325.412 131.989 325.721 132.448C326.029 132.907 326.192 133.449 326.187 134.002V180.681C339.476 192.659 349.605 207.729 355.675 224.555C361.746 241.382 363.571 259.446 360.988 277.147C358.406 294.847 351.496 311.638 340.871 326.03C330.246 340.422 316.233 351.972 300.076 359.655V381.817C300.054 386.307 298.252 390.604 295.064 393.767C291.877 396.93 287.565 398.699 283.074 398.688ZM267.409 368.107V381.817C267.443 385.948 269.108 389.899 272.042 392.809C274.976 395.718 278.942 397.351 283.074 397.351C287.207 397.351 291.172 395.718 294.106 392.809C297.04 389.899 298.706 385.948 298.739 381.817V358.811L299.121 358.63C317.251 350.029 332.641 336.573 343.584 319.756C357.528 298.296 363.327 272.555 359.932 247.19C356.536 221.826 344.17 198.515 325.072 181.477L324.85 181.277V134.001C324.855 133.714 324.772 133.432 324.611 133.194C324.451 132.956 324.221 132.772 323.954 132.668C323.687 132.554 323.393 132.524 323.109 132.58C322.825 132.636 322.565 132.777 322.362 132.984L314.926 140.348V132.966C314.931 132.679 314.847 132.397 314.687 132.159C314.527 131.92 314.297 131.737 314.029 131.633C313.762 131.519 313.467 131.489 313.183 131.545C312.898 131.602 312.638 131.744 312.435 131.951L285.384 158.786L285 158.666C274.203 155.287 227.183 153.685 216.845 153.685C213.967 153.685 211.025 153.801 208.102 154.031C186.57 155.718 166.034 163.803 149.133 177.246C123.139 197.85 108.231 228.527 108.231 261.41C108.275 280.656 113.473 299.538 123.285 316.096C133.096 332.654 147.163 346.283 164.024 355.569L164.369 355.76V381.329C164.404 385.46 166.069 389.41 169.003 392.319C171.937 395.228 175.902 396.861 180.034 396.861C184.167 396.861 188.131 395.228 191.066 392.319C194 389.41 195.665 385.46 195.7 381.329V367.107L196.491 367.256C207.756 369.375 255.19 369.709 266.654 368.206L267.409 368.107Z" fill="#3F3D56"/>
        <path d="M192.472 79.5879L118.463 101.824C116.109 102.534 114.133 104.149 112.97 106.315C111.806 108.48 111.55 111.019 112.258 113.373C112.965 115.727 114.579 117.704 116.743 118.87C118.908 120.036 121.447 120.295 123.803 119.59L188.568 100.127L189.925 99.7191C190.2 92.7293 192.097 85.8991 195.466 79.7682C195.043 79.5781 194.591 79.4606 194.129 79.4208C193.571 79.3668 193.008 79.4236 192.472 79.5879Z" fill="#FFB6B6"/>
        <path d="M122.522 124.33C121.54 124.328 120.583 124.017 119.787 123.441C118.991 122.866 118.396 122.055 118.086 121.123L113.458 107.161C113.265 106.578 113.188 105.963 113.233 105.35C113.278 104.737 113.443 104.139 113.718 103.591C113.994 103.042 114.375 102.552 114.84 102.151C115.305 101.749 115.844 101.443 116.428 101.25L176.663 81.2925C177.246 81.0992 177.862 81.0227 178.475 81.0673C179.087 81.1118 179.685 81.2766 180.234 81.5522C180.783 81.8278 181.273 82.2088 181.674 82.6734C182.076 83.1381 182.382 83.6773 182.576 84.2603L187.203 98.2219C187.588 99.3702 187.511 100.623 186.988 101.716C186.465 102.808 185.537 103.654 184.401 104.074C184.346 104.095 184.289 104.115 184.233 104.133L123.998 124.09C123.522 124.249 123.024 124.33 122.522 124.33Z" fill="#2F2E41"/>
        <path d="M235.33 54.793C223.173 54.7977 211.495 59.5316 202.767 67.9928C194.039 76.454 188.947 87.9783 188.569 100.127C188.555 100.601 188.549 101.082 188.549 101.563C188.549 110.814 191.292 119.856 196.433 127.547C201.573 135.239 208.88 141.233 217.428 144.773C225.976 148.313 235.382 149.239 244.457 147.435C253.532 145.63 261.868 141.176 268.41 134.635C274.953 128.094 279.408 119.76 281.213 110.688C283.018 101.615 282.092 92.2112 278.551 83.6651C275.01 75.1189 269.014 67.8144 261.321 62.6752C253.628 57.5361 244.583 54.793 235.33 54.793ZM235.33 146.997C223.282 146.985 211.73 142.194 203.21 133.676C194.69 125.158 189.898 113.609 189.885 101.563C189.885 100.942 189.899 100.327 189.926 99.7191C190.287 90.8193 193.258 82.2222 198.468 74.9967C203.678 67.7712 210.898 62.2363 219.229 59.08C227.56 55.9237 236.635 55.2854 245.327 57.2445C254.018 59.2035 261.941 63.6735 268.112 70.0986C274.282 76.5236 278.428 84.6203 280.032 93.3818C281.637 102.143 280.63 111.183 277.137 119.377C273.644 127.571 267.819 134.558 260.386 139.469C252.953 144.379 244.24 146.997 235.33 146.997Z" fill="#3F3D56"/>
        <path d="M274.761 101.563C274.761 112.018 270.607 122.045 263.212 129.438C255.817 136.831 245.788 140.984 235.331 140.984C224.873 140.984 214.844 136.831 207.449 129.438C200.055 122.045 195.9 112.018 195.9 101.563C195.9 100.314 195.96 99.0844 196.074 97.8684C197.024 87.7782 201.825 78.4416 209.48 71.7971C217.134 65.1526 227.054 61.7107 237.181 62.1862C247.307 62.6617 256.861 67.018 263.858 74.3505C270.856 81.683 274.761 91.4284 274.761 101.563Z" fill="#E6E6E6"/>
        <path d="M247.072 104.182C246.116 102.926 244.859 101.931 243.417 101.289C241.638 100.54 239.8 99.9363 237.923 99.4853V88.7548C240.809 89.1898 243.515 90.4234 245.735 92.316L247.914 87.6724C246.661 86.5564 245.223 85.6677 243.664 85.0466C241.936 84.3471 240.122 83.882 238.271 83.6636V78.2249H233.225V83.717C231.277 83.9358 229.397 84.5667 227.711 85.5678C226.189 86.4688 224.907 87.7251 223.975 89.2292C223.086 90.6971 222.626 92.3842 222.646 94.1C222.559 95.9594 223.098 97.7942 224.176 99.3115C225.169 100.625 226.48 101.665 227.985 102.332C229.793 103.103 231.662 103.722 233.572 104.182V114.465C230.167 114.208 226.923 112.914 224.276 110.757L222.098 115.407C223.577 116.63 225.26 117.585 227.07 118.227C229.053 118.936 231.124 119.368 233.225 119.51V124.902H238.271V119.409C241.073 119.103 243.701 117.898 245.762 115.975C246.67 115.105 247.387 114.056 247.868 112.894C248.349 111.733 248.583 110.484 248.556 109.227C248.64 107.427 248.117 105.651 247.072 104.182ZM233.572 98.3494C232.343 97.9768 231.201 97.3636 230.211 96.5454C229.819 96.1965 229.508 95.7652 229.303 95.2823C229.097 94.7994 229.001 94.277 229.021 93.7526C228.985 92.5625 229.422 91.4067 230.237 90.5388C231.141 89.6283 232.307 89.0232 233.572 88.8083V98.3494ZM241.091 112.568C240.238 113.442 239.128 114.02 237.923 114.218V105.372C239.075 105.681 240.153 106.219 241.091 106.955C241.447 107.259 241.729 107.639 241.918 108.067C242.106 108.495 242.196 108.96 242.18 109.427C242.227 110.574 241.837 111.696 241.091 112.568Z" fill="black"/>
        <path d="M124.67 180.915C123.637 180.913 122.633 180.571 121.815 179.941C120.996 179.311 120.408 178.428 120.142 177.43L117.623 167.896C117.307 166.697 117.48 165.423 118.104 164.352C118.727 163.281 119.75 162.5 120.948 162.182L200.437 141.183C201.636 140.87 202.911 141.044 203.982 141.669C205.053 142.293 205.833 143.316 206.152 144.514L208.286 152.591L207.886 152.622C187.5 154.207 167.994 161.597 151.676 173.917L151.56 173.973L125.857 180.761C125.47 180.863 125.071 180.915 124.67 180.915Z" fill="#2F2E41"/>
        <path d="M111.507 228.01C102.182 226.633 93.2643 223.262 85.3609 218.127C81.4454 215.585 77.8207 212.621 74.5517 209.288C71.3252 205.998 68.2385 202.259 66.6404 197.877C65.1028 193.823 65.182 189.333 66.8618 185.336C68.5186 181.364 71.6835 178.21 75.6626 176.567C79.6655 174.971 84.5018 174.8 88.3975 176.548C90.2539 177.361 91.8603 178.654 93.0518 180.293C93.6057 181.049 94.0158 181.9 94.2616 182.804C94.4898 183.623 94.5106 184.487 94.322 185.316C94.0936 186.144 93.6907 186.913 93.1405 187.573C92.5902 188.232 91.9053 188.766 91.1316 189.14C89.4289 190.013 87.5839 190.576 85.6835 190.801C83.772 191.061 81.0262 191.299 79.4896 189.765C79.1733 189.461 78.9245 189.094 78.7594 188.688C78.6439 188.377 78.6044 188.043 78.6442 187.714C78.6218 187.859 78.7369 187.399 78.7303 187.417C78.706 187.485 78.6008 187.651 78.7504 187.396C78.7971 187.312 78.8492 187.231 78.9062 187.153C78.8554 187.219 78.7438 187.329 78.943 187.141C79.1076 186.961 79.3193 186.83 79.5541 186.764C79.6466 186.737 79.7404 186.715 79.8332 186.69C80.0689 186.625 79.5982 186.693 79.8394 186.686C79.9324 186.683 80.0266 186.685 80.1194 186.681C80.356 186.67 79.886 186.616 80.1127 186.673C80.2008 186.695 80.288 186.717 80.3747 186.744C80.5632 186.804 80.2412 186.606 80.3689 186.754C80.5186 186.927 80.2118 186.585 80.3819 186.753C80.4666 186.836 80.5464 186.924 80.621 187.017C80.916 187.308 81.314 187.471 81.7287 187.471C82.1433 187.471 82.5413 187.308 82.8364 187.017C83.1214 186.718 83.2805 186.322 83.2805 185.909C83.2805 185.497 83.1214 185.1 82.8364 184.802C81.2917 182.887 78.2404 183.36 76.6777 184.978C74.6848 187.042 75.474 190.312 77.4126 192.113C79.6071 194.151 82.7152 194.293 85.5381 193.951C87.9238 193.722 90.2487 193.066 92.4011 192.012C94.5398 190.961 96.2125 189.155 97.0953 186.942C97.4939 185.761 97.637 184.509 97.5153 183.269C97.3936 182.028 97.0098 180.828 96.3893 179.747C93.8969 175.062 88.7361 172.661 83.635 172.245C81.0087 172.039 78.3677 172.356 75.8648 173.177C73.3618 173.999 71.0467 175.309 69.0533 177.03C65.2112 180.488 62.8453 185.29 62.4449 190.443C61.9997 195.786 64.073 200.974 67.0959 205.286C70.2604 209.667 74.0368 213.571 78.3097 216.88C86.6632 223.548 96.4618 228.168 106.921 230.371C108.165 230.628 109.416 230.848 110.674 231.031C111.074 231.127 111.496 231.068 111.854 230.865C112.212 230.662 112.479 230.33 112.601 229.937C112.708 229.536 112.654 229.11 112.449 228.749C112.244 228.389 111.906 228.123 111.507 228.01Z" fill="#3F3D56"/>
        <path d="M260.796 159.942C247.134 159.749 233.516 160.096 219.94 160.982C215.3 161.285 211.285 162.924 211.285 165.68C211.285 167.984 215.268 170.684 219.94 170.379C233.509 169.493 247.127 169.146 260.796 169.339C271.939 169.496 271.933 160.099 260.796 159.942Z" fill="#CCCCCC"/>
        <path d="M240.605 168.873C239.128 168.873 204.445 168.818 204.445 164.029C204.445 159.239 239.128 159.184 240.605 159.184C242.081 159.184 276.764 159.239 276.764 164.029C276.764 168.818 242.081 168.873 240.605 168.873ZM205.802 164.029C206.751 165.481 219.499 167.537 240.605 167.537C261.71 167.537 274.459 165.481 275.408 164.029C274.459 162.577 261.71 160.521 240.605 160.521C219.499 160.521 206.751 162.577 205.802 164.029Z" fill="#3F3D56"/>
        <path d="M350.643 294.786C358.321 294.573 367.876 294.306 375.237 288.93C377.429 287.263 379.23 285.138 380.514 282.702C381.798 280.267 382.534 277.58 382.669 274.83C382.82 270.584 381.285 266.878 378.349 264.397C374.504 261.149 368.89 260.387 362.839 262.165L369.108 216.365L364.506 215.735L357.137 269.578L360.979 267.816C365.435 265.773 371.55 264.733 375.351 267.944C376.284 268.783 377.011 269.826 377.475 270.992C377.939 272.158 378.128 273.416 378.028 274.667C377.915 276.713 377.363 278.711 376.408 280.526C375.454 282.34 374.12 283.927 372.497 285.18C366.769 289.363 359.152 289.903 350.514 290.144L350.643 294.786Z" fill="#3F3D56"/>
        <path d="M337.921 220.315H312.904V224.959H337.921V220.315Z" fill="#3F3D56"/>
        <path d="M135.992 202.273C134.878 202.269 133.802 201.869 132.957 201.145C132.111 200.42 131.551 199.419 131.378 198.319L129.851 188.576C129.66 187.351 129.963 186.1 130.694 185.098C131.425 184.096 132.523 183.425 133.748 183.232L214.969 170.508C216.194 170.318 217.446 170.621 218.448 171.352C219.45 172.082 220.121 173.18 220.315 174.405L221.842 184.148C222.032 185.373 221.729 186.624 220.998 187.626C220.268 188.628 219.169 189.3 217.944 189.493L136.724 202.216C136.481 202.254 136.237 202.273 135.992 202.273Z" fill="#2F2E41"/>
        <path d="M102.379 88.0982C121.203 88.0982 136.462 72.8421 136.462 54.0228C136.462 35.2034 121.203 19.9473 102.379 19.9473C83.5547 19.9473 68.2949 35.2034 68.2949 54.0228C68.2949 72.8421 83.5547 88.0982 102.379 88.0982Z" fill="#FFB6B6"/>
        <path d="M121.675 62.8395C122.765 62.4586 123.76 61.849 124.594 61.0515C125.145 60.4829 125.566 59.8006 125.827 59.0524C126.087 58.3042 126.18 57.5081 126.101 56.7199C126.054 56.1581 125.879 55.6147 125.587 55.1321C125.296 54.6494 124.897 54.2406 124.422 53.9377C123.188 53.1793 121.558 53.2079 119.913 53.9706L119.723 40.6693L118.386 40.6883L118.61 56.3254L119.627 55.6583C120.807 54.886 122.502 54.326 123.721 55.076C124.023 55.2745 124.275 55.54 124.457 55.8516C124.639 56.1633 124.747 56.5128 124.773 56.873C124.829 57.4601 124.758 58.0525 124.565 58.6098C124.371 59.1671 124.06 59.6763 123.652 60.1026C122.203 61.5398 120.059 62.0214 117.611 62.4619L117.848 63.7769C119.149 63.5793 120.43 63.2656 121.675 62.8395Z" fill="#2F2E41"/>
        <path d="M133.487 39.7356L126.369 40.8133L126.569 42.1344L133.687 41.0567L133.487 39.7356Z" fill="#2F2E41"/>
        <path d="M111.02 43.1365L103.902 44.2141L104.102 45.5352L111.22 44.4575L111.02 43.1365Z" fill="#2F2E41"/>
        <path d="M124.902 201.677C123.676 201.674 122.48 201.299 121.473 200.6C120.466 199.901 119.696 198.912 119.265 197.765L95.7651 134.847C92.8928 127.13 93.1995 118.589 96.618 111.099C100.036 103.608 106.287 97.7787 113.999 94.8899L133.107 87.7566C133.846 87.4789 134.633 87.3501 135.422 87.3774C136.211 87.4048 136.986 87.5879 137.704 87.9162C138.42 88.236 139.065 88.6954 139.602 89.2673C140.138 89.8393 140.555 90.5125 140.829 91.2474L184.36 173.419C184.643 174.16 184.776 174.949 184.752 175.742C184.728 176.534 184.548 177.314 184.222 178.037C183.895 178.76 183.429 179.411 182.85 179.953C182.271 180.495 181.59 180.917 180.847 181.195L127.004 201.295C126.332 201.547 125.62 201.677 124.902 201.677Z" fill="#2F2E41"/>
        <path d="M127.311 89.9207L170.503 147.666L141.276 90.5268C141.035 89.8601 140.665 89.2475 140.186 88.7239C139.708 88.2004 139.131 87.7762 138.489 87.4755C137.847 87.1748 137.152 87.0036 136.443 86.9716C135.735 86.9396 135.027 87.0474 134.36 87.289L127.311 89.9207Z" fill="#E6E6E6"/>
        <path d="M195.7 133.774L118.58 128.808C117.364 128.73 116.176 128.413 115.083 127.876C113.99 127.338 113.013 126.591 112.209 125.676C111.405 124.761 110.789 123.697 110.396 122.545C110.003 121.392 109.841 120.173 109.92 118.958C109.998 117.742 110.315 116.554 110.852 115.462C111.39 114.369 112.137 113.392 113.052 112.588C113.967 111.785 115.032 111.169 116.185 110.776C117.338 110.383 118.557 110.221 119.772 110.299L196.892 115.266C197.461 115.302 198.018 115.45 198.53 115.702C199.042 115.954 199.499 116.304 199.876 116.732C200.252 117.16 200.541 117.659 200.725 118.199C200.909 118.738 200.985 119.309 200.948 119.878L200.314 129.72C200.24 130.869 199.712 131.942 198.847 132.702C197.981 133.463 196.849 133.848 195.7 133.774Z" fill="#FFB6B6"/>
        <path d="M175.092 136.958C174.991 136.958 174.888 136.955 174.786 136.949L111.46 132.87C110.846 132.831 110.247 132.671 109.696 132.4C109.145 132.129 108.652 131.752 108.246 131.291C107.841 130.83 107.53 130.293 107.332 129.712C107.134 129.13 107.052 128.516 107.092 127.903L108.175 111.093C108.214 110.48 108.374 109.881 108.645 109.33C108.916 108.779 109.293 108.287 109.755 107.881C110.216 107.476 110.753 107.165 111.335 106.967C111.916 106.769 112.531 106.687 113.144 106.727L176.47 110.805C177.708 110.886 178.863 111.454 179.682 112.386C180.501 113.317 180.916 114.535 180.838 115.772L179.755 132.582C179.696 133.483 179.377 134.347 178.838 135.071C178.299 135.796 177.563 136.349 176.717 136.665C176.197 136.859 175.647 136.959 175.092 136.958Z" fill="#2F2E41"/>
        <path d="M101.987 31.3631C106.471 27.5077 112.628 30.9566 117.77 30.3529C122.69 29.7753 126.574 25.3635 127.567 20.6766C128.724 15.2085 125.885 9.73021 121.701 6.32095C117.118 2.58696 111.04 1.51502 105.281 2.20584C98.6792 2.99759 92.642 6.07397 87.2248 9.795C81.9959 13.2754 77.1874 17.3491 72.8952 21.9347C69.0516 26.1785 65.7952 31.237 64.7553 36.9477C63.8103 42.1375 64.5319 47.8886 67.6007 52.2851C69.2279 54.5385 71.4086 56.3346 73.9323 57.5002C76.5638 58.792 79.3707 59.7155 81.9201 61.1761C85.7747 63.3845 89.5211 67.9637 88.3136 72.729C88.0548 73.77 87.5439 74.7313 86.826 75.5285C85.9634 76.4858 84.4076 75.2208 85.2724 74.261C86.7913 72.5752 86.7315 70.327 85.922 68.3143C84.9595 66.0464 83.255 64.1725 81.0878 62.9997C78.4193 61.4744 75.4731 60.5328 72.738 59.1435C70.1201 57.8743 67.8476 55.9915 66.1141 53.6554C62.8406 49.1074 61.8614 43.1883 62.6038 37.7128C63.4072 31.7874 66.4524 26.403 70.2697 21.8908C74.4241 16.9803 79.5271 12.8237 84.7403 9.08956C90.3341 5.08279 96.5141 1.69534 103.353 0.470155C109.281 -0.591889 115.706 0.061972 120.89 3.29169C125.729 6.30642 129.439 11.4924 129.808 17.2871C129.941 19.9237 129.368 22.548 128.149 24.8899C126.93 27.2318 125.109 29.2067 122.874 30.6113C120.58 31.9838 117.912 32.6016 115.248 32.3775C112.4 32.1952 109.549 31.3233 106.683 31.5654C105.386 31.6441 104.15 32.1433 103.163 32.9875C102.183 33.8299 101.015 32.1986 101.987 31.3631Z" fill="#2F2E41"/>
        <path d="M494.204 399H0.795397C0.584751 398.999 0.382947 398.915 0.234213 398.766C0.08548 398.617 0.00195312 398.415 0.00195312 398.204C0.00195312 397.994 0.08548 397.792 0.234213 397.643C0.382947 397.494 0.584751 397.41 0.795397 397.409H494.204C494.415 397.409 494.617 397.493 494.767 397.642C494.916 397.791 495 397.993 495 398.204C495 398.415 494.916 398.618 494.767 398.767C494.617 398.916 494.415 399 494.204 399Z" fill="#3F3D56"/>
    </g>
    <defs>
        <clipPath id="clip0_2668_1039">
            <rect width="495" height="399" fill="white"/>
        </clipPath>
    </defs>
</svg>
