<svg width="434" height="253" viewBox="0 0 434 253" fill="none" xmlns="http://www.w3.org/2000/svg">
    <g opacity="0.1">
        <path d="M319.194 248.347C323.822 248.347 327.574 243.437 327.574 237.38C327.574 231.323 323.822 226.413 319.194 226.413C314.566 226.413 310.814 231.323 310.814 237.38C310.814 243.437 314.566 248.347 319.194 248.347Z" fill="#3F3D56"/>
        <path d="M325.825 190.462C326.999 188.424 327.608 186.11 327.589 183.759C327.589 177.689 323.837 172.792 319.209 172.792C314.581 172.792 310.833 177.701 310.833 183.759C310.809 186.109 311.413 188.423 312.582 190.462C311.435 192.509 310.833 194.817 310.833 197.163C310.833 199.51 311.435 201.817 312.582 203.865C311.435 205.913 310.833 208.22 310.833 210.568C310.833 212.915 311.435 215.223 312.582 217.271C311.413 219.31 310.809 221.624 310.833 223.974C310.833 230.044 314.584 234.941 319.209 234.941C323.833 234.941 327.589 230.032 327.589 223.974C327.612 221.624 327.009 219.31 325.84 217.271C326.986 215.223 327.589 212.915 327.589 210.568C327.589 208.22 326.986 205.913 325.84 203.865C326.987 201.817 327.589 199.51 327.589 197.163C327.589 194.817 326.987 192.509 325.84 190.462H325.825Z" fill="#3F3D56"/>
        <path d="M319.194 181.323C323.822 181.323 327.574 176.413 327.574 170.356C327.574 164.3 323.822 159.389 319.194 159.389C314.566 159.389 310.814 164.3 310.814 170.356C310.814 176.413 314.566 181.323 319.194 181.323Z" fill="#3F3D56"/>
        <path d="M319.194 167.917C323.822 167.917 327.574 163.007 327.574 156.95C327.574 150.893 323.822 145.983 319.194 145.983C314.566 145.983 310.814 150.893 310.814 156.95C310.814 163.007 314.566 167.917 319.194 167.917Z" fill="#3F3D56"/>
        <path d="M350.559 65.2155C351.702 63.7575 352.744 62.2226 353.677 60.6215L331.675 57.0063L355.487 57.1846C357.769 52.2147 359.013 46.8315 359.143 41.3642C359.274 35.8969 358.288 30.4605 356.245 25.3874L324.296 41.9499L353.764 20.3041C351.003 15.5383 347.29 11.3919 342.857 8.12301C338.423 4.85415 333.365 2.5328 327.996 1.30344C322.626 0.0740817 317.062 -0.0369599 311.648 0.977228C306.234 1.99142 301.087 4.10912 296.526 7.19853C291.966 10.2879 288.091 14.2829 285.141 18.9348C282.192 23.5866 280.232 28.7958 279.382 34.238C278.533 39.6803 278.813 45.2391 280.205 50.5684C281.597 55.8977 284.071 60.8835 287.473 65.2155C285.69 67.4835 284.156 69.9369 282.898 72.5331L311.474 87.381L281.005 77.1385C278.861 83.4607 278.328 90.2179 279.454 96.7981C280.58 103.378 283.33 109.574 287.454 114.823C282.798 120.743 279.901 127.853 279.096 135.341C278.29 142.829 279.608 150.393 282.898 157.168C286.188 163.942 291.319 169.654 297.702 173.65C304.086 177.646 311.465 179.766 318.997 179.766C326.528 179.766 333.907 177.646 340.291 173.65C346.675 169.654 351.805 163.942 355.096 157.168C358.386 150.393 359.704 142.829 358.898 135.341C358.092 127.853 355.196 120.743 350.54 114.823C356.104 107.75 359.129 99.0113 359.129 90.0118C359.129 81.0122 356.104 72.2738 350.54 65.2003L350.559 65.2155Z" fill="black"/>
        <path opacity="0.1" d="M278.883 90.0288C278.869 99.0301 281.895 107.772 287.471 114.838C282.815 120.758 279.919 127.868 279.113 135.356C278.307 142.844 279.625 150.408 282.916 157.183C286.206 163.957 291.336 169.669 297.72 173.665C304.104 177.662 311.483 179.781 319.014 179.781C326.546 179.781 333.925 177.662 340.309 173.665C346.692 169.669 351.823 163.957 355.113 157.183C358.404 150.408 359.721 142.844 358.916 135.356C358.11 127.868 355.214 120.758 350.557 114.838C355.937 108.01 278.883 85.5221 278.883 90.0288Z" fill="black"/>
    </g>
    <g opacity="0.1">
        <path d="M84.1649 236.618C86.9807 236.618 89.2634 233.628 89.2634 229.941C89.2634 226.254 86.9807 223.265 84.1649 223.265C81.3491 223.265 79.0664 226.254 79.0664 229.941C79.0664 233.628 81.3491 236.618 84.1649 236.618Z" fill="#3F3D56"/>
        <path d="M88.2212 201.38C88.9329 200.138 89.3008 198.729 89.2872 197.298C89.2872 193.611 87.0111 190.621 84.1849 190.621C81.3587 190.621 79.0864 193.611 79.0864 197.298C79.0716 198.729 79.4382 200.138 80.1486 201.38C79.4522 202.627 79.0867 204.031 79.0867 205.46C79.0867 206.888 79.4522 208.293 80.1486 209.54C79.4522 210.787 79.0867 212.191 79.0867 213.62C79.0867 215.048 79.4522 216.452 80.1486 217.7C79.4377 218.94 79.071 220.348 79.0864 221.778C79.0864 225.469 81.3625 228.458 84.1849 228.458C87.0073 228.458 89.2872 225.469 89.2872 221.778C89.3014 220.348 88.9334 218.94 88.2212 217.7C88.9196 216.453 89.2864 215.048 89.2864 213.62C89.2864 212.191 88.9196 210.786 88.2212 209.54C88.9196 208.293 89.2864 206.889 89.2864 205.46C89.2864 204.031 88.9196 202.626 88.2212 201.38Z" fill="#3F3D56"/>
        <path d="M84.1649 195.815C86.9807 195.815 89.2634 192.825 89.2634 189.138C89.2634 185.451 86.9807 182.461 84.1649 182.461C81.3491 182.461 79.0664 185.451 79.0664 189.138C79.0664 192.825 81.3491 195.815 84.1649 195.815Z" fill="#3F3D56"/>
        <path d="M84.1649 187.655C86.9807 187.655 89.2634 184.666 89.2634 180.978C89.2634 177.291 86.9807 174.302 84.1649 174.302C81.3491 174.302 79.0664 177.291 79.0664 180.978C79.0664 184.666 81.3491 187.655 84.1649 187.655Z" fill="#3F3D56"/>
        <path d="M65.0792 125.13C64.3829 124.243 63.7491 123.309 63.1824 122.334L76.5849 120.134L62.0899 120.244C60.7022 117.22 59.9452 113.945 59.8649 110.619C59.7847 107.292 60.383 103.985 61.6233 100.897L81.0575 110.992L63.1255 97.7903C64.8074 94.8909 67.0679 92.3687 69.7664 90.3805C72.465 88.3923 75.5437 86.9807 78.8112 86.2335C82.0787 85.4862 85.465 85.4194 88.7594 86.037C92.0539 86.6547 95.186 87.9437 97.9609 89.8238C100.736 91.7039 103.094 94.1349 104.889 96.9655C106.684 99.7962 107.878 102.966 108.395 106.278C108.912 109.589 108.743 112.972 107.897 116.215C107.051 119.459 105.546 122.493 103.477 125.13C104.563 126.509 105.496 128.001 106.262 129.58L88.8645 138.624L107.415 132.398C108.718 136.249 109.04 140.363 108.352 144.369C107.665 148.375 105.989 152.146 103.477 155.342C106.311 158.945 108.074 163.274 108.565 167.832C109.055 172.39 108.252 176.995 106.249 181.118C104.246 185.242 101.123 188.719 97.2371 191.152C93.3511 193.584 88.859 194.874 84.2744 194.874C79.6898 194.874 75.1977 193.584 71.3116 191.152C67.4256 188.719 64.3025 185.242 62.2994 181.118C60.2963 176.995 59.494 172.39 59.9842 167.832C60.4744 163.274 62.2374 158.945 65.0716 155.342C61.6849 151.035 59.8438 145.715 59.8438 140.236C59.8438 134.757 61.6849 129.437 65.0716 125.13H65.0792Z" fill="black"/>
        <path opacity="0.1" d="M108.704 140.236C108.712 145.716 106.87 151.039 103.477 155.342C106.311 158.945 108.074 163.274 108.564 167.832C109.054 172.39 108.252 176.995 106.249 181.118C104.246 185.242 101.123 188.719 97.2367 191.152C93.3507 193.584 88.8586 194.874 84.274 194.874C79.6894 194.874 75.1973 193.584 71.3113 191.152C67.4253 188.719 64.3022 185.242 62.299 181.118C60.2959 176.995 59.4936 172.39 59.9838 167.832C60.4741 163.274 62.237 158.945 65.0712 155.342C61.7974 151.203 108.704 137.493 108.704 140.236Z" fill="black"/>
    </g>
    <g opacity="0.1">
        <path d="M199.108 242.429C202.877 242.429 205.932 238.43 205.932 233.496C205.932 228.562 202.877 224.562 199.108 224.562C195.339 224.562 192.283 228.562 192.283 233.496C192.283 238.43 195.339 242.429 199.108 242.429Z" fill="#3F3D56"/>
        <path d="M204.51 195.272C205.461 193.61 205.952 191.724 205.933 189.809C205.933 184.878 202.898 180.876 199.104 180.876C195.311 180.876 192.276 184.878 192.276 189.809C192.256 191.725 192.748 193.611 193.702 195.272C192.767 196.94 192.276 198.821 192.276 200.733C192.276 202.645 192.767 204.526 193.702 206.194C192.767 207.861 192.276 209.741 192.276 211.652C192.276 213.564 192.767 215.444 193.702 217.111C192.748 218.773 192.256 220.659 192.276 222.574C192.276 227.506 195.334 231.508 199.104 231.508C202.875 231.508 205.933 227.506 205.933 222.574C205.952 220.659 205.461 218.774 204.51 217.111C205.443 215.443 205.933 213.564 205.933 211.652C205.933 209.741 205.443 207.862 204.51 206.194C205.443 204.525 205.933 202.645 205.933 200.733C205.933 198.821 205.443 196.941 204.51 195.272Z" fill="#3F3D56"/>
        <path d="M199.108 187.825C202.877 187.825 205.932 183.826 205.932 178.892C205.932 173.958 202.877 169.958 199.108 169.958C195.339 169.958 192.283 173.958 192.283 178.892C192.283 183.826 195.339 187.825 199.108 187.825Z" fill="#3F3D56"/>
        <path d="M199.108 176.904C202.877 176.904 205.932 172.904 205.932 167.97C205.932 163.036 202.877 159.036 199.108 159.036C195.339 159.036 192.283 163.036 192.283 167.97C192.283 172.904 195.339 176.904 199.108 176.904Z" fill="#3F3D56"/>
        <path d="M173.575 93.2381C172.642 92.0516 171.793 90.8018 171.033 89.4977L188.965 86.5539L169.573 86.6981C167.712 82.6495 166.697 78.264 166.589 73.8096C166.482 69.3553 167.284 64.9258 168.947 60.7922L194.97 74.2895L170.969 56.6497C173.211 52.7528 176.233 49.3603 179.846 46.6841C183.459 44.0079 187.584 42.1055 191.965 41.0959C196.347 40.0862 200.889 39.991 205.308 40.8161C209.728 41.6412 213.93 43.3689 217.652 45.8913C221.373 48.4136 224.535 51.6765 226.939 55.4759C229.343 59.2753 230.937 63.5297 231.622 67.9731C232.308 72.4165 232.069 76.9535 230.922 81.3006C229.775 85.6478 227.743 89.7116 224.954 93.2381C226.406 95.0864 227.655 97.0857 228.679 99.2015L205.402 111.295L230.223 102.949C231.967 108.101 232.398 113.607 231.478 118.967C230.558 124.328 228.316 129.375 224.954 133.65C228.747 138.473 231.106 144.265 231.762 150.365C232.418 156.465 231.344 162.626 228.664 168.145C225.983 173.663 221.804 178.316 216.604 181.571C211.403 184.827 205.392 186.553 199.257 186.553C193.122 186.553 187.111 184.827 181.91 181.571C176.71 178.316 172.531 173.663 169.85 168.145C167.17 162.626 166.096 156.465 166.752 150.365C167.408 144.265 169.767 138.473 173.56 133.65C169.028 127.887 166.565 120.768 166.565 113.437C166.565 106.105 169.028 98.9863 173.56 93.2229L173.575 93.2381Z" fill="black"/>
        <path opacity="0.1" d="M231.949 113.454C231.961 120.787 229.496 127.908 224.954 133.665C228.747 138.488 231.106 144.28 231.762 150.38C232.418 156.48 231.344 162.641 228.664 168.16C225.983 173.678 221.804 178.331 216.604 181.586C211.403 184.842 205.392 186.568 199.257 186.568C193.122 186.568 187.111 184.842 181.91 181.586C176.71 178.331 172.531 173.678 169.85 168.16C167.17 162.641 166.096 156.48 166.752 150.38C167.408 144.28 169.767 138.488 173.56 133.665C169.178 128.104 231.949 109.782 231.949 113.454Z" fill="black"/>
    </g>
    <path d="M433.999 241.625C433.999 244.231 414.948 246.614 383.451 248.453C377.722 248.783 371.585 249.098 365.075 249.394C359.45 249.647 353.555 249.886 347.389 250.111C341.416 250.324 335.214 250.521 328.782 250.703C308.472 251.283 286.018 251.701 262.164 251.909C256.376 251.962 250.51 252.003 244.566 252.031C238.375 252.059 232.114 252.071 225.781 252.069C110.784 252.069 17.5664 247.399 17.5664 241.637C17.5664 235.874 110.784 231.204 225.781 231.204C275.29 231.204 320.755 232.073 356.49 233.515L360.397 233.674H360.42C405.434 235.582 433.999 238.454 433.999 241.625Z" fill="#3F3D56"/>
    <path opacity="0.15" d="M433.999 241.625C433.999 244.231 414.948 246.614 383.451 248.453C377.722 248.783 371.585 249.098 365.075 249.394C359.45 249.647 353.555 249.886 347.389 250.111C341.416 250.324 335.214 250.521 328.782 250.703C308.472 251.283 286.018 251.701 262.164 251.909C256.376 251.962 250.51 252.003 244.566 252.031C238.375 252.059 232.114 252.071 225.781 252.069C110.784 252.069 17.5664 247.399 17.5664 241.637C17.5664 235.874 110.784 231.204 225.781 231.204C275.29 231.204 320.755 232.073 356.49 233.515L360.397 233.674H360.42C405.434 235.582 433.999 238.454 433.999 241.625Z" fill="black"/>
    <path d="M416.833 239.789C416.833 241.967 397.782 243.962 366.285 245.479C360.56 245.756 354.418 246.018 347.913 246.265C342.286 246.477 336.39 246.677 330.227 246.864C324.254 247.041 318.051 247.207 311.62 247.361C291.306 247.847 268.852 248.196 244.998 248.37C239.215 248.413 233.349 248.446 227.4 248.469C221.209 248.492 214.949 248.503 208.619 248.503C93.6221 248.503 0.400391 244.599 0.400391 239.778C0.400391 234.956 93.6221 231.053 208.619 231.053C258.124 231.053 303.589 231.777 339.324 232.984L343.231 233.116H343.258C388.287 234.736 416.833 237.122 416.833 239.789Z" fill="black"/>
    <path d="M54.1767 160.531L48.9492 144.526L174.135 143.157L179.264 159.002L54.1767 160.531Z" fill="#3F3D56"/>
    <path opacity="0.15" d="M54.1767 160.531L48.9492 144.526L174.135 143.157L179.264 159.002L54.1767 160.531Z" fill="black"/>
    <path d="M45.8329 160.531L40.6055 144.526L165.791 143.157L170.92 159.002L45.8329 160.531Z" fill="black"/>
    <path d="M259.537 135.938C246.594 135.938 236.393 130.8 228.935 120.525C221.477 110.25 217.748 97.8018 217.748 83.1816C217.748 68.4628 221.354 56.0403 228.567 45.9142C235.78 35.788 245.954 30.73 259.09 30.7401C273.02 30.7401 283.515 36.0751 290.576 46.745C297.637 57.4148 301.169 69.764 301.171 83.7924C301.171 97.7196 297.517 109.894 290.208 120.316C282.899 130.738 272.676 135.946 259.537 135.938ZM259.917 124.379C268.432 124.379 274.796 120.668 279.009 113.245C283.223 105.823 285.329 96.4652 285.329 85.1732C285.329 72.6041 283.173 62.3123 278.862 54.2978C274.55 46.2834 267.936 42.2749 259.021 42.2724C242.077 42.2724 233.605 55.7318 233.605 82.6505C233.605 110.472 242.373 124.382 259.909 124.379H259.917ZM264.181 235.07H245.46L368.02 32.8H386.389L264.181 235.07ZM372.607 237.145C359.469 237.145 349.226 231.961 341.879 221.592C334.533 211.223 330.844 198.774 330.814 184.245C330.814 169.624 334.395 157.251 341.557 147.125C348.719 136.999 358.919 131.941 372.155 131.951C385.986 131.951 396.409 137.286 403.421 147.956C410.434 158.626 413.942 170.974 413.945 184.999C413.945 198.836 410.314 210.988 403.054 221.455C395.793 231.923 385.641 237.153 372.599 237.145H372.607ZM372.827 225.29C381.301 225.29 387.632 221.642 391.817 214.346C396.003 207.05 398.095 197.73 398.095 186.388C398.095 174.249 395.977 164.068 391.741 155.846C387.505 147.625 380.906 143.507 371.943 143.495C354.9 143.495 346.378 156.954 346.378 183.873C346.373 211.487 355.187 225.293 372.819 225.29H372.827Z" fill="#3F3D56"/>
    <path d="M259.537 135.938C246.594 135.938 236.393 130.8 228.935 120.525C221.477 110.25 217.748 97.8018 217.748 83.1816C217.748 68.4628 221.354 56.0403 228.567 45.9142C235.78 35.788 245.954 30.73 259.09 30.7401C273.02 30.7401 283.515 36.0751 290.576 46.745C297.637 57.4148 301.169 69.764 301.171 83.7924C301.171 97.7196 297.517 109.894 290.208 120.316C282.899 130.738 272.676 135.946 259.537 135.938ZM259.917 124.379C268.432 124.379 274.796 120.668 279.009 113.245C283.223 105.823 285.329 96.4652 285.329 85.1732C285.329 72.6041 283.173 62.3123 278.862 54.2978C274.55 46.2834 267.936 42.2749 259.021 42.2724C242.077 42.2724 233.605 55.7318 233.605 82.6505C233.605 110.472 242.373 124.382 259.909 124.379H259.917ZM264.181 235.07H245.46L368.02 32.8H386.389L264.181 235.07ZM372.607 237.145C359.469 237.145 349.226 231.961 341.879 221.592C334.533 211.223 330.844 198.774 330.814 184.245C330.814 169.624 334.395 157.251 341.557 147.125C348.719 136.999 358.919 131.941 372.155 131.951C385.986 131.951 396.409 137.286 403.421 147.956C410.434 158.626 413.942 170.974 413.945 184.999C413.945 198.836 410.314 210.988 403.054 221.455C395.793 231.923 385.641 237.153 372.599 237.145H372.607ZM372.827 225.29C381.301 225.29 387.632 221.642 391.817 214.346C396.003 207.05 398.095 197.73 398.095 186.388C398.095 174.249 395.977 164.068 391.741 155.846C387.505 147.625 380.906 143.507 371.943 143.495C354.9 143.495 346.378 156.954 346.378 183.873C346.373 211.487 355.187 225.293 372.819 225.29H372.827Z" fill="#3F3D56"/>
    <path opacity="0.15" d="M259.537 135.938C246.594 135.938 236.393 130.8 228.935 120.525C221.477 110.25 217.748 97.8018 217.748 83.1816C217.748 68.4628 221.354 56.0403 228.567 45.9142C235.78 35.788 245.954 30.73 259.09 30.7401C273.02 30.7401 283.515 36.0751 290.576 46.745C297.637 57.4148 301.169 69.764 301.171 83.7924C301.171 97.7196 297.517 109.894 290.208 120.316C282.899 130.738 272.676 135.946 259.537 135.938ZM259.917 124.379C268.432 124.379 274.796 120.668 279.009 113.245C283.223 105.823 285.329 96.4652 285.329 85.1732C285.329 72.6041 283.173 62.3123 278.862 54.2978C274.55 46.2834 267.936 42.2749 259.021 42.2724C242.077 42.2724 233.605 55.7318 233.605 82.6505C233.605 110.472 242.373 124.382 259.909 124.379H259.917ZM264.181 235.07H245.46L368.02 32.8H386.389L264.181 235.07ZM372.607 237.145C359.469 237.145 349.226 231.961 341.879 221.592C334.533 211.223 330.844 198.774 330.814 184.245C330.814 169.624 334.395 157.251 341.557 147.125C348.719 136.999 358.919 131.941 372.155 131.951C385.986 131.951 396.409 137.286 403.421 147.956C410.434 158.626 413.942 170.974 413.945 184.999C413.945 198.836 410.314 210.988 403.054 221.455C395.793 231.923 385.641 237.153 372.599 237.145H372.607ZM372.827 225.29C381.301 225.29 387.632 221.642 391.817 214.346C396.003 207.05 398.095 197.73 398.095 186.388C398.095 174.249 395.977 164.068 391.741 155.846C387.505 147.625 380.906 143.507 371.943 143.495C354.9 143.495 346.378 156.954 346.378 183.873C346.373 211.487 355.187 225.293 372.819 225.29H372.827Z" fill="black"/>
    <path d="M247.778 135.938C234.834 135.938 224.633 130.8 217.175 120.525C209.717 110.25 205.988 97.8018 205.988 83.1816C205.988 68.4628 209.595 56.0403 216.807 45.9142C224.02 35.788 234.194 30.73 247.33 30.7401C261.26 30.7401 271.755 36.0751 278.816 46.745C285.877 57.4148 289.409 69.764 289.411 83.7924C289.411 97.7196 285.757 109.894 278.448 120.316C271.139 130.738 260.916 135.946 247.778 135.938ZM248.157 124.379C256.672 124.379 263.036 120.668 267.25 113.245C271.463 105.823 273.57 96.4652 273.57 85.1732C273.57 72.6041 271.414 62.3123 267.102 54.2978C262.79 46.2834 256.176 42.2749 247.262 42.2724C230.317 42.2724 221.845 55.7318 221.845 82.6505C221.845 110.472 230.613 124.382 248.149 124.379H248.157ZM252.421 235.07H233.7L356.261 32.8H374.629L252.421 235.07ZM360.847 237.145C347.709 237.145 337.466 231.961 330.12 221.592C322.773 211.223 319.084 198.774 319.054 184.245C319.054 169.624 322.635 157.251 329.797 147.125C336.959 136.999 347.159 131.941 360.396 131.951C374.227 131.951 384.649 137.286 391.662 147.956C398.675 158.626 402.182 170.974 402.185 184.999C402.185 198.836 398.555 210.988 391.294 221.455C384.033 231.923 373.882 237.153 360.839 237.145H360.847ZM361.067 225.29C369.542 225.29 375.872 221.642 380.057 214.346C384.243 207.05 386.336 197.73 386.336 186.388C386.336 174.249 384.218 164.068 379.981 155.846C375.745 147.625 369.143 143.507 360.176 143.495C343.133 143.495 334.611 156.954 334.611 183.873C334.611 211.487 343.427 225.293 361.059 225.29H361.067Z" fill="black"/>
    <path d="M288.734 240.146C290.297 237.247 288.522 233.697 286.481 231.109C284.44 228.522 281.952 225.836 282.005 222.54C282.081 217.809 287.103 215.014 291.109 212.502C294.089 210.641 296.836 208.433 299.296 205.924C300.325 204.958 301.177 203.818 301.811 202.556C302.641 200.704 302.615 198.599 302.569 196.573C302.395 189.816 302.061 183.068 301.568 176.331" stroke="#3F3D56" stroke-width="4" stroke-miterlimit="10"/>
    <path d="M309.2 175.959C309.143 174.723 308.775 173.522 308.132 172.465C307.488 171.408 306.588 170.53 305.516 169.913L303.862 173.183L303.912 169.222C303.123 168.992 302.301 168.893 301.48 168.93C300.021 168.998 298.616 169.498 297.441 170.365C296.267 171.232 295.376 172.428 294.881 173.801C294.386 175.175 294.309 176.664 294.66 178.081C295.012 179.499 295.776 180.78 296.855 181.763C297.935 182.746 299.282 183.386 300.725 183.604C302.169 183.821 303.645 183.606 304.966 182.985C306.287 182.364 307.395 181.365 308.148 180.114C308.902 178.864 309.268 177.418 309.2 175.959Z" fill="black"/>
    <path d="M296.037 225.935C295.262 227.44 293.993 228.633 292.444 229.314C290.894 229.995 289.157 230.122 287.525 229.674C285.893 229.227 284.464 228.232 283.478 226.856C282.492 225.48 282.01 223.807 282.111 222.117C282.212 220.427 282.891 218.824 284.035 217.576C285.178 216.327 286.715 215.51 288.39 215.261C290.064 215.012 291.773 215.345 293.23 216.207C294.687 217.068 295.804 218.404 296.393 219.991L291.78 223.742L296.864 222.559C296.861 223.734 296.578 224.892 296.037 225.935Z" fill="black"/>
    <path d="M292.389 211.592C291.42 211.637 290.453 211.491 289.54 211.163C288.628 210.834 287.79 210.329 287.073 209.676C286.356 209.023 285.775 208.236 285.362 207.358C284.95 206.481 284.714 205.531 284.669 204.562C284.612 203.406 284.83 202.253 285.306 201.198C285.747 200.211 286.399 199.334 287.216 198.627C288.032 197.92 288.994 197.4 290.033 197.104L289.991 200.139L291.664 196.831C293.62 196.74 295.532 197.429 296.98 198.747C298.428 200.065 299.293 201.905 299.384 203.861C299.476 205.817 298.787 207.729 297.468 209.176C296.15 210.624 294.311 211.489 292.355 211.58L292.389 211.592Z" fill="black"/>
    <path d="M310.311 199.669C309.331 199.734 308.348 199.603 307.419 199.283C306.491 198.964 305.635 198.463 304.902 197.809C304.17 197.154 303.575 196.361 303.153 195.474C302.731 194.587 302.49 193.625 302.444 192.644C302.398 191.663 302.548 190.683 302.885 189.761C303.223 188.839 303.741 187.993 304.409 187.273C305.078 186.554 305.883 185.974 306.777 185.57C307.672 185.165 308.639 184.943 309.62 184.916C311 184.849 312.371 185.174 313.573 185.853L312.268 189.426L314.954 186.851C316.396 188.164 317.257 189.997 317.348 191.945C317.381 192.629 317.318 193.313 317.158 193.979C316.791 195.543 315.924 196.944 314.688 197.971C313.453 198.998 311.916 199.594 310.311 199.669Z" fill="black"/>
    <path opacity="0.1" d="M308.206 177.928C306.503 178.114 304.849 178.645 303.138 178.752C301.427 178.858 299.549 178.448 298.468 177.117C297.884 176.403 297.596 175.497 297.102 174.715C296.637 173.988 295.998 173.387 295.244 172.966C294.77 173.902 294.501 174.928 294.454 175.976C294.408 177.024 294.586 178.069 294.975 179.043C295.365 180.017 295.957 180.897 296.714 181.624C297.47 182.351 298.372 182.908 299.361 183.259C300.349 183.61 301.401 183.746 302.446 183.658C303.491 183.57 304.506 183.261 305.422 182.751C306.338 182.24 307.135 181.54 307.76 180.698C308.385 179.855 308.822 178.889 309.044 177.864C308.764 177.879 308.487 177.898 308.206 177.928Z" fill="black"/>
    <path opacity="0.1" d="M310.31 199.669C309.038 199.727 307.773 199.455 306.636 198.88C305.5 198.305 304.532 197.446 303.825 196.386C303.119 195.327 302.698 194.103 302.604 192.833C302.51 191.563 302.746 190.29 303.288 189.138C303.873 189.534 304.377 190.039 304.772 190.625C305.299 191.418 305.618 192.336 306.236 193.064C307.374 194.419 309.35 194.859 311.13 194.779C312.909 194.699 314.631 194.191 316.406 194.02C316.653 193.998 316.903 193.982 317.165 193.975C316.798 195.541 315.93 196.944 314.693 197.972C313.456 199 311.917 199.596 310.31 199.669Z" fill="black"/>
    <path opacity="0.1" d="M292.389 211.592C291.42 211.637 290.453 211.491 289.54 211.163C288.628 210.834 287.79 210.329 287.073 209.676C286.356 209.023 285.775 208.236 285.362 207.358C284.95 206.481 284.714 205.531 284.669 204.562C284.612 203.406 284.83 202.253 285.306 201.198C285.915 201.603 286.444 202.118 286.866 202.715C287.438 203.523 287.799 204.456 288.47 205.204C289.715 206.588 291.809 207.078 293.694 207.032C295.579 206.987 297.283 206.546 299.1 206.406C298.649 207.855 297.763 209.13 296.563 210.058C295.362 210.986 293.905 211.522 292.389 211.592Z" fill="black"/>
    <path opacity="0.1" d="M296.036 225.935C295.177 227.623 293.702 228.917 291.916 229.548C290.13 230.179 288.17 230.099 286.441 229.325C284.712 228.552 283.346 227.143 282.627 225.39C281.908 223.638 281.89 221.676 282.576 219.911C283.184 220.311 283.73 220.798 284.196 221.356C284.898 222.214 285.361 223.185 286.173 223.981C287.69 225.461 290.118 226.072 292.288 226.129C293.54 226.139 294.791 226.074 296.036 225.935Z" fill="black"/>
    <path d="M402.92 239.766C404.483 236.868 402.708 233.317 400.667 230.73C398.626 228.143 396.137 225.457 396.19 222.161C396.266 217.43 401.289 214.634 405.295 212.123C408.274 210.262 411.022 208.054 413.481 205.545C414.511 204.579 415.362 203.438 415.996 202.176C416.827 200.325 416.8 198.22 416.755 196.194C416.58 189.437 416.247 182.689 415.753 175.952" stroke="#3F3D56" stroke-width="4" stroke-miterlimit="10"/>
    <path d="M423.385 175.58C423.328 174.344 422.961 173.142 422.317 172.085C421.673 171.029 420.774 170.151 419.702 169.533L418.048 172.803L418.097 168.843C417.308 168.612 416.487 168.514 415.665 168.551C414.207 168.619 412.802 169.118 411.627 169.985C410.452 170.853 409.561 172.048 409.066 173.422C408.571 174.796 408.495 176.285 408.846 177.702C409.198 179.119 409.961 180.4 411.041 181.383C412.12 182.366 413.467 183.007 414.911 183.225C416.355 183.442 417.83 183.227 419.152 182.606C420.473 181.984 421.58 180.985 422.334 179.735C423.088 178.484 423.453 177.039 423.385 175.58Z" fill="black"/>
    <path d="M410.222 225.556C409.447 227.061 408.179 228.254 406.629 228.935C405.08 229.615 403.343 229.743 401.71 229.295C400.078 228.847 398.649 227.852 397.663 226.476C396.678 225.1 396.195 223.427 396.296 221.737C396.398 220.048 397.077 218.444 398.22 217.196C399.363 215.948 400.901 215.131 402.575 214.881C404.249 214.632 405.958 214.966 407.416 215.827C408.873 216.688 409.99 218.025 410.579 219.611L405.966 223.363L411.049 222.18C411.047 223.355 410.763 224.513 410.222 225.556Z" fill="black"/>
    <path d="M406.576 211.212C405.608 211.258 404.64 211.112 403.728 210.783C402.816 210.455 401.977 209.949 401.261 209.297C400.544 208.644 399.962 207.856 399.55 206.979C399.138 206.102 398.902 205.152 398.857 204.183C398.799 203.027 399.018 201.873 399.494 200.818C399.935 199.832 400.587 198.955 401.403 198.247C402.22 197.54 403.182 197.021 404.221 196.725L404.179 199.76L405.852 196.452H405.871C406.839 196.407 407.807 196.552 408.719 196.881C409.631 197.21 410.47 197.715 411.187 198.368C411.903 199.021 412.485 199.808 412.897 200.685C413.31 201.563 413.545 202.513 413.591 203.481C413.636 204.45 413.49 205.418 413.161 206.33C412.833 207.242 412.328 208.08 411.675 208.797C411.022 209.514 410.234 210.095 409.357 210.508C408.48 210.92 407.53 211.156 406.561 211.201L406.576 211.212Z" fill="black"/>
    <path d="M424.496 199.289C423.517 199.355 422.533 199.224 421.605 198.904C420.676 198.585 419.82 198.083 419.088 197.429C418.355 196.775 417.761 195.981 417.338 195.095C416.916 194.208 416.675 193.246 416.629 192.265C416.583 191.284 416.733 190.304 417.071 189.381C417.409 188.459 417.927 187.613 418.595 186.894C419.263 186.174 420.068 185.595 420.963 185.19C421.858 184.785 422.824 184.563 423.806 184.536C425.186 184.469 426.556 184.794 427.759 185.474L426.454 189.047L429.14 186.471C430.581 187.785 431.442 189.618 431.533 191.566C431.567 192.249 431.503 192.934 431.344 193.599C430.977 195.163 430.11 196.565 428.874 197.592C427.638 198.619 426.101 199.215 424.496 199.289Z" fill="black"/>
    <path opacity="0.1" d="M422.392 177.549C420.688 177.735 419.034 178.266 417.323 178.372C415.613 178.478 413.735 178.069 412.654 176.737C412.069 176.024 411.781 175.117 411.288 174.336C410.822 173.608 410.184 173.007 409.429 172.587C408.955 173.523 408.686 174.549 408.64 175.596C408.594 176.644 408.771 177.69 409.161 178.664C409.55 179.638 410.143 180.517 410.899 181.244C411.655 181.971 412.558 182.528 413.546 182.879C414.535 183.23 415.587 183.366 416.632 183.278C417.677 183.191 418.691 182.882 419.608 182.371C420.524 181.861 421.321 181.161 421.946 180.318C422.57 179.475 423.008 178.509 423.23 177.484C422.949 177.5 422.672 177.518 422.392 177.549Z" fill="black"/>
    <path opacity="0.1" d="M424.496 199.289C423.224 199.347 421.958 199.076 420.822 198.501C419.686 197.925 418.717 197.066 418.011 196.007C417.304 194.947 416.884 193.723 416.79 192.453C416.696 191.183 416.931 189.911 417.474 188.759C418.059 189.155 418.562 189.66 418.957 190.246C419.484 191.039 419.803 191.957 420.421 192.685C421.56 194.039 423.536 194.479 425.315 194.4C427.094 194.32 428.817 193.812 430.592 193.641C430.838 193.618 431.089 193.603 431.351 193.595C430.984 195.161 430.116 196.565 428.879 197.593C427.641 198.62 426.102 199.216 424.496 199.289Z" fill="black"/>
    <path opacity="0.1" d="M406.576 211.212C405.608 211.258 404.64 211.112 403.728 210.783C402.816 210.455 401.977 209.949 401.261 209.297C400.544 208.644 399.962 207.856 399.55 206.979C399.138 206.102 398.902 205.152 398.857 204.183C398.799 203.027 399.018 201.873 399.494 200.818C400.103 201.224 400.631 201.738 401.053 202.336C401.626 203.144 401.986 204.077 402.658 204.824C403.902 206.209 405.996 206.698 407.881 206.653C409.71 206.615 411.47 206.167 413.287 206.027C412.837 207.476 411.951 208.751 410.75 209.679C409.55 210.607 408.092 211.142 406.576 211.212Z" fill="black"/>
    <path opacity="0.1" d="M410.219 225.556C409.36 227.244 407.885 228.537 406.099 229.168C404.313 229.799 402.353 229.72 400.624 228.946C398.895 228.172 397.53 226.763 396.811 225.011C396.091 223.259 396.073 221.297 396.76 219.532C397.368 219.932 397.914 220.419 398.38 220.977C399.082 221.834 399.544 222.805 400.356 223.602C401.874 225.082 404.302 225.692 406.471 225.749C407.723 225.759 408.975 225.695 410.219 225.556Z" fill="black"/>
    <path d="M42.1033 234.835C40.5404 231.936 42.3158 228.386 44.3567 225.799C46.3976 223.211 48.8861 220.526 48.833 217.229C48.7572 212.499 43.7346 209.703 39.7286 207.191C36.7493 205.33 34.0013 203.122 31.5422 200.613C30.5124 199.647 29.661 198.507 29.0271 197.245C28.1963 195.394 28.2229 193.288 28.2684 191.262C28.4429 184.505 28.7767 177.758 29.2699 171.02" stroke="#3F3D56" stroke-width="4" stroke-miterlimit="10"/>
    <path d="M21.637 170.649C21.694 169.412 22.0613 168.211 22.7051 167.154C23.3488 166.097 24.2483 165.219 25.3205 164.602L26.9744 167.872L26.9251 163.911C27.7141 163.681 28.5357 163.582 29.3568 163.619C30.8152 163.688 32.2206 164.187 33.3952 165.054C34.5699 165.921 35.461 167.117 35.956 168.49C36.451 169.864 36.5276 171.353 36.1761 172.771C35.8246 174.188 35.0608 175.469 33.9813 176.452C32.9017 177.435 31.555 178.075 30.1113 178.293C28.6676 178.511 27.1917 178.295 25.8704 177.674C24.5491 177.053 23.4417 176.054 22.6882 174.803C21.9346 173.553 21.5688 172.107 21.637 170.649Z" fill="black"/>
    <path d="M34.7996 220.624C35.5742 222.129 36.8427 223.322 38.3924 224.003C39.9421 224.684 41.6788 224.811 43.3112 224.363C44.9436 223.916 46.3725 222.921 47.3582 221.545C48.344 220.169 48.8266 218.495 48.7253 216.806C48.6239 215.116 47.9447 213.513 46.8015 212.265C45.6584 211.016 44.1208 210.199 42.4466 209.95C40.7724 209.7 39.0634 210.034 37.6062 210.896C36.149 211.757 35.0322 213.093 34.4431 214.68L39.056 218.431L33.9727 217.248C33.9748 218.423 34.2583 219.581 34.7996 220.624Z" fill="black"/>
    <path d="M38.4447 206.281C39.4132 206.326 40.3811 206.181 41.2932 205.852C42.2053 205.523 43.0437 205.018 43.7606 204.365C44.4775 203.713 45.0587 202.925 45.4712 202.048C45.8837 201.17 46.1193 200.22 46.1645 199.252C46.222 198.095 46.0035 196.942 45.5272 195.887C45.0862 194.901 44.4345 194.023 43.6178 193.316C42.8012 192.609 41.8396 192.089 40.8005 191.794L40.8422 194.828L39.1693 191.521C37.2134 191.429 35.3013 192.118 33.8536 193.436C32.4058 194.755 31.541 196.594 31.4495 198.55C31.3579 200.506 32.0471 202.418 33.3654 203.866C34.6836 205.313 36.523 206.178 38.4789 206.27L38.4447 206.281Z" fill="black"/>
    <path d="M20.5261 194.358C21.5061 194.423 22.4891 194.292 23.4178 193.973C24.3465 193.653 25.2022 193.152 25.9347 192.498C26.6673 191.844 27.2621 191.05 27.6842 190.163C28.1064 189.277 28.3475 188.315 28.3934 187.334C28.4393 186.353 28.2891 185.372 27.9516 184.45C27.6141 183.528 27.0961 182.682 26.4278 181.962C25.7595 181.243 24.9544 180.664 24.0596 180.259C23.1648 179.854 22.1983 179.632 21.2165 179.605C19.8433 179.542 18.4798 179.866 17.2827 180.542L18.5876 184.116L15.8829 181.551C14.4441 182.862 13.5834 184.69 13.4892 186.635C13.4556 187.318 13.5194 188.002 13.6788 188.668C14.046 190.232 14.9131 191.634 16.1488 192.661C17.3844 193.687 18.9212 194.283 20.5261 194.358Z" fill="black"/>
    <path opacity="0.1" d="M22.6313 172.617C24.3346 172.803 25.9886 173.334 27.6995 173.441C29.4103 173.547 31.2881 173.137 32.3693 171.806C32.9535 171.092 33.2418 170.186 33.7349 169.404C34.2007 168.677 34.8393 168.076 35.5938 167.656C36.0676 168.591 36.3367 169.617 36.3829 170.665C36.4292 171.713 36.2517 172.759 35.8621 173.732C35.4726 174.706 34.88 175.586 34.1238 176.313C33.3676 177.04 32.4653 177.597 31.4768 177.948C30.4883 178.299 29.4364 178.435 28.3912 178.347C27.346 178.259 26.3315 177.95 25.4152 177.44C24.499 176.929 23.702 176.229 23.0774 175.387C22.4528 174.544 22.0149 173.578 21.793 172.553C22.0737 172.568 22.3506 172.587 22.6313 172.617Z" fill="black"/>
    <path opacity="0.1" d="M20.5268 194.358C21.7989 194.416 23.0644 194.144 24.2006 193.569C25.3367 192.994 26.305 192.135 27.0115 191.075C27.7179 190.016 28.1386 188.792 28.2327 187.522C28.3268 186.252 28.0911 184.979 27.5485 183.827C26.9637 184.224 26.4602 184.728 26.0653 185.314C25.538 186.107 25.2193 187.025 24.601 187.753C23.4629 189.108 21.4865 189.548 19.7074 189.468C17.9282 189.388 16.2059 188.88 14.4306 188.709C14.184 188.687 13.9336 188.671 13.6719 188.664C14.0386 190.23 14.9066 191.633 16.1438 192.661C17.3811 193.689 18.92 194.285 20.5268 194.358Z" fill="black"/>
    <path opacity="0.1" d="M38.4451 206.281C39.4136 206.326 40.3815 206.181 41.2936 205.852C42.2057 205.523 43.0441 205.018 43.761 204.365C44.4778 203.712 45.0591 202.925 45.4716 202.048C45.884 201.17 46.1196 200.22 46.1649 199.252C46.2223 198.095 46.0039 196.942 45.5276 195.887C44.9189 196.292 44.3903 196.807 43.9685 197.404C43.3956 198.212 43.0352 199.145 42.3638 199.893C41.1195 201.277 39.0255 201.767 37.1401 201.721C35.3117 201.683 33.5515 201.236 31.7344 201.095C32.1848 202.544 33.0706 203.819 34.2713 204.747C35.472 205.675 36.9293 206.211 38.4451 206.281Z" fill="black"/>
    <path opacity="0.1" d="M34.8008 220.624C35.6598 222.313 37.1349 223.606 38.9209 224.237C40.7069 224.868 42.6671 224.788 44.396 224.015C46.1249 223.241 47.4902 221.832 48.2095 220.08C48.9287 218.327 48.9469 216.366 48.2602 214.6C47.6524 215 47.1067 215.487 46.6403 216.046C45.9385 216.903 45.4757 217.874 44.6639 218.671C43.1465 220.15 40.7187 220.761 38.5488 220.818C37.2967 220.828 36.0451 220.763 34.8008 220.624Z" fill="black"/>
    <path d="M119.439 223.792L124.492 220.822C123.809 219.654 122.936 218.609 121.909 217.73L112.379 220.693L119.845 216.303C117.996 215.291 115.916 214.778 113.808 214.813C111.701 214.849 109.639 215.433 107.826 216.507C106.013 217.582 104.51 219.11 103.467 220.941C102.423 222.773 101.875 224.844 101.875 226.952C101.875 233.655 107.311 233.886 114.014 233.886C120.717 233.886 126.153 233.655 126.153 226.952C126.157 225.253 125.802 223.572 125.11 222.02L119.439 223.792Z" fill="black"/>
    <path opacity="0.1" d="M120.725 230.309C120.187 229.77 119.586 229.297 118.934 228.902C118.02 228.291 117.068 227.669 115.987 227.464C115.038 227.282 114.06 227.437 113.092 227.381C111.413 227.278 109.832 226.553 108.658 225.347C107.967 224.634 107.425 223.758 106.594 223.211C105.666 222.66 104.57 222.459 103.506 222.646C103.198 222.689 102.893 222.751 102.592 222.832C102.116 224.154 101.874 225.547 101.875 226.952C101.875 233.655 107.311 233.886 114.014 233.886C117.269 233.886 120.22 233.833 122.402 233.01L122.022 232.331C121.678 231.605 121.242 230.925 120.725 230.309Z" fill="black"/>
</svg>
