<svg width="16" height="13" viewBox="0 0 16 13" fill="none" xmlns="http://www.w3.org/2000/svg">
    <path d="M12.9619 2.2874H11.9859L11.7419 1.52494C11.5837 1.07755 11.2903 0.690429 10.9024 0.417206C10.5144 0.143984 10.0511 -0.0018123 9.57653 1.70057e-05H5.67272C5.19355 0.000913441 4.72676 0.152268 4.33823 0.432718C3.94971 0.713169 3.65906 1.10855 3.50733 1.56307L3.26334 2.32553H2.28739C1.68073 2.32553 1.09893 2.56652 0.66996 2.99549C0.240992 3.42446 0 4.00626 0 4.61291V10.7126C0 11.3193 0.240992 11.9011 0.66996 12.33C1.09893 12.759 1.68073 13 2.28739 13H12.9619C13.5685 13 14.1503 12.759 14.5793 12.33C15.0083 11.9011 15.2492 11.3193 15.2492 10.7126V4.61291C15.2543 4.30934 15.1989 4.00779 15.0862 3.72586C14.9735 3.44392 14.8058 3.18724 14.5929 2.97079C14.38 2.75433 14.1261 2.58242 13.8461 2.46509C13.5661 2.34777 13.2655 2.28736 12.9619 2.2874ZM13.7243 10.6745C13.7243 10.8767 13.644 11.0706 13.501 11.2136C13.358 11.3566 13.1641 11.437 12.9619 11.437H2.28739C2.08517 11.437 1.89123 11.3566 1.74825 11.2136C1.60526 11.0706 1.52492 10.8767 1.52492 10.6745V4.57479C1.52492 4.37257 1.60526 4.17864 1.74825 4.03565C1.89123 3.89266 2.08517 3.81233 2.28739 3.81233H3.81231C3.97858 3.82101 4.14312 3.77502 4.2808 3.6814C4.41847 3.58778 4.52172 3.45167 4.57477 3.29385L4.9865 2.04342C5.03765 1.89198 5.13511 1.76044 5.26509 1.6674C5.39506 1.57436 5.551 1.52453 5.71084 1.52494H9.61465C9.7745 1.52453 9.93043 1.57436 10.0604 1.6674C10.1904 1.76044 10.2878 1.89198 10.339 2.04342L10.7507 3.29385C10.7996 3.43929 10.8913 3.56658 11.0137 3.65908C11.1362 3.75158 11.2837 3.80499 11.4369 3.81233H12.9619C13.1641 3.81233 13.358 3.89266 13.501 4.03565C13.644 4.17864 13.7243 4.37257 13.7243 4.57479V10.6745ZM7.62462 3.81233C7.02142 3.81233 6.43176 3.9912 5.93022 4.32632C5.42867 4.66144 5.03777 5.13776 4.80693 5.69505C4.57609 6.25234 4.5157 6.86556 4.63338 7.45717C4.75106 8.04879 5.04153 8.59222 5.46805 9.01875C5.89458 9.44528 6.43801 9.73575 7.02963 9.85343C7.62124 9.9711 8.23446 9.91071 8.79175 9.67987C9.34904 9.44904 9.82536 9.05813 10.1605 8.55658C10.4956 8.05504 10.6745 7.46538 10.6745 6.86218C10.6745 6.05331 10.3532 5.27757 9.78119 4.70561C9.20924 4.13365 8.43349 3.81233 7.62462 3.81233ZM7.62462 8.3871C7.32302 8.3871 7.02819 8.29767 6.77742 8.13011C6.52665 7.96255 6.33119 7.72438 6.21578 7.44574C6.10036 7.1671 6.07016 6.86049 6.129 6.56468C6.18784 6.26887 6.33308 5.99716 6.54634 5.78389C6.7596 5.57063 7.03132 5.42539 7.32713 5.36655C7.62293 5.30771 7.92954 5.33791 8.20819 5.45333C8.48683 5.56875 8.72499 5.7642 8.89255 6.01498C9.06011 6.26575 9.14955 6.56058 9.14955 6.86218C9.14955 7.26661 8.98889 7.65448 8.70291 7.94046C8.41693 8.22644 8.02906 8.3871 7.62462 8.3871Z" fill="black"/>
</svg>
