<svg width="20" height="18" viewBox="0 0 20 18" fill="none" xmlns="http://www.w3.org/2000/svg">
    <path d="M16.657 17.5H2.92118C2.53826 17.4859 2.16219 17.4035 1.81448 17.2575C1.46676 17.1116 1.15423 16.905 0.894761 16.6496C0.635293 16.3942 0.433984 16.0949 0.302351 15.769C0.170719 15.443 0.111347 15.0968 0.127634 14.75V11.75C0.127634 11.5511 0.214882 11.3603 0.370186 11.2197C0.525489 11.079 0.736126 11 0.955759 11C1.17539 11 1.38603 11.079 1.54133 11.2197C1.69664 11.3603 1.78388 11.5511 1.78388 11.75V14.75C1.75537 15.0469 1.85416 15.3424 2.05974 15.5751C2.26532 15.8079 2.56193 15.96 2.88805 16H16.657C16.9831 15.96 17.2797 15.8079 17.4853 15.5751C17.6909 15.3424 17.7897 15.0469 17.7612 14.75V11.75C17.7612 11.5511 17.8484 11.3603 18.0037 11.2197C18.159 11.079 18.3697 11 18.5893 11C18.8089 11 19.0196 11.079 19.1749 11.2197C19.3302 11.3603 19.4174 11.5511 19.4174 11.75V14.75C19.4505 15.4454 19.179 16.1244 18.6621 16.6394C18.1451 17.1545 17.4245 17.4637 16.657 17.5Z" fill="#1E293B"/>
    <path d="M9.78859 12.5C9.67978 12.5004 9.57197 12.4812 9.47148 12.4434C9.37099 12.4057 9.27984 12.3501 9.20338 12.28L4.78671 8.27997C4.64043 8.13779 4.5608 7.94975 4.56458 7.75545C4.56837 7.56115 4.65528 7.37576 4.80701 7.23835C4.95873 7.10093 5.16343 7.02222 5.37797 7.01879C5.59251 7.01537 5.80014 7.08749 5.95713 7.21997L9.78859 10.69L13.62 7.21997C13.777 7.08749 13.9847 7.01537 14.1992 7.01879C14.4137 7.02222 14.6184 7.10093 14.7702 7.23835C14.9219 7.37576 15.0088 7.56115 15.0126 7.75545C15.0164 7.94975 14.9367 8.13779 14.7905 8.27997L10.3738 12.28C10.2973 12.3501 10.2062 12.4057 10.1057 12.4434C10.0052 12.4812 9.89739 12.5004 9.78859 12.5Z" fill="#1E293B"/>
    <path d="M9.78906 12.5C9.57032 12.4974 9.36134 12.4176 9.20665 12.2775C9.05196 12.1374 8.9638 11.9481 8.96094 11.75V0.75C8.96094 0.551088 9.04819 0.360322 9.20349 0.21967C9.35879 0.0790175 9.56943 0 9.78906 0C10.0087 0 10.2193 0.0790175 10.3746 0.21967C10.5299 0.360322 10.6172 0.551088 10.6172 0.75V11.75C10.6143 11.9481 10.5262 12.1374 10.3715 12.2775C10.2168 12.4176 10.0078 12.4974 9.78906 12.5Z" fill="#1E293B"/>
</svg>
