<svg width="18" height="14" viewBox="0 0 18 14" fill="none" xmlns="http://www.w3.org/2000/svg">
    <path d="M17.4407 6.45C17.3207 6.19 14.5807 4.24837e-06 8.75072 4.24837e-06C8.19249 -0.0005833 7.63586 0.0597741 7.09072 0.180004C6.91117 0.235586 6.75902 0.356564 6.66442 0.518986C6.56982 0.681407 6.53965 0.87343 6.57989 1.05704C6.62013 1.24064 6.72785 1.40244 6.88172 1.51041C7.03558 1.61837 7.22438 1.66462 7.41072 1.64C7.85147 1.54789 8.30046 1.50098 8.75072 1.5C12.9307 1.5 15.3307 5.6 15.9207 6.75C15.561 7.4528 15.1393 8.12212 14.6607 8.75C14.5748 8.8607 14.5215 8.99327 14.5071 9.13267C14.4926 9.27208 14.5175 9.41274 14.579 9.53872C14.6404 9.66469 14.7359 9.77093 14.8546 9.8454C14.9733 9.91986 15.1106 9.95956 15.2507 9.96C15.3646 9.95964 15.477 9.93334 15.5792 9.88309C15.6814 9.83285 15.7709 9.75997 15.8407 9.67C16.4706 8.87016 17.0074 8.00123 17.4407 7.08C17.4845 6.98077 17.5072 6.87348 17.5072 6.765C17.5072 6.65653 17.4845 6.54924 17.4407 6.45Z" fill="black"/>
    <path d="M3.27959 0.219968C3.13741 0.0874883 2.94937 0.0153654 2.75507 0.0187936C2.56077 0.0222218 2.37538 0.100934 2.23797 0.238347C2.10055 0.37576 2.02184 0.561145 2.01841 0.755446C2.01499 0.949747 2.08711 1.13779 2.21959 1.27997L3.13959 2.19997C1.83687 3.39838 0.78931 4.84728 0.0595894 6.45997C0.0202603 6.55335 0 6.65365 0 6.75497C0 6.85629 0.0202603 6.95659 0.0595894 7.04997C0.179589 7.30997 2.91959 13.5 8.74959 13.5C10.3089 13.5077 11.8359 13.0555 13.1396 12.2L14.2196 13.28C14.3602 13.4204 14.5508 13.4993 14.7496 13.4993C14.9483 13.4993 15.139 13.4204 15.2796 13.28C15.42 13.1393 15.4989 12.9487 15.4989 12.75C15.4989 12.5512 15.42 12.3606 15.2796 12.22L3.27959 0.219968ZM7.10959 6.21997L9.31959 8.43997C9.00985 8.54264 8.67812 8.55967 8.3595 8.48926C8.04087 8.41885 7.74721 8.26361 7.50959 8.03997C7.26759 7.80139 7.10075 7.49716 7.02967 7.16485C6.95858 6.83253 6.98637 6.48667 7.10959 6.16997V6.21997ZM8.74959 12C4.55959 12 2.16959 7.88997 1.57959 6.74997C2.23227 5.43628 3.12029 4.25339 4.19959 3.25997L5.98959 5.04997C5.60542 5.67088 5.44224 6.40335 5.5265 7.12862C5.61076 7.85389 5.93753 8.52944 6.45383 9.04573C6.97012 9.56203 7.64567 9.88879 8.37094 9.97306C9.09621 10.0573 9.82868 9.89414 10.4496 9.50997L12.0596 11.12C11.0548 11.7039 9.91175 12.0078 8.74959 12Z" fill="black"/>
</svg>
