<svg width="18" height="14" viewBox="0 0 18 14" fill="none" xmlns="http://www.w3.org/2000/svg">
    <path d="M8.75 13.5C2.92 13.5 0.18 7.31 0.0599999 7.05C0.0203921 6.95494 0 6.85298 0 6.75C0 6.64702 0.0203921 6.54506 0.0599999 6.45C0.18 6.19 2.92 0 8.75 0C14.58 0 17.32 6.19 17.44 6.45C17.4796 6.54506 17.5 6.64702 17.5 6.75C17.5 6.85298 17.4796 6.95494 17.44 7.05C17.32 7.31 14.58 13.5 8.75 13.5ZM1.58 6.75C2.17 7.9 4.58 12 8.75 12C12.92 12 15.33 7.9 15.92 6.75C15.33 5.6 12.92 1.5 8.75 1.5C4.58 1.5 2.17 5.6 1.58 6.75Z" fill="black"/>
    <path d="M8.75 10C8.10721 10 7.47886 9.80939 6.9444 9.45228C6.40994 9.09516 5.99338 8.58758 5.74739 7.99372C5.50141 7.39986 5.43705 6.7464 5.56245 6.11596C5.68785 5.48552 5.99738 4.90643 6.4519 4.4519C6.90643 3.99738 7.48552 3.68785 8.11596 3.56245C8.7464 3.43705 9.39986 3.50141 9.99372 3.74739C10.5876 3.99338 11.0952 4.40994 11.4523 4.9444C11.8094 5.47886 12 6.10721 12 6.75C11.9974 7.61114 11.6541 8.43626 11.0452 9.04518C10.4363 9.65411 9.61114 9.99736 8.75 10ZM8.75 5C8.40388 5 8.06554 5.10264 7.77775 5.29493C7.48997 5.48722 7.26567 5.76054 7.13321 6.08031C7.00076 6.40008 6.9661 6.75194 7.03363 7.09141C7.10115 7.43088 7.26782 7.7427 7.51256 7.98744C7.75731 8.23218 8.06913 8.39885 8.40859 8.46638C8.74806 8.5339 9.09993 8.49924 9.4197 8.36679C9.73947 8.23434 10.0128 8.01004 10.2051 7.72225C10.3974 7.43446 10.5 7.09612 10.5 6.75C10.4974 6.28668 10.3122 5.84309 9.98454 5.51547C9.65692 5.18784 9.21332 5.00263 8.75 5Z" fill="black"/>
</svg>
