<svg width="52" height="47" viewBox="0 0 52 47" fill="none" xmlns="http://www.w3.org/2000/svg">
    <g clip-path="url(#clip0_188_172)">
        <path d="M47.9127 9.01998C47.2004 7.29362 46.1669 5.71594 44.8479 4.35739C44.8028 4.30887 44.7547 4.26035 44.7066 4.21183L44.643 4.14922C41.9428 1.47437 38.3892 0 34.6338 0C30.8783 0 27.2393 1.50724 24.5221 4.24939C24.5081 4.23531 24.4957 4.22435 24.4848 4.21183L24.4212 4.14922C21.721 1.47437 18.1674 0 14.412 0C10.6566 0 6.92753 1.54481 4.20409 4.34643C-0.577078 9.26101 -1.37782 17.057 2.30466 22.8872C2.8509 23.7496 3.4887 24.5573 4.20409 25.2944C4.27702 25.368 8.12554 29.3247 11.9585 33.2658C15.7946 37.2037 19.6075 41.1275 19.6075 41.1275C19.7394 41.2653 19.8775 41.3952 20.0203 41.5188C22.0283 43.5833 23.4762 45.0717 23.4762 45.0717C24.6866 46.3176 26.2943 47 28.0059 47C29.7176 47 31.3268 46.316 32.5357 45.0717L47.9422 29.2355C50.647 26.4527 52.0033 22.798 52.0033 19.1434C52.0033 15.4888 47.9158 9.02155 47.9158 9.02155L47.9127 9.01998ZM24.3126 40.9178C23.1503 40.863 22.0656 40.3747 21.2384 39.5217C21.2384 39.5217 5.97471 23.831 5.83195 23.6855C5.21898 23.0531 4.6836 22.3692 4.22736 21.6508V21.6555C4.22736 21.6555 4.22736 21.6539 4.22736 21.6523C1.15786 16.7925 1.69169 10.2111 5.83195 5.95697C8.12399 3.59829 11.1733 2.29921 14.4135 2.29921C17.6537 2.29921 20.5556 3.53725 22.8291 5.7895C22.8849 5.84585 22.9408 5.90063 22.9951 5.95697C23.1099 6.07593 23.2248 6.21053 23.3598 6.35139C23.785 6.79433 24.3374 6.95398 24.8899 6.80216C25.1599 6.7286 25.4315 6.57991 25.6875 6.35139C25.8349 6.22149 25.9389 6.07593 26.0537 5.95697C28.3458 3.59829 31.3951 2.29921 34.6353 2.29921C37.8755 2.29921 40.7774 3.53725 43.0508 5.7895C43.1067 5.84585 43.1626 5.90063 43.2169 5.95697C45.1349 7.92907 46.2786 10.4004 46.648 12.9704C46.7364 13.5871 46.7814 14.2053 46.7814 14.8236C46.7814 18.0321 45.5927 21.2423 43.2169 23.687L27.8104 39.5233C26.9321 40.4279 25.7635 40.9256 24.5236 40.9256C24.4523 40.9256 24.384 40.9225 24.3141 40.9209L24.3126 40.9178Z" fill="black"/>
        <path d="M24.3127 40.9178C23.1503 40.863 22.0656 40.3747 21.2385 39.5217C21.2385 39.5217 5.97479 23.831 5.83202 23.6855C5.21905 23.0531 4.68367 22.3692 4.22743 21.6508V21.6555C4.22743 21.6555 4.22743 21.6539 4.22743 21.6523C1.15793 16.7925 1.69176 10.2111 5.83202 5.95697C8.12406 3.59829 11.1734 2.29921 14.4136 2.29921C17.6538 2.29921 20.5557 3.53725 22.8291 5.7895C22.885 5.84585 22.9409 5.90063 22.9952 5.95697C23.11 6.07593 23.2248 6.21053 23.3598 6.35139C23.785 6.79433 24.3375 6.95398 24.8899 6.80216C25.16 6.7286 25.4315 6.57991 25.6876 6.35139C25.835 6.22149 25.939 6.07593 26.0538 5.95697C28.3458 3.59829 31.3952 2.29921 34.6354 2.29921C37.8756 2.29921 40.7775 3.53725 43.0509 5.7895C43.1068 5.84585 43.1626 5.90063 43.217 5.95697C45.135 7.92907 46.2787 10.4004 46.648 12.9704C46.7365 13.5871 46.7815 14.2053 46.7815 14.8236C46.7815 18.0321 45.5928 21.2423 43.217 23.687L27.8105 39.5233C26.9321 40.4279 25.7636 40.9256 24.5237 40.9256C24.4523 40.9256 24.384 40.9225 24.3142 40.9209L24.3127 40.9178Z" fill="white"/>
    </g>
    <defs>
        <clipPath id="clip0_188_172">
            <rect width="52" height="47" fill="white"/>
        </clipPath>
    </defs>
</svg>
