<svg width="69" height="99" viewBox="0 0 69 99" fill="none" xmlns="http://www.w3.org/2000/svg">
    <path d="M21.1661 20.6611C21.1494 18.812 21.4965 16.978 22.1874 15.2649C22.8782 13.5518 23.8991 11.9935 25.191 10.6801C26.483 9.36668 28.0204 8.32412 29.7145 7.61263C31.4087 6.90114 33.2259 6.53482 35.0613 6.53482C36.8968 6.53482 38.714 6.90114 40.4081 7.61263C42.1023 8.32412 43.6397 9.36668 44.9316 10.6801C46.2236 11.9935 47.2445 13.5518 47.9353 15.2649C48.6261 16.978 48.9733 18.812 48.9566 20.6611V33.9353H54.4862V20.6611C54.4862 18.0916 53.9838 15.5472 53.0078 13.1733C52.0317 10.7993 50.6011 8.64233 48.7976 6.8254C46.9941 5.00848 44.853 3.56721 42.4967 2.5839C40.1403 1.60059 37.6147 1.09448 35.0642 1.09448C32.5137 1.09448 29.9881 1.60059 27.6317 2.5839C25.2753 3.56721 23.1343 5.00848 21.3308 6.8254C19.5273 8.64233 18.0967 10.7993 17.1206 13.1733C16.1446 15.5472 15.6422 18.0916 15.6422 20.6611V33.9353H21.1718L21.1661 20.6611Z" fill="#F1C21B" stroke="#F1C21B"/>
    <path d="M56.1786 83.1316C55.939 83.1315 55.7046 83.0615 55.5041 82.9303C54.4731 82.2449 53.2638 81.8766 52.0258 81.8709C51.8704 81.8709 51.715 81.8709 51.5597 81.8886H51.4679C51.2149 81.888 50.9682 81.8098 50.761 81.6646C50.5539 81.5193 50.3964 81.314 50.3096 81.0764C49.8598 79.8615 49.0496 78.8132 47.9874 78.0716C46.9253 77.3301 45.6619 76.9307 44.3665 76.9271C43.7686 76.9283 43.1741 77.0151 42.6008 77.1849C42.4208 77.2379 42.2265 77.3085 42.0394 77.3827C41.8982 77.4355 41.7487 77.463 41.598 77.4639C41.3166 77.465 41.0434 77.369 40.8246 77.192C39.4731 76.0995 37.8765 75.3514 36.1722 75.0119C34.4678 74.6724 32.7065 74.7516 31.0395 75.2427C29.5328 75.6833 28.1412 76.4493 26.963 77.4866C25.7847 78.5239 24.8486 79.8072 24.2206 81.2459C24.1477 81.4163 24.0376 81.5682 23.8983 81.6904C23.7589 81.8127 23.5939 81.9021 23.4155 81.9521C23.3095 81.9803 23.2003 81.9946 23.0906 81.9945C22.8372 81.9924 22.5906 81.9123 22.3843 81.765C21.1636 80.8831 19.6684 80.4655 18.1674 80.5872C16.6665 80.7089 15.2581 81.3619 14.1953 82.4288C13.9689 82.6564 13.6629 82.787 13.3419 82.793C13.0209 82.7989 12.7102 82.6797 12.4756 82.4606C7.65889 77.9397 4.31757 72.0711 2.88809 65.6216C1.45861 59.1721 2.00742 52.4413 4.46283 46.3086C6.91824 40.1758 11.1661 34.9261 16.6516 31.2451C22.1371 27.5642 28.6051 25.6231 35.211 25.6754C41.8168 25.7278 48.2534 27.7711 53.6798 31.5385C59.1063 35.3059 63.2704 40.6223 65.6283 46.7932C67.9863 52.9641 68.4284 59.7027 66.8969 66.1288C65.3654 72.5548 61.9315 78.3697 57.0437 82.8137C56.8069 83.027 56.4971 83.1408 56.1786 83.1316Z" fill="#F1C21B"/>
    <path d="M34.9233 26.8608C41.3054 26.8656 47.5368 28.801 52.7987 32.4126C58.0605 36.0242 62.1068 41.1432 64.4057 47.0968C66.7047 53.0505 67.1488 59.5604 65.6797 65.7711C64.2106 71.9818 60.8971 77.6028 56.1745 81.8956C54.9414 81.084 53.4979 80.6507 52.0217 80.6491C51.8381 80.6491 51.6686 80.6491 51.4637 80.6703C50.8036 78.8667 49.4818 77.382 47.7668 76.5176C46.0517 75.6531 44.0719 75.4738 42.2295 76.0161C42.007 76.0796 41.7881 76.1644 41.5762 76.2456C40.1407 75.092 38.459 74.2841 36.6613 73.8844C34.8636 73.4846 32.998 73.5038 31.2089 73.9404C29.4198 74.377 27.755 75.2194 26.3435 76.4023C24.932 77.5852 23.8116 79.0769 23.0688 80.7621C22.1357 80.0847 21.0594 79.6309 19.923 79.4356C18.7866 79.2403 17.6205 79.3087 16.5148 79.6356C15.2928 79.9909 14.181 80.6506 13.2837 81.5531C8.66154 77.2129 5.45019 71.5839 4.06612 65.3964C2.68205 59.2088 3.18914 52.7481 5.5216 46.8522C7.85407 40.9564 11.9043 35.8974 17.1469 32.3314C22.3896 28.7655 28.5828 26.8571 34.9233 26.8538M34.9233 24.3819C28.0854 24.3809 21.4052 26.4357 15.7501 30.2796C10.0949 34.1235 5.72612 39.5789 3.21091 45.9374C0.695703 52.2958 0.150295 59.2636 1.64553 65.936C3.14076 72.6083 6.60756 78.677 11.5957 83.354C12.065 83.7922 12.6864 84.0306 13.3283 84.0187C13.9703 84.0068 14.5824 83.7457 15.0352 83.2905C15.8911 82.4318 17.0254 81.9066 18.2339 81.8095C19.4425 81.7124 20.646 82.0497 21.6281 82.7608C22.0481 83.0618 22.552 83.2236 23.0688 83.2234C23.2896 83.2238 23.5094 83.1941 23.7221 83.1351C24.0762 83.0377 24.4041 82.8626 24.6821 82.6225C24.96 82.3824 25.1809 82.0835 25.3288 81.7473C26.0727 80.0541 27.293 78.6137 28.8411 77.6017C30.3891 76.5898 32.1981 76.0499 34.0475 76.0478C36.224 76.0557 38.3333 76.8028 40.0295 78.1666C40.366 78.4367 40.7673 78.614 41.1935 78.6809C41.6197 78.7478 42.056 78.702 42.459 78.548C42.625 78.4844 42.791 78.4209 42.9251 78.382C43.3915 78.243 43.8757 78.1728 44.3624 78.1737C45.405 78.1762 46.4218 78.4976 47.2765 79.0947C48.1312 79.6918 48.7827 80.5361 49.1437 81.5143C49.318 81.9894 49.6339 82.3997 50.0488 82.6896C50.4637 82.9794 50.9576 83.135 51.4637 83.1351H51.6474C51.771 83.1351 51.8981 83.1351 52.0217 83.1351C53.017 83.1367 53.9902 83.4288 54.822 83.9755C55.2237 84.2395 55.6937 84.3807 56.1745 84.3816C56.7907 84.3827 57.3852 84.1535 57.8412 83.7389C62.573 79.4352 65.9992 73.8877 67.7289 67.7298C69.4585 61.5718 69.4217 55.0516 67.6228 48.9136C65.549 41.7605 61.1707 35.4928 55.168 31.0842C49.2995 26.7657 42.2095 24.4258 34.9233 24.4031V24.3819Z" fill="#F1C21B"/>
    <path d="M57.9168 50.4956C57.9141 44.302 56.3342 38.211 53.3262 32.7969C57.153 35.5467 60.3171 39.1169 62.587 43.2465C64.857 47.3762 66.1756 51.9608 66.4464 56.6654C66.7171 61.37 65.9333 66.0756 64.152 70.4384C62.3708 74.8011 59.6373 78.7108 56.1512 81.8815C54.7569 80.9664 53.1006 80.5346 51.4369 80.6526C51.083 79.6876 50.5355 78.805 49.8281 78.0593C49.1206 77.3136 48.2681 76.7204 47.323 76.3162C54.0932 69.4247 57.8959 60.1563 57.9168 50.4956Z" fill="#FDF4DA"/>
    <path d="M14.3707 50.7298C15.4984 49.4699 15.3912 47.5344 14.1312 46.4067C12.8713 45.279 10.9358 45.3862 9.8081 46.6461C8.68042 47.906 8.7876 49.8416 10.0475 50.9692C11.3074 52.0969 13.243 51.9897 14.3707 50.7298Z" fill="white"/>
    <path d="M55.0472 67.4244C57.3025 66.2282 58.1612 63.4303 56.965 61.175C55.7689 58.9197 52.971 58.0611 50.7157 59.2572C48.4604 60.4534 47.6017 63.2513 48.7979 65.5066C49.994 67.7619 52.7919 68.6205 55.0472 67.4244Z" fill="white"/>
    <path d="M44.624 96.8836C45.8215 96.2485 46.2773 94.7629 45.6423 93.5655C45.0072 92.3681 43.5216 91.9122 42.3242 92.5473C41.1267 93.1824 40.6708 94.6679 41.3059 95.8654C41.941 97.0628 43.4266 97.5187 44.624 96.8836Z" fill="#F1C21B"/>
    <path d="M36.5112 88.8542C38.4082 87.8481 39.1304 85.4947 38.1243 83.5978C37.1182 81.7008 34.7648 80.9786 32.8679 81.9847C30.9709 82.9908 30.2487 85.3442 31.2548 87.2411C32.2609 89.1381 34.6142 89.8603 36.5112 88.8542Z" fill="#F1C21B"/>
    <path d="M48.016 89.1178C49.5201 88.32 50.0928 86.454 49.295 84.9499C48.4973 83.4457 46.6313 82.8731 45.1271 83.6708C43.623 84.4686 43.0504 86.3346 43.8481 87.8387C44.6459 89.3428 46.5119 89.9155 48.016 89.1178Z" fill="#F1C21B"/>
    <path d="M37.9899 52.761C40.9387 50.944 41.8563 47.0805 40.0393 44.1317C38.2223 41.1829 34.3589 40.2653 31.41 42.0823C28.4612 43.8992 27.5436 47.7627 29.3606 50.7115C31.1776 53.6604 35.041 54.5779 37.9899 52.761Z" fill="white"/>
    <path d="M60.1998 44.6749C60.1385 45.5114 59.8306 46.311 59.315 46.9726C58.7993 47.6341 58.0992 48.128 57.3029 48.3918C56.5067 48.6556 55.6501 48.6774 54.8415 48.4545C54.0328 48.2316 53.3085 47.774 52.7598 47.1396C52.2112 46.5051 51.8629 45.7223 51.7591 44.89C51.6552 44.0576 51.8005 43.2132 52.1765 42.4634C52.5524 41.7136 53.1422 41.0921 53.8713 40.6774C54.6004 40.2627 55.4361 40.0735 56.2727 40.1335C57.3955 40.2156 58.4398 40.74 59.1762 41.5915C59.9125 42.4431 60.2807 43.5521 60.1998 44.6749Z" fill="white"/>
    <path d="M59.3995 75.6312C59.3597 76.1843 59.1567 76.7131 58.8163 77.1509C58.4759 77.5886 58.0133 77.9156 57.4871 78.0905C56.9608 78.2654 56.3946 78.2803 55.8599 78.1333C55.3252 77.9864 54.846 77.6841 54.4831 77.2649C54.1201 76.8457 53.8897 76.3282 53.8208 75.778C53.7519 75.2277 53.8477 74.6694 54.0962 74.1736C54.3446 73.6779 54.7344 73.2669 55.2164 72.9927C55.6984 72.7185 56.2509 72.5934 56.804 72.6331C57.1714 72.6591 57.5302 72.7573 57.8596 72.9221C58.189 73.0869 58.4827 73.3151 58.7238 73.5936C58.9649 73.8721 59.1487 74.1954 59.2647 74.5451C59.3806 74.8947 59.4264 75.2638 59.3995 75.6312Z" fill="#F1C21B"/>
    <path d="M26.9066 31.0454C26.8674 31.5994 26.6648 32.1293 26.3244 32.5682C25.984 33.007 25.521 33.335 24.9942 33.5107C24.4673 33.6864 23.9002 33.7018 23.3645 33.5551C22.8288 33.4084 22.3487 33.106 21.9849 32.6864C21.6211 32.2667 21.39 31.7486 21.3207 31.1975C21.2515 30.6465 21.3472 30.0873 21.5959 29.5907C21.8445 29.094 22.2349 28.6823 22.7176 28.4076C23.2003 28.1329 23.7536 28.0075 24.3076 28.0473C24.6751 28.0733 25.034 28.1715 25.3636 28.3363C25.6933 28.501 25.9872 28.7292 26.2285 29.0076C26.4699 29.286 26.654 29.6093 26.7704 29.959C26.8867 30.3087 26.933 30.6778 26.9066 31.0454Z" fill="white"/>
    <path d="M17.603 70.5336C18.6524 68.5912 17.9285 66.166 15.9861 65.1166C14.0437 64.0672 11.6185 64.7912 10.5691 66.7335C9.51974 68.6759 10.2437 71.1012 12.186 72.1505C14.1284 73.1999 16.5537 72.476 17.603 70.5336Z" fill="white"/>
    <g style="mix-blend-mode:multiply" opacity="0.24">
        <path d="M24.9155 28.4958C15.4587 35.4135 9.37789 46.3393 9.37789 58.6387C9.37863 66.2106 11.7223 73.5968 16.0873 79.7839C15.0451 80.1644 14.098 80.7668 13.3117 81.5496C9.3164 77.8048 6.36224 73.0865 4.73856 67.8569C3.11487 62.6272 2.87736 57.0655 4.04927 51.7164C5.22117 46.3674 7.7623 41.4144 11.4238 37.3427C15.0853 33.2709 19.7416 30.22 24.9367 28.4887L24.9155 28.4958Z" fill="#F1C21B"/>
    </g>
    <path d="M38.0191 52.9463C38.0191 51.1111 36.5322 49.6234 34.698 49.6234C32.8638 49.6234 31.3768 51.1111 31.3768 52.9463V63.6566C31.3768 65.4918 32.8638 66.9796 34.698 66.9796C36.5322 66.9796 38.0191 65.4918 38.0191 63.6566V52.9463Z" fill="white"/>
</svg>
