<svg width="147" height="148" viewBox="0 0 147 148" fill="none" xmlns="http://www.w3.org/2000/svg">
    <path d="M132.342 34.4195H130.248V15.573C130.226 11.6921 128.674 7.97645 125.93 5.23222C123.186 2.48798 119.47 0.936558 115.589 0.914569C114.925 0.793573 114.244 0.793573 113.579 0.914569L13.9018 34.4195H12.9804H11.6402L10.2162 34.9221H9.04355L7.70335 35.676L6.6982 37.0999L5.52553 38.1051L4.60414 38.9427L3.599 40.1991C3.331 40.4395 3.10458 40.7225 2.9289 41.0368C2.618 41.5211 2.33823 42.0247 2.09127 42.5445L1.5887 43.4659C1.35549 44.0675 1.15966 44.6829 1.00236 45.3086C1.04004 45.6146 1.04004 45.9241 1.00236 46.23C0.91588 47.1774 0.91588 48.1306 1.00236 49.078V132.84C1.01994 136.622 2.49038 140.253 5.10956 142.981C7.72874 145.71 11.2963 147.327 15.0744 147.499H132.342C136.223 147.477 139.938 145.925 142.683 143.181C145.427 140.437 146.978 136.721 147 132.84V49.078C146.978 45.1971 145.427 41.4814 142.683 38.7372C139.938 35.9929 136.223 34.4415 132.342 34.4195ZM116.259 13.5627C116.672 13.7149 117.029 13.9883 117.283 14.3471C117.537 14.706 117.677 15.1333 117.683 15.573V34.4195H53.7727L116.259 13.5627ZM134.436 132.84C134.436 133.396 134.215 133.928 133.823 134.321C133.43 134.714 132.897 134.934 132.342 134.934H15.0744C14.5191 134.934 13.9864 134.714 13.5937 134.321C13.201 133.928 12.9804 133.396 12.9804 132.84V49.078C12.9804 48.5226 13.201 47.9899 13.5937 47.5972C13.9864 47.2045 14.5191 46.9839 15.0744 46.9839H132.342C132.897 46.9839 133.43 47.2045 133.823 47.5972C134.215 47.9899 134.436 48.5226 134.436 49.078V132.84Z" fill="black"/>
    <path d="M111.398 101.429C117.181 101.429 121.868 96.7418 121.868 90.9592C121.868 85.1766 117.181 80.4889 111.398 80.4889C105.615 80.4889 100.928 85.1766 100.928 90.9592C100.928 96.7418 105.615 101.429 111.398 101.429Z" fill="black"/>
</svg>
