<svg width="427" height="374" viewBox="0 0 427 374" fill="none" xmlns="http://www.w3.org/2000/svg">
    <path d="M20.5991 127.294L0.0190884 115.702C-0.258513 103.3 2.4954 91.0184 8.0417 79.9226C12.7865 101.458 37.7568 111.704 49.2778 130.507C52.8262 136.4 55.0032 143.015 55.6474 149.862C56.2917 156.71 55.3867 163.615 52.9996 170.066L54.3531 186.763C43.7166 183.577 33.8973 178.123 25.5716 170.777C17.2458 163.431 10.6117 154.367 6.12615 144.21C3.66623 138.487 1.9368 132.477 0.978671 126.322C10.5739 127.343 20.5991 127.294 20.5991 127.294Z" fill="#E4E4E5"/>
    <path d="M390.559 338.174L391.19 323.984C397.768 320.468 405.106 318.61 412.565 318.573C402.299 326.967 403.582 343.146 396.622 354.433C394.424 357.937 391.466 360.901 387.966 363.106C384.467 365.312 380.517 366.701 376.408 367.172L367.817 372.432C366.638 365.86 366.898 359.111 368.578 352.649C370.259 346.187 373.321 340.166 377.552 335.002C379.955 332.128 382.71 329.568 385.752 327.383C387.81 332.808 390.559 338.174 390.559 338.174Z" fill="#E4E4E5"/>
    <path d="M368.423 365.129L360.643 365.129L356.942 335.124L368.424 335.124L368.423 365.129Z" fill="#FFB6B6"/>
    <path d="M370.406 372.67L345.323 372.669V372.352C345.323 369.763 346.352 367.28 348.183 365.449C350.014 363.618 352.497 362.589 355.086 362.589L359.669 359.113L368.217 362.59L370.407 362.59L370.406 372.67Z" fill="#626269"/>
    <path d="M332.282 365.129L324.503 365.129L320.802 335.124L332.283 335.124L332.282 365.129Z" fill="#FFB6B6"/>
    <path d="M334.266 372.67L309.182 372.669V372.352C309.183 369.763 310.211 367.28 312.042 365.449C313.873 363.618 316.356 362.589 318.946 362.589L323.528 359.113L332.077 362.59L334.266 362.59L334.266 372.67Z" fill="#626269"/>
    <path d="M328.915 201.088L379.514 202.353C389.124 207.572 389.27 218.869 386.121 232.282C386.121 232.282 387.184 240.254 385.058 242.38C382.932 244.506 381.869 244.506 382.932 248.227C383.995 251.947 378.379 258.023 379.061 258.706C379.743 259.388 381.338 263.108 381.338 263.108L376.023 293.402C376.023 293.402 372.302 346.019 371.239 347.082C370.177 348.145 369.114 347.082 370.176 349.739C371.239 352.397 372.302 351.334 371.239 352.397C370.298 353.412 369.411 354.476 368.582 355.586H355.732C355.732 355.586 354.764 350.271 354.764 349.739C354.764 349.208 353.701 346.019 353.701 345.487C353.701 344.956 354.64 344.016 354.64 344.016C354.965 342.936 355.184 341.827 355.295 340.704C355.295 339.641 358.484 298.717 358.484 298.717L352.106 245.569L336.693 297.654C336.693 297.654 336.693 343.362 335.63 344.424C334.567 345.487 334.567 344.956 335.099 347.082C335.63 349.208 337.756 348.676 336.162 350.271C334.567 351.865 334.036 349.208 334.567 351.865L335.099 354.523L319.154 354.751C319.154 354.751 317.029 350.271 318.091 348.676C319.154 347.082 319.091 347.517 317.794 344.908C316.497 342.299 315.966 341.767 316.497 341.236C317.028 340.704 317.029 337.877 317.029 337.877L319.686 287.025C319.686 287.025 320.217 233.345 320.217 231.751C320.257 230.93 320.106 230.112 319.776 229.36V227.195L321.812 219.527L328.915 201.088Z" fill="#626269"/>
    <path d="M359.31 95.8745C367.993 95.8745 375.032 88.8358 375.032 80.1531C375.032 71.4704 367.993 64.4316 359.31 64.4316C350.628 64.4316 343.589 71.4704 343.589 80.1531C343.589 88.8358 350.628 95.8745 359.31 95.8745Z" fill="#FFB6B6"/>
    <path d="M351.45 106.265C348.063 108.279 346.036 111.979 344.873 115.743C342.72 122.713 341.424 129.92 341.014 137.203L339.785 159.008L324.571 205.438C337.757 216.595 387.32 207.974 387.32 207.974C387.32 207.974 388.841 207.467 387.32 205.945C385.798 204.424 384.317 205.772 385.839 204.25C387.36 202.729 386.311 204.424 385.804 202.902C385.297 201.381 385.804 202.395 386.311 201.888C386.818 201.381 382.385 196.816 382.385 196.816L386.442 170.165L391.514 116.408C385.428 108.801 373.189 104.317 373.189 104.317L370.026 98.6243L354.214 99.8892L351.45 106.265Z" fill="#E6E6E6"/>
    <path d="M349.293 70.9266C349.902 70.9313 350.507 71.0108 351.096 71.1631C352.257 71.4422 353.436 71.64 354.625 71.7548C358.264 72.0973 361.684 73.6494 364.338 76.1634C366.992 78.6774 368.727 82.0082 369.265 85.6239C370.179 84.8274 372.258 83.3623 373.962 84.724C373.988 84.7456 374.003 84.7567 374.063 84.7283C375.194 84.1915 377.203 77.5844 377.264 71.7669C377.296 68.6792 376.81 64.7363 374.312 63.4877L374.181 63.4219L374.146 63.2789C373.98 62.5844 372.115 61.3987 368.876 60.476C362.988 58.799 354.212 55.5322 349.27 60.3398C348.896 61.9606 347.679 65.429 346.45 65.8222C345.089 66.2573 343.914 66.6328 343.728 68.3024C343.574 70.6783 343.585 73.0621 343.762 75.4364C344.223 73.9836 345.128 72.7119 346.35 71.8006C347.219 71.2157 348.246 70.9107 349.293 70.9266Z" fill="#2F2E41"/>
    <path d="M320.031 157.794L345.712 141.347L332.777 124.153L320.005 139.864L280.21 142.305C279.163 141.27 277.838 140.562 276.396 140.268C274.954 139.973 273.457 140.105 272.089 140.646C270.72 141.187 269.538 142.115 268.688 143.316C267.837 144.517 267.355 145.94 267.299 147.411C267.243 148.881 267.616 150.337 268.373 151.599C269.13 152.861 270.238 153.876 271.562 154.519C272.885 155.163 274.368 155.408 275.828 155.223C277.288 155.039 278.663 154.434 279.785 153.481L320.031 157.794Z" fill="#FFB6B6"/>
    <path d="M369.548 118.391C371.038 127.412 342.891 144.637 342.891 144.637C342.891 142.519 326.091 158.503 325.333 156.747C323.177 151.756 321.662 139.936 318.651 138.044C316.928 136.962 329.023 126.798 329.023 126.798C329.023 126.798 335.354 120.42 343.662 112.375C345.969 110.057 348.824 108.361 351.963 107.443C355.102 106.526 358.421 106.417 361.613 107.128C361.613 107.128 368.057 109.371 369.548 118.391Z" fill="#E6E6E6"/>
    <path d="M422.48 162.112L405.494 136.784L388.577 150.08L404.555 162.517L407.838 202.252C406.825 203.32 406.146 204.66 405.882 206.108C405.618 207.556 405.781 209.049 406.351 210.406C406.921 211.763 407.874 212.925 409.093 213.75C410.312 214.574 411.744 215.027 413.216 215.052C414.687 215.076 416.134 214.672 417.38 213.889C418.626 213.105 419.617 211.976 420.233 210.639C420.848 209.302 421.061 207.815 420.846 206.359C420.631 204.903 419.996 203.541 419.021 202.44L422.48 162.112Z" fill="#FFB6B6"/>
    <path d="M382.037 113.44C391.024 111.759 408.841 139.535 408.841 139.535C406.725 139.581 423.06 156.038 421.321 156.833C416.377 159.094 404.591 160.859 402.764 163.91C401.718 165.654 391.3 153.778 391.3 153.778C391.3 153.778 384.79 147.583 376.571 139.448C374.205 137.191 372.448 134.372 371.464 131.253C370.481 128.134 370.302 124.818 370.945 121.611C370.945 121.611 373.051 115.121 382.037 113.44Z" fill="#E6E6E6"/>
    <path d="M426.82 372.795C426.82 372.894 426.801 372.992 426.763 373.084C426.726 373.175 426.67 373.258 426.6 373.328C426.53 373.398 426.447 373.453 426.356 373.491C426.264 373.529 426.166 373.548 426.067 373.548H248.787C248.587 373.548 248.396 373.469 248.254 373.327C248.113 373.186 248.034 372.995 248.034 372.795C248.034 372.596 248.113 372.404 248.254 372.263C248.396 372.122 248.587 372.042 248.787 372.042H426.067C426.166 372.042 426.264 372.061 426.356 372.099C426.447 372.137 426.53 372.192 426.6 372.262C426.67 372.332 426.726 372.415 426.763 372.507C426.801 372.598 426.82 372.696 426.82 372.795Z" fill="#CCCCCC"/>
    <path d="M262.59 144.709H47.4358C44.0744 144.713 40.8517 146.05 38.4748 148.426C36.0979 150.803 34.7609 154.026 34.7571 157.387V291.341C34.7609 294.703 36.0979 297.926 38.4748 300.302C40.8517 302.679 44.0744 304.016 47.4358 304.02H262.59C265.951 304.016 269.174 302.679 271.551 300.302C273.928 297.926 275.265 294.703 275.269 291.341V157.387C275.265 154.026 273.928 150.803 271.551 148.426C269.174 146.049 265.951 144.713 262.59 144.709Z" fill="black"/>
    <path d="M262.59 144.709H47.4358C44.0744 144.713 40.8517 146.05 38.4748 148.426C36.0979 150.803 34.7609 154.026 34.7571 157.387V291.341C34.7609 294.703 36.0979 297.926 38.4748 300.302C40.8517 302.679 44.0744 304.016 47.4358 304.02H262.59C265.951 304.016 269.174 302.679 271.551 300.302C273.928 297.926 275.265 294.703 275.269 291.341V157.387C275.265 154.026 273.928 150.803 271.551 148.426C269.174 146.049 265.951 144.713 262.59 144.709ZM266.751 240.93C266.699 254.567 261.305 267.641 251.725 277.347C242.145 287.052 229.143 292.617 215.507 292.847C193.676 293.131 227.586 293.242 201.256 293.242C141.048 293.242 78.2672 292.666 54.843 292.293C51.7611 292.23 48.8262 290.964 46.6648 288.766C44.5035 286.568 43.287 283.612 43.275 280.53V157.397C43.2763 156.294 43.7146 155.235 44.4942 154.454C45.2738 153.672 46.3311 153.231 47.435 153.227H262.581C263.685 153.229 264.743 153.667 265.524 154.446C266.306 155.226 266.747 156.283 266.751 157.386V240.93Z" fill="#626269"/>
    <path d="M236.105 67.574H72.1799C70.7295 67.5761 69.3151 68.0257 68.1298 68.8616C66.9445 69.6974 66.0461 70.8787 65.5571 72.2442L40.24 143.273C39.8622 144.333 39.7444 145.468 39.8965 146.583C40.0486 147.699 40.4662 148.761 41.1142 149.681C41.7621 150.601 42.6215 151.353 43.6202 151.872C44.6188 152.391 45.7275 152.663 46.853 152.664L266.703 153.055H266.713C267.876 153.054 269.022 152.766 270.046 152.214C271.07 151.662 271.942 150.865 272.582 149.894C273.223 148.923 273.612 147.808 273.716 146.649C273.819 145.49 273.633 144.323 273.175 143.254L242.567 71.8353C242.026 70.5699 241.125 69.4914 239.976 68.7338C238.827 67.9762 237.481 67.5729 236.105 67.574Z" fill="#626269"/>
    <path d="M273.744 144.796C273.744 145.749 273.55 146.691 273.175 147.567L242.569 202.543C242.024 203.805 241.122 204.881 239.973 205.637C238.825 206.393 237.48 206.797 236.105 206.799H72.1825C70.7316 206.798 69.3165 206.349 68.1302 205.513C66.944 204.678 66.0443 203.497 65.554 202.131L40.2418 147.548C39.9315 146.678 39.7957 145.756 39.8421 144.834C39.8884 143.911 40.116 143.007 40.5119 142.173C40.9079 141.339 41.4643 140.591 42.1494 139.972C42.8345 139.353 43.6349 138.876 44.5048 138.566C45.2573 138.294 46.0513 138.155 46.8513 138.155L73.7068 138.104L84.6679 138.086L228.901 137.833L239.868 137.814L266.705 137.763H266.711C268.576 137.763 270.365 138.504 271.684 139.823C273.003 141.142 273.744 142.931 273.744 144.796Z" fill="#626269"/>
    <path d="M63.5654 245.19C66.816 245.19 111.454 247.918 111.454 251.168C111.454 254.419 66.816 256.961 63.5654 256.961C62.0045 256.961 60.5074 256.341 59.4036 255.237C58.2998 254.133 57.6797 252.636 57.6797 251.075C57.6797 249.514 58.2998 248.017 59.4036 246.914C60.5074 245.81 62.0045 245.19 63.5654 245.19Z" fill="#626269"/>
    <path d="M225.897 24.3638H87.6785C83.9743 24.368 80.423 25.8414 77.8037 28.4607C75.1845 31.08 73.7111 34.6313 73.7068 38.3355V206.799H236.105C237.438 206.803 238.745 206.424 239.868 205.705V38.3355C239.864 34.6313 238.391 31.08 235.771 28.4607C233.152 25.8414 229.601 24.3681 225.897 24.3638Z" fill="#E6E6E6"/>
    <path d="M173.141 35.6917H97.3936C94.0206 35.6949 90.7867 37.0359 88.401 39.4203C86.0154 41.8048 84.6728 45.0381 84.6679 48.4111V206.799H228.901V91.452C228.884 76.6687 223.004 62.4957 212.55 52.0423C202.097 41.5889 187.924 35.7087 173.141 35.6917Z" fill="white"/>
    <path d="M204.329 192.733H109.24C108.418 192.733 107.63 193.059 107.049 193.64C106.467 194.222 106.141 195.01 106.141 195.832C106.141 196.654 106.467 197.442 107.049 198.023C107.63 198.605 108.418 198.931 109.24 198.931H204.329C205.151 198.931 205.939 198.605 206.52 198.023C207.101 197.442 207.428 196.654 207.428 195.832C207.428 195.01 207.101 194.222 206.52 193.64C205.939 193.059 205.151 192.733 204.329 192.733Z" fill="#E4E4E4"/>
    <path d="M204.329 180.475H109.24C108.417 180.475 107.628 180.802 107.046 181.384C106.465 181.966 106.138 182.755 106.138 183.577C106.138 184.4 106.465 185.189 107.046 185.771C107.628 186.353 108.417 186.68 109.24 186.68H204.329C205.151 186.68 205.94 186.353 206.522 185.771C207.104 185.189 207.431 184.4 207.431 183.577C207.431 182.755 207.104 181.966 206.522 181.384C205.94 180.802 205.151 180.475 204.329 180.475Z" fill="#E4E4E4"/>
    <path d="M150.459 168.224H109.24C108.418 168.224 107.63 168.55 107.049 169.131C106.467 169.713 106.141 170.501 106.141 171.323C106.141 172.145 106.467 172.933 107.049 173.514C107.63 174.096 108.418 174.422 109.24 174.422H150.459C151.281 174.422 152.07 174.096 152.651 173.514C153.232 172.933 153.559 172.145 153.559 171.323C153.559 170.501 153.232 169.713 152.651 169.131C152.07 168.55 151.281 168.224 150.459 168.224Z" fill="#E4E4E4"/>
    <path d="M204.329 142.557H109.24C108.417 142.557 107.628 142.884 107.046 143.466C106.465 144.048 106.138 144.837 106.138 145.66C106.138 146.483 106.465 147.272 107.046 147.853C107.628 148.435 108.417 148.762 109.24 148.762H204.329C205.151 148.762 205.94 148.435 206.522 147.853C207.104 147.272 207.431 146.483 207.431 145.66C207.431 144.837 207.104 144.048 206.522 143.466C205.94 142.884 205.151 142.557 204.329 142.557Z" fill="#E4E4E4"/>
    <path d="M204.329 130.306H109.24C108.418 130.306 107.63 130.632 107.049 131.214C106.467 131.795 106.141 132.583 106.141 133.405C106.141 134.227 106.467 135.015 107.049 135.597C107.63 136.178 108.418 136.504 109.24 136.504H204.329C205.151 136.504 205.939 136.178 206.52 135.597C207.101 135.015 207.428 134.227 207.428 133.405C207.428 132.583 207.101 131.795 206.52 131.214C205.939 130.632 205.151 130.306 204.329 130.306Z" fill="#E4E4E4"/>
    <path d="M150.459 118.048H109.24C108.417 118.048 107.628 118.375 107.046 118.957C106.465 119.539 106.138 120.328 106.138 121.151C106.138 121.974 106.465 122.763 107.046 123.344C107.628 123.926 108.417 124.253 109.24 124.253H150.459C151.282 124.253 152.071 123.926 152.653 123.344C153.235 122.763 153.562 121.974 153.562 121.151C153.562 120.328 153.235 119.539 152.653 118.957C152.071 118.375 151.282 118.048 150.459 118.048Z" fill="#E4E4E4"/>
    <path d="M204.329 92.3818H109.24C108.417 92.3818 107.628 92.7087 107.046 93.2905C106.465 93.8723 106.138 94.6614 106.138 95.4842C106.138 96.307 106.465 97.0961 107.046 97.6779C107.628 98.2597 108.417 98.5866 109.24 98.5866H204.329C205.151 98.5866 205.94 98.2597 206.522 97.6779C207.104 97.0961 207.431 96.307 207.431 95.4842C207.431 94.6614 207.104 93.8723 206.522 93.2905C205.94 92.7087 205.151 92.3818 204.329 92.3818Z" fill="black"/>
    <path d="M204.329 80.1304H109.24C108.417 80.1304 107.628 80.4572 107.046 81.039C106.465 81.6208 106.138 82.4099 106.138 83.2327C106.138 84.0555 106.465 84.8446 107.046 85.4264C107.628 86.0082 108.417 86.3351 109.24 86.3351H204.329C205.151 86.3351 205.94 86.0082 206.522 85.4264C207.104 84.8446 207.431 84.0555 207.431 83.2327C207.431 82.4099 207.104 81.6208 206.522 81.039C205.94 80.4572 205.151 80.1304 204.329 80.1304Z" fill="black"/>
    <path d="M150.459 67.8728H109.24C108.417 67.8728 107.628 68.1997 107.046 68.7815C106.465 69.3633 106.138 70.1524 106.138 70.9752C106.138 71.798 106.465 72.5871 107.046 73.1689C107.628 73.7507 108.417 74.0775 109.24 74.0775H150.459C151.282 74.0775 152.071 73.7507 152.653 73.1689C153.235 72.5871 153.562 71.798 153.562 70.9752C153.562 70.1524 153.235 69.3633 152.653 68.7815C152.071 68.1997 151.282 67.8728 150.459 67.8728Z" fill="black"/>
    <path d="M234.686 48.2752C248.017 48.2752 258.824 37.4684 258.824 24.1376C258.824 10.8068 248.017 0 234.686 0C221.356 0 210.549 10.8068 210.549 24.1376C210.549 37.4684 221.356 48.2752 234.686 48.2752Z" fill="black"/>
    <path d="M231.394 36.7001C230.977 36.7001 230.566 36.6031 230.193 36.4166C229.82 36.2302 229.496 35.9595 229.246 35.6259L222.661 26.8456C222.448 26.5637 222.293 26.2425 222.205 25.9005C222.116 25.5585 222.096 25.2025 222.146 24.8527C222.195 24.503 222.313 24.1665 222.493 23.8624C222.673 23.5584 222.911 23.2928 223.193 23.0809C223.476 22.869 223.798 22.7149 224.14 22.6275C224.482 22.5401 224.838 22.521 225.188 22.5715C225.537 22.6219 225.873 22.7408 226.177 22.9214C226.481 23.102 226.745 23.3407 226.957 23.6239L231.265 29.3677L242.33 12.7704C242.725 12.1778 243.339 11.7665 244.037 11.6269C244.736 11.4872 245.461 11.6307 246.053 12.0257C246.646 12.4207 247.057 13.0349 247.197 13.7332C247.336 14.4315 247.193 15.1566 246.798 15.7491L233.628 35.5045C233.39 35.8617 233.069 36.1567 232.693 36.3646C232.318 36.5725 231.897 36.6873 231.468 36.6993C231.443 36.6997 231.418 36.7001 231.394 36.7001Z" fill="white"/>
</svg>
