<svg width="90" height="25" viewBox="0 0 90 25" fill="none" xmlns="http://www.w3.org/2000/svg">
<path d="M53.1933 7.75574C53.7151 6.73961 54.5045 5.89073 55.4735 5.30379C56.4424 4.71685 57.5528 4.41492 58.6808 4.43166C59.5716 4.43573 60.4513 4.63323 61.2608 5.01093C62.0481 5.34922 62.7424 5.87707 63.284 6.54894V0H66.0713V18.2174H63.284V16.1739C62.7964 16.8617 62.152 17.4193 61.406 17.7991C60.5551 18.2379 59.6111 18.4575 58.657 18.4387C57.5325 18.4501 56.4278 18.1386 55.4698 17.5403C54.4992 16.9309 53.7118 16.0627 53.1933 15.0301C52.623 13.8996 52.3356 12.6437 52.3565 11.3735C52.3565 10.0111 52.6354 8.80522 53.1933 7.75574ZM62.7152 8.98669C62.3695 8.33275 61.8542 7.78742 61.2252 7.40979C60.6215 7.05441 59.9354 6.86924 59.2377 6.87344C58.527 6.86666 57.8279 7.05667 57.2155 7.42308C56.603 7.78948 56.1004 8.31844 55.7615 8.95316C55.3663 9.69681 55.1697 10.5327 55.1914 11.3775C55.1726 12.234 55.3688 13.0812 55.7615 13.8394C56.1066 14.5061 56.6263 15.063 57.2633 15.4485C57.8618 15.8114 58.546 16.0028 59.243 16.0023C59.9407 16.007 60.627 15.8218 61.2305 15.4659C61.862 15.0862 62.3778 14.5362 62.7205 13.8769C63.1131 13.1237 63.309 12.2806 63.2893 11.4285C63.3092 10.5778 63.1113 9.73641 62.7152 8.98669Z" fill="white"/>
<path d="M78.2425 12.4807H68.0422C68.1223 13.5641 68.5182 14.4339 69.23 15.0901C69.9438 15.7503 70.8807 16.1052 71.8457 16.081C73.3317 16.081 74.3818 15.449 74.9959 14.185H77.9759C77.5828 15.417 76.8148 16.4904 75.7825 17.2503C74.7267 18.0467 73.4144 18.4445 71.8457 18.4437C70.6463 18.4641 69.4628 18.163 68.4144 17.5707C67.4101 16.9939 66.5866 16.1405 66.0388 15.1088C65.4661 14.0495 65.1797 12.8226 65.1797 11.4281C65.1797 10.0335 65.4582 8.80663 66.0151 7.74732C66.5456 6.71391 67.3622 5.86089 68.3642 5.29348C69.3725 4.71779 70.5313 4.43039 71.8404 4.43128C73.0154 4.40991 74.1757 4.69818 75.2084 5.268C76.1803 5.81339 76.9788 6.62933 77.51 7.61993C78.0591 8.62829 78.3336 9.7904 78.3336 11.1063C78.3388 11.5661 78.3084 12.0257 78.2425 12.4807ZM75.4565 10.2159C75.4398 9.18342 75.076 8.35475 74.3651 7.72989C73.6542 7.10503 72.7744 6.79216 71.7256 6.79126C70.8242 6.77157 69.9493 7.10144 69.2788 7.7138C68.6005 8.32882 68.1966 9.16152 68.0673 10.2119L75.4565 10.2159Z" fill="white"/>
<path d="M89.9144 12.4808H79.7141C79.7942 13.5642 80.1901 14.434 80.9019 15.0902C81.6158 15.7511 82.5534 16.1061 83.5189 16.0811C85.0049 16.0811 86.0546 15.4491 86.6678 14.1851H89.6478C89.2547 15.4168 88.4872 16.49 87.4557 17.2504C86.3999 18.0469 85.0876 18.4447 83.5189 18.4438C82.3195 18.4642 81.136 18.1631 80.0876 17.5708C79.0832 16.994 78.2598 16.1406 77.712 15.109C77.1384 14.0496 76.8516 12.8227 76.8516 11.4282C76.8516 10.0337 77.13 8.80674 77.687 7.74743C78.219 6.7161 79.0359 5.8651 80.0374 5.29895C81.0466 4.72326 82.2058 4.43586 83.5149 4.43676C84.6899 4.41557 85.8502 4.70383 86.8829 5.27348C87.8546 5.81922 88.653 6.63508 89.1846 7.62541C89.7336 8.63376 90.0081 9.79587 90.0081 11.1117C90.0122 11.5699 89.9809 12.0276 89.9144 12.4808ZM87.1284 10.216C87.1126 9.18353 86.7492 8.35486 86.0383 7.73C85.3274 7.10514 84.4476 6.79227 83.3988 6.79137C82.4974 6.77168 81.6225 7.10155 80.952 7.71391C80.2737 8.32893 79.8698 9.16163 79.7405 10.212L87.1284 10.216Z" fill="white"/>
<path d="M46.8111 18.5014C45.5429 18.502 44.2987 18.1503 43.213 17.4844C42.1273 16.8185 41.2414 15.8638 40.6511 14.7234C40.0608 13.5829 39.7886 12.3003 39.8638 11.014C39.9391 9.72776 40.359 8.4869 41.0782 7.42558L41.5124 7.72996C40.6156 9.05548 40.2313 10.6703 40.4328 12.2657C40.6343 13.861 41.4075 15.325 42.6045 16.3775C43.8016 17.43 45.3385 17.9973 46.9214 17.9708C48.5042 17.9444 50.0219 17.326 51.1843 16.2341C52.3466 15.1421 53.072 13.6531 53.2217 12.0519C53.3715 10.4507 52.935 8.84956 51.9959 7.55473C51.0567 6.2599 49.6808 5.36224 48.1311 5.03339C46.5815 4.70455 44.967 4.9676 43.5962 5.77225L43.3323 5.30831C44.2567 4.7658 45.2915 4.44663 46.3567 4.37551C47.4219 4.30439 48.489 4.48321 49.4753 4.89814C50.4616 5.31307 51.3407 5.95299 52.0447 6.76838C52.7486 7.58377 53.2585 8.55278 53.5348 9.60043C53.8112 10.6481 53.8466 11.7463 53.6384 12.8101C53.4301 13.8739 52.9838 14.8747 52.3339 15.7352C51.6841 16.5957 50.8481 17.2927 49.8906 17.7724C48.9332 18.252 47.88 18.5015 46.8124 18.5014H46.8111Z" fill="#E0E1E2"/>
<path d="M40.1196 18.5017C38.9208 18.5023 37.7421 18.1882 36.6978 17.5899C35.6536 16.9916 34.7791 16.1294 34.1592 15.0869C33.5392 14.0444 33.1948 12.8568 33.1593 11.6393C33.1238 10.4218 33.3984 9.21556 33.9565 8.13756C34.5146 7.05955 35.3373 6.14629 36.3449 5.48625C37.3525 4.82621 38.5108 4.44178 39.7075 4.3702C40.9043 4.29861 42.099 4.54231 43.1758 5.07767C44.2526 5.61304 45.1751 6.42192 45.8539 7.42594L45.4184 7.73033C44.6411 6.58033 43.5222 5.71318 42.2251 5.25572C40.928 4.79826 39.5208 4.77449 38.2095 5.1879C36.8982 5.6013 35.7514 6.43019 34.937 7.5533C34.1226 8.67642 33.6833 10.0348 33.6833 11.4299C33.6833 12.8249 34.1226 14.1833 34.937 15.3064C35.7514 16.4295 36.8982 17.2584 38.2095 17.6718C39.5208 18.0852 40.928 18.0615 42.2251 17.604C43.5222 17.1465 44.6411 16.2794 45.4184 15.1294L45.8539 15.4338C45.214 16.3787 44.3578 17.1516 43.359 17.686C42.3601 18.2204 41.2485 18.5003 40.1196 18.5017ZM40.1196 15.7315C39.2822 15.7315 38.4637 15.4792 37.7675 15.0065C37.0712 14.5338 36.5286 13.862 36.2081 13.076C35.8877 12.29 35.8038 11.4251 35.9672 10.5907C36.1306 9.75623 36.5338 8.98976 37.1259 8.38817C37.718 7.78658 38.4724 7.37689 39.2936 7.21092C40.1149 7.04494 40.9662 7.13013 41.7398 7.4557C42.5134 7.78128 43.1746 8.33263 43.6398 9.04002C44.105 9.74741 44.3533 10.5791 44.3533 11.4299C44.3519 12.5703 43.9054 13.6636 43.1118 14.47C42.3181 15.2764 41.242 15.73 40.1196 15.7315ZM40.1196 7.66462C39.3866 7.66462 38.6702 7.88545 38.0607 8.29918C37.4513 8.71291 36.9763 9.30096 36.6958 9.98897C36.4154 10.677 36.342 11.434 36.485 12.1644C36.628 12.8948 36.9809 13.5657 37.4992 14.0923C38.0174 14.6189 38.6778 14.9775 39.3966 15.1227C40.1155 15.268 40.8606 15.1935 41.5378 14.9085C42.2149 14.6235 42.7937 14.1409 43.2009 13.5217C43.6081 12.9025 43.8254 12.1746 43.8254 11.4299C43.824 10.4317 43.4332 9.47481 42.7385 8.769C42.0438 8.06319 41.102 7.66604 40.1196 7.66462Z" fill="#BFBFBF"/>
<path d="M40.1163 17.1932C38.9939 17.1932 37.8967 16.8551 36.9635 16.2215C36.0303 15.5879 35.3029 14.6874 34.8734 13.6339C34.4439 12.5803 34.3315 11.421 34.5504 10.3025C34.7694 9.18403 35.3099 8.15665 36.1035 7.35028C36.8972 6.54391 37.9084 5.99477 39.0092 5.77229C40.11 5.54981 41.251 5.664 42.288 6.1004C43.3249 6.53681 44.2112 7.27583 44.8348 8.22402C45.4584 9.17221 45.7912 10.287 45.7912 11.4274C45.7912 12.9566 45.1933 14.4231 44.1291 15.5044C43.0648 16.5857 41.6214 17.1932 40.1163 17.1932ZM40.1163 6.19786C39.0983 6.19786 38.1032 6.50457 37.2568 7.07919C36.4104 7.65381 35.7507 8.47055 35.3611 9.42611C34.9715 10.3817 34.8696 11.4332 35.0682 12.4476C35.2668 13.462 35.757 14.3938 36.4768 15.1252C37.1966 15.8565 38.1138 16.3546 39.1122 16.5564C40.1106 16.7581 41.1455 16.6546 42.086 16.2588C43.0265 15.863 43.8303 15.1927 44.3959 14.3327C44.9614 13.4727 45.2633 12.4617 45.2633 11.4274C45.2619 10.0413 44.719 8.71257 43.7539 7.73301C42.7888 6.75345 41.4805 6.20322 40.1163 6.20322V6.19786Z" fill="#BFBFBF"/>
<path d="M46.8119 15.7315C45.9745 15.7315 45.156 15.4792 44.4597 15.0065C43.7635 14.5339 43.2208 13.8621 42.9004 13.076C42.58 12.29 42.4961 11.4251 42.6595 10.5907C42.8228 9.75627 43.2261 8.98979 43.8182 8.38821C44.4103 7.78662 45.1646 7.37693 45.9859 7.21095C46.8072 7.04497 47.6584 7.13016 48.432 7.45574C49.2057 7.78132 49.8669 8.33266 50.3321 9.04005C50.7973 9.74745 51.0456 10.5791 51.0456 11.4299C51.0442 12.5703 50.5977 13.6636 49.804 14.47C49.0103 15.2764 47.9343 15.7301 46.8119 15.7315ZM46.8119 7.66466C46.0789 7.66466 45.3624 7.88548 44.753 8.29921C44.1436 8.71294 43.6686 9.30099 43.3881 9.989C43.1076 10.677 43.0342 11.4341 43.1772 12.1645C43.3202 12.8948 43.6732 13.5657 44.1914 14.0923C44.7097 14.6189 45.37 14.9775 46.0889 15.1228C46.8078 15.2681 47.5529 15.1935 48.23 14.9085C48.9072 14.6235 49.486 14.1409 49.8932 13.5217C50.3004 12.9026 50.5177 12.1746 50.5177 11.4299C50.5163 10.4317 50.1254 9.47485 49.4307 8.76904C48.7361 8.06322 47.7943 7.66607 46.8119 7.66466Z" fill="#E0E1E2"/>
<path d="M46.8116 17.1932C45.6892 17.1932 44.592 16.8551 43.6588 16.2215C42.7256 15.5879 41.9982 14.6874 41.5687 13.6339C41.1392 12.5803 41.0268 11.421 41.2458 10.3025C41.4647 9.18403 42.0052 8.15665 42.7989 7.35028C43.5925 6.54391 44.6037 5.99477 45.7045 5.77229C46.8053 5.54981 47.9464 5.664 48.9833 6.1004C50.0203 6.53681 50.9066 7.27583 51.5301 8.22402C52.1537 9.17221 52.4865 10.287 52.4865 11.4274C52.4865 12.9566 51.8886 14.4231 50.8244 15.5044C49.7601 16.5857 48.3167 17.1932 46.8116 17.1932ZM46.8116 6.19786C45.7936 6.19786 44.7985 6.50457 43.9521 7.07919C43.1057 7.65381 42.446 8.47055 42.0564 9.42611C41.6668 10.3817 41.5649 11.4332 41.7635 12.4476C41.9621 13.462 42.4523 14.3938 43.1721 15.1252C43.892 15.8565 44.8091 16.3546 45.8075 16.5564C46.8059 16.7581 47.8408 16.6546 48.7813 16.2588C49.7218 15.863 50.5256 15.1927 51.0912 14.3327C51.6567 13.4727 51.9586 12.4617 51.9586 11.4274C51.9572 10.0413 51.4143 8.71257 50.4492 7.73301C49.4841 6.75345 48.1758 6.20322 46.8116 6.20322V6.19786Z" fill="#E0E1E2"/>
<path d="M11.3181 10.8813C11.8785 11.5943 12.2065 12.4668 12.2564 13.3778C12.3063 14.2888 12.0757 15.193 11.5966 15.9647C11.1221 16.6892 10.4542 17.2613 9.67108 17.614C8.75016 18.0335 7.74893 18.2396 6.73993 18.2174H0V1.10889H6.42055C7.56433 1.10889 8.54974 1.30555 9.37678 1.69888C10.1349 2.03683 10.782 2.5882 11.2416 3.28784C11.6635 3.95104 11.8847 4.72542 11.8777 5.51507C11.8777 6.4984 11.619 7.31902 11.1017 7.97696C10.5572 8.65263 9.83428 9.15642 9.01781 9.42915C9.92227 9.59274 10.689 10.0768 11.3181 10.8813ZM2.77146 8.29609H6.18696C7.0923 8.29609 7.79924 8.08691 8.30778 7.66855C8.81633 7.25019 9.0706 6.64724 9.0706 5.85968C9.0706 5.08912 8.81633 4.48616 8.30778 4.05081C7.79924 3.61547 7.0923 3.3978 6.18696 3.3978H2.77146V8.29609ZM8.71031 15.2393C9.2382 14.7798 9.50215 14.1397 9.50215 13.3191C9.50215 12.4815 9.21973 11.8168 8.65488 11.3252C8.09003 10.8335 7.33821 10.5863 6.39944 10.5837H2.77146V15.9258H6.50238C7.43587 15.9276 8.16921 15.6987 8.70239 15.2393H8.71031Z" fill="white"/>
<path d="M29.7915 5.059C30.5297 5.42414 31.1737 5.95955 31.6721 6.62248V4.6527H34.4594V18.4385C34.4797 19.599 34.2129 20.7461 33.6834 21.7746C33.1704 22.746 32.391 23.5453 31.4398 24.0756C30.4614 24.6334 29.2944 24.9128 27.9385 24.9136C26.1296 24.9136 24.6273 24.4828 23.4316 23.621C22.8586 23.2249 22.379 22.7048 22.0271 22.0981C21.6753 21.4914 21.46 20.8131 21.3966 20.1119H24.135C24.3568 20.8335 24.8366 21.4444 25.4799 21.8242C26.1661 22.2587 26.9857 22.4759 27.9385 22.4759C29.0542 22.4759 29.9547 22.1313 30.64 21.4421C31.3254 20.7528 31.6686 19.7516 31.6695 18.4385V16.1737C31.1612 16.8471 30.5115 17.3968 29.7677 17.7828C28.9269 18.2273 27.9901 18.4513 27.0424 18.4344C25.9184 18.4456 24.8141 18.1342 23.8566 17.536C22.8853 16.9271 22.0974 16.0588 21.5787 15.0259C21.0089 13.8952 20.7219 12.6393 20.7433 11.3693C20.7433 10.0069 21.0218 8.8001 21.5787 7.74883C22.099 6.73658 22.8847 5.89031 23.849 5.30364C24.8133 4.71698 25.9185 4.4128 27.0424 4.42475C27.9957 4.40835 28.9387 4.62593 29.7915 5.059ZM31.0993 8.98648C30.7536 8.33254 30.2383 7.78721 29.6093 7.40959C29.0057 7.05402 28.3195 6.86884 27.6218 6.87323C26.9122 6.8668 26.2142 7.05655 25.6026 7.42219C24.9909 7.78782 24.4887 8.31557 24.1496 8.94894C23.7544 9.69258 23.5578 10.5284 23.5794 11.3733C23.5607 12.2298 23.7569 13.077 24.1496 13.8352C24.4951 14.5016 25.0147 15.0584 25.6514 15.4442C26.2499 15.8072 26.934 15.9986 27.631 15.998C28.3288 16.003 29.0152 15.8178 29.6186 15.4617C30.2501 15.082 30.7658 14.532 31.1086 13.8727C31.4996 13.1185 31.6936 12.275 31.6721 11.4229C31.6914 10.5741 31.4941 9.73474 31.0993 8.98648Z" fill="white"/>
<path d="M21.8349 12.1487H11.6346C11.7156 13.2322 12.1115 14.102 12.8224 14.7581C13.5371 15.4172 14.4747 15.7703 15.4395 15.7437C16.9255 15.7437 17.9756 15.1116 18.5897 13.8476H21.5697C21.1766 15.0797 20.4085 16.153 19.3763 16.9129C18.3205 17.7085 17.0082 18.1063 15.4395 18.1063C14.2399 18.127 13.0562 17.8254 12.0081 17.2321C11.0033 16.6559 10.1796 15.8023 9.63259 14.7702C9.05982 13.7126 8.77344 12.4862 8.77344 11.0907C8.77344 9.69532 9.0519 8.4684 9.60884 7.40999C10.1408 6.37825 10.9577 5.52679 11.9593 4.96017C12.9685 4.38626 14.1272 4.09931 15.4355 4.09931C16.6105 4.07794 17.7708 4.36621 18.8035 4.93603C19.7788 5.47945 20.5806 6.29509 21.1144 7.28662C21.6634 8.29587 21.9379 9.45798 21.9379 10.773C21.9392 11.2336 21.9048 11.6936 21.8349 12.1487ZM19.049 9.88394C19.0322 8.84966 18.6684 8.02099 17.9575 7.39792C17.2466 6.77485 16.3668 6.46197 15.318 6.45929C14.4165 6.4401 13.5416 6.77044 12.8712 7.38317C12.1929 7.99909 11.7891 8.83178 11.6597 9.88126L19.049 9.88394Z" fill="white"/>
</svg>
