<svg width="30" height="30" viewBox="0 0 30 30" fill="none" xmlns="http://www.w3.org/2000/svg">
    <path d="M15 30C12.0333 30 9.13319 29.1203 6.66645 27.472C4.19971 25.8238 2.27713 23.4811 1.14181 20.7403C0.00649919 17.9994 -0.290551 14.9834 0.288227 12.0736C0.867006 9.16393 2.29562 6.49119 4.3934 4.3934C6.49119 2.29562 9.16393 0.867006 12.0736 0.288227C14.9834 -0.290551 17.9994 0.00649919 20.7403 1.14181C23.4811 2.27713 25.8238 4.19971 27.472 6.66645C29.1203 9.13319 30 12.0333 30 15C30 18.9782 28.4196 22.7936 25.6066 25.6066C22.7936 28.4196 18.9782 30 15 30ZM15 2.50001C12.5277 2.50001 10.111 3.23312 8.05538 4.60664C5.99976 5.98015 4.39761 7.93239 3.45151 10.2165C2.50542 12.5005 2.25787 15.0139 2.74019 17.4386C3.2225 19.8634 4.41301 22.0907 6.16117 23.8388C7.90933 25.587 10.1366 26.7775 12.5614 27.2598C14.9861 27.7421 17.4995 27.4946 19.7835 26.5485C22.0676 25.6024 24.0199 24.0002 25.3934 21.9446C26.7669 19.889 27.5 17.4723 27.5 15C27.5 11.6848 26.183 8.50537 23.8388 6.16117C21.4946 3.81697 18.3152 2.50001 15 2.50001Z" fill="black"/>
    <path d="M15.0015 22.9167C14.8373 22.9174 14.6745 22.8854 14.5228 22.8224C14.3712 22.7595 14.2336 22.6668 14.1182 22.55L7.4515 15.8833C7.21742 15.6489 7.08594 15.3312 7.08594 15C7.08594 14.6687 7.21742 14.351 7.4515 14.1167L14.1182 7.44999C14.3551 7.22919 14.6685 7.10898 14.9924 7.1147C15.3162 7.12041 15.6252 7.2516 15.8542 7.48062C16.0832 7.70964 16.2144 8.01862 16.2201 8.34245C16.2258 8.66629 16.1056 8.9797 15.8848 9.21665L10.1015 15L15.8848 20.7833C16.1189 21.0177 16.2504 21.3354 16.2504 21.6667C16.2504 21.9979 16.1189 22.3156 15.8848 22.55C15.7694 22.6668 15.6318 22.7595 15.4802 22.8224C15.3285 22.8854 15.1657 22.9174 15.0015 22.9167Z" fill="black"/>
    <path d="M21.6693 16.25H8.33594C8.00442 16.25 7.68647 16.1183 7.45205 15.8839C7.21763 15.6495 7.08594 15.3315 7.08594 15C7.08594 14.6685 7.21763 14.3505 7.45205 14.1161C7.68647 13.8817 8.00442 13.75 8.33594 13.75H21.6693C22.0008 13.75 22.3187 13.8817 22.5532 14.1161C22.7876 14.3505 22.9193 14.6685 22.9193 15C22.9193 15.3315 22.7876 15.6495 22.5532 15.8839C22.3187 16.1183 22.0008 16.25 21.6693 16.25Z" fill="black"/>
</svg>
