<svg width="30" height="30" viewBox="0 0 30 30" fill="none" xmlns="http://www.w3.org/2000/svg">
    <path d="M15 30C12.0333 30 9.13319 29.1203 6.66645 27.472C4.19972 25.8238 2.27713 23.4811 1.14181 20.7403C0.00649919 17.9994 -0.290551 14.9834 0.288227 12.0736C0.867006 9.16394 2.29562 6.49119 4.3934 4.3934C6.49119 2.29562 9.16394 0.867006 12.0736 0.288227C14.9834 -0.290551 17.9994 0.00649919 20.7403 1.14181C23.4811 2.27713 25.8238 4.19972 27.472 6.66645C29.1203 9.13319 30 12.0333 30 15C30 18.9782 28.4196 22.7936 25.6066 25.6066C22.7936 28.4196 18.9782 30 15 30ZM15 2.50001C12.5277 2.50001 10.111 3.23312 8.05538 4.60664C5.99976 5.98015 4.39761 7.93239 3.45151 10.2165C2.50542 12.5005 2.25787 15.0139 2.74019 17.4386C3.22251 19.8634 4.41301 22.0907 6.16117 23.8388C7.90933 25.587 10.1366 26.7775 12.5614 27.2598C14.9861 27.7421 17.4995 27.4946 19.7835 26.5485C22.0676 25.6024 24.0199 24.0002 25.3934 21.9446C26.7669 19.889 27.5 17.4723 27.5 15C27.5 11.6848 26.183 8.50537 23.8388 6.16117C21.4946 3.81697 18.3152 2.50001 15 2.50001Z" fill="#5A5A5A"/>
    <path d="M11.6664 22.9169C11.5021 22.9177 11.3394 22.8856 11.1877 22.8227C11.036 22.7597 10.8985 22.6671 10.783 22.5502C10.549 22.3159 10.4175 21.9981 10.4175 21.6669C10.4175 21.3356 10.549 21.0179 10.783 20.7836L16.5664 15.0002L10.783 9.2169C10.5622 8.97994 10.442 8.66653 10.4478 8.3427C10.4535 8.01886 10.5847 7.70988 10.8137 7.48086C11.0427 7.25184 11.3517 7.12065 11.6755 7.11494C11.9993 7.10923 12.3128 7.22943 12.5497 7.45023L19.2164 14.1169C19.4505 14.3513 19.5819 14.669 19.5819 15.0002C19.5819 15.3315 19.4505 15.6492 19.2164 15.8836L12.5497 22.5502C12.4343 22.6671 12.2967 22.7597 12.145 22.8227C11.9933 22.8856 11.8306 22.9177 11.6664 22.9169Z" fill="#5A5A5A"/>
</svg>
