<svg width="17" height="17" viewBox="0 0 17 17" fill="none" xmlns="http://www.w3.org/2000/svg">
    <path d="M14.55 2.45C12.9776 0.884279 10.849 0.00522494 8.63 0.00522494C6.41101 0.00522494 4.28239 0.884279 2.71 2.45L1.5 3.66V0.75C1.5 0.551088 1.42098 0.360322 1.28033 0.21967C1.13968 0.0790175 0.948912 0 0.75 0C0.551088 0 0.360322 0.0790175 0.21967 0.21967C0.0790175 0.360322 2.85177e-09 0.551088 2.85177e-09 0.75V5.49C-1.72974e-05 5.68984 0.0786798 5.88165 0.219052 6.0239C0.359424 6.16614 0.550173 6.24737 0.75 6.25H5.5C5.69891 6.25 5.88968 6.17098 6.03033 6.03033C6.17098 5.88968 6.25 5.69891 6.25 5.5C6.25 5.30109 6.17098 5.11032 6.03033 4.96967C5.88968 4.82902 5.69891 4.75 5.5 4.75H2.5L3.77 3.51C5.05985 2.22274 6.80771 1.49978 8.63 1.49978C10.4523 1.49978 12.2001 2.22274 13.49 3.51C19.68 10.2 10.49 19.42 3.77 13.23C3.62937 13.0896 3.43875 13.0107 3.24 13.0107C3.04125 13.0107 2.85063 13.0896 2.71 13.23C2.63924 13.2989 2.58301 13.3814 2.54461 13.4724C2.50621 13.5634 2.48643 13.6612 2.48643 13.76C2.48643 13.8588 2.50621 13.9566 2.54461 14.0476C2.58301 14.1386 2.63924 14.2211 2.71 14.29C4.28008 15.8601 6.40957 16.7421 8.63 16.7421C10.8504 16.7421 12.9799 15.8601 14.55 14.29C16.1201 12.7199 17.0021 10.5904 17.0021 8.37C17.0021 6.14957 16.1201 4.02008 14.55 2.45Z" fill="currentColor"/>
    <path d="M8.5 4.12012C8.30189 4.12271 8.11263 4.20256 7.97253 4.34265C7.83244 4.48275 7.75259 4.67201 7.75 4.87012V8.37012C7.75018 8.56896 7.82931 8.7596 7.97 8.90012L10.5 11.3701C10.5692 11.4402 10.6518 11.4958 10.7428 11.5336C10.8338 11.5714 10.9315 11.5906 11.03 11.5901C11.1617 11.5709 11.2859 11.5171 11.3899 11.434C11.4939 11.351 11.5739 11.2418 11.6218 11.1176C11.6696 10.9934 11.6836 10.8587 11.6622 10.7273C11.6408 10.596 11.5848 10.4727 11.5 10.3701L9.22 8.09012V4.87012C9.21773 4.67703 9.14204 4.49204 9.00831 4.35274C8.87458 4.21344 8.69284 4.13027 8.5 4.12012Z" fill="currentColor"/>
</svg>
