<svg width="39" height="39" viewBox="0 0 39 39" fill="none" xmlns="http://www.w3.org/2000/svg">
    <circle cx="19.5" cy="19.5" r="19.5" fill="#E4E4E5"/>
    <path d="M20.9981 19.4991L27.6877 12.8201C27.8877 12.6201 28 12.349 28 12.0662C28 11.7834 27.8877 11.5122 27.6877 11.3123C27.4878 11.1123 27.2166 11 26.9338 11C26.651 11 26.3799 11.1123 26.1799 11.3123L19.5009 18.0019L12.8219 11.3123C12.622 11.1123 12.3508 11 12.068 11C11.7852 11 11.514 11.1123 11.3141 11.3123C11.1141 11.5122 11.0018 11.7834 11.0018 12.0662C11.0018 12.349 11.1141 12.6201 11.3141 12.8201L18.0037 19.4991L11.3141 26.1781C11.2146 26.2768 11.1356 26.3942 11.0817 26.5236C11.0278 26.653 11 26.7918 11 26.932C11 27.0722 11.0278 27.211 11.0817 27.3404C11.1356 27.4698 11.2146 27.5872 11.3141 27.6859C11.4128 27.7854 11.5302 27.8644 11.6596 27.9183C11.789 27.9722 11.9278 28 12.068 28C12.2082 28 12.347 27.9722 12.4764 27.9183C12.6058 27.8644 12.7232 27.7854 12.8219 27.6859L19.5009 20.9963L26.1799 27.6859C26.2786 27.7854 26.3961 27.8644 26.5255 27.9183C26.6548 27.9722 26.7936 28 26.9338 28C27.074 28 27.2128 27.9722 27.3422 27.9183C27.4716 27.8644 27.589 27.7854 27.6877 27.6859C27.7872 27.5872 27.8662 27.4698 27.9201 27.3404C27.9741 27.211 28.0018 27.0722 28.0018 26.932C28.0018 26.7918 27.9741 26.653 27.9201 26.5236C27.8662 26.3942 27.7872 26.2768 27.6877 26.1781L20.9981 19.4991Z" fill="black"/>
</svg>
