<svg width="22" height="22" viewBox="0 0 22 22" fill="none" xmlns="http://www.w3.org/2000/svg">
<path d="M11 22C8.82441 22 6.69767 21.3549 4.88873 20.1462C3.07979 18.9375 1.66989 17.2195 0.83733 15.2095C0.00476607 13.1995 -0.213071 10.9878 0.211367 8.85401C0.635804 6.72022 1.68345 4.76021 3.22183 3.22183C4.76021 1.68345 6.72022 0.635804 8.85401 0.211367C10.9878 -0.213071 13.1995 0.00476607 15.2095 0.83733C17.2195 1.66989 18.9375 3.07979 20.1462 4.88873C21.3549 6.69767 22 8.82441 22 11C22 13.9174 20.8411 16.7153 18.7782 18.7782C16.7153 20.8411 13.9174 22 11 22ZM11 1.83334C9.18701 1.83334 7.41473 2.37095 5.90728 3.3782C4.39983 4.38545 3.22491 5.81708 2.53111 7.49207C1.83731 9.16706 1.65578 11.0102 2.00947 12.7883C2.36317 14.5665 3.23621 16.1998 4.51819 17.4818C5.80017 18.7638 7.43352 19.6368 9.21168 19.9905C10.9898 20.3442 12.8329 20.1627 14.5079 19.4689C16.1829 18.7751 17.6146 17.6002 18.6218 16.0927C19.6291 14.5853 20.1667 12.813 20.1667 11C20.1667 8.56885 19.2009 6.23728 17.4818 4.51819C15.7627 2.79911 13.4312 1.83334 11 1.83334Z" fill="#3A9EE4"/>
<path d="M11.0007 12.2222C10.7585 12.219 10.5272 12.1214 10.356 11.9502C10.1847 11.779 10.0871 11.5477 10.084 11.3055V7.02775C10.084 6.78464 10.1806 6.55148 10.3525 6.37957C10.5244 6.20766 10.7575 6.11108 11.0007 6.11108C11.2438 6.11108 11.4769 6.20766 11.6488 6.37957C11.8207 6.55148 11.9173 6.78464 11.9173 7.02775V11.3055C11.9142 11.5477 11.8166 11.779 11.6453 11.9502C11.4741 12.1214 11.2428 12.219 11.0007 12.2222Z" fill="#3A9EE4"/>
<path d="M11.0007 15.8889C10.7585 15.8857 10.5272 15.7881 10.356 15.6169C10.1847 15.4457 10.0871 15.2144 10.084 14.9722V14.3611C10.084 14.118 10.1806 13.8849 10.3525 13.7129C10.5244 13.541 10.7575 13.4445 11.0007 13.4445C11.2438 13.4445 11.4769 13.541 11.6488 13.7129C11.8207 13.8849 11.9173 14.118 11.9173 14.3611V14.9722C11.9142 15.2144 11.8166 15.4457 11.6453 15.6169C11.4741 15.7881 11.2428 15.8857 11.0007 15.8889Z" fill="#3A9EE4"/>
</svg>
