<svg width="317" height="205" viewBox="0 0 317 205" fill="none" xmlns="http://www.w3.org/2000/svg">
    <path d="M116.731 3.02506C117.14 4.16677 117.083 5.42322 116.574 6.52351C116.064 7.62379 115.142 8.47975 114.008 8.90681C113.757 9.00058 113.498 9.07193 113.234 9.12004L110.611 25.1827L104.457 19.5008L107.892 5.11855C107.764 3.90662 108.119 2.69335 108.88 1.74102C109.64 0.788704 110.744 0.173847 111.954 0.0293862C112.972 -0.0873035 114 0.145674 114.868 0.690049C115.736 1.23442 116.393 2.05786 116.731 3.02506Z" fill="#FFB6B6"/>
    <path d="M71.3171 39.4211C71.3171 39.4211 76.0932 33.1107 93.4244 33.2836L103.262 29.7094L105.51 9.101L113.378 10.9745L112.254 36.454L95.3929 46.1962L73.2857 50.6926L71.3171 39.4211Z" fill="#E6E7E8"/>
    <path d="M44.6858 194.781L49.226 196.716L58.8494 180.125L52.1487 177.269L44.6858 194.781Z" fill="#FFB6B6"/>
    <path d="M82.2038 199.077L87.1385 199.077L89.4864 180.041L82.2026 180.042L82.2038 199.077Z" fill="#FFB6B6"/>
    <path d="M82.03 204.225L97.2059 204.225V204.033C97.2058 202.466 96.5835 200.964 95.4757 199.856C94.368 198.749 92.8656 198.126 91.2991 198.126L88.5266 196.023L83.3545 198.126L82.0298 198.126L82.03 204.225Z" fill="#2F2E41"/>
    <path d="M41.9255 198.077L55.8866 204.026L55.9618 203.85C56.5759 202.408 56.5924 200.782 56.0077 199.329C55.423 197.876 54.2849 196.714 52.8438 196.1L51.1179 193.078L45.5352 192.985L44.3165 192.466L41.9255 198.077Z" fill="#2F2E41"/>
    <path d="M87.0446 86.4191L94.5448 132.089L92.5037 138.894L95.1821 143.714L91.2488 186.044L92.8454 189.559L88.3844 192.311H79.307L78.8252 153.989L76.5829 148.363V145.262L72.0183 121.894L71.1778 148.624L69.85 154.259L70.9653 158.271L69.508 161.082L57.0189 187.9H46.8401L47.6273 181.835C45.8037 180.912 50.3654 178.213 50.8037 176.217L49.3049 172.844L50.8037 166.475L52.178 154.028L50.7287 127.754L51.4107 92.3739L63.318 83.2686L87.0446 86.4191Z" fill="#2F2E41"/>
    <path d="M68.7796 26.2747C74.4607 26.2747 79.0661 21.6694 79.0661 15.9883C79.0661 10.3073 74.4607 5.70186 68.7796 5.70186C63.0986 5.70186 58.4932 10.3073 58.4932 15.9883C58.4932 21.6694 63.0986 26.2747 68.7796 26.2747Z" fill="#FFB6B6"/>
    <path d="M51.3696 93.9827C51.3514 93.9827 51.3332 93.9803 51.3157 93.9754C51.1258 93.9223 50.9757 93.8806 51.6611 87.9544L52.4008 83.2701L51.6787 79.134L50.464 77.9193L52.4162 75.9673L51.2198 67.1136L47.9677 49.9362C47.4086 46.9721 47.8431 43.9064 49.2037 41.2144C50.5644 38.5225 52.7752 36.3546 55.4933 35.047L61.8958 29.1086L73.6772 29.0204L77.4465 33.9204L87.4185 37.3078L85.7651 71.5154L86.9249 74.2215L86.8255 74.3114C86.8178 74.3183 86.0452 75.017 85.6981 75.4012C85.53 75.64 85.8454 77.4231 86.2349 78.9371L86.7344 82.6744L85.4756 83.574L87.1122 85.5071L87.5861 89.0607L87.3188 88.9943C87.0176 88.9193 57.1603 81.6566 51.5758 93.8264C51.5617 93.8705 51.5343 93.9091 51.4974 93.9371C51.4605 93.965 51.4159 93.981 51.3696 93.9827Z" fill="#E6E7E8"/>
    <path d="M66.1481 25.7711C66.1041 25.6743 66.0603 25.5772 66.0166 25.4798C66.0335 25.4803 66.0501 25.4828 66.067 25.4832L66.1481 25.7711Z" fill="#2F2E41"/>
    <path d="M58.2069 6.16964C58.6953 5.70885 59.3302 5.43438 60.0004 5.39422C60.6656 5.41566 61.3401 6.01641 61.2023 6.66751C62.4241 4.50425 64.3688 2.84046 66.6951 1.96817C69.0213 1.09588 71.5805 1.07083 73.9234 1.89744C75.5766 2.48071 77.1978 3.64759 77.5776 5.35904C77.6146 5.80837 77.7486 6.24433 77.9703 6.63686C78.1625 6.84671 78.4119 6.99575 78.6878 7.06564C78.9636 7.13552 79.2539 7.12319 79.5228 7.03018L79.5392 7.02537C79.6312 6.99394 79.7306 6.99085 79.8244 7.0165C79.9182 7.04215 80.0022 7.09536 80.0654 7.16926C80.1287 7.24315 80.1683 7.33433 80.1792 7.43099C80.1901 7.52764 80.1717 7.62534 80.1264 7.71144L79.6587 8.58384C80.2483 8.71528 80.861 8.70224 81.4446 8.54586C81.5415 8.52044 81.6439 8.52563 81.7378 8.56073C81.8316 8.59582 81.9124 8.6591 81.9688 8.74187C82.0253 8.82465 82.0548 8.92287 82.0533 9.02307C82.0517 9.12327 82.0192 9.22054 81.9602 9.30154C81.1828 10.3651 80.1679 11.2325 78.9963 11.8348C77.8246 12.437 76.5285 12.7575 75.2112 12.7706C73.3422 12.7592 71.454 12.1151 69.635 12.5449C68.9313 12.7111 68.2738 13.0328 67.7107 13.4864C67.1475 13.9399 66.6931 14.5138 66.3807 15.1659C66.0682 15.8179 65.9058 16.5317 65.9052 17.2548C65.9046 17.9778 66.0659 18.6918 66.3772 19.3444C65.8184 18.7332 64.7382 18.8779 64.1666 19.4772C63.9034 19.798 63.7088 20.1694 63.595 20.5685C63.4811 20.9675 63.4504 21.3857 63.5047 21.7971C63.6571 23.0571 64.0312 24.2803 64.6097 25.4101C62.3995 25.3421 60.2635 24.5974 58.4901 23.2766C56.7167 21.9558 55.3914 20.1226 54.6932 18.0245C53.995 15.9264 53.9576 13.6646 54.5859 11.5445C55.2143 9.4245 56.4782 7.5484 58.2069 6.16964Z" fill="#2F2E41"/>
    <path d="M119.305 198.245L116.416 193.603L115.839 196.256C115.738 196.72 115.637 197.192 115.543 197.661C114.722 196.96 113.849 196.312 112.995 195.69C110.372 193.786 107.751 191.88 105.13 189.972L105.951 194.731C106.457 197.661 106.985 200.651 108.236 203.33C108.375 203.633 108.525 203.933 108.686 204.225H120.879C120.977 203.954 121.045 203.672 121.081 203.386C121.084 203.368 121.085 203.349 121.085 203.33C121.276 201.513 120.272 199.8 119.305 198.245Z" fill="#F0F0F0"/>
    <path d="M19.1745 198.245L22.0634 193.603L22.6405 196.256C22.7416 196.72 22.8428 197.192 22.9365 197.661C23.7571 196.96 24.6301 196.312 25.4844 195.69C28.1073 193.786 30.7289 191.88 33.3494 189.972L32.5288 194.731C32.0229 197.661 31.4946 200.651 30.2431 203.33C30.1044 203.633 29.9546 203.933 29.7934 204.225H17.6007C17.5026 203.954 17.4348 203.672 17.3984 203.386C17.3953 203.368 17.3941 203.349 17.3947 203.33C17.2035 201.513 18.2077 199.8 19.1745 198.245Z" fill="#F0F0F0"/>
    <path d="M147.236 204.672H0.447442C0.388744 204.672 0.330592 204.66 0.276313 204.638C0.222034 204.616 0.172696 204.583 0.13113 204.541C0.0895638 204.5 0.0565838 204.451 0.0340817 204.396C0.0115797 204.342 0 204.284 0 204.225C0 204.167 0.0115797 204.109 0.0340817 204.054C0.0565838 204 0.0895638 203.951 0.13113 203.91C0.172696 203.868 0.222034 203.835 0.276313 203.813C0.330592 203.791 0.388744 203.779 0.447442 203.779H147.236C147.354 203.779 147.468 203.826 147.551 203.91C147.635 203.994 147.682 204.107 147.682 204.225C147.682 204.344 147.635 204.457 147.551 204.541C147.468 204.625 147.354 204.672 147.236 204.672Z" fill="#CACACA"/>
    <path d="M208.729 14.6187H164.206C163.746 14.618 163.306 14.435 162.981 14.1097C162.656 13.7845 162.474 13.3437 162.474 12.884C162.474 12.4244 162.656 11.9836 162.981 11.6583C163.306 11.3331 163.746 11.1501 164.206 11.1494H208.729C210.966 11.1181 210.988 14.6502 208.729 14.6187Z" fill="#E4E4E4"/>
    <path d="M268.706 23.6926H164.206C163.746 23.692 163.306 23.5089 162.981 23.1837C162.656 22.8584 162.474 22.4176 162.474 21.958C162.474 21.4984 162.656 21.0575 162.981 20.7323C163.306 20.4071 163.746 20.224 164.206 20.2233H268.706C270.943 20.1921 270.965 23.7242 268.706 23.6926Z" fill="#E4E4E4"/>
    <path d="M305.11 28.5717C311.269 28.5717 316.261 23.5794 316.261 17.421C316.261 11.2626 311.269 6.27026 305.11 6.27026C298.952 6.27026 293.959 11.2626 293.959 17.421C293.959 23.5794 298.952 28.5717 305.11 28.5717Z" fill="black"/>
    <path d="M303.589 23.2245C303.397 23.2245 303.207 23.1796 303.034 23.0935C302.862 23.0074 302.712 22.8823 302.597 22.7282L299.555 18.672C299.457 18.5417 299.386 18.3934 299.345 18.2356C299.305 18.0777 299.296 17.9134 299.319 17.7521C299.342 17.5908 299.396 17.4356 299.479 17.2953C299.562 17.1551 299.672 17.0326 299.802 16.9348C299.933 16.837 300.081 16.7659 300.239 16.7255C300.397 16.6851 300.561 16.6762 300.722 16.6993C300.884 16.7224 301.039 16.7771 301.179 16.8602C301.319 16.9433 301.442 17.0532 301.539 17.1837L303.53 19.8371L308.641 12.1697C308.732 12.0342 308.848 11.9178 308.983 11.8272C309.119 11.7365 309.27 11.6734 309.43 11.6415C309.59 11.6095 309.754 11.6094 309.914 11.641C310.074 11.6726 310.226 11.7354 310.361 11.8257C310.497 11.9161 310.613 12.0322 310.704 12.1676C310.795 12.3029 310.858 12.4548 310.89 12.6145C310.922 12.7743 310.922 12.9387 310.89 13.0985C310.859 13.2583 310.796 13.4103 310.705 13.5458L304.621 22.6721C304.511 22.8371 304.363 22.9734 304.19 23.0694C304.016 23.1655 303.822 23.2185 303.624 23.2241C303.612 23.2243 303.601 23.2245 303.589 23.2245Z" fill="white"/>
    <path d="M141.873 6.96568H113.633C113.192 6.96618 112.769 7.14168 112.457 7.45366C112.145 7.76565 111.969 8.18864 111.969 8.62986V26.2121C111.969 26.6533 112.145 27.0763 112.457 27.3883C112.769 27.7003 113.192 27.8758 113.633 27.8763H141.873C142.314 27.8758 142.737 27.7003 143.049 27.3883C143.361 27.0764 143.537 26.6534 143.537 26.2121V8.62986C143.537 8.18864 143.361 7.76563 143.049 7.45364C142.737 7.14166 142.314 6.96617 141.873 6.96568ZM142.419 19.5953C142.413 21.3852 141.705 23.1013 140.447 24.3752C139.19 25.6492 137.483 26.3796 135.693 26.4097C132.828 26.447 137.279 26.4616 133.823 26.4616C125.92 26.4616 117.68 26.386 114.605 26.3371C114.201 26.3287 113.815 26.1626 113.532 25.8741C113.248 25.5856 113.088 25.1976 113.087 24.793V8.63116C113.087 8.48627 113.144 8.34734 113.247 8.24476C113.349 8.14218 113.488 8.08431 113.633 8.08379H141.872C142.017 8.08396 142.156 8.14148 142.258 8.24378C142.361 8.34609 142.419 8.48483 142.419 8.62969V19.5953Z" fill="#CACACA"/>
    <path d="M138.148 18.1874H116.632C116.441 18.1871 116.256 18.1281 116.1 18.0184C115.944 17.9087 115.826 17.7536 115.762 17.5744L112.439 8.25144C112.39 8.11229 112.374 7.96326 112.394 7.81689C112.414 7.67051 112.469 7.53107 112.554 7.41028C112.639 7.2895 112.752 7.19089 112.883 7.12275C113.014 7.05462 113.16 7.01894 113.307 7.01873L142.164 6.96751H142.165C142.318 6.96752 142.468 7.00543 142.603 7.07783C142.737 7.15024 142.852 7.25488 142.936 7.38237C143.02 7.50986 143.071 7.65622 143.084 7.80832C143.098 7.96043 143.074 8.11353 143.013 8.25389L138.996 17.628C138.925 17.7941 138.807 17.9357 138.656 18.0351C138.505 18.1346 138.328 18.1875 138.148 18.1874Z" fill="#CACACA"/>
    <path d="M127.737 20.4864C129.007 20.4864 130.036 19.4571 130.036 18.1874C130.036 16.9176 129.007 15.8883 127.737 15.8883C126.467 15.8883 125.438 16.9176 125.438 18.1874C125.438 19.4571 126.467 20.4864 127.737 20.4864Z" fill="#3F3D56"/>
    <path d="M208.729 64.0854H164.206C163.746 64.0847 163.306 63.9017 162.981 63.5764C162.656 63.2512 162.474 62.8104 162.474 62.3508C162.474 61.8911 162.656 61.4503 162.981 61.1251C163.306 60.7998 163.746 60.6168 164.206 60.6161H208.729C210.966 60.5849 210.988 64.1169 208.729 64.0854Z" fill="#E4E4E4"/>
    <path d="M268.706 73.1593H164.206C163.746 73.1593 163.305 72.9766 162.979 72.6513C162.654 72.326 162.471 71.8847 162.471 71.4247C162.471 70.9646 162.654 70.5234 162.979 70.1981C163.305 69.8728 163.746 69.69 164.206 69.69H268.706C270.943 69.6588 270.965 73.1908 268.706 73.1593Z" fill="#E4E4E4"/>
    <path d="M305.11 78.0385C311.269 78.0385 316.261 73.0461 316.261 66.8877C316.261 60.7293 311.269 55.737 305.11 55.737C298.952 55.737 293.959 60.7293 293.959 66.8877C293.959 73.0461 298.952 78.0385 305.11 78.0385Z" fill="black"/>
    <path d="M303.589 72.6911C303.397 72.6912 303.207 72.6463 303.034 72.5602C302.862 72.474 302.712 72.349 302.597 72.1949L299.555 68.1387C299.457 68.0084 299.386 67.8601 299.345 67.7023C299.305 67.5444 299.296 67.3801 299.319 67.2188C299.342 67.0575 299.396 66.9022 299.479 66.762C299.562 66.6218 299.672 66.4993 299.802 66.4015C299.933 66.3037 300.081 66.2326 300.239 66.1922C300.397 66.1518 300.561 66.1429 300.722 66.166C300.884 66.1891 301.039 66.2438 301.179 66.3269C301.319 66.41 301.442 66.5199 301.539 66.6504L303.53 69.3038L308.641 61.6364C308.732 61.5007 308.848 61.3841 308.983 61.2933C309.118 61.2024 309.27 61.1392 309.43 61.1071C309.59 61.0751 309.755 61.0748 309.914 61.1064C310.074 61.138 310.227 61.2008 310.362 61.2912C310.498 61.3816 310.614 61.4979 310.705 61.6334C310.796 61.7688 310.859 61.9209 310.891 62.0807C310.922 62.2406 310.922 62.4052 310.891 62.565C310.859 62.7249 310.796 62.877 310.705 63.0125L304.621 72.1388C304.511 72.3038 304.363 72.4401 304.19 72.5361C304.016 72.6322 303.822 72.6852 303.624 72.6907C303.612 72.6909 303.601 72.6911 303.589 72.6911Z" fill="white"/>
    <path d="M141.873 56.4324H113.633C113.192 56.4329 112.769 56.6084 112.457 56.9204C112.145 57.2323 111.969 57.6553 111.969 58.0965V75.6789C111.969 76.1201 112.145 76.5431 112.457 76.855C112.769 77.167 113.192 77.3425 113.633 77.343H141.873C142.314 77.3425 142.737 77.167 143.049 76.855C143.361 76.5431 143.537 76.1201 143.537 75.6789V58.0965C143.537 57.6553 143.361 57.2323 143.049 56.9203C142.737 56.6084 142.314 56.4329 141.873 56.4324ZM142.419 69.062C142.413 70.852 141.705 72.568 140.447 73.8419C139.19 75.1159 137.483 75.8463 135.693 75.8764C132.828 75.9137 137.279 75.9282 133.823 75.9282C125.92 75.9282 117.68 75.8527 114.605 75.8038C114.201 75.7954 113.815 75.6293 113.532 75.3408C113.248 75.0523 113.088 74.6644 113.087 74.2598V58.0979C113.087 57.953 113.144 57.814 113.247 57.7115C113.349 57.6089 113.488 57.551 113.633 57.5505H141.872C142.017 57.5507 142.156 57.6082 142.258 57.7105C142.361 57.8128 142.419 57.9515 142.419 58.0964V69.062Z" fill="#CACACA"/>
    <path d="M138.148 67.6541H116.632C116.441 67.6538 116.256 67.5948 116.1 67.4851C115.944 67.3754 115.827 67.2203 115.762 67.0411L112.439 57.7182C112.39 57.579 112.374 57.43 112.394 57.2836C112.414 57.1372 112.469 56.9978 112.554 56.877C112.639 56.7562 112.752 56.6576 112.883 56.5895C113.014 56.5213 113.16 56.4857 113.307 56.4855L142.164 56.4342H142.165C142.318 56.4343 142.468 56.4722 142.603 56.5446C142.737 56.617 142.852 56.7216 142.936 56.8491C143.02 56.9766 143.071 57.123 143.084 57.2751C143.098 57.4272 143.074 57.5803 143.013 57.7206L138.996 67.0948C138.925 67.2609 138.807 67.4024 138.656 67.5019C138.505 67.6013 138.328 67.6542 138.148 67.6541Z" fill="#CACACA"/>
    <path d="M127.737 69.9532C129.007 69.9532 130.036 68.9238 130.036 67.6541C130.036 66.3844 129.007 65.355 127.737 65.355C126.467 65.355 125.438 66.3844 125.438 67.6541C125.438 68.9238 126.467 69.9532 127.737 69.9532Z" fill="#3F3D56"/>
    <path d="M208.729 113.552H164.206C163.746 113.551 163.306 113.368 162.981 113.043C162.656 112.718 162.474 112.277 162.474 111.817C162.474 111.358 162.656 110.917 162.981 110.592C163.306 110.267 163.746 110.083 164.206 110.083H208.729C210.966 110.052 210.988 113.584 208.729 113.552Z" fill="#E4E4E4"/>
    <path d="M268.706 122.626H164.206C163.746 122.626 163.305 122.443 162.979 122.118C162.654 121.793 162.471 121.351 162.471 120.891C162.471 120.431 162.654 119.99 162.979 119.665C163.305 119.339 163.746 119.157 164.206 119.157H268.706C270.943 119.126 270.965 122.658 268.706 122.626Z" fill="#E4E4E4"/>
    <path d="M305.11 127.505C311.269 127.505 316.261 122.513 316.261 116.354C316.261 110.196 311.269 105.204 305.11 105.204C298.952 105.204 293.959 110.196 293.959 116.354C293.959 122.513 298.952 127.505 305.11 127.505Z" fill="#E6E7E8"/>
    <path d="M303.589 122.158C303.396 122.158 303.207 122.113 303.034 122.027C302.862 121.941 302.712 121.816 302.597 121.662L299.555 117.605C299.457 117.475 299.386 117.327 299.345 117.169C299.305 117.011 299.296 116.847 299.319 116.686C299.342 116.525 299.397 116.369 299.48 116.229C299.563 116.089 299.672 115.967 299.803 115.869C299.933 115.771 300.081 115.7 300.239 115.66C300.397 115.619 300.561 115.61 300.722 115.633C300.884 115.656 301.039 115.711 301.179 115.794C301.319 115.877 301.442 115.987 301.539 116.117L303.53 118.771L308.641 111.103C308.731 110.967 308.848 110.851 308.983 110.76C309.118 110.669 309.27 110.606 309.43 110.574C309.59 110.542 309.754 110.542 309.914 110.573C310.074 110.605 310.226 110.668 310.362 110.758C310.498 110.848 310.614 110.965 310.705 111.1C310.796 111.236 310.859 111.388 310.89 111.547C310.922 111.707 310.922 111.872 310.891 112.032C310.859 112.192 310.796 112.344 310.705 112.479L304.621 121.605C304.511 121.771 304.363 121.907 304.189 122.003C304.016 122.099 303.822 122.152 303.624 122.157C303.612 122.158 303.6 122.158 303.589 122.158Z" fill="white"/>
    <path d="M141.873 105.899H113.633C113.192 105.9 112.769 106.075 112.457 106.387C112.145 106.699 111.969 107.122 111.969 107.563V125.146C111.969 125.587 112.145 126.01 112.457 126.322C112.769 126.634 113.192 126.809 113.633 126.81H141.873C142.314 126.809 142.737 126.634 143.049 126.322C143.361 126.01 143.537 125.587 143.537 125.146V107.563C143.537 107.122 143.361 106.699 143.049 106.387C142.737 106.075 142.314 105.9 141.873 105.899ZM142.419 118.529C142.413 120.319 141.705 122.035 140.447 123.309C139.19 124.583 137.483 125.313 135.693 125.343C132.828 125.38 137.279 125.395 133.823 125.395C125.92 125.395 117.68 125.319 114.605 125.271C114.201 125.262 113.815 125.096 113.532 124.808C113.248 124.519 113.088 124.131 113.087 123.726V107.565C113.087 107.42 113.144 107.281 113.247 107.178C113.349 107.076 113.488 107.018 113.633 107.017H141.872C142.017 107.017 142.156 107.075 142.258 107.177C142.361 107.28 142.419 107.418 142.419 107.563V118.529Z" fill="#CACACA"/>
    <path d="M138.148 117.121H116.632C116.441 117.121 116.256 117.061 116.1 116.952C115.944 116.842 115.827 116.687 115.762 116.508L112.439 107.185C112.39 107.046 112.374 106.897 112.394 106.75C112.414 106.604 112.469 106.464 112.554 106.344C112.639 106.223 112.752 106.124 112.883 106.056C113.014 105.988 113.16 105.952 113.307 105.952L142.164 105.901H142.165C142.318 105.901 142.468 105.939 142.603 106.011C142.737 106.084 142.852 106.188 142.936 106.316C143.02 106.443 143.071 106.59 143.084 106.742C143.098 106.894 143.074 107.047 143.013 107.187L138.996 116.561C138.925 116.728 138.807 116.869 138.656 116.969C138.505 117.068 138.328 117.121 138.148 117.121Z" fill="#CACACA"/>
    <path d="M127.737 119.42C129.007 119.42 130.036 118.391 130.036 117.121C130.036 115.851 129.007 114.822 127.737 114.822C126.467 114.822 125.438 115.851 125.438 117.121C125.438 118.391 126.467 119.42 127.737 119.42Z" fill="#3F3D56"/>
    <path d="M80.7728 94.9832C79.5604 95.0019 78.3892 94.5433 77.5118 93.7064C76.6344 92.8695 76.121 91.7213 76.0824 90.5094C76.0746 90.2415 76.0904 89.9735 76.1298 89.7084L61.7693 82.0492L69.131 78.0545L81.6394 85.9403C82.8276 86.2105 83.8618 86.9374 84.5184 87.964C85.1749 88.9906 85.4011 90.2343 85.1479 91.4263C84.9304 92.4276 84.3788 93.3252 83.5837 93.9715C82.7886 94.6179 81.7974 94.9746 80.7728 94.9832Z" fill="#FFB6B6"/>
    <path d="M74.4041 89.4784L50.4058 80.1102L46.5906 60.8782L48.0074 49.8204C48.1996 48.3201 48.6906 46.8737 49.4514 45.5665C50.2122 44.2592 51.2273 43.1178 52.4367 42.2096C53.6462 41.3013 55.0254 40.6448 56.493 40.2787C57.9605 39.9126 59.4865 39.8445 60.9808 40.0782L61.0613 40.0908L61.107 40.1583C61.2902 40.4289 65.5233 46.9699 59.8267 63.199L60.0371 73.5129L78.9087 82.3222L74.4041 89.4784Z" fill="#E6E7E8"/>
</svg>
