<svg width="14" height="18" viewBox="0 0 14 18" fill="none" xmlns="http://www.w3.org/2000/svg">
    <path d="M13.28 5.75L7.75 0.22C7.60948 0.0793075 7.41885 0.000175052 7.22 0H2.75C2.02065 0 1.32118 0.289731 0.805456 0.805456C0.289731 1.32118 0 2.02065 0 2.75V14.75C0 15.4793 0.289731 16.1788 0.805456 16.6945C1.32118 17.2103 2.02065 17.5 2.75 17.5H10.75C11.4793 17.5 12.1788 17.2103 12.6945 16.6945C13.2103 16.1788 13.5 15.4793 13.5 14.75V6.25C13.4921 6.0616 13.4136 5.88309 13.28 5.75ZM8 2.56L10.94 5.5H8V2.56ZM10.75 16H2.75C2.41848 16 2.10054 15.8683 1.86612 15.6339C1.6317 15.3995 1.5 15.0815 1.5 14.75V2.75C1.5 2.41848 1.6317 2.10054 1.86612 1.86612C2.10054 1.6317 2.41848 1.5 2.75 1.5H6.5V6.25C6.50259 6.44811 6.58244 6.63737 6.72253 6.77747C6.86263 6.91756 7.05189 6.99741 7.25 7H12V14.75C12 15.0815 11.8683 15.3995 11.6339 15.6339C11.3995 15.8683 11.0815 16 10.75 16Z" fill="#1E293B"/>
    <path d="M8.23952 11.6C7.62462 11.2142 7.16187 10.6278 6.92952 9.94005C7.14483 9.29665 7.20983 8.61247 7.11952 7.94005C7.09069 7.77064 7.00807 7.61502 6.8839 7.49623C6.75973 7.37744 6.60061 7.30179 6.4301 7.28047C6.25958 7.25916 6.08673 7.29331 5.93714 7.37789C5.78756 7.46246 5.66917 7.59295 5.59952 7.75005C5.48567 8.55846 5.57151 9.38245 5.84952 10.15C5.46972 11.0373 5.04586 11.9051 4.57952 12.75C3.86952 13.15 2.89952 13.75 2.74952 14.44C2.62952 15 3.67952 16.44 5.46952 13.32C6.26545 13.0246 7.0807 12.784 7.90952 12.6C8.5222 12.9503 9.20564 13.1588 9.90952 13.21C10.0711 13.2142 10.2304 13.1706 10.3673 13.0845C10.5041 12.9984 10.6125 12.8738 10.6788 12.7264C10.745 12.5789 10.7662 12.4151 10.7396 12.2556C10.7131 12.0962 10.64 11.9481 10.5295 11.83C10.1095 11.4 8.85952 11.52 8.23952 11.6ZM3.45952 14.6C3.73976 14.1205 4.10985 13.6995 4.54952 13.36C3.86952 14.44 3.45952 14.63 3.45952 14.61V14.6ZM6.37952 7.79005C6.63952 7.79005 6.61952 8.94005 6.43952 9.25005C6.30393 8.77845 6.28335 8.28123 6.37952 7.80005V7.79005ZM5.50952 12.67C5.84833 12.0519 6.14242 11.4102 6.38952 10.75C6.65444 11.243 7.02287 11.6729 7.46952 12.01C6.79858 12.1781 6.14294 12.4022 5.50952 12.68V12.67ZM10.2095 12.49C10.2095 12.49 10.0295 12.71 8.87952 12.21C10.1295 12.13 10.3395 12.42 10.2095 12.5V12.49Z" fill="#1E293B"/>
</svg>
