<svg width="18" height="16" viewBox="0 0 18 16" fill="none" xmlns="http://www.w3.org/2000/svg">
    <path d="M15.75 0H1.75C1.28668 0.0026251 0.843085 0.187842 0.515464 0.515464C0.187842 0.843085 0.0026251 1.28668 0 1.75V13.75C0.0026251 14.2133 0.187842 14.6569 0.515464 14.9845C0.843085 15.3122 1.28668 15.4974 1.75 15.5H15.75C16.2133 15.4974 16.6569 15.3122 16.9845 14.9845C17.3122 14.6569 17.4974 14.2133 17.5 13.75V1.75C17.4974 1.28668 17.3122 0.843085 16.9845 0.515464C16.6569 0.187842 16.2133 0.0026251 15.75 0ZM1.75 1.5H15.75C15.8163 1.5 15.8799 1.52634 15.9268 1.57322C15.9737 1.62011 16 1.6837 16 1.75V3.29L8.75 6.91L1.5 3.29V1.75C1.5 1.6837 1.52634 1.62011 1.57322 1.57322C1.62011 1.52634 1.6837 1.5 1.75 1.5ZM15.75 14H1.75C1.6837 14 1.62011 13.9737 1.57322 13.9268C1.52634 13.8799 1.5 13.8163 1.5 13.75V4.96L8.41 8.42C8.51556 8.4728 8.63197 8.50029 8.75 8.50029C8.86803 8.50029 8.98444 8.4728 9.09 8.42L16 4.96V13.75C16 13.8163 15.9737 13.8799 15.9268 13.9268C15.8799 13.9737 15.8163 14 15.75 14Z" fill="white"/>
</svg>
