<svg width="20" height="14" viewBox="0 0 20 14" fill="none" xmlns="http://www.w3.org/2000/svg">
    <path d="M9.98372 13.5C3.54643 13.5 0.521016 7.31 0.388516 7.05C0.344782 6.95494 0.322266 6.85298 0.322266 6.75C0.322266 6.64702 0.344782 6.54506 0.388516 6.45C0.521016 6.19 3.54643 0 9.98372 0C16.421 0 19.4464 6.19 19.5789 6.45C19.6227 6.54506 19.6452 6.64702 19.6452 6.75C19.6452 6.85298 19.6227 6.95494 19.5789 7.05C19.4464 7.31 16.421 13.5 9.98372 13.5ZM2.06685 6.75C2.71831 7.9 5.37935 12 9.98372 12C14.5881 12 17.2491 7.9 17.9006 6.75C17.2491 5.6 14.5881 1.5 9.98372 1.5C5.37935 1.5 2.71831 5.6 2.06685 6.75Z" fill="#1E293B"/>
    <path d="M9.98307 10C9.27333 10 8.57952 9.80939 7.98939 9.45228C7.39926 9.09516 6.9393 8.58758 6.66769 7.99372C6.39609 7.39986 6.32502 6.7464 6.46349 6.11596C6.60195 5.48552 6.94373 4.90643 7.44559 4.4519C7.94746 3.99738 8.58688 3.68785 9.28298 3.56245C9.97909 3.43705 10.7006 3.50141 11.3563 3.74739C12.0121 3.99338 12.5725 4.40994 12.9668 4.9444C13.3612 5.47886 13.5716 6.10721 13.5716 6.75C13.5687 7.61114 13.1897 8.43626 12.5173 9.04518C11.845 9.65411 10.9339 9.99736 9.98307 10ZM9.98307 5C9.6009 5 9.22731 5.10264 8.90955 5.29493C8.59179 5.48722 8.34412 5.76054 8.19787 6.08031C8.05162 6.40008 8.01335 6.75194 8.08791 7.09141C8.16247 7.43088 8.3465 7.7427 8.61674 7.98744C8.88697 8.23218 9.23128 8.39885 9.6061 8.46638C9.98093 8.5339 10.3695 8.49924 10.7225 8.36679C11.0756 8.23434 11.3774 8.01004 11.5897 7.72225C11.802 7.43446 11.9154 7.09612 11.9154 6.75C11.9125 6.28668 11.708 5.84309 11.3462 5.51547C10.9845 5.18784 10.4947 5.00263 9.98307 5Z" fill="#1E293B"/>
</svg>
