<svg width="14" height="18" viewBox="0 0 14 18" fill="none" xmlns="http://www.w3.org/2000/svg">
    <path d="M13.28 5.75L7.75 0.22C7.60948 0.0793075 7.41885 0.000175052 7.22 0H2.75C2.02065 0 1.32118 0.289731 0.805456 0.805456C0.289731 1.32118 0 2.02065 0 2.75V14.75C0 15.4793 0.289731 16.1788 0.805456 16.6945C1.32118 17.2103 2.02065 17.5 2.75 17.5H10.75C11.4793 17.5 12.1788 17.2103 12.6945 16.6945C13.2103 16.1788 13.5 15.4793 13.5 14.75V6.25C13.4921 6.0616 13.4136 5.88309 13.28 5.75ZM8 2.56L10.94 5.5H8V2.56ZM10.75 16H2.75C2.41848 16 2.10054 15.8683 1.86612 15.6339C1.6317 15.3995 1.5 15.0815 1.5 14.75V2.75C1.5 2.41848 1.6317 2.10054 1.86612 1.86612C2.10054 1.6317 2.41848 1.5 2.75 1.5H6.5V6.25C6.50259 6.44811 6.58244 6.63737 6.72253 6.77747C6.86263 6.91756 7.05189 6.99741 7.25 7H12V14.75C12 15.0815 11.8683 15.3995 11.6339 15.6339C11.3995 15.8683 11.0815 16 10.75 16Z" fill="black"/>
</svg>
