<svg width="146" height="146" viewBox="0 0 146 146" fill="none" xmlns="http://www.w3.org/2000/svg">
    <path d="M47.9584 145.98H22.9366C20.0444 146.103 17.1563 145.655 14.4376 144.66C11.719 143.666 9.22302 142.145 7.09264 140.185C4.96226 138.225 3.23925 135.865 2.02222 133.238C0.805181 130.612 0.118002 127.771 0 124.878V21.1216C0.118002 18.2292 0.805181 15.3884 2.02222 12.7619C3.23925 10.1353 4.96226 7.77452 7.09264 5.81457C9.22302 3.85462 11.719 2.33398 14.4376 1.33966C17.1563 0.345348 20.0444 -0.103129 22.9366 0.0198939H47.9584C49.6174 0.0198939 51.2085 0.678946 52.3816 1.85207C53.5547 3.02519 54.2138 4.61629 54.2138 6.27533C54.2138 7.93438 53.5547 9.52547 52.3816 10.6986C51.2085 11.8717 49.6174 12.5308 47.9584 12.5308H22.9366C20.4601 12.3154 17.9957 13.0616 16.0545 14.6145C14.1133 16.1674 12.8444 18.4079 12.5109 20.8714V124.878C12.8444 127.342 14.1133 129.582 16.0545 131.135C17.9957 132.688 20.4601 133.434 22.9366 133.219H47.9584C49.6174 133.219 51.2085 133.878 52.3816 135.051C53.5547 136.224 54.2138 137.815 54.2138 139.474C54.2138 141.133 53.5547 142.725 52.3816 143.898C51.2085 145.071 49.6174 145.73 47.9584 145.73V145.98Z" fill="black"/>
    <path d="M106.335 112.618C105.513 112.622 104.699 112.462 103.94 112.146C103.181 111.831 102.492 111.368 101.915 110.783C100.743 109.61 100.085 108.02 100.085 106.363C100.085 104.705 100.743 103.115 101.915 101.942L130.857 73.0003L101.915 44.0584C101.3 43.4857 100.807 42.7951 100.465 42.0278C100.123 41.2605 99.9396 40.4322 99.9248 39.5922C99.91 38.7523 100.064 37.918 100.379 37.1391C100.694 36.3602 101.162 35.6526 101.756 35.0586C102.35 34.4646 103.058 33.9963 103.836 33.6817C104.615 33.3671 105.45 33.2126 106.29 33.2274C107.13 33.2422 107.958 33.4261 108.725 33.768C109.493 34.1099 110.183 34.6028 110.756 35.2174L144.118 68.5797C145.29 69.7526 145.948 71.3426 145.948 73.0003C145.948 74.6579 145.29 76.2479 144.118 77.4208L110.756 110.783C110.178 111.368 109.49 111.831 108.731 112.146C107.972 112.462 107.157 112.622 106.335 112.618Z" fill="black"/>
    <path d="M139.705 79.2554H47.9586C46.2995 79.2554 44.7084 78.5963 43.5353 77.4232C42.3622 76.2501 41.7031 74.659 41.7031 72.9999C41.7031 71.3409 42.3622 69.7498 43.5353 68.5767C44.7084 67.4036 46.2995 66.7445 47.9586 66.7445H139.705C141.364 66.7445 142.955 67.4036 144.128 68.5767C145.301 69.7498 145.96 71.3409 145.96 72.9999C145.96 74.659 145.301 76.2501 144.128 77.4232C142.955 78.5963 141.364 79.2554 139.705 79.2554Z" fill="black"/>
</svg>
