<svg width="18" height="19" viewBox="0 0 18 19" fill="none" xmlns="http://www.w3.org/2000/svg">
    <path d="M0.783808 17.9788C0.682275 17.9799 0.581535 17.9609 0.487385 17.9228C0.393234 17.8848 0.307532 17.8285 0.235208 17.7573C0.152289 17.6754 0.0884872 17.5762 0.0483642 17.4667C0.00824126 17.3573 -0.00721226 17.2404 0.00310845 17.1243L0.330158 13.0731C0.344183 12.885 0.426772 12.7085 0.562258 12.5772L12.2306 0.90894C12.8807 0.300114 13.7457 -0.026151 14.636 0.00164045C15.5204 0.00850319 16.3691 0.351757 17.0097 0.96169C17.6241 1.59258 17.9774 2.43231 17.999 3.31268C18.0205 4.19304 17.7086 5.04903 17.1257 5.70919L5.44691 17.4302C5.31619 17.5605 5.14504 17.6423 4.96161 17.6623L0.857658 18.0316L0.783808 17.9788ZM1.83881 13.4845L1.61726 16.3752L4.50796 16.1115L16.0075 4.59089C16.2317 4.32553 16.375 4.00139 16.4204 3.65698C16.4658 3.31256 16.4114 2.96235 16.2636 2.64795C16.1159 2.33354 15.881 2.06816 15.5868 1.88332C15.2927 1.69849 14.9517 1.60197 14.6043 1.60524C14.376 1.59074 14.1471 1.62252 13.9314 1.69866C13.7156 1.7748 13.5175 1.89374 13.3489 2.04834L1.83881 13.4845Z" fill="black"/>
</svg>
