<svg width="80" height="57" viewBox="0 0 80 57" fill="none" xmlns="http://www.w3.org/2000/svg">
    <path fill-rule="evenodd" clip-rule="evenodd" d="M62.0858 56.7109C35.4525 56.7109 38.2298 11.3809 66.5761 -0.000523764C66.9946 0.0715664 67.3879 0.248969 67.7189 0.514983C68.0499 0.780993 68.3077 1.12686 68.4682 1.52003C68.6286 1.9132 68.6863 2.34073 68.6359 2.76237C68.5855 3.18402 68.4287 3.58591 68.1801 3.93019C59.4126 11.0888 55.3601 17.8447 56.0226 24.1977C57.9723 23.5228 60.0214 23.1796 62.0846 23.1824C71.8297 23.1824 79.7305 30.6869 79.7305 39.9465C79.7305 49.2062 71.8297 56.7098 62.0846 56.7098" fill="#6385D7" fill-opacity="0.38"/>
    <path fill-rule="evenodd" clip-rule="evenodd" d="M19.0944 56.7109C-7.54104 56.7109 -4.76163 11.3809 23.5836 -0.000523764C24.002 0.0715931 24.3953 0.249007 24.7263 0.515017C25.0572 0.781024 25.3151 1.12688 25.4755 1.52003C25.636 1.91319 25.6938 2.3407 25.6434 2.76234C25.5931 3.18398 25.4363 3.58587 25.1878 3.93019C16.4196 11.0888 12.3669 17.8447 13.0296 24.1977C14.9803 23.5231 17.0303 23.1803 19.0944 23.1835C28.8395 23.1835 36.7402 30.688 36.7402 39.9477C36.7402 49.2074 28.8395 56.7109 19.0944 56.7109Z" fill="#6385D7" fill-opacity="0.38"/>
</svg>
