<svg width="146" height="146" viewBox="0 0 146 146" fill="none" xmlns="http://www.w3.org/2000/svg">
    <path d="M141.036 90.885L127.239 95.484L133.736 108.478C134.395 109.838 134.615 111.369 134.366 112.86C134.118 114.35 133.413 115.727 132.349 116.8L116.8 132.349C115.721 133.429 114.331 134.143 112.825 134.392C111.32 134.641 109.774 134.411 108.405 133.736L95.411 127.239L90.812 141.036C90.3263 142.474 89.4043 143.725 88.1745 144.615C86.9446 145.505 85.4679 145.989 83.95 146H62.05C60.5196 146.004 59.0267 145.527 57.7822 144.636C56.5378 143.745 55.6047 142.486 55.115 141.036L50.516 127.239L37.522 133.736C36.1619 134.395 34.631 134.615 33.1404 134.366C31.6498 134.118 30.273 133.413 29.2 132.349L13.651 116.8C12.5712 115.721 11.8567 114.331 11.6079 112.825C11.3591 111.32 11.5886 109.774 12.264 108.405L18.761 95.411L4.96402 90.812C3.52587 90.3263 2.27489 89.4043 1.38518 88.1745C0.495478 86.9446 0.011298 85.4679 2.43348e-05 83.95V62.05C-0.00392615 60.5196 0.473203 59.0267 1.36397 57.7822C2.25474 56.5378 3.51409 55.6047 4.96402 55.115L18.761 50.516L12.264 37.522C11.6054 36.1619 11.3851 34.631 11.6336 33.1404C11.882 31.6497 12.5869 30.273 13.651 29.2L29.2 13.651C30.2787 12.5712 31.6687 11.8567 33.1745 11.6079C34.6804 11.3591 36.2263 11.5886 37.595 12.264L50.589 18.761L55.188 4.96402C55.6777 3.51408 56.6108 2.25473 57.8552 1.36397C59.0997 0.47319 60.5926 -0.00393677 62.123 1.52588e-05H84.023C85.5534 -0.00393677 87.0463 0.47319 88.2908 1.36397C89.5352 2.25473 90.4683 3.51408 90.958 4.96402L95.557 18.761L108.551 12.264C109.902 11.622 111.418 11.4108 112.894 11.6588C114.369 11.9069 115.733 12.6024 116.8 13.651L132.349 29.2C133.429 30.2787 134.143 31.6687 134.392 33.1745C134.641 34.6804 134.411 36.2263 133.736 37.595L127.239 50.589L141.036 55.188C142.474 55.6737 143.725 56.5957 144.615 57.8255C145.505 59.0554 145.989 60.5321 146 62.05V83.95C146.004 85.4804 145.527 86.9733 144.636 88.2178C143.745 89.4622 142.486 90.3953 141.036 90.885ZM131.4 67.306L122.64 64.386C120.626 63.7326 118.777 62.6488 117.224 61.2098C115.67 59.7707 114.448 58.011 113.642 56.0525C112.837 54.094 112.467 51.9837 112.558 49.8679C112.65 47.7522 113.2 45.6817 114.172 43.8L118.333 35.478L110.303 27.448L102.2 31.828C100.328 32.7607 98.2774 33.2803 96.1871 33.3515C94.0968 33.4228 92.0156 33.0442 90.0843 32.2412C88.1531 31.4383 86.4169 30.2298 84.9933 28.6975C83.5697 27.1652 82.492 25.345 81.833 23.36L78.913 14.6H67.306L64.386 23.36C63.7326 25.3744 62.6488 27.2225 61.2098 28.7762C59.7707 30.3299 58.011 31.5519 56.0525 32.3576C54.094 33.1632 51.9837 33.5331 49.8679 33.4416C47.7522 33.3502 45.6817 32.7996 43.8 31.828L35.478 27.667L27.448 35.697L31.828 43.8C32.7996 45.6817 33.3502 47.7522 33.4416 49.8679C33.5331 51.9837 33.1632 54.094 32.3575 56.0525C31.5519 58.011 30.3299 59.7707 28.7762 61.2098C27.2225 62.6488 25.3744 63.7326 23.36 64.386L14.6 67.306V78.694L23.36 81.614C25.3744 82.2674 27.2225 83.3512 28.7762 84.7902C30.3299 86.2293 31.5519 87.989 32.3575 89.9475C33.1632 91.906 33.5331 94.0163 33.4416 96.1321C33.3502 98.2478 32.7996 100.318 31.828 102.2L27.667 110.303L35.697 118.333L43.8 114.172C45.6817 113.2 47.7522 112.65 49.8679 112.558C51.9837 112.467 54.094 112.837 56.0525 113.642C58.011 114.448 59.7707 115.67 61.2098 117.224C62.6488 118.777 63.7326 120.626 64.386 122.64L67.306 131.4H78.694L81.614 122.64C82.2674 120.626 83.3512 118.777 84.7902 117.224C86.2293 115.67 87.989 114.448 89.9475 113.642C91.906 112.837 94.0163 112.467 96.1321 112.558C98.2478 112.65 100.318 113.2 102.2 114.172L110.522 118.333L118.552 110.303L114.172 102.2C113.239 100.328 112.72 98.2774 112.648 96.1871C112.577 94.0968 112.956 92.0156 113.759 90.0843C114.562 88.1531 115.77 86.4169 117.302 84.9933C118.835 83.5697 120.655 82.492 122.64 81.833L131.4 78.913V67.306ZM73 102.2C67.2248 102.2 61.5793 100.487 56.7774 97.2789C51.9754 94.0704 48.2328 89.51 46.0227 84.1744C43.8126 78.8388 43.2344 72.9676 44.3611 67.3034C45.4878 61.6391 48.2688 56.4362 52.3525 52.3525C56.4362 48.2688 61.6391 45.4878 67.3034 44.3611C72.9676 43.2344 78.8388 43.8126 84.1744 46.0227C89.51 48.2328 94.0704 51.9754 97.2789 56.7774C100.487 61.5793 102.2 67.2248 102.2 73C102.2 80.7443 99.1236 88.1715 93.6475 93.6475C88.1715 99.1236 80.7443 102.2 73 102.2ZM73 58.4C70.1124 58.4 67.2896 59.2563 64.8887 60.8605C62.4877 62.4648 60.6164 64.745 59.5114 67.4128C58.4063 70.0806 58.1172 73.0162 58.6805 75.8483C59.2439 78.6804 60.6344 81.2819 62.6762 83.3238C64.7181 85.3656 67.3196 86.7561 70.1517 87.3195C72.9838 87.8828 75.9194 87.5937 78.5872 86.4886C81.255 85.3836 83.5352 83.5123 85.1395 81.1113C86.7437 78.7104 87.6 75.8876 87.6 73C87.6 69.1278 86.0618 65.4143 83.3238 62.6762C80.5857 59.9382 76.8722 58.4 73 58.4Z" fill="black"/>
</svg>
