<svg width="16" height="15" viewBox="0 0 16 15" fill="none" xmlns="http://www.w3.org/2000/svg">
    <path d="M7.75 7.5C7.00832 7.5 6.2833 7.28007 5.66661 6.86801C5.04993 6.45596 4.56928 5.87029 4.28545 5.18506C4.00163 4.49984 3.92736 3.74584 4.07206 3.01841C4.21675 2.29098 4.5739 1.6228 5.09835 1.09835C5.6228 0.573904 6.29098 0.216751 7.01841 0.0720569C7.74584 -0.0726377 8.49984 0.00162482 9.18506 0.285453C9.87029 0.569282 10.456 1.04993 10.868 1.66661C11.2801 2.2833 11.5 3.00832 11.5 3.75C11.5 4.74456 11.1049 5.69839 10.4017 6.40165C9.69839 7.10491 8.74456 7.5 7.75 7.5ZM7.75 1.5C7.30499 1.5 6.86998 1.63196 6.49997 1.87919C6.12996 2.12643 5.84157 2.47783 5.67127 2.88896C5.50098 3.3001 5.45642 3.7525 5.54323 4.18895C5.63005 4.62541 5.84434 5.02632 6.15901 5.34099C6.47368 5.65566 6.87459 5.86995 7.31105 5.95677C7.74751 6.04359 8.19991 5.99903 8.61104 5.82873C9.02217 5.65843 9.37358 5.37005 9.62081 5.00003C9.86804 4.63002 10 4.19501 10 3.75C10 3.15326 9.76295 2.58097 9.34099 2.15901C8.91903 1.73705 8.34674 1.5 7.75 1.5Z" fill="black"/>
    <path d="M14.75 14.5C14.5519 14.4974 14.3626 14.4176 14.2225 14.2775C14.0824 14.1374 14.0026 13.9481 14 13.75C14 11.8 12.94 10.5 7.75 10.5C2.56 10.5 1.5 11.8 1.5 13.75C1.5 13.9489 1.42098 14.1397 1.28033 14.2803C1.13968 14.421 0.948912 14.5 0.75 14.5C0.551088 14.5 0.360322 14.421 0.21967 14.2803C0.0790175 14.1397 0 13.9489 0 13.75C0 9 5.43 9 7.75 9C10.07 9 15.5 9 15.5 13.75C15.4974 13.9481 15.4176 14.1374 15.2775 14.2775C15.1374 14.4176 14.9481 14.4974 14.75 14.5Z" fill="black"/>
</svg>
