<svg width="3354" height="914" viewBox="0 0 3354 914" fill="none" xmlns="http://www.w3.org/2000/svg">
<path d="M1982.1 284.599C2001.54 247.359 2030.94 216.248 2067.03 194.738C2103.12 173.227 2144.48 162.161 2186.49 162.775C2219.67 162.924 2252.43 170.162 2282.58 184.005C2311.91 196.402 2337.77 215.748 2357.94 240.371V0.359375H2461.75V668.008H2357.94V593.115C2339.78 618.324 2315.78 638.76 2287.99 652.676C2256.3 668.758 2221.14 676.807 2185.6 676.117C2143.72 676.534 2102.57 665.122 2066.89 643.192C2030.74 620.859 2001.42 589.039 1982.1 551.197C1960.86 509.764 1950.16 463.737 1950.94 417.185C1950.94 367.257 1961.33 323.061 1982.1 284.599ZM2336.75 329.712C2323.88 305.746 2304.68 285.76 2281.26 271.92C2258.77 258.896 2233.22 252.11 2207.23 252.263C2180.76 252.015 2154.72 258.979 2131.91 272.407C2109.1 285.836 2090.38 305.221 2077.76 328.483C2063.04 355.737 2055.72 386.371 2056.52 417.333C2055.82 448.723 2063.13 479.773 2077.76 507.558C2090.61 531.994 2109.97 552.402 2133.69 566.529C2155.99 579.832 2181.47 586.846 2207.43 586.825C2233.42 587 2258.98 580.213 2281.45 567.168C2304.98 553.252 2324.18 533.096 2336.95 508.934C2351.57 481.328 2358.87 450.431 2358.14 419.2C2358.88 388.023 2351.51 357.188 2336.75 329.712Z" fill="#233048"/>
<path d="M2914.96 457.778H2535.05C2538.03 497.485 2552.77 529.362 2579.28 553.409C2605.87 577.605 2640.77 590.614 2676.71 589.725C2732.06 589.725 2771.17 566.563 2794.04 520.238H2905.03C2890.39 565.391 2861.79 604.729 2823.34 632.578C2784.01 661.768 2735.14 676.347 2676.71 676.314C2632.04 677.063 2587.96 666.029 2548.91 644.323C2511.5 623.183 2480.83 591.906 2460.43 554.097C2439.1 515.275 2428.43 470.309 2428.43 419.201C2428.43 368.093 2438.8 323.128 2459.54 284.305C2479.3 246.432 2509.72 215.169 2547.04 194.375C2584.59 173.276 2627.75 162.743 2676.51 162.776C2720.27 161.993 2763.49 172.557 2801.96 193.441C2838.16 213.429 2867.9 243.332 2887.68 279.637C2908.13 316.592 2918.35 359.182 2918.35 407.407C2918.55 424.26 2917.42 441.103 2914.96 457.778ZM2811.2 374.776C2810.57 336.937 2797.02 306.567 2770.55 283.666C2744.07 260.766 2711.3 249.299 2672.24 249.267C2638.66 248.545 2606.08 260.634 2581.1 283.077C2555.84 305.617 2540.8 336.134 2535.98 374.629L2811.2 374.776Z" fill="#233048"/>
<path d="M3349.69 457.778H2969.78C2972.76 497.485 2987.51 529.362 3014.02 553.409C3040.61 577.63 3075.53 590.642 3111.49 589.725C3166.84 589.725 3205.93 566.563 3228.77 520.238H3339.77C3325.13 565.378 3296.54 604.711 3258.12 632.578C3218.79 661.768 3169.92 676.347 3111.49 676.314C3066.82 677.063 3022.74 666.029 2983.69 644.323C2946.28 623.183 2915.61 591.906 2895.21 554.097C2873.84 515.275 2863.16 470.309 2863.16 419.201C2863.16 368.093 2873.53 323.128 2894.28 284.305C2914.09 246.508 2944.52 215.32 2981.82 194.571C3019.41 173.473 3062.58 162.94 3111.34 162.973C3155.1 162.196 3198.32 172.76 3236.79 193.637C3272.98 213.638 3302.71 243.539 3322.51 279.833C3342.96 316.788 3353.18 359.378 3353.18 407.604C3353.34 424.394 3352.17 441.17 3349.69 457.778ZM3245.93 374.776C3245.34 336.937 3231.8 306.567 3205.33 283.666C3178.85 260.766 3146.08 249.299 3107.02 249.267C3073.44 248.545 3040.86 260.634 3015.88 283.077C2990.62 305.617 2975.58 336.134 2970.76 374.629L3245.93 374.776Z" fill="#233048"/>
<path d="M1744.35 678.424C1697.12 678.446 1650.77 665.558 1610.34 641.154C1569.9 616.75 1536.9 581.759 1514.91 539.963C1492.93 498.168 1482.79 451.159 1485.59 404.02C1488.4 356.88 1504.04 311.404 1530.82 272.508L1546.99 283.663C1513.59 332.242 1499.28 391.424 1506.78 449.892C1514.29 508.36 1543.09 562.011 1587.67 600.585C1632.26 639.159 1689.5 659.949 1748.46 658.98C1807.41 658.01 1863.94 635.349 1907.23 595.329C1950.52 555.31 1977.54 500.741 1983.12 442.057C1988.69 383.374 1972.44 324.695 1937.46 277.241C1902.48 229.787 1851.23 196.888 1793.52 184.836C1735.8 172.785 1675.66 182.425 1624.61 211.915L1614.78 194.912C1649.21 175.029 1687.75 163.332 1727.43 160.726C1767.1 158.119 1806.84 164.673 1843.58 179.88C1880.31 195.086 1913.06 218.539 1939.28 248.422C1965.5 278.305 1984.49 313.818 1994.78 352.213C2005.07 390.609 2006.39 430.857 1998.64 469.843C1990.88 508.83 1974.26 545.51 1950.05 577.046C1925.85 608.582 1894.71 634.127 1859.05 651.707C1823.39 669.286 1784.16 678.427 1744.4 678.424H1744.35Z" fill="#76889B"/>
<path d="M1495.13 678.427C1450.47 678.446 1406.58 666.935 1367.68 645.009C1328.79 623.082 1296.22 591.485 1273.13 553.276C1250.04 515.068 1237.21 471.545 1235.89 426.924C1234.56 382.304 1244.79 338.098 1265.58 298.59C1286.37 259.082 1317.01 225.612 1354.54 201.422C1392.06 177.233 1435.2 163.144 1479.78 160.52C1524.35 157.897 1568.85 166.828 1608.96 186.449C1649.07 206.069 1683.42 235.714 1708.7 272.51L1692.48 283.665C1663.54 241.519 1621.86 209.739 1573.55 192.974C1525.24 176.208 1472.83 175.337 1423.98 190.488C1375.14 205.639 1332.43 236.017 1302.1 277.178C1271.76 318.339 1255.4 368.123 1255.4 419.249C1255.4 470.375 1271.76 520.16 1302.1 561.321C1332.43 602.482 1375.14 632.86 1423.98 648.011C1472.83 663.162 1525.24 662.291 1573.55 645.525C1621.86 628.76 1663.54 596.98 1692.48 554.833L1708.7 565.989C1684.87 600.619 1652.98 628.944 1615.78 648.53C1578.58 668.115 1537.17 678.375 1495.13 678.427ZM1495.13 576.898C1463.94 576.898 1433.45 567.652 1407.52 550.33C1381.59 533.007 1361.38 508.386 1349.44 479.579C1337.51 450.773 1334.38 419.075 1340.47 388.494C1346.55 357.913 1361.57 329.822 1383.62 307.775C1405.68 285.727 1433.77 270.713 1464.36 264.63C1494.95 258.547 1526.66 261.669 1555.47 273.601C1584.29 285.533 1608.91 305.739 1626.24 331.664C1643.57 357.59 1652.82 388.069 1652.82 419.249C1652.76 461.045 1636.13 501.113 1606.57 530.667C1577.01 560.22 1536.93 576.846 1495.13 576.898ZM1495.13 281.257C1467.83 281.257 1441.14 289.351 1418.44 304.513C1395.74 319.676 1378.05 341.228 1367.61 366.442C1357.16 391.657 1354.43 419.402 1359.75 446.17C1365.08 472.938 1378.22 497.526 1397.53 516.824C1416.83 536.123 1441.42 549.265 1468.2 554.59C1494.97 559.914 1522.73 557.182 1547.95 546.737C1573.17 536.293 1594.72 518.606 1609.89 495.914C1625.06 473.221 1633.15 446.542 1633.15 419.249C1633.1 382.668 1618.54 347.599 1592.67 321.732C1566.79 295.865 1531.72 281.309 1495.13 281.257Z" fill="#233048"/>
<path d="M1495.12 630.462C1453.32 630.462 1412.45 618.069 1377.69 594.849C1342.93 571.63 1315.84 538.628 1299.84 500.015C1283.85 461.403 1279.66 418.915 1287.82 377.925C1295.97 336.934 1316.1 299.282 1345.66 269.729C1375.22 240.176 1412.88 220.051 1453.89 211.897C1494.89 203.744 1537.39 207.929 1576.01 223.922C1614.63 239.916 1647.64 267 1670.87 301.751C1694.09 336.501 1706.49 377.356 1706.49 419.149C1706.49 475.193 1684.22 528.941 1644.58 568.57C1604.94 608.199 1551.18 630.462 1495.12 630.462ZM1495.12 227.494C1457.21 227.494 1420.14 238.734 1388.62 259.794C1357.09 280.853 1332.52 310.786 1318.01 345.806C1303.5 380.827 1299.7 419.362 1307.1 456.54C1314.5 493.717 1332.76 527.867 1359.57 554.67C1386.38 581.474 1420.53 599.727 1457.72 607.122C1494.91 614.517 1533.45 610.722 1568.48 596.216C1603.51 581.71 1633.45 557.145 1654.52 525.628C1675.58 494.11 1686.82 457.055 1686.82 419.149C1686.77 368.353 1666.55 319.656 1630.61 283.756C1594.66 247.856 1545.93 227.691 1495.12 227.691V227.494Z" fill="#233048"/>
<path d="M1744.34 576.899C1713.15 576.899 1682.67 567.654 1656.73 550.331C1630.8 533.008 1610.59 508.387 1598.66 479.58C1586.72 450.774 1583.6 419.076 1589.68 388.495C1595.77 357.914 1610.79 329.823 1632.84 307.776C1654.89 285.728 1682.99 270.714 1713.58 264.631C1744.17 258.548 1775.87 261.67 1804.69 273.602C1833.5 285.534 1858.13 305.74 1875.45 331.665C1892.78 357.591 1902.03 388.071 1902.03 419.251C1901.98 461.046 1885.35 501.114 1855.79 530.668C1826.23 560.221 1786.15 576.847 1744.34 576.899ZM1744.34 281.259C1717.04 281.259 1690.36 289.352 1667.66 304.514C1644.96 319.677 1627.27 341.229 1616.82 366.443C1606.37 391.658 1603.64 419.404 1608.97 446.171C1614.29 472.939 1627.44 497.527 1646.74 516.826C1666.05 536.124 1690.64 549.267 1717.41 554.591C1744.19 559.915 1771.94 557.183 1797.16 546.738C1822.38 536.294 1843.94 518.607 1859.11 495.915C1874.27 473.222 1882.37 446.543 1882.37 419.251C1882.32 382.669 1867.76 347.6 1841.88 321.733C1816.01 295.866 1780.93 281.311 1744.34 281.259Z" fill="#76889B"/>
<path d="M1744.35 630.462C1702.55 630.462 1661.68 618.069 1626.92 594.849C1592.16 571.63 1565.07 538.628 1549.07 500.015C1533.08 461.403 1528.89 418.915 1537.05 377.925C1545.2 336.934 1565.33 299.282 1594.89 269.729C1624.45 240.176 1662.11 220.051 1703.12 211.897C1744.12 203.744 1786.62 207.929 1825.24 223.922C1863.86 239.916 1896.87 267 1920.1 301.751C1943.32 336.501 1955.72 377.356 1955.72 419.149C1955.72 475.193 1933.45 528.941 1893.81 568.57C1854.17 608.199 1800.41 630.462 1744.35 630.462ZM1744.35 227.494C1706.44 227.494 1669.37 238.734 1637.85 259.794C1606.32 280.853 1581.75 310.786 1567.24 345.806C1552.73 380.827 1548.93 419.362 1556.33 456.54C1563.73 493.717 1581.99 527.867 1608.8 554.67C1635.61 581.474 1669.76 599.727 1706.95 607.122C1744.14 614.517 1782.68 610.722 1817.71 596.216C1852.74 581.71 1882.68 557.145 1903.75 525.628C1924.81 494.11 1936.05 457.055 1936.05 419.149C1936 368.353 1915.78 319.656 1879.84 283.756C1843.89 247.856 1795.16 227.691 1744.35 227.691V227.494Z" fill="#76889B"/>
<path d="M422.366 399.148C443.239 425.276 455.454 457.255 457.312 490.642C459.171 524.028 450.582 557.165 432.738 585.447C415.065 612.001 390.188 632.969 361.021 645.892C326.721 661.266 289.43 668.82 251.849 668.006H0.814941V40.998H239.953C282.554 40.998 319.256 48.2056 350.06 62.6208C378.297 75.0061 402.398 95.2132 419.515 120.855C435.23 145.16 443.468 173.54 443.208 202.48C443.208 238.518 433.574 268.593 414.305 292.706C394.026 317.468 367.1 335.932 336.69 345.927C370.377 351.922 398.936 369.663 422.366 399.148ZM104.04 304.402H231.253C264.973 304.402 291.303 296.735 310.244 281.403C329.185 266.07 338.656 243.973 338.656 215.11C338.656 186.869 329.185 164.771 310.244 148.817C291.303 132.862 264.973 124.884 231.253 124.884H104.04V304.402ZM325.237 558.861C344.899 542.022 354.729 518.564 354.729 488.489C354.729 457.791 344.21 433.433 323.172 415.414C302.134 397.395 274.132 388.337 239.167 388.239H104.04V584.022H243.001C277.769 584.088 305.083 575.701 324.942 558.861H325.237Z" fill="#233048"/>
<path d="M1110.49 185.772C1137.99 199.154 1161.98 218.776 1180.54 243.072V170.882H1284.35V676.115C1285.11 718.647 1275.17 760.689 1255.45 798.382C1236.34 833.981 1207.32 863.275 1171.89 882.71C1135.45 903.153 1091.98 913.391 1041.48 913.424C974.106 913.424 918.152 897.633 873.617 866.051C852.275 851.533 834.411 832.473 821.306 810.238C808.202 788.003 800.182 763.144 797.821 737.445H899.817C908.076 763.889 925.947 786.28 949.906 800.2C975.466 816.122 1005.99 824.083 1041.48 824.083C1083.03 824.083 1116.57 811.454 1142.1 786.194C1167.63 760.935 1180.41 724.242 1180.44 676.115V593.114C1161.51 617.792 1137.31 637.938 1109.61 652.085C1078.29 668.376 1043.4 676.586 1008.11 675.968C966.24 676.379 925.11 664.966 889.445 643.042C853.271 620.725 823.923 588.902 804.604 551.048C783.38 509.61 772.694 463.584 773.489 417.036C773.489 367.108 783.861 322.879 804.604 284.352C823.982 247.254 853.248 216.239 889.164 194.738C925.08 173.237 966.245 162.09 1008.11 162.528C1043.61 161.927 1078.73 169.901 1110.49 185.772ZM1159.21 329.71C1146.33 305.744 1127.14 285.758 1103.71 271.919C1081.23 258.888 1055.67 252.101 1029.68 252.262C1003.25 252.026 977.257 258.98 954.476 272.381C931.695 285.781 912.988 305.122 900.358 328.334C885.639 355.588 878.317 386.221 879.123 417.184C878.425 448.573 885.733 479.624 900.358 507.409C913.226 531.834 932.581 552.239 956.296 566.38C978.587 579.683 1004.07 586.697 1030.03 586.676C1056.02 586.858 1081.58 580.07 1104.06 567.019C1127.58 553.103 1146.79 532.947 1159.55 508.785C1174.12 481.146 1181.34 450.232 1180.54 419.002C1181.26 387.896 1173.91 357.133 1159.21 329.71Z" fill="#233048"/>
<path d="M814.141 445.589H434.223C437.238 485.296 451.985 517.173 478.463 541.22C505.08 565.374 540.002 578.314 575.937 577.339C631.285 577.339 670.396 554.177 693.269 507.852H804.261C789.62 553.005 761.013 592.343 722.565 620.192C683.242 649.349 634.365 663.928 575.937 663.928C531.257 664.685 487.17 653.632 448.134 631.888C410.707 610.773 380.03 579.49 359.656 541.662C338.322 502.905 327.656 457.956 327.656 406.815C327.656 355.674 338.027 310.709 358.771 271.919C378.584 234.107 409.011 202.902 446.315 182.136C483.902 161.103 527.06 150.586 575.789 150.586C619.551 149.803 662.769 160.368 701.232 181.251C737.557 201.167 767.423 231.059 787.302 267.398C807.751 304.386 817.975 346.976 817.975 395.168C818.024 412.05 816.742 428.909 814.141 445.589ZM710.375 362.587C709.752 324.682 696.202 294.312 669.724 271.477C643.246 248.642 610.476 237.175 571.414 237.077C537.836 236.374 505.251 248.481 480.281 270.936C455.016 293.509 439.974 324.027 435.157 362.489L710.375 362.587Z" fill="#233048"/>
</svg>
