<svg width="8" height="8" viewBox="0 0 8 8" fill="none" xmlns="http://www.w3.org/2000/svg">
  <path d="M1.52641 0C1.38706 0 1.2534 0.0553601 1.15486 0.153902C1.05632 0.252444 1.00096 0.386095 1.00096 0.525454C1.00096 0.664813 1.05632 0.798464 1.15486 0.897006C1.2534 0.995547 1.38706 1.05091 1.52641 1.05091H6.20646L0.16724 7.09013C0.115615 7.13823 0.0742077 7.19624 0.0454885 7.2607C0.0167693 7.32515 0.0013266 7.39473 8.17745e-05 7.46528C-0.00116305 7.53584 0.0118156 7.60592 0.0382431 7.67135C0.0646707 7.73677 0.104006 7.79621 0.153902 7.84611C0.203798 7.896 0.263233 7.93534 0.328662 7.96176C0.39409 7.98819 0.464171 8.00117 0.534724 7.99993C0.605277 7.99868 0.674856 7.98324 0.739311 7.95452C0.803767 7.9258 0.861777 7.88439 0.909882 7.83277L6.9491 1.79355V6.47359C6.9491 6.61295 7.00446 6.7466 7.103 6.84514C7.20154 6.94369 7.33519 6.99905 7.47455 6.99905C7.61391 6.99905 7.74756 6.94369 7.8461 6.84514C7.94465 6.7466 8.00001 6.61295 8.00001 6.47359V0.525454C7.99964 0.455608 7.98535 0.386537 7.95797 0.322278C7.91984 0.232701 7.85787 0.155293 7.77882 0.0984722C7.69976 0.0416514 7.60664 0.00759299 7.50958 0H1.52641Z" fill="#22C55E"/>
</svg>
