<svg width="18" height="17" viewBox="0 0 18 17" fill="none" xmlns="http://www.w3.org/2000/svg">
  <path d="M15.75 3.0035H12V1.7535C11.9641 1.25728 11.7339 0.795249 11.3595 0.467633C10.9851 0.140017 10.4966 -0.0267542 10 0.00350102H7.5C7.00341 -0.0267542 6.51491 0.140017 6.14049 0.467633C5.76607 0.795249 5.53593 1.25728 5.5 1.7535V3.0035H1.75C1.28668 3.00613 0.843085 3.19134 0.515464 3.51896C0.187842 3.84659 0.0026251 4.29018 0 4.7535V14.7535C0.0026251 15.2168 0.187842 15.6604 0.515464 15.988C0.843085 16.3157 1.28668 16.5009 1.75 16.5035H15.75C16.2133 16.5009 16.6569 16.3157 16.9845 15.988C17.3122 15.6604 17.4974 15.2168 17.5 14.7535V4.7535C17.4974 4.29018 17.3122 3.84659 16.9845 3.51896C16.6569 3.19134 16.2133 3.00613 15.75 3.0035ZM7 1.7535C7 1.6735 7.19 1.5035 7.5 1.5035H10C10.31 1.5035 10.5 1.6735 10.5 1.7535V3.0035H7V1.7535ZM1.75 4.5035H15.75C15.8163 4.5035 15.8799 4.52984 15.9268 4.57672C15.9737 4.62361 16 4.6872 16 4.7535V8.0035H1.5V4.7535C1.5 4.6872 1.52634 4.62361 1.57322 4.57672C1.62011 4.52984 1.6837 4.5035 1.75 4.5035ZM5.5 9.5035H12V11.0035H5.5V9.5035ZM15.75 15.0035H1.75C1.6837 15.0035 1.62011 14.9772 1.57322 14.9303C1.52634 14.8834 1.5 14.8198 1.5 14.7535V9.5035H4V11.7535C4.00259 11.9516 4.08244 12.1409 4.22253 12.281C4.36263 12.4211 4.55189 12.5009 4.75 12.5035H12.75C12.9481 12.5009 13.1374 12.4211 13.2775 12.281C13.4176 12.1409 13.4974 11.9516 13.5 11.7535V9.5035H16V14.7535C16 14.8198 15.9737 14.8834 15.9268 14.9303C15.8799 14.9772 15.8163 15.0035 15.75 15.0035Z" fill="black"/>
</svg>
